<?xml version="1.0" standalone="no"?>
<!DOCTYPE svg PUBLIC "-//W3C//DTD SVG 20010904//EN"
 "http://www.w3.org/TR/2001/REC-SVG-20010904/DTD/svg10.dtd">
<svg version="1.0" xmlns="http://www.w3.org/2000/svg"
 width="5734.000000pt" height="3837.000000pt" viewBox="0 0 5734.000000 3837.000000"
 preserveAspectRatio="xMidYMid meet">
<metadata>
Created by potrace 1.16, written by Peter Selinger 2001-2019
</metadata>
<g transform="translate(0.000000,3837.000000) scale(0.100000,-0.100000)"
fill="#000000" stroke="none">
<path d="M12144 34842 c-1281 -939 -3100 -2273 -3739 -2741 -3569 -2614 -4786
-3502 -4990 -3643 -60 -42 -236 -156 -390 -253 -310 -197 -398 -259 -467 -329
-55 -57 -78 -100 -78 -151 0 -83 61 -135 218 -185 103 -34 132 -37 132 -15 0
8 13 29 29 47 l28 32 -91 23 c-117 30 -200 70 -204 100 -7 47 134 163 388 323
308 193 615 402 975 665 1169 851 4633 3387 8233 6028 l1113 817 1142 -165
c6215 -894 10142 -1493 10723 -1636 398 -97 750 -266 987 -474 262 -229 417
-464 489 -742 26 -102 31 -141 35 -286 9 -265 -14 -387 -147 -786 -134 -404
-235 -632 -348 -790 -108 -150 -226 -261 -607 -571 -346 -282 -594 -494 -1145
-979 -403 -354 -1549 -1372 -1935 -1717 -104 -93 -361 -322 -570 -509 -2269
-2027 -4894 -4398 -5331 -4816 -121 -115 -190 -167 -301 -223 -316 -158 -783
-192 -1603 -115 -446 42 -1102 120 -1290 153 -904 162 -2504 538 -6740 1588
-2642 654 -3614 885 -3884 923 -55 8 -159 21 -231 31 -346 44 -491 128 -455
266 29 108 122 221 386 468 279 261 831 785 976 928 l118 115 0 69 c0 39 -4
68 -9 66 -5 -1 -231 -214 -502 -473 -272 -258 -576 -548 -676 -643 -218 -207
-273 -266 -328 -352 -58 -90 -80 -153 -79 -225 1 -100 57 -176 171 -234 49
-24 181 -63 274 -80 l66 -13 -5 -52 c-9 -112 64 -173 273 -226 l69 -18 18 39
c11 26 29 45 53 56 34 16 40 16 143 -5 59 -12 557 -114 1107 -226 2143 -439
2149 -440 3135 -685 509 -126 1132 -279 1385 -342 253 -62 455 -114 449 -116
-6 -2 -51 5 -100 16 -49 11 -199 43 -334 71 -135 28 -276 57 -314 66 -72 16
-1059 221 -1806 375 -239 49 -457 94 -485 100 -87 18 -573 118 -745 154 -91
18 -343 70 -560 115 -217 44 -557 114 -755 155 -198 41 -481 99 -630 129 -148
30 -303 62 -343 70 -40 9 -74 16 -75 16 -1 0 61 -64 138 -142 78 -79 168 -177
201 -218 215 -266 344 -526 375 -755 19 -147 -4 -283 -86 -500 -13 -33 51 30
111 112 33 43 57 88 63 115 47 211 8 429 -124 693 -78 156 -149 263 -285 428
-44 53 -77 97 -73 97 7 0 341 -68 888 -180 132 -27 276 -55 320 -61 285 -38
581 -99 970 -197 88 -23 347 -79 575 -126 369 -76 611 -126 1720 -356 3355
-696 5514 -1167 6095 -1329 99 -27 280 -75 403 -106 925 -231 1412 -434 1696
-706 257 -245 347 -504 318 -916 -28 -395 -102 -637 -243 -788 -112 -119 -226
-157 -474 -156 -157 0 -273 15 -530 66 -45 9 -167 15 -345 18 l-275 5 185 -38
c102 -21 309 -63 460 -92 l275 -53 225 0 c243 0 282 6 395 62 251 125 385 419
425 932 14 182 13 268 -5 386 -69 463 -369 781 -975 1036 -246 103 -535 190
-1278 385 -144 38 -253 70 -242 72 11 2 170 -13 353 -33 326 -35 336 -37 542
-95 1015 -286 1489 -610 1665 -1138 50 -152 64 -268 57 -496 -13 -491 -117
-828 -317 -1026 -159 -158 -369 -221 -690 -207 -151 7 -255 24 -804 133 -1231
244 -2897 596 -8516 1799 -1191 255 -2320 496 -2510 535 -190 39 -397 85 -461
100 -273 67 -389 144 -389 257 0 52 28 94 97 144 89 65 289 273 373 387 192
262 287 493 297 722 l6 115 -79 -75 c-44 -41 -259 -246 -479 -455 -220 -210
-474 -450 -565 -535 -292 -273 -386 -378 -442 -496 -54 -115 -47 -216 20 -294
87 -103 253 -161 557 -194 77 -9 171 -21 208 -27 l69 -11 -6 -34 c-18 -92 76
-173 252 -219 78 -20 92 -19 92 4 0 11 14 33 31 50 23 24 40 31 68 31 63 0
1721 -344 2073 -430 183 -45 702 -173 1153 -285 451 -112 916 -227 1034 -256
118 -29 209 -55 204 -56 -6 -2 -42 3 -79 12 -87 20 -354 77 -784 165 -184 38
-391 80 -460 95 -69 14 -332 69 -585 121 -437 90 -609 125 -1112 229 -120 24
-373 76 -563 115 -190 39 -455 93 -590 121 -135 27 -249 51 -255 53 -5 2 53
-60 130 -137 317 -320 490 -600 549 -889 30 -144 15 -282 -49 -466 l-33 -97
52 57 c103 112 124 153 138 260 37 294 -106 657 -395 1003 -43 50 -70 91 -63
93 7 1 244 -45 527 -103 283 -58 555 -110 604 -115 228 -26 639 -112 1030
-214 50 -13 452 -99 895 -191 443 -91 911 -188 1040 -215 129 -27 539 -113
910 -190 691 -144 1345 -282 1548 -325 62 -14 126 -22 140 -19 21 4 24 3 12
-5 -12 -9 -9 -11 15 -13 17 -1 40 -1 53 0 12 0 22 -3 22 -7 0 -7 72 -24 195
-47 38 -7 820 -183 1219 -274 471 -107 736 -165 1171 -255 176 -37 365 -77
420 -90 55 -13 114 -22 130 -20 17 3 21 2 10 -2 -22 -6 232 -78 525 -149 299
-71 353 -86 749 -209 467 -145 774 -292 990 -476 172 -146 296 -366 331 -584
14 -88 14 -300 0 -447 -47 -482 -208 -740 -491 -788 -46 -8 -133 -11 -243 -7
-142 3 -202 10 -356 40 -177 34 -195 36 -405 37 -121 0 -245 2 -275 5 -65 5
437 -98 730 -150 198 -36 211 -37 390 -33 202 5 272 20 375 78 184 105 297
315 356 665 26 156 37 500 19 612 -84 530 -497 870 -1385 1142 -194 60 -682
191 -716 192 -17 1 -19 3 -6 6 9 2 160 -10 335 -27 347 -34 403 -46 682 -147
812 -294 1182 -688 1217 -1293 3 -58 0 -175 -6 -260 -62 -804 -349 -1119 -986
-1086 -243 13 -1092 183 -4240 851 -1192 253 -1676 356 -5005 1069 -1092 233
-2097 448 -2235 476 -320 66 -523 115 -602 147 -123 49 -183 112 -183 192 0
55 27 100 82 136 106 69 350 338 452 497 134 211 233 515 209 644 l-8 41 -330
-315 c-181 -173 -485 -462 -674 -641 -352 -332 -438 -427 -493 -535 -39 -78
-49 -174 -24 -240 43 -111 195 -188 459 -231 l106 -18 -33 -41 c-46 -56 -56
-79 -56 -121 0 -83 61 -135 218 -185 51 -17 96 -30 100 -30 5 0 16 16 25 35
20 42 57 67 99 67 32 0 317 -58 2283 -462 861 -177 2724 -563 2899 -600 50
-11 213 -45 361 -75 149 -31 558 -126 910 -211 2421 -587 3533 -831 4025 -884
155 -17 1027 -248 1335 -354 757 -259 1148 -585 1273 -1061 42 -158 51 -313
32 -551 -25 -309 -87 -544 -192 -722 -53 -90 -170 -201 -263 -249 -139 -72
-218 -87 -450 -88 -225 0 -194 -5 -920 140 -1182 235 -2958 611 -8015 1694
-2207 473 -2403 514 -2802 597 -473 97 -608 165 -608 304 0 56 21 91 78 133
80 57 238 214 324 321 104 129 159 215 224 351 76 158 106 265 111 400 l5 110
-49 -46 c-26 -25 -244 -232 -483 -460 -240 -228 -510 -483 -600 -567 -252
-235 -343 -345 -390 -468 -55 -147 9 -273 175 -344 101 -43 175 -58 570 -111
239 -32 1142 -246 3665 -871 4487 -1111 5977 -1460 6750 -1583 104 -16 907
-105 1170 -129 714 -66 1165 -37 1487 94 140 58 230 119 381 259 318 296 473
439 932 856 1818 1653 5272 4747 6710 6010 514 452 742 647 1035 885 511 415
628 541 761 817 97 200 290 756 333 953 133 621 -79 1167 -604 1555 -88 65
-181 122 -291 179 l-84 44 112 93 c210 174 364 336 452 477 89 143 193 392
307 737 130 392 155 525 146 785 -8 224 -42 364 -133 556 -124 262 -367 518
-653 691 -44 26 -80 51 -81 54 0 3 93 82 208 175 252 205 475 424 556 546 118
179 201 371 338 778 134 400 161 532 162 780 0 192 -17 300 -70 460 -77 231
-188 405 -379 595 -136 136 -227 206 -401 311 -58 34 -106 65 -107 67 -1 3 36
37 83 77 364 311 485 507 692 1119 151 448 180 582 179 835 -1 418 -143 752
-450 1056 -276 275 -654 475 -1116 593 -517 132 -3337 568 -9010 1393 -809
117 -2934 424 -2940 424 -1 0 -510 -373 -1131 -828z m13810 -4877 c42 -27 54
-40 51 -55 -2 -12 0 -18 6 -15 5 4 7 11 4 16 -11 16 6 10 46 -18 39 -28 39
-28 34 -83 -11 -105 -27 -180 -38 -173 -6 3 -7 1 -3 -6 11 -17 -3 -73 -16 -65
-7 4 -8 2 -4 -5 9 -15 -3 -53 -15 -46 -5 3 -6 -1 -3 -9 6 -15 -31 -96 -50
-108 -6 -4 -8 -8 -3 -8 16 0 -60 -125 -142 -233 -33 -45 -46 -56 -53 -45 -7
10 -8 8 -4 -5 4 -13 -7 -33 -35 -65 -23 -26 -46 -46 -51 -44 -5 1 -7 -2 -4 -7
9 -15 -276 -282 -293 -276 -9 3 -12 3 -8 -1 10 -10 -13 -35 -26 -27 -5 3 -7 2
-4 -4 6 -10 -136 -132 -339 -291 -75 -59 -98 -72 -105 -61 -6 10 -9 11 -10 2
-3 -23 -4 -28 -13 -41 -4 -7 -15 -11 -23 -8 -8 3 -12 2 -9 -3 3 -5 -19 -27
-49 -50 -36 -27 -56 -37 -61 -29 -4 7 -3 8 5 4 7 -5 10 -2 9 6 -2 7 2 12 9 11
6 -1 10 5 8 15 -4 26 4 33 26 22 13 -8 19 -7 19 0 0 6 4 9 8 6 5 -3 9 1 9 9 0
8 -4 12 -8 9 -4 -2 -9 -1 -12 3 -2 5 -2 2 0 -6 2 -9 -3 -12 -17 -8 -11 3 -23
1 -26 -4 -3 -5 -13 -8 -21 -7 -9 2 -17 -3 -19 -10 -1 -7 0 -8 3 -2 2 5 9 7 14
4 6 -3 4 -16 -6 -30 -9 -14 -13 -28 -11 -33 5 -8 -135 -121 -149 -121 -3 0 -1
9 5 20 9 17 8 19 -7 13 -16 -6 -16 -5 -4 10 12 15 12 17 -3 11 -17 -6 -23 -34
-7 -34 13 0 8 -27 -8 -43 -10 -9 -15 -8 -26 7 -12 16 -17 17 -30 6 -8 -7 -12
-16 -9 -22 3 -5 11 -5 19 2 8 7 15 7 19 1 8 -12 -124 -107 -143 -103 -7 2 -10
-1 -7 -7 7 -11 -33 -43 -46 -35 -5 3 -7 1 -6 -5 2 -5 -43 -44 -100 -85 -99
-74 -120 -86 -107 -67 3 5 1 12 -5 16 -5 3 -10 11 -10 17 0 6 7 5 17 -3 15
-12 16 -12 10 5 -7 17 -6 17 10 5 15 -12 16 -12 10 6 -7 19 -6 19 7 2 9 -12
16 -14 21 -8 3 6 1 11 -5 11 -6 0 -9 4 -5 9 7 12 -26 7 -54 -8 -14 -8 -21 -8
-25 2 -3 6 -4 3 -3 -8 1 -11 9 -25 17 -32 13 -11 13 -12 0 -13 -12 0 -12 -2
-2 -9 10 -6 2 -16 -29 -40 -32 -23 -45 -28 -51 -18 -6 8 -8 7 -6 -5 3 -19 -60
-71 -75 -61 -6 3 -7 1 -4 -4 4 -6 -10 -23 -31 -39 -20 -15 -66 -50 -100 -78
-35 -28 -65 -49 -66 -46 -2 3 -16 -10 -31 -28 -25 -30 -30 -32 -43 -18 -13 13
-18 13 -38 -1 -13 -8 -24 -19 -24 -24 0 -14 22 -10 42 8 10 9 18 12 18 6 0
-13 -340 -296 -356 -296 -7 0 -11 -4 -9 -7 6 -10 -266 -235 -285 -235 -8 0
-15 -6 -15 -13 0 -16 -296 -263 -307 -256 -5 3 -7 1 -6 -3 5 -15 -131 -126
-155 -127 -11 -1 -22 -8 -24 -16 -4 -13 -3 -13 6 0 5 8 13 12 16 8 8 -8 -95
-89 -106 -82 -5 3 -8 1 -7 -5 4 -15 -272 -242 -285 -234 -5 3 -7 1 -4 -4 12
-20 -18 -34 -48 -23 -33 12 -48 5 -40 -21 7 -21 -13 -23 -27 -4 -5 6 -8 5 -8
-3 0 -19 28 -26 46 -12 11 10 12 15 3 20 -8 6 -8 9 0 14 6 4 11 3 11 -3 0 -6
7 -8 15 -5 29 12 14 -5 -70 -75 -49 -42 -90 -69 -97 -65 -6 4 -8 3 -5 -3 4 -6
-49 -57 -120 -115 -69 -56 -152 -125 -185 -151 -35 -29 -63 -45 -71 -41 -6 4
-9 3 -4 -1 4 -5 -3 -19 -15 -32 -25 -27 -47 -31 -27 -5 13 15 12 16 -3 3 -10
-7 -16 -17 -13 -21 6 -10 -183 -166 -196 -163 -5 2 -8 -1 -6 -5 3 -12 -772
-644 -783 -637 -5 3 -12 0 -16 -6 -5 -8 -2 -10 7 -5 8 4 -1 -6 -19 -23 -18
-18 -38 -29 -44 -25 -6 4 -8 3 -5 -3 4 -6 0 -17 -9 -24 -13 -10 -17 -10 -26 2
-8 11 -9 11 -4 -3 4 -13 -45 -58 -202 -186 -114 -93 -247 -203 -296 -245 -49
-42 -93 -74 -98 -71 -5 3 -7 1 -6 -4 4 -15 -213 -203 -225 -195 -5 3 -7 2 -4
-4 3 -5 -36 -49 -88 -97 -77 -71 -98 -85 -112 -77 -21 10 -46 -4 -51 -29 -1
-10 4 -8 16 6 9 11 23 19 31 16 14 -5 -95 -122 -114 -122 -5 0 -3 5 5 11 13 9
13 10 0 6 -8 -2 -14 -9 -13 -15 4 -16 -569 -547 -588 -546 -10 0 -15 -4 -12
-9 6 -9 -85 -107 -100 -107 -4 0 -5 5 -1 12 4 7 3 8 -4 4 -8 -5 -11 0 -9 16 2
13 9 24 15 24 24 3 26 4 13 17 -22 22 -50 -45 -29 -70 6 -8 9 -15 7 -16 -2 -1
-30 -26 -62 -55 -33 -31 -62 -50 -69 -46 -6 4 -8 3 -4 -4 8 -13 -103 -114
-117 -105 -6 3 -7 2 -4 -4 5 -9 -86 -94 -256 -237 -54 -46 -71 -55 -85 -47 -9
6 -12 11 -7 11 11 0 -15 20 -27 20 -4 0 -12 -8 -17 -19 -8 -14 -6 -22 8 -35
14 -13 21 -14 27 -5 4 7 3 10 -3 6 -6 -4 -13 3 -16 15 -8 31 -2 33 22 9 l20
-20 -99 -81 c-69 -55 -104 -78 -115 -73 -16 5 -16 7 -1 15 9 5 21 6 26 3 6 -3
10 -1 10 6 0 6 -8 9 -20 6 -10 -3 -21 0 -23 7 -3 6 -8 3 -12 -8 -6 -13 -3 -23
8 -31 15 -11 15 -14 -4 -31 -20 -18 -21 -18 -35 1 -11 15 -17 16 -26 7 -9 -9
-8 -12 4 -12 9 0 19 -4 22 -9 10 -16 -446 -348 -476 -348 -19 0 -25 16 -8 18
6 1 14 2 19 3 24 3 18 12 -8 12 -22 0 -28 -4 -27 -20 1 -12 7 -20 14 -18 23 4
12 -5 -70 -60 -122 -81 -171 -111 -164 -99 4 7 1 8 -8 5 -9 -3 -14 -10 -11
-14 8 -12 -103 -73 -116 -64 -8 4 -9 3 -5 -5 5 -8 -42 -35 -146 -85 -145 -70
-212 -98 -196 -81 4 4 3 16 -3 26 -7 14 -16 18 -34 13 -19 -5 -25 -2 -25 11 0
11 5 15 15 11 8 -3 14 -2 12 2 -2 7 6 12 23 12 6 0 9 -5 8 -11 -2 -6 3 -13 10
-14 7 -2 8 -1 2 2 -6 3 -3 12 8 21 9 10 13 14 8 10 -6 -5 -13 -8 -17 -8 -10 0
-6 24 4 27 4 1 15 9 23 18 9 8 21 15 28 15 7 0 13 6 13 13 0 8 -50 -18 -117
-62 -64 -42 -117 -82 -117 -88 0 -17 -2 -18 37 17 18 16 36 27 39 24 3 -3 -1
-11 -10 -18 -14 -10 -15 -15 -4 -29 8 -11 19 -15 30 -10 16 6 16 7 -5 15 -31
11 -13 30 32 33 31 3 32 2 13 -12 -20 -15 -19 -15 2 -8 18 5 22 3 17 -9 -7
-18 -128 -60 -150 -52 -8 3 -13 2 -10 -3 12 -19 -259 -63 -374 -60 -72 2 -81
5 -227 77 -83 42 -149 80 -147 84 3 4 -2 5 -10 2 -8 -3 -23 -1 -33 5 -14 9 -2
11 52 8 39 -2 81 -7 95 -11 19 -6 21 -5 10 3 -13 9 -13 10 0 15 13 4 99 12
230 21 19 2 46 7 60 13 14 6 68 20 120 32 191 45 394 142 514 247 24 21 140
128 257 238 495 463 2233 2035 4169 3770 1049 941 1268 1135 1455 1294 99 85
184 160 188 167 4 8 14 14 22 14 8 0 27 16 42 35 29 36 153 150 140 127 -5 -6
-5 -12 -2 -12 7 0 285 230 285 236 0 2 -7 4 -15 4 -8 0 -14 -5 -12 -12 1 -7
-4 -12 -11 -13 -6 0 -23 -13 -37 -29 -14 -16 -25 -26 -25 -21 0 4 -12 -6 -27
-22 -16 -16 -55 -51 -88 -78 l-60 -48 50 49 c28 27 136 125 240 218 105 92
210 186 234 207 43 39 61 45 69 21 2 -7 -2 -10 -12 -6 -9 3 -16 1 -16 -5 0 -6
-3 -10 -7 -9 -11 4 -63 -44 -58 -52 5 -9 -22 -34 -39 -36 -6 0 -17 -2 -23 -2
-7 -1 -13 -9 -13 -18 0 -8 -4 -13 -9 -9 -5 3 -13 0 -17 -6 -4 -8 -3 -9 4 -5 7
4 12 2 12 -3 0 -10 -14 -15 -33 -12 -5 1 -5 -4 -1 -10 5 -9 2 -10 -10 -6 -10
4 -15 3 -11 -3 3 -6 2 -10 -4 -10 -6 0 -15 -10 -22 -21 -12 -24 -1 -20 36 12
11 10 61 51 110 91 224 183 325 269 325 278 0 6 4 9 9 8 7 -3 199 149 294 232
27 24 28 27 11 40 -16 14 -17 13 -12 -8 4 -15 2 -20 -5 -15 -16 10 -58 10 -48
0 4 -4 17 -9 29 -10 11 0 19 -5 16 -9 -3 -4 -12 -4 -21 -1 -9 4 -14 2 -10 -3
3 -6 -3 -15 -14 -22 -11 -7 -19 -8 -19 -2 0 17 5 25 13 22 5 -1 6 2 2 8 -5 8
-11 8 -21 -1 -10 -8 -11 -16 -3 -32 9 -17 9 -19 -4 -14 -12 4 -15 1 -11 -11 5
-14 2 -13 -11 3 -17 20 -17 20 -12 -5 6 -24 6 -24 -9 -5 l-16 20 2 -20 c3 -31
1 -45 -7 -43 -5 0 -25 -6 -45 -15 -21 -10 -42 -17 -47 -17 -5 0 -7 -8 -5 -17
2 -10 -8 -31 -22 -48 -15 -16 -24 -22 -21 -13 4 10 3 20 -2 22 -8 5 -44 -31
-49 -49 -2 -5 -11 -9 -20 -7 -15 2 -15 1 -2 -7 11 -8 11 -11 2 -11 -7 0 -10
-5 -6 -12 4 -7 3 -8 -4 -4 -7 4 -12 2 -12 -5 0 -8 -3 -9 -14 0 -11 9 -12 6 -8
-15 3 -19 0 -26 -16 -31 -12 -3 -28 -16 -37 -30 -13 -19 -19 -22 -30 -13 -10
8 -14 8 -18 -2 -2 -7 -8 -10 -11 -6 -8 6 28 45 112 121 23 21 42 35 42 32 0
-3 14 10 31 30 24 27 35 33 44 25 10 -9 12 -7 9 7 -2 12 14 32 52 63 31 25 60
44 66 42 5 -1 7 2 4 6 -8 14 31 45 45 36 7 -4 10 -3 6 3 -10 16 151 159 164
146 14 -14 -27 -57 -47 -49 -21 8 -17 -3 8 -24 22 -18 23 -17 88 37 36 30 166
137 291 238 124 101 237 195 252 209 27 25 35 46 17 46 -5 0 -10 -9 -10 -19 0
-23 -18 -32 -41 -20 -8 4 -22 3 -30 -2 -12 -8 -12 -9 1 -9 10 0 11 -3 2 -12
-13 -13 -42 6 -42 29 0 10 -6 8 -22 -7 -22 -21 -18 -41 5 -22 10 8 13 6 14 -9
1 -11 -2 -17 -8 -14 -5 4 -5 -4 1 -19 5 -14 7 -26 4 -26 -13 0 -44 22 -44 31
0 6 6 7 13 3 8 -5 7 -2 -2 9 -11 14 -17 15 -28 5 -13 -10 -13 -13 1 -24 22
-16 20 -27 -4 -19 -12 4 -20 2 -20 -5 0 -6 6 -8 13 -4 6 4 9 4 5 -1 -4 -4 -3
-15 2 -25 14 -26 -33 -46 -55 -23 -15 15 -16 14 -13 -3 2 -13 -2 -19 -14 -18
-10 1 -15 -3 -12 -8 3 -5 12 -7 20 -4 16 6 19 -10 3 -19 -5 -4 -18 0 -27 7
-34 29 -45 32 -33 9 7 -11 8 -21 2 -21 -5 0 -12 8 -15 17 -5 11 5 29 31 55 20
20 38 36 40 34 2 -2 20 13 41 33 96 92 175 160 170 145 -2 -5 2 -10 7 -11 6
-2 10 6 10 17 0 10 20 36 45 57 25 21 47 41 48 45 2 5 9 8 15 8 8 0 8 -3 0
-11 -6 -6 -9 -17 -7 -23 6 -16 -31 -49 -48 -44 -7 3 -18 -1 -25 -8 -16 -16
-16 -21 0 -21 7 0 25 -3 40 -7 38 -9 34 1 -5 14 l-33 10 32 -3 c19 -2 30 1 26
7 -4 5 0 7 8 4 11 -4 15 2 14 26 0 17 4 37 9 44 4 6 5 12 1 12 -4 0 -2 7 5 15
11 14 14 13 25 -2 7 -9 23 -18 36 -20 49 -7 52 -12 20 -39 -17 -14 -38 -24
-46 -21 -9 4 -12 1 -8 -9 4 -10 0 -12 -11 -8 -14 6 -21 -5 -17 -28 0 -5 -4 -8
-11 -8 -6 0 -9 -3 -5 -6 3 -3 77 52 164 123 87 70 188 152 226 181 37 30 67
58 67 63 0 5 3 8 8 7 12 -4 101 66 102 80 0 6 4 11 9 10 8 -3 136 86 145 101
9 14 -42 10 -54 -4 -13 -15 -35 -21 -26 -7 2 4 0 14 -5 22 -8 11 -12 12 -15 3
-4 -9 -11 -9 -29 -1 -14 6 -22 15 -18 20 3 6 -5 5 -17 -2 -34 -18 -13 -28 63
-31 15 0 16 -3 6 -15 -9 -12 -15 -12 -28 -2 -14 12 -14 11 -2 -4 7 -10 17 -15
22 -12 5 3 9 1 9 -5 0 -5 -9 -13 -20 -16 -11 -3 -20 -11 -20 -17 0 -6 -3 -8
-6 -5 -4 3 -15 2 -25 -4 -15 -7 -19 -6 -19 6 0 8 -5 15 -11 15 -6 0 -9 9 -6
20 3 11 1 20 -5 20 -5 0 -6 5 -2 12 4 7 3 8 -5 4 -6 -4 -9 -16 -6 -26 3 -10 1
-21 -4 -25 -7 -4 -8 1 -4 11 4 12 3 15 -5 10 -20 -12 -13 -34 14 -40 18 -5 23
-11 17 -19 -5 -7 -8 -22 -7 -34 2 -26 -25 -53 -54 -56 -11 0 -18 -5 -16 -9 7
-11 -14 -30 -47 -45 -20 -9 -30 -9 -40 0 -8 7 -11 8 -7 4 3 -5 -14 -26 -38
-49 -24 -22 -46 -48 -49 -58 -4 -12 -12 -17 -23 -14 -14 5 -15 4 -2 -5 14 -10
7 -16 -13 -12 -5 1 -6 -3 -2 -9 10 -16 -38 -7 -53 10 -8 8 -11 10 -8 4 4 -8
-3 -11 -19 -10 -14 0 -23 6 -21 11 2 6 9 9 15 7 7 -1 9 3 5 9 -4 7 0 9 12 5
11 -3 26 -1 34 5 13 9 12 10 -3 5 -10 -3 -15 -2 -12 3 3 5 0 13 -5 16 -19 12
18 43 43 38 18 -4 19 -3 7 6 -10 7 -11 11 -3 11 7 0 12 6 10 13 -1 6 6 11 15
11 10 -1 16 2 13 6 -4 7 30 41 70 71 18 13 19 13 7 -3 -10 -13 -10 -17 0 -21
7 -3 0 -6 -15 -6 -23 -1 -28 -5 -25 -23 2 -15 -2 -22 -10 -20 -8 1 -11 -2 -7
-8 3 -5 1 -10 -5 -10 -6 0 -8 -4 -5 -10 3 -6 16 0 28 14 12 12 29 25 37 28 8
2 15 16 16 29 2 53 4 59 23 59 11 0 23 4 26 10 3 6 -1 7 -12 4 -10 -3 -3 8 17
25 19 17 40 29 47 27 7 -3 15 0 19 6 5 7 2 8 -6 3 -8 -5 -11 -3 -8 6 3 8 11
13 17 12 6 -2 11 1 11 6 0 9 218 196 352 304 44 35 47 36 50 15 3 -21 4 -21
18 -3 9 11 10 16 3 11 -8 -4 -13 -2 -13 8 0 16 55 66 73 66 7 -1 2 -9 -10 -19
l-21 -18 29 0 c16 0 29 4 29 9 0 5 -4 7 -9 3 -6 -3 -9 5 -8 18 1 12 18 37 37
54 l35 32 82 -44 c45 -24 106 -60 137 -80z m-1685 -1147 c-1 -1 3 -14 10 -27
8 -14 9 -21 2 -17 -6 4 -11 1 -11 -8 0 -8 -8 -20 -17 -25 -10 -6 -13 -10 -8
-10 26 0 72 59 66 84 -1 6 5 3 15 -7 16 -16 11 -44 -7 -33 -5 4 -9 2 -9 -4 0
-5 -34 -37 -76 -70 -58 -46 -80 -58 -90 -51 -9 9 -11 7 -7 -8 3 -14 -4 -26
-21 -38 -15 -11 -39 -29 -54 -41 -15 -13 -31 -23 -37 -23 -5 0 -3 5 5 10 12 8
12 10 1 10 -8 0 -11 3 -8 7 4 3 2 12 -3 18 -8 10 8 30 61 78 40 37 76 64 81
61 5 -3 7 -1 6 4 -3 9 94 103 100 97 2 -2 3 -5 1 -7z m1185 -2694 c49 -49 -30
-209 -197 -397 -87 -97 -325 -309 -339 -301 -6 4 -8 3 -5 -3 4 -6 -39 -51 -96
-99 -661 -571 -1101 -943 -1110 -937 -5 3 -7 1 -4 -4 8 -13 -77 -85 -88 -75
-3 4 -5 2 -3 -4 3 -10 -190 -178 -763 -664 -107 -91 -225 -192 -264 -225 -38
-33 -169 -144 -290 -247 -121 -102 -287 -243 -370 -313 -82 -70 -159 -134
-170 -144 -11 -9 -99 -84 -196 -166 -96 -83 -197 -169 -225 -191 -27 -23 -175
-148 -329 -279 -154 -130 -287 -242 -295 -248 -8 -7 -52 -44 -96 -82 -45 -39
-132 -113 -194 -165 -63 -52 -148 -124 -190 -160 -42 -36 -100 -85 -130 -110
-140 -117 -280 -236 -330 -279 -55 -47 -122 -103 -749 -629 -780 -654 -851
-713 -863 -706 -6 4 -8 3 -4 -4 7 -11 -374 -332 -1029 -868 -332 -271 -336
-275 -347 -267 -6 3 -8 1 -5 -4 4 -6 -28 -37 -70 -69 -42 -33 -90 -71 -107
-85 -17 -14 -73 -56 -125 -92 -212 -152 -412 -259 -518 -279 -54 -10 -65 -9
-87 6 -21 13 -26 25 -26 55 0 54 8 71 35 71 42 0 216 40 306 70 194 65 316
142 500 317 230 217 885 816 1684 1538 176 159 345 311 375 339 1198 1086
4850 4353 5009 4480 36 29 159 129 272 222 561 459 720 585 731 578 6 -4 8 -3
5 3 -6 10 147 136 330 270 184 136 323 192 367 147z m-35 -3195 c112 -59 288
-171 304 -193 11 -16 -2 -129 -28 -231 -60 -237 -233 -498 -498 -750 -140
-135 -410 -360 -632 -530 -181 -139 -192 -147 -560 -420 -385 -285 -542 -408
-896 -703 -759 -632 -1583 -1311 -2728 -2247 -729 -596 -947 -783 -1322 -1131
-129 -120 -352 -328 -495 -460 -634 -590 -979 -875 -1469 -1214 -486 -337
-838 -485 -1199 -506 l-101 -6 -195 95 c-107 52 -253 118 -325 147 -71 29
-131 53 -132 54 -1 0 114 1 255 2 352 1 532 27 762 110 174 62 268 125 466
311 445 418 2630 2397 3670 3323 132 118 600 537 1040 931 2459 2201 3910
3476 3958 3479 5 0 61 -28 125 -61z"/>
<path d="M19159 23853 c-18 -21 -34 -36 -35 -33 -1 3 -79 -60 -174 -140 -94
-80 -183 -155 -198 -167 -25 -21 -25 -22 -5 -20 12 0 19 5 16 11 -4 5 1 7 10
3 12 -4 14 -2 10 10 -5 12 -1 14 14 9 22 -7 59 26 48 43 -6 11 2 14 37 14 10
0 15 4 12 8 -3 5 5 8 17 6 31 -5 61 -45 53 -71 -4 -12 -5 -19 -3 -16 2 3 15
18 29 34 14 16 19 26 13 22 -16 -9 -53 11 -49 27 1 6 1 9 -1 4 -3 -4 -9 -5
-14 -1 -5 3 -4 14 3 27 7 12 11 26 10 31 -2 5 4 6 13 3 8 -4 15 -2 15 3 0 5
-8 11 -17 14 -10 3 -6 4 10 2 21 -3 25 0 17 9 -15 18 37 54 69 49 17 -3 22 0
17 11 -3 8 -1 15 4 15 6 0 10 7 10 15 0 8 4 15 9 15 10 0 9 -19 -2 -37 -6 -9
-3 -11 8 -7 8 4 15 11 14 18 -4 29 2 57 10 51 6 -3 14 2 20 12 9 17 11 16 33
-2 l23 -20 -17 21 c-21 24 -24 41 -5 26 10 -9 13 -6 13 13 0 14 -1 25 -2 25
-1 0 -17 -17 -35 -37z"/>
<path d="M39810 33823 c-2610 -1914 -5124 -3756 -6300 -4614 -1292 -944 -1397
-1018 -1765 -1249 -330 -206 -449 -301 -487 -387 -37 -84 -8 -149 89 -201 51
-27 188 -72 219 -72 6 0 17 14 24 30 7 17 22 37 33 45 12 8 19 16 16 18 -2 2
-44 13 -93 26 -96 23 -173 57 -189 82 -24 38 105 152 345 305 567 363 473 297
1408 979 1072 782 2733 1998 6314 4624 1287 943 2349 1716 2360 1718 12 2 458
-59 991 -136 5691 -822 9064 -1331 10220 -1542 396 -72 635 -144 880 -265 168
-82 285 -158 416 -271 427 -367 585 -825 473 -1373 -39 -188 -221 -713 -318
-916 -140 -292 -228 -387 -741 -804 -434 -353 -711 -593 -2025 -1760 -1239
-1099 -3730 -3330 -4845 -4340 -82 -75 -247 -223 -365 -330 -720 -652 -1289
-1172 -1477 -1352 -133 -126 -221 -190 -336 -243 -302 -139 -752 -169 -1507
-99 -292 27 -1051 113 -1180 134 -386 64 -1164 232 -2235 484 -1040 245 -2054
492 -4635 1131 -2046 506 -3048 747 -3440 825 -58 11 -166 27 -240 35 -332 37
-514 98 -550 184 -27 67 17 174 123 295 26 31 217 217 425 413 207 197 490
466 629 598 l252 240 1 73 c0 41 -4 72 -9 70 -4 -1 -192 -179 -417 -394 -225
-214 -526 -500 -668 -635 -143 -134 -288 -280 -323 -324 -264 -331 -133 -539
382 -611 72 -10 131 -19 133 -20 2 -1 -6 -19 -17 -40 -65 -121 15 -217 223
-270 34 -8 69 -17 79 -20 12 -4 17 0 17 14 0 11 13 34 29 51 l29 31 -26 6
c-165 37 -255 74 -260 109 -4 29 54 95 83 95 37 0 470 -94 850 -185 655 -156
1310 -316 2500 -610 1523 -377 2968 -731 3833 -941 324 -79 427 -112 166 -54
-182 41 -1283 272 -2189 461 -1105 230 -1252 260 -1805 374 -283 58 -578 119
-655 135 -199 42 -750 155 -1630 334 -418 86 -769 158 -779 160 -11 3 23 -35
75 -83 233 -218 454 -523 541 -748 54 -138 70 -218 71 -343 0 -122 -17 -211
-69 -348 l-25 -67 32 30 c61 57 138 172 150 222 15 65 15 254 0 328 -16 79
-57 204 -93 284 -63 140 -211 363 -331 499 -26 29 -47 55 -47 58 0 2 10 2 23
-1 182 -41 1069 -217 1134 -225 103 -12 350 -54 443 -74 36 -8 99 -21 140 -30
41 -9 201 -48 355 -86 154 -38 480 -110 725 -160 467 -96 1938 -401 2510 -521
3084 -647 4434 -944 4935 -1084 88 -24 228 -61 310 -80 302 -72 429 -108 770
-216 606 -194 949 -400 1136 -683 116 -177 153 -317 152 -581 -1 -359 -62
-638 -179 -815 -51 -79 -81 -108 -157 -153 -93 -56 -175 -72 -367 -71 -162 1
-260 13 -483 60 -43 9 -157 15 -325 18 -141 3 -277 7 -302 10 -65 8 392 -86
680 -140 230 -43 256 -46 425 -47 285 -2 398 35 535 173 139 140 220 352 261
685 19 158 17 454 -5 550 -74 334 -251 565 -587 770 -288 176 -646 305 -1364
490 -121 32 -283 75 -360 96 -77 22 -210 57 -295 78 -251 63 -245 61 -175 56
33 -3 238 -25 455 -49 783 -89 1086 -109 1430 -95 292 11 456 38 642 105 185
67 267 124 520 360 396 370 1726 1579 2718 2468 85 77 459 412 830 745 1772
1592 3301 2954 4160 3707 525 460 660 575 923 787 l108 87 138 -70 c143 -73
292 -167 371 -235 112 -97 252 -250 314 -342 154 -232 219 -448 220 -728 0
-223 -21 -326 -141 -690 -235 -715 -323 -847 -853 -1279 -449 -366 -647 -535
-1350 -1155 -2017 -1779 -6488 -5797 -7308 -6566 -271 -255 -346 -315 -457
-370 -295 -144 -678 -181 -1355 -129 -341 26 -1127 112 -1365 150 -640 102
-2317 490 -5170 1194 -1063 263 -1278 316 -1800 445 -2558 633 -3310 809
-3570 835 -388 38 -565 111 -565 234 0 57 44 144 118 231 31 38 143 150 247
248 105 99 389 369 633 600 l442 421 0 68 c0 39 -4 68 -10 68 -6 0 -115 -100
-243 -222 -308 -296 -766 -731 -950 -903 -240 -225 -337 -362 -345 -491 -5
-71 9 -122 45 -165 85 -100 262 -160 578 -194 157 -17 334 -51 574 -108 141
-34 144 -36 193 -83 161 -156 360 -424 442 -597 134 -280 146 -505 41 -782
l-26 -70 31 30 c18 17 57 63 87 103 53 70 56 79 71 169 48 291 -98 666 -396
1023 -44 52 -77 96 -73 98 4 1 97 -16 207 -38 484 -99 612 -130 3119 -750
3995 -988 5480 -1335 6310 -1474 204 -35 1052 -127 1423 -156 123 -10 149 -16
332 -76 776 -253 1118 -536 1222 -1009 19 -85 15 -399 -6 -547 -62 -436 -201
-652 -458 -713 -42 -10 -116 -15 -223 -15 -160 0 -201 5 -490 59 -89 16 -161
21 -378 23 -148 2 -265 3 -260 1 26 -7 645 -127 787 -153 143 -25 194 -30 333
-30 192 0 285 16 388 65 252 121 382 416 417 943 35 529 -121 850 -554 1141
-144 96 -572 292 -600 275 -6 -4 -8 -3 -5 3 4 5 69 13 145 17 l139 7 97 -45
c422 -196 701 -463 822 -785 57 -150 77 -273 77 -461 0 -192 -15 -347 -48
-516 -89 -445 -297 -689 -641 -749 -136 -24 -351 -20 -529 10 -572 94 -2954
593 -8860 1859 -885 190 -1835 392 -2110 450 -275 58 -565 120 -645 137 -356
75 -500 156 -500 282 0 51 21 88 72 128 285 221 531 553 627 845 31 98 49 185
34 169 -6 -5 -135 -147 -289 -315 -273 -299 -583 -616 -796 -815 -115 -107
-133 -138 -107 -184 56 -100 281 -166 1714 -497 1933 -447 3962 -890 5515
-1203 874 -176 871 -175 2435 -532 1408 -321 2110 -460 2700 -533 526 -66 854
-58 1032 24 125 57 296 265 409 495 111 227 162 439 171 710 12 366 -86 735
-284 1075 -99 169 -195 269 -373 386 -127 85 -153 98 -200 104 l-45 6 97 32
c221 74 337 146 520 320 745 711 6014 5442 7888 7082 405 355 512 445 825 700
138 112 280 230 317 262 l68 60 87 -47 c180 -98 348 -230 487 -384 305 -338
408 -761 302 -1232 -50 -219 -223 -712 -321 -914 -129 -267 -233 -380 -700
-760 -312 -254 -437 -359 -815 -689 -1691 -1477 -7111 -6342 -7913 -7104 -151
-143 -225 -198 -339 -251 -208 -97 -395 -131 -760 -138 -371 -7 -544 5 -1343
92 -492 55 -650 78 -1031 155 -1074 217 -2407 536 -6989 1670 -2160 535 -2848
693 -3140 725 -276 30 -454 82 -515 152 -53 60 -37 141 54 267 51 70 156 174
686 676 212 201 449 426 527 500 l142 135 0 73 c1 41 -3 72 -8 70 -5 -1 -192
-179 -417 -393 -225 -215 -524 -499 -665 -632 -256 -242 -316 -306 -379 -398
-82 -120 -101 -233 -55 -325 13 -27 29 -52 35 -55 6 -4 -20 -35 -61 -73 -151
-140 -145 -244 18 -326 47 -23 182 -66 209 -66 6 0 17 14 24 30 7 17 22 37 33
45 12 8 19 16 16 18 -2 2 -38 12 -79 22 -93 22 -167 49 -199 74 -23 17 -24 21
-11 51 7 18 44 58 83 89 l69 57 96 -32 c106 -35 227 -57 397 -74 273 -27 964
-189 3995 -940 4101 -1015 5712 -1392 6556 -1534 149 -25 1034 -126 1279 -145
303 -25 615 -33 793 -21 470 30 733 123 972 344 42 39 191 177 331 306 525
487 1598 1457 3504 3170 1804 1621 3893 3477 4480 3981 94 80 284 239 424 352
l254 207 46 -27 c155 -90 347 -244 452 -364 266 -303 385 -656 350 -1037 -16
-178 -47 -304 -150 -611 -172 -516 -261 -701 -434 -901 -83 -96 -205 -204
-552 -486 -440 -358 -1045 -885 -2480 -2163 -2557 -2277 -5722 -5128 -6412
-5778 -95 -89 -199 -180 -230 -201 -331 -224 -793 -276 -1713 -191 -323 29
-1078 116 -1220 139 -221 37 -791 153 -1200 245 -1017 229 -2092 486 -3820
912 -278 68 -613 151 -745 183 -132 32 -559 138 -950 235 -2387 592 -3535 867
-3890 934 -60 11 -172 27 -248 36 -274 30 -436 76 -508 145 -35 33 -39 42 -39
86 0 118 89 233 419 543 126 119 416 394 645 611 l415 395 1 73 c0 39 -3 72
-6 72 -4 0 -59 -50 -123 -112 -64 -61 -330 -314 -591 -562 -571 -541 -733
-702 -785 -781 -58 -88 -86 -165 -86 -235 -1 -155 133 -257 406 -310 94 -18
95 -18 95 -51 0 -86 74 -144 245 -194 106 -30 102 -30 110 -2 4 12 18 34 31
48 l25 26 -91 22 c-136 33 -210 70 -210 103 0 56 937 -159 4073 -936 434 -108
911 -226 1060 -262 282 -69 353 -98 110 -45 -146 32 -576 122 -1033 216 -151
31 -372 77 -490 101 -193 41 -350 73 -1110 229 -118 24 -294 60 -390 80 -96
20 -359 74 -585 120 -225 46 -588 120 -805 165 -217 45 -408 84 -425 87 -26 5
-20 -4 55 -75 229 -214 451 -511 546 -731 113 -262 121 -455 29 -724 l-33 -99
35 34 c55 53 130 160 142 203 18 63 25 232 12 311 -39 254 -198 564 -416 817
-42 49 -74 91 -72 94 3 2 106 -16 229 -41 122 -24 390 -79 593 -120 204 -41
397 -77 430 -81 158 -16 486 -83 875 -178 146 -36 553 -124 905 -197 566 -116
1879 -389 2485 -516 118 -25 580 -122 1025 -216 446 -95 824 -172 842 -173 17
0 30 -2 28 -5 -2 -3 67 -20 153 -38 213 -45 679 -146 1067 -232 176 -39 556
-123 844 -186 511 -112 696 -157 1411 -343 729 -189 1070 -301 1365 -448 398
-199 619 -440 707 -771 54 -208 24 -669 -62 -933 -60 -182 -167 -323 -292
-382 -164 -78 -408 -78 -803 -1 -110 21 -166 26 -360 29 -126 2 -261 7 -300
10 -65 5 488 -111 785 -165 167 -30 432 -38 545 -17 230 44 362 147 467 364
88 183 135 422 145 748 6 207 -8 320 -58 470 -122 364 -450 645 -1004 860
-244 95 -781 252 -1189 349 -53 13 -20 16 60 6 635 -78 1211 -108 1539 -79
243 21 471 80 637 166 118 61 185 111 321 241 655 627 5369 4865 7617 6847
666 588 964 846 1215 1049 121 99 228 186 238 195 16 14 23 12 80 -19 311
-168 577 -431 714 -705 101 -201 137 -359 136 -605 0 -151 -4 -193 -27 -304
-50 -243 -268 -861 -367 -1046 -130 -240 -237 -352 -694 -723 -143 -117 -321
-263 -395 -326 -1065 -902 -7368 -6550 -8547 -7658 -233 -219 -322 -277 -527
-342 -302 -97 -730 -112 -1396 -51 -357 33 -1105 119 -1265 146 -794 134
-2392 508 -6400 1499 -3651 902 -4079 1002 -4420 1040 -249 27 -396 64 -487
121 -77 49 -88 122 -33 230 46 93 141 198 385 426 113 105 338 318 500 472
162 155 354 337 427 406 l132 125 0 73 c1 41 -3 72 -8 70 -4 -1 -230 -215
-502 -473 -272 -259 -572 -544 -667 -634 -269 -255 -347 -348 -391 -467 -27
-71 -28 -162 -2 -213 51 -99 178 -168 388 -210 86 -18 87 -19 96 -52 10 -41
47 -82 102 -114 37 -22 200 -75 230 -75 7 0 18 14 25 30 7 17 22 37 33 45 12
8 19 16 16 18 -2 2 -36 10 -74 19 -86 20 -174 53 -201 74 -17 14 -13 15 59 9
219 -17 1070 -216 3567 -833 377 -94 781 -193 898 -222 117 -29 211 -55 208
-57 -3 -3 -69 9 -148 26 -79 17 -262 55 -408 85 -278 57 -788 163 -1072 221
-563 117 -1134 234 -1823 375 -867 177 -887 181 -910 187 -11 3 42 -57 117
-133 450 -455 641 -862 573 -1221 -13 -67 -51 -195 -80 -266 -12 -29 97 93
137 153 76 115 77 354 2 579 -61 185 -197 416 -360 611 -47 56 -84 104 -81
106 4 4 54 -6 737 -146 217 -44 473 -92 568 -106 233 -33 548 -99 792 -164
129 -35 265 -64 1335 -285 468 -97 1012 -210 1210 -251 198 -41 477 -99 620
-129 272 -57 565 -118 1095 -230 173 -36 389 -82 480 -101 250 -52 567 -124
1080 -244 1052 -246 1538 -352 2120 -464 129 -25 312 -66 405 -92 94 -25 301
-79 460 -120 677 -174 1081 -307 1349 -443 511 -259 736 -582 736 -1055 0
-299 -56 -610 -140 -776 -153 -303 -416 -374 -995 -266 -181 33 -203 35 -465
39 l-275 5 290 -58 c160 -32 382 -75 495 -95 199 -36 210 -37 400 -33 183 4
200 6 279 33 230 79 369 259 446 579 58 238 81 606 51 790 -89 540 -497 884
-1378 1162 -118 37 -519 149 -646 179 -40 10 -71 20 -68 22 2 3 91 -5 198 -16
463 -49 558 -55 898 -56 219 0 368 5 430 13 298 40 500 108 682 229 37 24 125
99 195 166 731 697 5731 5189 7838 7043 528 465 798 696 1043 896 l233 189 62
-35 c301 -168 565 -432 694 -691 110 -221 158 -482 134 -728 -16 -171 -48
-304 -142 -587 -167 -506 -261 -704 -425 -901 -99 -118 -218 -223 -689 -604
-88 -72 -243 -202 -345 -290 -1451 -1252 -7188 -6395 -8453 -7578 -108 -100
-198 -175 -250 -207 -320 -197 -796 -242 -1682 -160 -365 34 -1024 110 -1185
136 -764 123 -2466 521 -6580 1539 -2462 609 -3139 774 -3730 906 -272 60
-417 86 -645 113 -223 27 -378 77 -435 143 -66 75 -22 203 125 363 28 31 172
170 321 310 148 140 409 388 580 552 171 163 337 320 368 348 l56 52 0 75 0
75 -24 -19 c-13 -10 -215 -200 -448 -423 -233 -223 -536 -511 -673 -640 -347
-328 -435 -445 -443 -591 -5 -86 9 -128 62 -183 53 -54 148 -100 272 -131 86
-22 146 -32 424 -66 119 -14 622 -124 872 -190 31 -8 46 -24 106 -112 167
-246 252 -475 252 -685 0 -108 -26 -218 -95 -407 -5 -13 4 -8 28 16 61 62 135
167 147 206 18 64 24 233 11 324 -23 158 -110 376 -217 542 -32 48 -39 67 -28
67 32 0 923 -216 2654 -645 3666 -908 5036 -1237 6160 -1479 677 -146 881
-180 1480 -245 829 -91 1035 -105 1438 -98 156 2 281 2 278 -1 -3 -3 32 -26
78 -52 389 -218 599 -486 645 -823 31 -221 -3 -602 -71 -817 -99 -312 -253
-442 -539 -459 -161 -9 -301 3 -514 42 -179 34 -205 36 -459 41 -148 3 -267 4
-265 2 5 -6 627 -127 824 -162 136 -23 168 -25 345 -22 177 4 202 7 275 31 44
14 103 40 130 58 239 149 365 486 382 1019 8 262 -14 395 -96 584 -75 173
-262 376 -469 511 -75 48 -117 82 -110 86 7 3 43 12 79 19 l66 13 75 -52 c322
-222 510 -511 562 -863 19 -123 20 -255 6 -435 -48 -583 -228 -920 -556 -1039
-174 -64 -436 -72 -716 -24 -331 56 -1200 233 -2733 555 -1098 231 -1293 272
-3580 760 -242 52 -1385 296 -2540 544 -1155 247 -2284 488 -2510 535 -744
156 -785 166 -901 221 -160 77 -202 209 -93 297 294 237 496 491 620 777 36
85 94 279 85 288 -2 2 -41 -38 -87 -89 -450 -496 -785 -846 -949 -991 -201
-177 -234 -224 -200 -288 39 -72 250 -143 860 -289 1808 -434 4678 -1066 6510
-1435 667 -134 1140 -236 1855 -399 1073 -244 1261 -287 1460 -331 876 -193
1489 -309 1957 -369 316 -41 422 -49 658 -49 363 0 472 33 618 188 238 252
388 585 432 957 19 163 8 430 -25 588 -53 255 -177 559 -310 760 -51 77 -165
197 -229 241 -20 13 -36 26 -36 29 0 3 26 21 58 39 86 51 122 82 297 247 862
816 6250 5653 8035 7214 465 407 568 494 865 735 314 256 486 405 542 471 l39
47 78 -52 c169 -114 334 -273 448 -432 236 -329 305 -752 194 -1180 -66 -251
-238 -733 -323 -904 -136 -272 -238 -382 -713 -768 -468 -380 -760 -633 -2115
-1836 -811 -720 -2221 -1979 -2785 -2486 -74 -67 -612 -551 -1195 -1075 -1539
-1385 -2487 -2246 -2880 -2615 -202 -190 -278 -240 -459 -304 -120 -42 -302
-78 -471 -92 -184 -15 -583 -6 -885 21 -359 31 -1126 118 -1300 146 -532 86
-1733 355 -3500 783 -677 164 -1677 409 -2695 661 -2776 687 -3506 865 -4115
1001 -268 60 -406 84 -648 114 -219 28 -373 78 -433 141 -14 15 -24 41 -27 73
-10 105 64 209 326 459 241 231 984 937 1078 1025 78 73 91 102 76 181 l-7 38
-370 -352 c-203 -194 -515 -490 -693 -658 -177 -167 -351 -340 -386 -384 -130
-162 -166 -292 -112 -402 60 -122 249 -202 561 -235 392 -43 810 -140 4210
-981 3736 -924 5192 -1271 6192 -1474 433 -88 590 -113 1058 -165 854 -96
1131 -116 1490 -108 379 9 606 54 828 163 118 58 199 117 327 238 628 599
4327 3930 6885 6201 1202 1067 1649 1457 1994 1737 492 400 606 505 725 671
128 178 255 474 399 927 103 324 134 508 124 725 -13 278 -94 524 -249 756
-81 123 -299 341 -427 429 -153 106 -142 85 -87 171 56 86 138 254 191 389 69
176 234 684 254 785 83 411 29 774 -163 1099 -136 230 -375 460 -639 614 l-79
46 59 50 c291 251 423 436 565 791 69 171 235 685 257 790 105 520 -4 951
-336 1337 -113 132 -302 285 -475 385 -43 25 -78 48 -78 52 0 4 24 28 53 52
249 208 405 408 522 669 94 209 265 713 309 910 97 438 28 839 -205 1191 -115
173 -384 420 -581 533 l-46 27 137 137 c248 247 347 438 549 1052 115 350 151
553 138 775 -22 368 -162 673 -435 945 -132 131 -237 211 -408 312 l-102 61
60 66 c131 142 246 348 347 621 84 229 200 590 221 695 118 570 -53 1085 -484
1456 -112 96 -286 212 -425 284 -61 31 -110 60 -108 64 2 4 50 48 108 98 341
294 462 496 671 1125 131 396 154 507 154 758 0 188 -13 280 -62 434 -184 589
-792 1040 -1633 1211 -577 118 -2364 398 -5415 850 -1716 254 -5859 856 -6000
872 l-50 5 -1935 -1419z"/>
<path d="M3105 27348 c278 -283 447 -530 529 -778 50 -152 64 -278 43 -402
-13 -78 -50 -207 -84 -298 -10 -27 59 44 113 117 65 87 76 129 77 288 2 291
-131 593 -409 931 -52 63 -90 114 -85 114 4 0 163 -32 352 -71 660 -135 824
-167 889 -174 153 -15 516 -88 805 -162 262 -66 175 -47 1095 -237 4397 -909
6791 -1426 7415 -1601 66 -19 235 -63 375 -99 1036 -264 1487 -456 1775 -757
227 -238 304 -483 276 -881 -41 -581 -192 -859 -501 -924 -58 -12 -117 -15
-260 -11 -161 3 -209 9 -372 40 -177 35 -199 37 -440 41 -139 3 -273 7 -298
10 -71 9 512 -110 759 -154 201 -36 240 -40 386 -40 202 0 292 16 401 69 180
89 294 257 364 536 65 260 86 662 43 855 -105 480 -475 802 -1213 1055 -154
52 -430 134 -665 196 -88 23 -250 66 -360 96 -350 94 -654 171 -880 223 -253
59 -945 213 -1180 264 -88 19 -369 80 -625 135 -538 116 -1606 342 -2220 471
-1919 401 -3949 821 -5120 1060 -349 71 -1120 229 -1125 230 0 0 63 -64 140
-142z"/>
<path d="M31840 27159 c371 -370 580 -750 580 -1054 0 -99 -35 -259 -84 -381
l-16 -39 53 57 c94 101 125 154 138 238 48 308 -99 681 -416 1054 -31 37 -54
70 -52 73 3 3 250 -45 549 -106 299 -61 584 -116 633 -121 200 -23 518 -88
880 -180 127 -32 428 -99 670 -149 3391 -695 6743 -1414 7355 -1576 52 -14
246 -64 430 -111 1086 -276 1524 -457 1816 -748 159 -160 243 -319 280 -530
13 -71 15 -130 11 -271 -20 -606 -184 -919 -510 -976 -125 -21 -375 -7 -587
34 -178 34 -195 35 -460 39 l-275 4 336 -67 c581 -116 626 -122 834 -116 119
3 199 10 235 21 263 75 423 298 490 682 49 282 51 582 6 759 -92 356 -339 615
-792 831 -252 120 -530 212 -1072 355 -169 44 -405 107 -524 140 -598 164
-2434 565 -5553 1214 -385 80 -763 159 -840 175 -141 30 -644 133 -1550 320
-269 55 -530 109 -580 120 -49 11 -533 110 -1075 220 -542 111 -996 204 -1010
207 -18 5 11 -29 100 -118z"/>
<path d="M3491 26117 c-110 -125 -634 -687 -752 -808 -63 -64 -173 -168 -246
-232 -142 -126 -170 -158 -179 -206 -6 -28 -1 -37 34 -70 79 -75 255 -131 917
-290 375 -89 1213 -284 1620 -376 505 -114 1103 -248 1240 -279 1638 -361
2634 -574 3615 -770 707 -141 1050 -215 2016 -436 1474 -338 2091 -469 2659
-569 642 -112 1091 -155 1376 -132 239 20 318 51 442 176 199 200 356 502 416
803 69 340 48 659 -67 1007 -49 150 -164 390 -245 512 -82 124 -270 283 -447
380 -53 29 -63 31 -245 42 -104 6 -230 16 -278 22 -49 6 -90 9 -93 7 -2 -2 46
-23 106 -47 515 -199 864 -487 1016 -840 80 -185 110 -394 94 -663 -41 -678
-240 -1034 -637 -1139 -100 -27 -375 -37 -508 -20 -264 35 -1487 285 -3880
791 -1151 243 -1986 422 -4785 1021 -2436 522 -2884 617 -3235 689 -291 60
-394 89 -503 141 -105 50 -142 96 -142 173 0 65 16 88 110 163 87 70 265 251
331 338 126 164 219 335 274 498 31 93 53 187 44 187 -2 0 -33 -33 -68 -73z"/>
<path d="M32166 25877 c-406 -449 -725 -778 -957 -989 -170 -154 -168 -206 15
-288 121 -55 393 -126 1241 -325 1899 -445 4267 -963 5945 -1300 709 -142 804
-163 2170 -474 1249 -284 1691 -378 2242 -476 532 -95 900 -137 1208 -138 353
-2 457 29 604 177 198 200 344 488 408 808 19 97 23 144 23 333 0 235 -7 292
-55 481 -38 148 -90 284 -163 429 -139 273 -244 387 -509 551 l-90 55 -101 5
c-103 5 -311 20 -402 30 -46 5 -40 1 71 -44 703 -287 1039 -675 1071 -1240 11
-200 -28 -551 -84 -742 -53 -185 -159 -361 -276 -458 -66 -54 -190 -114 -287
-138 -61 -16 -112 -19 -280 -18 -201 0 -210 1 -450 47 -1009 192 -3047 621
-8635 1818 -1078 231 -2131 456 -2340 500 -754 157 -836 180 -923 263 -95 88
-84 174 34 265 210 163 439 448 544 676 54 117 119 326 101 324 -3 0 -60 -60
-125 -132z"/>
<path d="M32138 22283 c-427 -464 -594 -635 -802 -818 -172 -152 -178 -208
-30 -283 133 -67 421 -143 1399 -370 2001 -466 4208 -948 5700 -1247 729 -146
1024 -210 2101 -456 890 -203 1294 -293 1589 -354 121 -25 238 -49 260 -55 79
-18 574 -110 750 -139 510 -85 829 -116 1115 -108 312 9 391 35 529 175 359
367 514 943 405 1507 -67 346 -254 730 -440 904 -78 73 -268 206 -334 234 -23
10 -102 19 -235 26 -110 7 -229 16 -265 21 -35 5 -66 8 -67 6 -2 -1 41 -19 95
-40 278 -107 551 -270 712 -423 291 -277 405 -589 380 -1040 -38 -664 -234
-1018 -621 -1118 -95 -25 -264 -35 -412 -25 -312 21 -2112 395 -8942 1859
-1001 214 -2013 431 -2250 480 -236 50 -506 107 -599 127 -373 80 -506 154
-506 283 0 62 16 86 109 160 231 184 451 471 555 722 35 87 82 247 73 255 -2
3 -124 -125 -269 -283z"/>
<path d="M31645 17214 c325 -321 527 -641 586 -928 34 -163 18 -318 -50 -506
l-31 -84 44 43 c25 24 65 74 90 110 37 55 47 79 57 144 25 163 -9 373 -91 562
-76 172 -221 393 -355 543 -26 29 -45 55 -42 58 3 3 259 -46 569 -110 310 -64
601 -121 648 -126 224 -28 486 -81 865 -175 143 -35 359 -84 480 -109 358 -73
1089 -224 1240 -256 77 -16 421 -88 765 -160 344 -71 756 -157 915 -190 160
-34 396 -83 525 -110 488 -102 1529 -323 2075 -440 1369 -294 2081 -457 2475
-564 129 -36 327 -88 439 -116 435 -110 862 -244 1086 -340 507 -217 771 -470
871 -833 48 -175 43 -499 -12 -774 -43 -218 -101 -347 -203 -455 -113 -121
-224 -158 -477 -158 -152 0 -238 11 -489 60 -78 16 -155 21 -345 24 -135 3
-270 7 -300 10 -98 10 512 -114 835 -170 108 -18 176 -24 298 -24 191 0 280
16 396 71 265 125 408 473 428 1039 14 399 -81 659 -331 906 -298 293 -716
474 -1676 724 -129 34 -332 88 -450 120 -357 98 -655 168 -1460 346 -734 163
-2971 640 -3600 769 -63 13 -225 47 -360 75 -135 28 -351 73 -480 100 -129 27
-345 72 -480 100 -303 63 -811 168 -1910 395 -1221 252 -2487 511 -2570 526
-30 6 -64 13 -75 16 -11 3 34 -48 100 -113z"/>
<path d="M3427 16988 c267 -261 474 -560 553 -798 69 -206 65 -369 -15 -598
l-33 -97 51 56 c29 30 69 81 90 111 34 50 39 67 49 152 35 299 -102 645 -400
1006 -39 47 -66 86 -62 88 5 2 197 -35 427 -82 633 -129 668 -136 700 -136 95
0 590 -101 983 -200 107 -28 391 -90 630 -139 3765 -776 6564 -1376 7255
-1555 264 -68 605 -155 660 -167 78 -17 540 -155 703 -208 294 -98 507 -195
684 -311 257 -169 399 -347 474 -596 23 -78 27 -111 31 -269 10 -355 -57 -694
-170 -859 -14 -22 -23 -44 -20 -50 3 -6 3 -8 -2 -4 -5 5 -32 -15 -61 -42 -112
-106 -222 -135 -488 -127 -140 4 -204 11 -356 40 -175 33 -197 35 -405 36
-121 0 -245 3 -275 5 -64 6 553 -121 780 -160 140 -23 173 -26 340 -22 167 4
193 7 267 32 279 91 432 362 483 856 15 142 12 394 -5 491 -74 423 -376 732
-945 965 -255 104 -506 181 -1055 324 -110 28 -288 76 -395 106 -322 89 -1081
264 -2035 469 -437 94 -818 176 -860 185 -22 4 -125 26 -230 48 -104 23 -246
53 -315 67 -69 14 -262 56 -430 91 -168 36 -345 74 -395 84 -49 10 -187 39
-305 64 -299 63 -1012 211 -1810 377 -371 77 -803 166 -960 199 -361 75 -1522
314 -2315 476 -335 69 -674 138 -753 154 -79 17 -147 30 -151 30 -5 0 34 -42
86 -92z"/>
<path d="M25649 16376 c-71 -67 -242 -212 -414 -350 -88 -71 -216 -177 -285
-235 -630 -534 -3080 -2713 -5619 -5001 -492 -443 -982 -884 -1090 -979 -310
-276 -1264 -1146 -1499 -1366 -299 -280 -363 -328 -538 -401 -136 -56 -399
-114 -518 -114 -20 0 -36 -3 -36 -8 0 -4 21 -18 47 -32 107 -57 259 -166 347
-251 303 -289 412 -599 377 -1073 -23 -306 -67 -500 -157 -685 -49 -100 -66
-124 -142 -201 -96 -97 -173 -143 -304 -181 -60 -18 -107 -23 -268 -26 -185
-5 -204 -3 -375 27 -708 123 -2868 577 -8925 1875 -1608 345 -2149 460 -2520
536 -415 86 -560 160 -560 286 0 61 19 93 93 151 208 163 409 407 524 635 87
175 146 408 126 499 l-8 38 -166 -158 c-91 -86 -302 -287 -470 -447 -571 -544
-632 -599 -745 -676 -128 -87 -237 -187 -266 -243 -25 -48 -21 -110 10 -153
12 -17 47 -44 79 -61 32 -17 64 -40 71 -51 20 -33 111 -88 197 -120 67 -24
198 -55 315 -74 24 -4 24 -4 -3 -6 -27 -1 -25 -4 55 -94 123 -137 158 -181
242 -304 140 -208 223 -411 246 -602 17 -135 -18 -321 -95 -506 -10 -26 62 52
125 133 57 74 72 136 71 302 -1 298 -145 613 -443 966 -37 45 -68 84 -68 88 0
8 41 3 57 -7 7 -4 24 -5 39 -1 21 5 25 4 19 -6 -6 -10 1 -11 31 -6 30 5 35 4
24 -4 -12 -9 -6 -10 25 -5 31 4 37 3 25 -5 -12 -9 -6 -10 25 -5 30 4 36 3 25
-5 -11 -9 -7 -10 19 -5 25 5 32 4 26 -5 -6 -9 1 -10 26 -5 27 5 31 4 19 -5
-12 -9 -8 -10 18 -6 23 4 31 2 26 -6 -5 -8 2 -9 25 -5 23 5 30 3 25 -5 -5 -7
1 -9 20 -4 16 4 26 2 26 -5 0 -7 9 -9 25 -5 16 4 25 2 25 -5 0 -6 7 -8 16 -5
9 4 22 2 28 -2 6 -5 18 -10 26 -10 112 -8 1034 -228 3070 -732 3897 -965 5299
-1298 6350 -1511 409 -83 855 -142 1623 -214 l265 -25 158 -56 c481 -171 786
-359 964 -596 168 -222 226 -453 202 -799 -39 -571 -180 -853 -472 -944 -39
-12 -104 -19 -220 -22 -178 -6 -239 1 -535 57 -137 26 -174 29 -425 32 l-275
4 340 -67 c620 -123 682 -132 890 -126 239 6 329 31 451 124 115 86 216 252
269 438 60 212 97 588 76 787 -40 394 -232 684 -609 921 -102 64 -349 187
-419 209 -24 7 -43 16 -43 20 0 5 59 8 130 8 l130 0 90 -45 c407 -205 668
-482 779 -829 51 -160 64 -270 57 -496 -14 -499 -122 -845 -323 -1043 -71 -69
-116 -100 -199 -138 -199 -90 -484 -96 -899 -19 -893 166 -3156 642 -8870
1866 -2133 457 -2578 552 -2955 630 -146 30 -308 66 -360 80 -265 71 -373 162
-340 283 10 40 14 44 169 176 349 297 611 763 611 1088 0 49 -4 87 -9 85 -5
-1 -231 -215 -502 -473 -272 -259 -570 -542 -664 -630 -212 -198 -273 -261
-340 -350 -97 -128 -134 -234 -114 -323 38 -172 226 -261 649 -307 345 -37
903 -168 4225 -990 3516 -870 4928 -1208 6005 -1439 694 -149 874 -179 1480
-246 779 -85 977 -100 1340 -100 356 0 582 29 793 101 197 67 319 146 508 326
905 862 7399 6684 8659 7763 113 97 302 254 420 350 731 592 807 697 1071
1492 138 416 165 561 156 836 -6 182 -19 260 -72 419 -122 366 -398 685 -792
915 -57 33 -103 61 -103 62 0 1 16 40 36 86 49 116 209 592 240 713 54 216 70
465 39 652 -55 341 -239 657 -516 890 -47 40 -106 86 -131 103 l-44 30 -45
-42z m395 -2812 c20 -20 20 -58 0 -118 -12 -36 -19 -45 -26 -35 -8 11 -8 10
-4 -4 3 -10 -7 -38 -25 -67 -22 -36 -35 -48 -50 -45 -11 2 -17 0 -14 -6 4 -5
11 -7 16 -4 21 13 6 -11 -38 -64 -78 -94 -126 -140 -137 -134 -6 3 -8 2 -3 -2
10 -11 -33 -56 -46 -48 -6 3 -7 2 -4 -4 9 -15 -49 -67 -64 -58 -7 5 -10 4 -6
-2 8 -13 -129 -137 -142 -129 -5 4 -13 1 -17 -5 -4 -8 -3 -9 4 -5 7 4 12 4 11
-1 -1 -13 -451 -396 -465 -396 -7 0 -11 -4 -8 -8 6 -11 -68 -69 -79 -62 -6 3
-7 1 -4 -4 4 -6 -14 -28 -39 -48 -34 -28 -48 -35 -57 -26 -6 6 -15 11 -21 11
-5 0 -1 -6 10 -14 10 -8 17 -16 14 -18 -3 -2 -36 -31 -75 -64 -80 -69 -115
-79 -105 -29 1 6 -2 7 -6 2 -4 -4 -8 -16 -9 -26 -1 -14 4 -18 17 -16 10 2 18
2 18 0 0 -2 -48 -44 -106 -95 -92 -78 -108 -89 -123 -78 -14 11 -14 11 -3 -3
11 -15 7 -21 -26 -48 -22 -17 -43 -27 -47 -23 -5 4 -5 2 -2 -5 9 -14 -41 -55
-56 -46 -5 3 -7 2 -4 -4 9 -15 -39 -57 -54 -48 -7 5 -10 4 -6 -2 8 -13 -38
-57 -52 -49 -5 4 -12 2 -16 -3 -3 -6 -13 -8 -23 -5 -14 5 -14 4 -2 -4 10 -8
18 -8 27 0 7 6 13 8 13 5 0 -11 -153 -136 -161 -132 -4 3 -11 0 -15 -6 -5 -8
-3 -9 7 -4 8 5 5 -1 -5 -14 -11 -12 -26 -19 -33 -16 -8 2 -12 1 -8 -4 6 -11
-65 -72 -76 -65 -4 2 -11 -1 -15 -7 -5 -8 -2 -10 7 -5 8 4 -6 -10 -31 -32 -25
-22 -48 -38 -53 -35 -4 2 -6 -1 -5 -8 2 -6 -3 -14 -11 -17 -8 -2 -11 0 -8 5 3
5 0 10 -8 10 -10 0 -12 -4 -5 -12 12 -14 -12 -40 -25 -27 -5 4 -5 2 -2 -4 8
-14 -16 -36 -34 -32 -8 2 -13 -2 -12 -8 1 -6 -40 -48 -93 -93 -84 -72 -97 -80
-115 -70 -13 7 -19 7 -15 1 3 -6 2 -13 -4 -17 -5 -3 -10 -11 -10 -18 0 -6 6
-2 14 9 8 10 17 16 21 13 9 -9 -91 -90 -100 -81 -5 4 -5 2 -1 -5 6 -12 -27
-37 -36 -27 -3 2 -11 -4 -19 -13 -13 -17 -12 -17 6 -4 11 7 3 -3 -19 -23 -21
-19 -43 -33 -48 -30 -5 3 -7 1 -6 -4 5 -15 -161 -154 -174 -146 -6 4 -8 3 -5
-3 8 -13 -38 -57 -52 -49 -5 4 -13 1 -17 -5 -5 -8 -3 -10 7 -4 23 13 -21 -29
-125 -119 -55 -47 -104 -82 -109 -79 -6 3 -7 1 -3 -5 8 -13 -33 -44 -47 -35
-6 3 -7 2 -4 -4 3 -5 -57 -63 -135 -129 -78 -65 -177 -150 -220 -187 -43 -38
-82 -66 -87 -63 -5 4 -13 1 -17 -5 -5 -8 -3 -9 7 -4 8 5 3 -4 -11 -19 -13 -14
-30 -24 -38 -21 -7 2 -10 1 -7 -4 6 -11 -73 -77 -87 -73 -5 1 -7 -2 -4 -7 8
-13 -21 -34 -35 -25 -7 4 -9 3 -5 -4 3 -6 -31 -42 -80 -84 -48 -40 -141 -119
-207 -175 -66 -56 -124 -100 -129 -97 -5 3 -7 1 -6 -4 2 -5 -34 -41 -79 -81
-80 -68 -102 -84 -87 -59 4 7 3 8 -5 4 -6 -4 -9 -11 -6 -15 2 -5 -35 -43 -84
-84 -67 -57 -94 -74 -110 -70 -11 3 -19 9 -16 13 6 10 -22 7 -32 -4 -4 -4 -3
-7 2 -6 6 1 20 -1 33 -5 l23 -8 -28 -29 c-15 -15 -32 -27 -39 -24 -6 2 -17 0
-25 -6 -11 -7 -9 -8 6 -3 24 7 23 6 -87 -89 -73 -62 -97 -79 -83 -56 11 18 -1
11 -21 -12 -15 -19 -16 -20 -1 -9 9 7 17 11 17 8 0 -3 -98 -88 -217 -188 -120
-101 -307 -259 -416 -352 -113 -96 -203 -165 -209 -161 -6 4 -8 3 -4 -4 8 -13
-43 -54 -57 -45 -5 3 -7 2 -4 -4 4 -6 -5 -20 -18 -33 -21 -20 -27 -21 -42 -9
-16 12 -17 12 -5 -2 10 -13 10 -18 -1 -28 -8 -6 -18 -7 -22 -3 -5 4 -5 2 -1
-5 6 -12 -27 -37 -36 -27 -3 2 -11 -4 -19 -13 -13 -17 -12 -17 6 -4 11 7 -5
-9 -35 -37 -30 -29 -61 -49 -68 -47 -7 3 -10 1 -7 -4 6 -11 -123 -123 -135
-116 -4 3 -14 -3 -21 -13 -13 -15 -12 -16 4 -3 9 7 17 11 17 9 0 -6 -227 -198
-234 -198 -2 0 -6 6 -9 13 -2 6 -3 4 -2 -5 4 -22 -170 -172 -188 -162 -6 4 -9
4 -5 -1 11 -11 -12 -36 -25 -28 -5 3 -7 1 -4 -4 7 -11 -42 -49 -56 -45 -5 1
-6 -1 -3 -6 6 -9 -103 -98 -116 -94 -4 1 -7 -2 -6 -6 4 -13 -195 -179 -214
-179 -17 0 -22 10 -19 30 1 5 -3 6 -8 2 -6 -3 -7 -13 -4 -22 5 -12 3 -14 -8
-8 -12 8 -12 6 0 -8 11 -13 17 -15 30 -6 9 6 -1 -5 -23 -25 -21 -19 -43 -33
-49 -29 -6 3 -7 1 -3 -5 7 -12 -42 -54 -55 -46 -5 3 -8 1 -7 -5 4 -14 -113
-112 -125 -104 -6 3 -7 1 -3 -5 7 -12 -33 -44 -46 -36 -5 3 -7 1 -6 -5 4 -14
-162 -152 -174 -145 -6 4 -8 2 -4 -4 7 -12 -42 -54 -54 -47 -5 3 -12 0 -16 -6
-4 -8 -3 -9 4 -5 7 4 12 5 12 3 0 -8 -162 -139 -175 -141 -8 -1 -18 -6 -22
-11 -4 -4 -1 -5 7 -1 23 12 -67 -66 -279 -242 -107 -88 -199 -158 -203 -156
-5 3 -7 1 -6 -5 4 -14 -130 -123 -143 -116 -6 5 -5 12 3 23 7 9 -2 5 -19 -8
-37 -27 -43 -36 -14 -20 28 15 34 -4 9 -26 -15 -13 -19 -14 -14 -4 4 8 -2 3
-14 -13 -12 -15 -26 -24 -31 -21 -5 3 -8 1 -7 -4 2 -5 -37 -43 -87 -84 -190
-157 -425 -348 -425 -344 0 10 353 321 361 318 6 -1 8 1 5 6 -2 4 55 63 129
130 99 91 138 120 152 116 13 -4 14 -3 5 3 -10 8 2 24 48 67 34 31 66 53 72
50 6 -4 8 -3 5 3 -8 13 180 186 193 178 6 -4 9 -1 8 7 -2 7 3 12 10 10 8 -1
11 2 8 7 -7 11 101 107 116 103 5 -1 7 2 4 6 -8 13 174 173 187 165 5 -3 7 -2
4 4 -9 15 69 87 84 78 7 -5 10 -4 6 2 -9 14 90 106 105 97 6 -4 8 -3 5 3 -7
12 176 185 191 181 6 -2 9 0 8 3 -3 12 27 39 37 32 5 -3 7 -1 4 5 -9 14 51 64
66 55 7 -3 9 -2 4 2 -4 5 9 26 30 47 37 38 67 53 42 21 -12 -16 -12 -17 2 -6
9 7 20 9 25 5 4 -4 3 0 -4 9 -10 13 -10 19 1 28 8 6 17 7 21 3 4 -4 6 -1 4 6
-5 19 294 284 305 269 5 -8 7 -6 5 6 -2 12 45 60 147 152 125 113 152 132 165
122 13 -10 13 -10 3 3 -10 14 29 53 258 258 156 141 274 240 281 236 6 -4 8
-3 5 3 -9 14 101 115 115 107 6 -4 8 -2 5 3 -8 12 178 179 194 175 6 -1 8 1 5
6 -8 13 242 234 256 226 6 -4 8 -3 5 3 -4 6 35 49 87 97 89 82 116 102 100 74
-4 -8 -3 -10 2 -5 5 5 9 14 9 20 1 7 7 11 14 9 7 -1 10 2 7 7 -7 10 213 207
226 203 5 -1 7 2 4 7 -3 5 1 14 9 21 12 10 19 10 33 -1 15 -13 16 -12 4 3 -11
14 -5 23 48 70 34 29 66 52 71 50 6 -1 8 2 5 7 -8 13 53 63 66 55 6 -4 8 -3 5
3 -9 15 160 166 175 157 7 -4 10 -3 5 1 -4 5 9 26 30 47 27 28 42 36 58 32 16
-4 26 2 39 21 9 14 22 23 28 19 7 -5 8 -2 3 6 -6 10 -14 7 -31 -13 -13 -15
-29 -27 -36 -27 -7 1 18 30 56 65 38 35 74 61 79 58 6 -3 7 -1 4 4 -9 14 29
47 43 38 9 -6 9 -10 -1 -17 -10 -6 -7 -7 10 -3 18 6 22 4 15 -6 -6 -11 -3 -10
12 1 29 22 30 24 12 17 -10 -4 -18 -2 -18 4 0 6 -4 8 -9 4 -18 -10 -21 13 -4
26 14 12 16 12 8 -1 -5 -9 -5 -12 1 -7 5 5 9 13 9 18 0 5 40 45 89 89 76 67
92 78 105 67 14 -10 14 -10 4 4 -11 13 0 26 68 88 70 62 83 70 97 59 15 -11
15 -11 4 4 -11 14 -6 22 44 65 31 26 60 47 66 45 5 -1 7 2 4 7 -7 11 79 82 89
73 5 -4 5 -2 2 4 -4 7 14 28 40 50 26 21 43 32 38 25 -5 -10 -4 -12 4 -7 6 4
9 11 6 16 -6 10 164 156 177 152 5 -1 7 1 4 6 -3 5 67 73 156 152 125 111 162
140 170 129 8 -11 9 -10 4 3 -4 13 31 49 130 138 76 67 140 117 146 114 6 -4
8 -3 5 3 -8 14 69 87 82 78 7 -4 10 -1 9 7 -2 7 3 12 10 10 8 -1 11 1 8 6 -3
5 5 19 18 31 19 18 28 21 43 12 15 -7 20 -7 20 4 0 7 -6 11 -14 8 -7 -3 -13
-3 -13 0 0 11 161 149 177 152 10 1 17 7 16 13 -2 6 36 45 83 86 71 62 89 74
105 66 12 -7 20 -6 25 2 4 6 3 8 -2 5 -6 -3 -16 -2 -23 2 -9 6 -1 18 30 44 23
20 46 34 52 30 6 -3 7 -2 4 4 -8 13 34 53 59 58 11 1 18 7 17 13 -4 15 78 83
90 75 6 -3 7 -2 4 4 -4 6 5 21 19 34 21 20 27 21 34 9 9 -13 10 -13 11 0 1 8
1 18 0 22 -1 13 80 78 91 72 6 -4 8 -3 4 4 -8 13 73 84 87 75 6 -3 7 -2 4 4
-9 14 430 396 445 387 6 -4 8 -3 5 3 -8 13 56 75 74 71 8 -2 13 3 12 9 -2 7
72 74 163 150 161 134 196 160 179 133 -5 -9 -4 -11 4 -6 6 4 9 11 6 16 -6 10
53 56 66 53 5 -2 8 1 6 6 -3 13 183 162 194 155 5 -3 8 0 7 8 -2 7 3 12 10 10
6 -1 11 1 10 6 -2 4 52 56 119 115 67 59 137 125 155 146 36 42 112 86 130 75
6 -4 8 -3 5 3 -8 13 39 27 55 17 7 -4 8 -3 4 4 -11 19 60 15 78 -4z"/>
<path d="M32108 16021 c-4 -12 -393 -435 -657 -715 -119 -126 -286 -291 -373
-367 -164 -146 -198 -186 -198 -238 0 -107 177 -167 1186 -405 1915 -452 4485
-1016 6264 -1375 837 -168 880 -178 2235 -486 1447 -329 1909 -427 2520 -530
512 -87 784 -115 1104 -115 397 0 493 35 669 243 392 464 499 1132 281 1764
-71 207 -189 433 -295 565 -64 79 -185 178 -330 269 l-106 67 -122 7 c-66 3
-192 13 -279 21 -86 8 -163 14 -170 14 -6 0 42 -22 108 -49 447 -180 734 -385
909 -649 166 -248 222 -497 198 -867 -32 -480 -131 -769 -330 -957 -151 -142
-324 -198 -616 -198 -157 0 -242 12 -696 100 -1040 202 -3062 629 -8690 1834
-1246 267 -2389 510 -2540 541 -509 105 -667 151 -749 221 -51 44 -71 81 -71
131 0 53 27 92 107 156 269 215 523 562 612 837 29 93 51 190 41 190 -5 0 -10
-4 -12 -9z"/>
<path d="M3465 13488 c284 -288 462 -563 536 -828 46 -167 30 -364 -46 -562
l-24 -63 52 56 c28 30 69 80 89 110 33 48 39 67 50 151 37 297 -101 645 -400
1008 -39 47 -67 86 -62 88 5 2 143 -24 307 -58 599 -123 779 -158 843 -165
201 -21 518 -85 935 -190 116 -29 453 -103 750 -165 556 -114 1111 -230 1575
-326 146 -31 371 -77 500 -104 695 -145 2173 -457 2880 -609 1435 -309 2035
-446 2437 -557 138 -38 303 -78 468 -114 66 -14 559 -165 719 -220 622 -213
962 -475 1087 -838 52 -151 64 -384 34 -644 -51 -445 -193 -677 -451 -741
-148 -37 -336 -29 -640 26 -176 33 -204 35 -404 36 -118 0 -240 3 -270 6 -30
3 -50 3 -45 0 6 -2 159 -33 340 -69 182 -36 382 -76 445 -88 99 -20 146 -23
340 -23 191 0 234 3 285 19 300 93 455 364 506 883 17 169 6 447 -20 546 -102
385 -378 655 -896 877 -226 97 -495 182 -1000 315 -159 42 -396 105 -525 140
-286 78 -725 181 -1335 315 -99 22 -263 58 -365 80 -809 177 -2814 602 -4205
890 -236 49 -583 121 -770 160 -187 39 -371 77 -410 85 -38 7 -178 36 -310 64
-289 60 -1926 397 -2505 515 -228 46 -460 94 -514 105 -55 12 -102 21 -106 21
-3 0 53 -60 125 -132z"/>
<path d="M32060 12546 c-347 -389 -813 -878 -973 -1019 -168 -147 -207 -193
-207 -244 0 -92 155 -155 715 -293 1492 -366 4766 -1090 6650 -1470 888 -179
1115 -228 2150 -465 1891 -433 2571 -569 3285 -657 155 -19 234 -22 490 -22
285 0 310 1 384 22 106 30 157 61 246 152 139 142 268 349 340 547 203 556
124 1182 -218 1737 -71 116 -184 229 -325 324 -177 120 -198 129 -313 131 -54
1 -151 6 -214 11 -63 6 -144 13 -180 15 l-65 6 75 -29 c653 -255 1002 -578
1119 -1037 61 -241 49 -617 -30 -945 -54 -224 -129 -372 -253 -496 -64 -64
-99 -90 -166 -123 -147 -71 -214 -84 -450 -85 -234 0 -196 -6 -885 130 -1165
231 -2922 602 -8415 1778 -1955 419 -2522 539 -2845 606 -470 97 -615 170
-615 310 0 50 25 85 112 158 96 80 245 231 313 315 122 151 234 348 289 507
30 87 57 200 48 199 -4 0 -32 -29 -62 -63z"/>
<path d="M3546 10388 c187 -194 353 -448 427 -655 76 -210 74 -390 -8 -622
l-34 -96 41 45 c67 74 128 162 140 205 7 23 12 98 12 175 -1 112 -5 151 -26
230 -49 182 -147 373 -291 565 -126 169 -142 184 -217 201 -36 7 -76 17 -90
20 -20 4 -11 -9 46 -68z"/>
<path d="M31859 8933 c-409 -446 -634 -677 -786 -810 -151 -132 -193 -182
-193 -230 0 -43 29 -75 103 -111 126 -62 321 -117 927 -261 1872 -444 4702
-1067 6390 -1405 771 -154 1015 -207 2190 -476 1596 -365 2210 -491 2855 -589
344 -52 577 -73 830 -74 414 -2 520 39 711 277 315 392 434 935 323 1481 -45
222 -165 515 -292 713 -90 141 -228 267 -423 385 l-89 54 -130 7 c-122 7 -286
20 -400 32 -45 5 -36 -1 90 -54 355 -149 576 -288 753 -473 251 -263 356 -562
338 -967 -25 -583 -171 -947 -447 -1114 -196 -119 -512 -140 -919 -64 -976
184 -3061 623 -8210 1726 -2163 463 -3145 673 -3450 735 -453 93 -600 150
-656 257 -18 35 -18 92 1 128 8 16 48 55 88 87 271 215 526 563 616 843 21 67
51 190 46 190 -1 0 -121 -129 -266 -287z"/>
<path d="M15255 7859 c570 -228 865 -509 940 -899 29 -156 18 -458 -26 -686
-51 -264 -155 -446 -300 -524 -91 -48 -149 -61 -309 -67 -152 -6 -220 1 -490
52 -106 20 -166 24 -400 28 l-275 4 160 -33 c88 -18 295 -59 460 -91 l300 -58
195 0 c174 0 203 2 275 23 117 34 186 75 263 156 134 141 209 345 247 674 20
167 20 426 0 530 -44 231 -129 387 -304 563 -125 124 -265 221 -456 314 l-130
64 -145 3 -146 3 141 -56z"/>
</g>
</svg>
