<?xml version="1.0" encoding="utf-8"?>
<!-- Generator: Adobe Illustrator 21.0.0, SVG Export Plug-In . SVG Version: 6.00 Build 0)  -->
<svg version="1.1" id="Layer_1" xmlns="http://www.w3.org/2000/svg" xmlns:xlink="http://www.w3.org/1999/xlink" x="0px" y="0px"
	 width="1400px" height="980px" viewBox="0 0 1400 980" style="enable-background:new 0 0 1400 980;" xml:space="preserve">
<style type="text/css">
	.st0{fill-rule:evenodd;clip-rule:evenodd;fill:#F6F2E7;}
	.st1{fill-rule:evenodd;clip-rule:evenodd;fill:#E0DCD0;}
	.st2{fill-rule:evenodd;clip-rule:evenodd;fill:#BD643E;}
	.st3{fill-rule:evenodd;clip-rule:evenodd;fill:#9E4F2E;}
	.st4{fill-rule:evenodd;clip-rule:evenodd;fill:#9B6149;}
	.st5{fill-rule:evenodd;clip-rule:evenodd;fill:#855E4D;}
	.st6{fill-rule:evenodd;clip-rule:evenodd;fill:#DED9CD;}
	.st7{fill-rule:evenodd;clip-rule:evenodd;fill:#A88B65;}
	.st8{fill-rule:evenodd;clip-rule:evenodd;fill:#376B51;}
	.st9{fill-rule:evenodd;clip-rule:evenodd;fill:#3F8562;}
	.st10{fill-rule:evenodd;clip-rule:evenodd;fill:#FFFFFF;}
	.st11{fill-rule:evenodd;clip-rule:evenodd;fill:#69513A;}
	.st12{fill-rule:evenodd;clip-rule:evenodd;fill:#FFD17B;}
	.st13{fill-rule:evenodd;clip-rule:evenodd;fill:#FFDA94;}
	.st14{fill-rule:evenodd;clip-rule:evenodd;fill:#B76A3E;}
	.st15{fill-rule:evenodd;clip-rule:evenodd;fill:#345373;}
	.st16{fill-rule:evenodd;clip-rule:evenodd;fill:#547596;}
	.st17{fill-rule:evenodd;clip-rule:evenodd;fill:#CC724F;}
	.st18{fill-rule:evenodd;clip-rule:evenodd;fill:#CA6A37;}
	.st19{fill-rule:evenodd;clip-rule:evenodd;fill:#B8834D;}
	.st20{fill-rule:evenodd;clip-rule:evenodd;fill:#D99959;}
	.st21{fill-rule:evenodd;clip-rule:evenodd;fill:#4D4D4D;}
	.st22{fill-rule:evenodd;clip-rule:evenodd;fill:#B3B3B3;}
	.st23{fill-rule:evenodd;clip-rule:evenodd;fill:#333333;}
	.st24{fill-rule:evenodd;clip-rule:evenodd;fill:#FF6600;}
	.st25{fill-rule:evenodd;clip-rule:evenodd;fill:#BA6932;}
	.st26{fill-rule:evenodd;clip-rule:evenodd;fill:#FFAC75;}
	.st27{fill-rule:evenodd;clip-rule:evenodd;fill:#336666;}
	.st28{fill-rule:evenodd;clip-rule:evenodd;fill:#003333;}
	.st29{fill-rule:evenodd;clip-rule:evenodd;fill:#4C7878;}
	.st30{fill-rule:evenodd;clip-rule:evenodd;fill:#6699FF;}
	.st31{fill-rule:evenodd;clip-rule:evenodd;fill:#93B2F0;}
	.st32{fill-rule:evenodd;clip-rule:evenodd;fill:#5679BF;}
	.st33{fill-rule:evenodd;clip-rule:evenodd;fill:#816854;}
	.st34{fill-rule:evenodd;clip-rule:evenodd;fill:#33CC66;}
	.st35{fill-rule:evenodd;clip-rule:evenodd;fill:#A14966;}
	.st36{fill-rule:evenodd;clip-rule:evenodd;fill:#CC3366;}
	.st37{fill-rule:evenodd;clip-rule:evenodd;fill:#D65882;}
	.st38{fill-rule:evenodd;clip-rule:evenodd;fill:#7171BD;}
	.st39{fill-rule:evenodd;clip-rule:evenodd;fill:#336699;}
	.st40{fill-rule:evenodd;clip-rule:evenodd;fill:#E6E6E6;}
	.st41{fill-rule:evenodd;clip-rule:evenodd;fill:#8F5E40;}
	.st42{fill-rule:evenodd;clip-rule:evenodd;fill:#6161B0;}
</style>
<g>
	<rect class="st0" width="1400" height="980"/>
	<path class="st1" d="M1116.1,114.7h-91.9c-5.8,0-10.6,4.8-10.6,10.6v91.9c0,5.8,4.8,10.6,10.6,10.6h91.9c5.8,0,10.6-4.8,10.6-10.6
		v-91.9C1126.8,119.4,1122,114.7,1116.1,114.7z"/>
	<rect y="605.9" class="st2" width="1400" height="28.8"/>
	<rect x="655.9" y="605.9" class="st3" width="387.4" height="22.5"/>
	<rect y="628.4" class="st4" width="1400" height="351.6"/>
	<polygon class="st5" points="111.5,922.1 60.3,922.1 60.3,980 448.8,980 448.8,922.1 448.8,891.2 111.5,891.2 	"/>
	<polygon class="st5" points="510.8,922.1 459.6,922.1 459.6,980 848,980 848,922.1 848,891.2 510.8,891.2 	"/>
	<polygon class="st5" points="910.1,922.1 858.8,922.1 858.8,980 1247.3,980 1247.3,922.1 1247.3,891.2 910.1,891.2 	"/>
	<polygon class="st6" points="851.3,105.9 114.7,105.9 114.7,447.7 102.4,447.7 102.4,465.2 114.7,465.2 851.3,465.2 863.6,465.2 
		863.6,447.7 851.3,447.7 	"/>
	<polygon class="st7" points="871,94.3 134.4,94.3 134.4,436.1 122.1,436.1 122.1,453.6 134.4,453.6 871,453.6 883.3,453.6 
		883.3,436.1 871,436.1 	"/>
	<rect x="155.3" y="112.5" class="st8" width="694.8" height="323.6"/>
	<rect x="163.2" y="121.3" class="st9" width="679" height="306.4"/>
	
		<rect x="271.1" y="269.8" transform="matrix(0.5102 -0.8601 0.8601 0.5102 -99.1469 367.5949)" class="st10" width="4.2" height="2.1"/>
	
		<rect x="275.3" y="347.5" transform="matrix(0.341 -0.9401 0.9401 0.341 -146.4784 490.2162)" class="st10" width="2.1" height="4.2"/>
	
		<rect x="265.8" y="278.8" transform="matrix(0.5105 -0.8599 0.8599 0.5105 -109.4844 367.2677)" class="st10" width="4.2" height="2.1"/>
	<rect x="265.6" y="343.9" transform="matrix(0.341 -0.94 0.94 0.341 -149.6035 478.6359)" class="st10" width="2.1" height="4.2"/>
	
		<rect x="255.8" y="340.4" transform="matrix(0.341 -0.9401 0.9401 0.341 -152.7132 467.1021)" class="st10" width="2.1" height="4.2"/>
	
		<rect x="260.4" y="287.7" transform="matrix(0.5101 -0.8601 0.8601 0.5101 -119.7516 367.2454)" class="st10" width="4.2" height="2.1"/>
	
		<rect x="255.1" y="296.7" transform="matrix(0.5104 -0.8599 0.8599 0.5104 -130.0778 366.9411)" class="st10" width="4.2" height="2.1"/>
	
		<rect x="249.8" y="305.6" transform="matrix(0.5105 -0.8599 0.8599 0.5105 -140.3854 366.7169)" class="st10" width="4.2" height="2.1"/>
	
		<rect x="294.9" y="354.6" transform="matrix(0.3411 -0.94 0.94 0.3411 -140.2795 513.2266)" class="st10" width="2.1" height="4.2"/>
	
		<rect x="292.3" y="234" transform="matrix(0.5104 -0.8599 0.8599 0.5104 -57.9744 368.2212)" class="st10" width="4.2" height="2.1"/>
	
		<rect x="297.6" y="225" transform="matrix(0.5105 -0.8599 0.8599 0.5105 -47.6897 368.3673)" class="st10" width="4.2" height="2.1"/>
	
		<rect x="285.1" y="351" transform="matrix(0.341 -0.9401 0.9401 0.341 -143.3662 501.7563)" class="st10" width="2.1" height="4.2"/>
	
		<rect x="281.7" y="251.9" transform="matrix(0.5101 -0.8601 0.8601 0.5101 -78.5291 367.9966)" class="st10" width="4.2" height="2.1"/>
	
		<rect x="276.4" y="260.8" transform="matrix(0.5105 -0.8599 0.8599 0.5105 -88.8846 367.6348)" class="st10" width="4.2" height="2.1"/>
	
		<rect x="287" y="242.9" transform="matrix(0.5105 -0.8599 0.8599 0.5105 -68.2872 368.0011)" class="st10" width="4.2" height="2.1"/>
	
		<rect x="323.5" y="205" transform="matrix(0.7863 -0.6179 0.6179 0.7863 -58.5867 244.7567)" class="st10" width="2.1" height="4.2"/>
	
		<rect x="324.7" y="327.9" transform="matrix(0.9978 -6.699927e-02 6.699927e-02 0.9978 -21.3786 22.5644)" class="st10" width="2.1" height="4.2"/>
	
		<rect x="324" y="317.5" transform="matrix(0.9978 -6.692947e-02 6.692947e-02 0.9978 -20.6634 22.4702)" class="st10" width="2.1" height="4.2"/>
	
		<rect x="323.3" y="307.2" transform="matrix(0.9978 -6.693633e-02 6.693633e-02 0.9978 -19.9717 22.4027)" class="st10" width="2.1" height="4.2"/>
	
		<rect x="325.4" y="338.3" transform="matrix(0.9978 -6.679512e-02 6.679512e-02 0.9978 -22.008 22.5632)" class="st10" width="2.1" height="4.2"/>
	
		<rect x="326.1" y="348.7" transform="matrix(0.9978 -6.682233e-02 6.682233e-02 0.9978 -22.7092 22.6425)" class="st10" width="2.1" height="4.2"/>
	
		<rect x="302.9" y="216.1" transform="matrix(0.5104 -0.8599 0.8599 0.5104 -37.3751 368.5864)" class="st10" width="4.2" height="2.1"/>
	
		<rect x="400.6" y="303.2" transform="matrix(0.7863 -0.6179 0.6179 0.7863 -102.7958 313.4364)" class="st10" width="2.1" height="4.2"/>
	
		<rect x="329.9" y="213.2" transform="matrix(0.7863 -0.6178 0.6178 0.7863 -62.2731 250.448)" class="st10" width="2.1" height="4.2"/>
	
		<rect x="316.3" y="203.3" transform="matrix(0.9977 -6.722306e-02 6.722306e-02 0.9977 -13.0868 21.7971)" class="st10" width="2.1" height="4.2"/>
	<polygon class="st10" points="237.9,332.3 236.1,331.2 233.8,335.2 238.8,337.1 239.6,335.1 236.8,334.1 	"/>
	
		<rect x="239.2" y="323.5" transform="matrix(0.5104 -0.8599 0.8599 0.5104 -160.9849 366.3909)" class="st10" width="4.2" height="2.1"/>
	
		<rect x="244.5" y="314.6" transform="matrix(0.5105 -0.8599 0.8599 0.5105 -150.6873 366.5328)" class="st10" width="4.2" height="2.1"/>
	
		<rect x="317" y="213.7" transform="matrix(0.9977 -6.724273e-02 6.724273e-02 0.9977 -13.7874 21.8743)" class="st10" width="2.1" height="4.2"/>
	<polygon class="st10" points="316.9,199.1 318.5,201.2 320.2,199.9 317.6,196.6 316.6,197.4 315.8,196.9 313.7,200.5 315.5,201.5 	
		"/>
	
		<rect x="317.7" y="224.1" transform="matrix(0.9977 -6.724273e-02 6.724273e-02 0.9977 -14.4844 21.9448)" class="st10" width="2.1" height="4.2"/>
	
		<rect x="246" y="336.8" transform="matrix(0.341 -0.9401 0.9401 0.341 -155.8246 455.5616)" class="st10" width="2.1" height="4.2"/>
	
		<rect x="324.3" y="365.3" transform="matrix(0.3411 -0.94 0.94 0.3411 -130.9507 547.845)" class="st10" width="2.1" height="4.2"/>
	
		<rect x="368.5" y="262.3" transform="matrix(0.7865 -0.6177 0.6177 0.7865 -84.379 284.6957)" class="st10" width="2.1" height="4.2"/>
	
		<rect x="364.9" y="341.6" transform="matrix(0.8329 -0.5535 0.5535 0.8329 -128.3438 260.3786)" class="st10" width="4.2" height="2.1"/>
	
		<rect x="373.5" y="335.9" transform="matrix(0.8327 -0.5537 0.5537 0.8327 -123.7211 264.3453)" class="st10" width="4.2" height="2.1"/>
	
		<rect x="355.6" y="245.9" transform="matrix(0.7864 -0.6177 0.6177 0.7864 -77.0113 273.2621)" class="st10" width="2.1" height="4.2"/>
	
		<rect x="374.9" y="270.5" transform="matrix(0.7864 -0.6177 0.6177 0.7864 -88.0623 290.4244)" class="st10" width="2.1" height="4.2"/>
	
		<rect x="356.2" y="347.4" transform="matrix(0.8328 -0.5536 0.5536 0.8328 -133.0016 256.6299)" class="st10" width="4.2" height="2.1"/>
	
		<rect x="362.1" y="254.1" transform="matrix(0.786 -0.6182 0.6182 0.786 -80.6795 279.2821)" class="st10" width="2.1" height="4.2"/>
	
		<rect x="349.2" y="237.7" transform="matrix(0.7863 -0.6178 0.6178 0.7863 -73.3227 267.6221)" class="st10" width="2.1" height="4.2"/>
	
		<rect x="399.5" y="318.6" transform="matrix(0.8327 -0.5537 0.5537 0.8327 -109.7912 275.8594)" class="st10" width="4.2" height="2.1"/>
	
		<rect x="394.2" y="295" transform="matrix(0.7864 -0.6177 0.6177 0.7864 -99.1131 307.619)" class="st10" width="2.1" height="4.2"/>
	<polygon class="st10" points="406,312.5 408.2,315.3 408.8,315.4 409.1,315.9 410.6,314.9 407.7,311.2 	"/>
	
		<rect x="382.2" y="330.1" transform="matrix(0.8327 -0.5537 0.5537 0.8327 -119.0782 268.1915)" class="st10" width="4.2" height="2.1"/>
	
		<rect x="381.3" y="278.7" transform="matrix(0.7864 -0.6177 0.6177 0.7864 -91.7458 296.1495)" class="st10" width="2.1" height="4.2"/>
	
		<rect x="390.9" y="324.3" transform="matrix(0.8328 -0.5536 0.5536 0.8328 -114.4241 271.9267)" class="st10" width="4.2" height="2.1"/>
	
		<rect x="387.8" y="286.9" transform="matrix(0.7859 -0.6183 0.6183 0.7859 -95.4191 302.2538)" class="st10" width="2.1" height="4.2"/>
	
		<rect x="326.8" y="359.1" transform="matrix(0.9978 -6.693731e-02 6.693731e-02 0.9978 -23.4408 22.7527)" class="st10" width="2.1" height="4.2"/>
	
		<rect x="319.8" y="255.2" transform="matrix(0.9978 -6.679512e-02 6.679512e-02 0.9978 -16.4696 22.0049)" class="st10" width="2.1" height="4.2"/>
	
		<rect x="320.5" y="265.6" transform="matrix(0.9978 -6.679512e-02 6.679512e-02 0.9978 -17.1619 22.0747)" class="st10" width="2.1" height="4.2"/>
	
		<rect x="347.5" y="353.2" transform="matrix(0.8328 -0.5536 0.5536 0.8328 -137.6421 252.7805)" class="st10" width="4.2" height="2.1"/>
	
		<rect x="319.1" y="244.8" transform="matrix(0.9978 -6.699731e-02 6.699731e-02 0.9978 -15.8229 22.0032)" class="st10" width="2.1" height="4.2"/>
	
		<rect x="308.2" y="207.1" transform="matrix(0.5104 -0.8599 0.8599 0.5104 -27.0754 368.769)" class="st10" width="4.2" height="2.1"/>
	
		<rect x="318.4" y="234.4" transform="matrix(0.9978 -6.679317e-02 6.679317e-02 0.9978 -15.0846 21.8646)" class="st10" width="2.1" height="4.2"/>
	
		<rect x="314.5" y="361.7" transform="matrix(0.3411 -0.94 0.94 0.3411 -134.0609 536.3024)" class="st10" width="2.1" height="4.2"/>
	
		<rect x="321.2" y="276" transform="matrix(0.9978 -6.699731e-02 6.699731e-02 0.9978 -17.9061 22.2135)" class="st10" width="2.1" height="4.2"/>
	
		<rect x="338.9" y="359" transform="matrix(0.8327 -0.5537 0.5537 0.8327 -142.3018 249.018)" class="st10" width="4.2" height="2.1"/>
	
		<rect x="342.8" y="229.5" transform="matrix(0.7863 -0.6178 0.6178 0.7863 -69.6393 261.8997)" class="st10" width="2.1" height="4.2"/>
	
		<rect x="336.3" y="221.4" transform="matrix(0.7861 -0.6181 0.6181 0.7861 -65.9454 256.3073)" class="st10" width="2.1" height="4.2"/>
	
		<rect x="304.7" y="358.1" transform="matrix(0.3411 -0.94 0.94 0.3411 -137.1712 524.7616)" class="st10" width="2.1" height="4.2"/>
	
		<rect x="322.6" y="296.8" transform="matrix(0.9978 -6.682428e-02 6.682428e-02 0.9978 -19.2469 22.2942)" class="st10" width="2.1" height="4.2"/>
	
		<rect x="330.2" y="364.7" transform="matrix(0.8328 -0.5536 0.5536 0.8328 -146.9264 245.1012)" class="st10" width="4.2" height="2.1"/>
	
		<rect x="321.9" y="286.4" transform="matrix(0.9978 -6.699927e-02 6.699927e-02 0.9978 -18.601 22.2843)" class="st10" width="2.1" height="4.2"/>
	<path class="st10" d="M257.6,263.4v-1.7c0-0.6,0-1-0.1-1.2c-0.1-0.4-0.2-0.7-0.4-0.9c-0.2-0.2-0.5-0.4-0.9-0.6
		c-0.4-0.2-0.9-0.2-1.6-0.2c-0.7,0-1.2,0.1-1.7,0.3c-0.5,0.2-0.9,0.4-1.1,0.8c-0.3,0.3-0.5,0.8-0.6,1.3l1.3,0.2
		c0.1-0.5,0.4-0.9,0.6-1.1c0.3-0.2,0.7-0.3,1.4-0.3c0.7,0,1.1,0.1,1.5,0.4c0.2,0.2,0.4,0.6,0.4,1.1c0,0,0,0.2,0,0.3
		c-0.5,0.2-1.3,0.3-2.3,0.4c-0.5,0.1-0.9,0.1-1.2,0.2c-0.3,0.1-0.7,0.2-0.9,0.4c-0.3,0.2-0.5,0.4-0.7,0.7c-0.2,0.3-0.3,0.7-0.3,1
		c0,0.6,0.2,1.2,0.7,1.6c0.5,0.4,1.1,0.6,1.9,0.6c0.5,0,1-0.1,1.4-0.3c0.4-0.2,0.9-0.5,1.4-0.9c0,0.4,0.1,0.7,0.3,1h1.4
		c-0.2-0.3-0.3-0.6-0.3-0.9C257.6,265.4,257.6,264.6,257.6,263.4z M256.3,263.2c0,0.6-0.1,1-0.2,1.3c-0.2,0.4-0.5,0.7-0.9,0.9
		c-0.4,0.2-0.8,0.3-1.3,0.3c-0.5,0-0.9-0.1-1.1-0.3c-0.3-0.2-0.4-0.5-0.4-0.9c0-0.2,0.1-0.4,0.2-0.6c0.1-0.2,0.3-0.3,0.5-0.4
		c0.2-0.1,0.6-0.2,1.1-0.3c0.9-0.1,1.7-0.3,2.1-0.5L256.3,263.2z"/>
	<path class="st10" d="M385.4,248.4v-1.7c0-0.6,0-1-0.1-1.2c-0.1-0.4-0.2-0.7-0.4-0.9c-0.2-0.2-0.5-0.4-0.9-0.6
		c-0.4-0.2-0.9-0.2-1.6-0.2c-0.7,0-1.2,0.1-1.7,0.3c-0.5,0.2-0.9,0.4-1.1,0.8c-0.3,0.3-0.5,0.8-0.6,1.3l1.3,0.2
		c0.1-0.5,0.4-0.9,0.6-1.1c0.3-0.2,0.7-0.3,1.4-0.3c0.7,0,1.1,0.1,1.5,0.4c0.2,0.2,0.4,0.6,0.4,1.1c0,0,0,0.2,0,0.3
		c-0.5,0.2-1.3,0.3-2.3,0.4c-0.5,0.1-0.9,0.1-1.2,0.2c-0.3,0.1-0.7,0.2-0.9,0.4c-0.3,0.2-0.5,0.4-0.7,0.7c-0.2,0.3-0.3,0.7-0.3,1
		c0,0.6,0.2,1.2,0.7,1.6c0.5,0.4,1.1,0.6,1.9,0.6c0.5,0,1-0.1,1.4-0.3c0.4-0.2,0.9-0.5,1.4-0.9c0,0.4,0.1,0.7,0.3,1h1.4
		c-0.2-0.3-0.3-0.6-0.3-0.9C385.4,250.4,385.4,249.6,385.4,248.4z M384.1,248.2c0,0.6-0.1,1-0.2,1.3c-0.2,0.4-0.5,0.7-0.9,0.9
		c-0.4,0.2-0.8,0.3-1.3,0.3c-0.5,0-0.9-0.1-1.1-0.3c-0.3-0.2-0.4-0.5-0.4-0.9c0-0.2,0.1-0.4,0.2-0.6c0.1-0.2,0.3-0.3,0.5-0.4
		c0.2-0.1,0.6-0.2,1.1-0.3c0.9-0.1,1.7-0.3,2.1-0.5L384.1,248.2z"/>
	<path class="st10" d="M384.5,359.7v-1.7c0-0.6,0-1-0.1-1.2c-0.1-0.4-0.2-0.7-0.4-0.9c-0.2-0.2-0.5-0.4-0.9-0.6
		c-0.4-0.2-0.9-0.2-1.6-0.2c-0.7,0-1.2,0.1-1.7,0.3c-0.5,0.2-0.9,0.4-1.1,0.8c-0.3,0.3-0.5,0.8-0.6,1.3l1.3,0.2
		c0.1-0.5,0.4-0.9,0.6-1.1c0.3-0.2,0.7-0.3,1.4-0.3c0.7,0,1.1,0.1,1.5,0.4c0.2,0.2,0.4,0.6,0.4,1.1c0,0,0,0.2,0,0.3
		c-0.5,0.2-1.3,0.3-2.3,0.4c-0.5,0.1-0.9,0.1-1.2,0.2c-0.3,0.1-0.7,0.2-0.9,0.4c-0.3,0.2-0.5,0.4-0.7,0.7c-0.2,0.3-0.3,0.7-0.3,1
		c0,0.6,0.2,1.2,0.7,1.6c0.5,0.4,1.1,0.6,1.9,0.6c0.5,0,1-0.1,1.4-0.3c0.4-0.2,0.9-0.5,1.4-0.9c0,0.4,0.1,0.7,0.3,1h1.4
		c-0.2-0.3-0.3-0.6-0.3-0.9C384.5,361.6,384.5,360.9,384.5,359.7z M383.1,359.5c0,0.6-0.1,1-0.2,1.3c-0.2,0.4-0.5,0.7-0.9,0.9
		c-0.4,0.2-0.8,0.3-1.3,0.3c-0.5,0-0.9-0.1-1.1-0.3c-0.3-0.2-0.4-0.5-0.4-0.9c0-0.2,0.1-0.4,0.2-0.6c0.1-0.2,0.3-0.3,0.5-0.4
		c0.2-0.1,0.6-0.2,1.1-0.3c0.9-0.1,1.7-0.3,2.1-0.5L383.1,359.5z"/>
	<g>
		<rect x="152.7" y="869" class="st11" width="17.1" height="111"/>
		<rect x="431.7" y="869" class="st11" width="17.1" height="111"/>
		<rect x="152.7" y="786.3" class="st12" width="296.1" height="82.7"/>
		<path class="st13" d="M279.8,810.8c0,21.5,7.7,41.5,21,58.2h148v-82.7H283.2C281,794.2,279.8,802.4,279.8,810.8z"/>
		<rect x="152.7" y="869" class="st14" width="296.1" height="22.2"/>
		<rect x="552" y="869" class="st11" width="17.1" height="111"/>
		<rect x="831" y="869" class="st11" width="17.1" height="111"/>
		<rect x="552" y="786.3" class="st12" width="296.1" height="82.7"/>
		<path class="st13" d="M679.1,810.8c0,21.5,7.7,41.5,21,58.2h148v-82.7H682.5C680.3,794.2,679.1,802.4,679.1,810.8z"/>
		<rect x="552" y="869" class="st14" width="296.1" height="22.2"/>
		<rect x="951.2" y="869" class="st11" width="17.1" height="111"/>
		<rect x="1230.2" y="869" class="st11" width="17.1" height="111"/>
		<rect x="951.2" y="786.3" class="st12" width="296.1" height="82.7"/>
		<path class="st13" d="M1078.3,810.8c0,21.5,7.7,41.5,21,58.2h148v-82.7h-165.5C1079.5,794.2,1078.3,802.4,1078.3,810.8z"/>
		<rect x="951.2" y="869" class="st14" width="296.1" height="22.2"/>
		<g>
			<rect x="166.3" y="790.6" class="st15" width="74.7" height="45.9"/>
			<rect x="166.3" y="790.6" class="st16" width="74.7" height="38.7"/>
			<rect x="182.5" y="832.2" class="st10" width="28.6" height="0.9"/>
		</g>
		<g>
			<rect x="597.6" y="798.1" class="st15" width="74.7" height="45.9"/>
			<rect x="597.6" y="798.1" class="st16" width="74.7" height="38.7"/>
			<rect x="613.7" y="839.7" class="st10" width="28.6" height="0.9"/>
		</g>
		<g>
			<rect x="994.4" y="790.5" class="st15" width="74.7" height="45.9"/>
			<rect x="994.4" y="790.5" class="st16" width="74.7" height="38.7"/>
			<rect x="1010.6" y="832" class="st10" width="28.6" height="0.9"/>
		</g>
		<g>
			<path class="st11" d="M234.2,805h-8.4c-1.8,0-3.2,1.4-3.2,3.2V980h14.8V808.2C237.4,806.4,235.9,805,234.2,805z"/>
			<rect x="237.4" y="813.4" class="st17" width="126.7" height="60"/>
			<path class="st11" d="M375.7,805h-8.4c-1.8,0-3.2,1.4-3.2,3.2V980h14.8V808.2C378.9,806.4,377.4,805,375.7,805z"/>
			<g>
				<rect x="237.4" y="907.4" class="st12" width="126.7" height="60"/>
				<rect x="237.4" y="967.4" class="st17" width="126.7" height="12.6"/>
			</g>
		</g>
		<g>
			<path class="st11" d="M633.5,805H625c-1.8,0-3.2,1.4-3.2,3.2V980h14.8V808.2C636.7,806.4,635.2,805,633.5,805z"/>
			<rect x="636.7" y="813.4" class="st17" width="126.7" height="60"/>
			<path class="st11" d="M775,805h-8.4c-1.8,0-3.2,1.4-3.2,3.2V980h14.8V808.2C778.2,806.4,776.7,805,775,805z"/>
			<g>
				<rect x="636.7" y="907.4" class="st12" width="126.7" height="60"/>
				<rect x="636.7" y="967.4" class="st17" width="126.7" height="12.6"/>
			</g>
		</g>
		<g>
			<path class="st11" d="M1032.7,805h-8.4c-1.8,0-3.2,1.4-3.2,3.2V980h14.8V808.2C1035.9,806.4,1034.5,805,1032.7,805z"/>
			<rect x="1035.9" y="813.4" class="st17" width="126.7" height="60"/>
			<path class="st11" d="M1174.2,805h-8.4c-1.8,0-3.2,1.4-3.2,3.2V980h14.8V808.2C1177.4,806.4,1176,805,1174.2,805z"/>
			<g>
				<rect x="1035.9" y="907.4" class="st12" width="126.7" height="60"/>
				<rect x="1035.9" y="967.4" class="st17" width="126.7" height="12.6"/>
			</g>
		</g>
	</g>
	<g>
		<g>
			<g>
				<path class="st10" d="M636.5,320.1c-0.5,0.5-1.2,0.9-1.9,1.2v1.3c0.4-0.1,0.9-0.4,1.4-0.7c0.5-0.3,0.9-0.6,1.2-0.9v8.3h1.3
					v-10.6h-0.8C637.4,319.2,637.1,319.6,636.5,320.1z"/>
				<rect x="632.8" y="331.7" class="st10" width="8.6" height="0.9"/>
				<path class="st10" d="M635.8,344.2c0.2-0.2,0.7-0.7,1.5-1.3c0.9-0.8,1.6-1.4,2-1.9c0.4-0.5,0.7-0.9,0.9-1.3
					c0.2-0.4,0.3-0.8,0.3-1.2c0-0.8-0.3-1.5-0.9-2.1c-0.6-0.6-1.4-0.8-2.4-0.8c-1,0-1.8,0.3-2.4,0.8c-0.6,0.5-0.9,1.3-1,2.3l1.3,0.1
					c0-0.7,0.2-1.2,0.6-1.5c0.4-0.4,0.9-0.6,1.5-0.6c0.6,0,1.1,0.2,1.4,0.5c0.4,0.4,0.6,0.8,0.6,1.3c0,0.5-0.2,1-0.6,1.6
					c-0.4,0.6-1.2,1.3-2.3,2.2c-0.7,0.6-1.3,1.1-1.7,1.6c-0.4,0.5-0.7,0.9-0.9,1.4c-0.1,0.3-0.2,0.6-0.2,0.9h7v-1.2h-5.2
					C635.4,344.7,635.6,344.4,635.8,344.2z"/>
			</g>
			<g>
				<path class="st10" d="M670.8,323.6c0.5-0.2,0.8-0.5,1.1-0.9c0.2-0.4,0.4-0.8,0.4-1.2c0-0.5-0.1-0.9-0.4-1.4
					c-0.3-0.4-0.6-0.8-1.1-1c-0.5-0.2-1-0.4-1.6-0.4c-0.8,0-1.5,0.2-2.1,0.7c-0.6,0.5-0.9,1.2-1.1,2l1.3,0.2
					c0.1-0.6,0.3-1.1,0.6-1.4c0.3-0.3,0.8-0.5,1.3-0.5c0.5,0,0.9,0.2,1.2,0.5c0.3,0.3,0.5,0.7,0.5,1.2c0,0.6-0.2,1-0.7,1.3
					c-0.4,0.3-0.9,0.4-1.5,0.4c-0.1,0-0.1,0-0.2,0l-0.1,1.1c0.4-0.1,0.7-0.1,0.9-0.1c0.6,0,1.1,0.2,1.5,0.6c0.4,0.4,0.6,0.9,0.6,1.5
					c0,0.6-0.2,1.1-0.6,1.6c-0.4,0.4-0.9,0.6-1.5,0.6c-0.5,0-1-0.2-1.3-0.5c-0.4-0.3-0.6-0.9-0.8-1.6l-1.3,0.2
					c0.1,0.9,0.4,1.6,1,2.1c0.6,0.6,1.4,0.8,2.3,0.8c1,0,1.9-0.3,2.6-1c0.7-0.6,1-1.4,1-2.3c0-0.7-0.2-1.3-0.5-1.7
					C671.9,324,671.4,323.7,670.8,323.6z"/>
				<rect x="665" y="331.7" class="st10" width="8.6" height="0.9"/>
				<path class="st10" d="M668,344.2c0.2-0.2,0.7-0.7,1.5-1.3c0.9-0.8,1.6-1.4,2-1.9c0.4-0.5,0.7-0.9,0.9-1.3
					c0.2-0.4,0.3-0.8,0.3-1.2c0-0.8-0.3-1.5-0.9-2.1c-0.6-0.6-1.4-0.8-2.4-0.8c-1,0-1.8,0.3-2.4,0.8c-0.6,0.5-0.9,1.3-1,2.3l1.3,0.1
					c0-0.7,0.2-1.2,0.6-1.5c0.4-0.4,0.9-0.6,1.5-0.6c0.6,0,1.1,0.2,1.4,0.5c0.4,0.4,0.6,0.8,0.6,1.3c0,0.5-0.2,1-0.6,1.6
					c-0.4,0.6-1.2,1.3-2.3,2.2c-0.7,0.6-1.3,1.1-1.7,1.6c-0.4,0.5-0.7,0.9-0.9,1.4c-0.1,0.3-0.2,0.6-0.2,0.9h7v-1.2h-5.2
					C667.6,344.7,667.8,344.4,668,344.2z"/>
			</g>
			<polygon class="st10" points="653,328.7 651.8,328.7 651.8,331.5 648.9,331.5 648.9,332.7 651.8,332.7 651.8,335.6 653,335.6 
				653,332.7 655.9,332.7 655.9,331.5 653,331.5 			"/>
		</g>
		<path class="st10" d="M465,204.4v147.1h147.1V204.4h-146H465z M467.1,206.5H610v142.9H467.1V206.5z"/>
		
			<rect x="510.7" y="249" transform="matrix(0.7072 -0.7071 0.7071 0.7072 -27.6807 435.3298)" class="st10" width="2.1" height="4.2"/>
		
			<rect x="518" y="256.4" transform="matrix(0.7071 -0.7071 0.7071 0.7071 -30.7168 442.7308)" class="st10" width="2.1" height="4.2"/>
		
			<rect x="525.4" y="263.7" transform="matrix(0.7071 -0.7071 0.7071 0.7071 -33.768 450.0867)" class="st10" width="2.1" height="4.2"/>
		
			<rect x="503.3" y="241.6" transform="matrix(0.7071 -0.7071 0.7071 0.7071 -24.618 428.0071)" class="st10" width="2.1" height="4.2"/>
		
			<rect x="488.6" y="226.9" transform="matrix(0.7072 -0.7071 0.7071 0.7072 -18.5306 413.2518)" class="st10" width="2.1" height="4.2"/>
		
			<rect x="481.2" y="219.6" transform="matrix(0.7071 -0.7071 0.7071 0.7071 -15.4704 405.9229)" class="st10" width="2.1" height="4.2"/>
		
			<rect x="473.9" y="212.2" transform="matrix(0.7072 -0.7071 0.7071 0.7072 -12.4348 398.5268)" class="st10" width="2.1" height="4.2"/>
		
			<rect x="532.7" y="271.1" transform="matrix(0.7071 -0.7071 0.7071 0.7071 -36.8155 457.4544)" class="st10" width="2.1" height="4.2"/>
		
			<rect x="495.9" y="234.3" transform="matrix(0.7071 -0.7071 0.7071 0.7071 -21.5687 420.6454)" class="st10" width="2.1" height="4.2"/>
		
			<rect x="466.5" y="204.8" transform="matrix(0.7071 -0.7071 0.7071 0.7071 -9.3727 391.2016)" class="st10" width="2.1" height="4.2"/>
		
			<rect x="584.3" y="322.6" transform="matrix(0.7071 -0.7071 0.7071 0.7071 -58.163 508.9805)" class="st10" width="2.1" height="4.2"/>
		
			<rect x="540.1" y="278.4" transform="matrix(0.7071 -0.7071 0.7071 0.7071 -39.8649 464.8163)" class="st10" width="2.1" height="4.2"/>
		
			<rect x="591.6" y="330" transform="matrix(0.7071 -0.7071 0.7071 0.7071 -61.2106 516.3494)" class="st10" width="2.1" height="4.2"/>
		
			<rect x="606.4" y="344.7" transform="matrix(0.7071 -0.7071 0.7071 0.7071 -67.3132 531.0708)" class="st10" width="2.1" height="4.2"/>
		
			<rect x="599" y="337.3" transform="matrix(0.7071 -0.7071 0.7071 0.7071 -64.259 523.7205)" class="st10" width="2.1" height="4.2"/>
		
			<rect x="576.9" y="315.3" transform="matrix(0.7071 -0.7071 0.7071 0.7071 -55.1117 501.6253)" class="st10" width="2.1" height="4.2"/>
		
			<rect x="569.6" y="307.9" transform="matrix(0.7071 -0.7071 0.7071 0.7071 -52.0623 494.2634)" class="st10" width="2.1" height="4.2"/>
		
			<rect x="554.8" y="293.2" transform="matrix(0.7071 -0.7071 0.7071 0.7071 -45.9636 479.5398)" class="st10" width="2.1" height="4.2"/>
		
			<rect x="547.5" y="285.8" transform="matrix(0.7071 -0.7071 0.7071 0.7071 -42.9123 472.1841)" class="st10" width="2.1" height="4.2"/>
		
			<rect x="562.2" y="300.5" transform="matrix(0.7071 -0.7071 0.7071 0.7071 -49.013 486.9017)" class="st10" width="2.1" height="4.2"/>
	</g>
	<path class="st10" d="M685.8,238.8c-0.1-1.1-0.1-2.2-0.1-3.5c0-1.2-0.1-2.4-0.2-3.5s-0.3-2.1-0.6-2.9c-0.3-0.8-0.7-1.4-1.2-1.6
		c-0.4-0.2-0.7-0.1-1,0.1c-1,0.7-1.9,1.5-2.5,2.5c-0.7,1-1.3,2-1.9,3c-0.6,1-1.2,2-1.9,3c-0.6,1-1.4,1.7-2.3,2.3
		c-0.2-0.1-0.4-0.5-0.6-1.3c-0.2-0.8-0.4-1.6-0.6-2.5c-0.2-0.9-0.5-1.9-0.8-2.8c-0.3-0.9-0.7-1.6-1.2-2c-0.5-0.4-1.1-0.5-1.8-0.3
		c-0.7,0.2-1.5,1.1-2.4,2.5c-0.3,0.3-0.6,0.8-1.1,1.4c-0.5,0.6-0.8,1-1,1.4c-0.4,0.8-0.8,1.6-1.2,2.6c-0.4,1-0.9,1.9-1.5,2.8
		c-0.2-2-0.2-4.1-0.2-6.2c0-2.1,0-4.2,0-6.2c-0.1-0.6-0.4-0.9-0.9-0.8c-0.5,0.1-0.7,0.4-0.7,1c0,1.2,0,2.4,0.1,3.7
		c0.1,1.3,0.1,2.6,0.1,3.8c0,1.3,0,2.5,0,3.7c-0.1,1.2-0.2,2.3-0.4,3.2c0.1,0.3,0.4,0.5,1,0.6c0.5,0.1,0.9,0,1.2-0.2
		c0.5-0.5,1.1-1.4,1.7-2.6c0.7-1.3,1.4-2.5,2.2-3.8c0.8-1.3,1.6-2.4,2.3-3.4c0.8-1,1.5-1.4,2.1-1.4c0.4,0.6,0.6,1.4,0.7,2.3
		c0.1,0.9,0.2,1.8,0.3,2.7c0.1,0.9,0.3,1.7,0.6,2.5c0.3,0.8,0.8,1.3,1.6,1.7c0.2,0.1,0.4,0.1,0.6-0.1c0.2-0.2,0.4-0.3,0.6-0.4
		c1-0.6,1.8-1.5,2.5-2.5c0.6-1,1.3-2,1.9-3c0.6-1,1.2-2,1.9-3c0.6-1,1.5-1.8,2.5-2.4l0.5,0.2c0.2,0.6,0.3,1.6,0.4,2.9
		c0.1,1.3,0.1,2.6,0.1,4.1c0,1.4,0,2.8-0.1,4.1c-0.1,1.3-0.1,2.3-0.1,2.9c0,0.3,0.1,0.5,0.3,0.6c0.2,0.1,0.5,0.2,0.8,0.1
		c0.3-0.1,0.6-0.2,0.8-0.3c0.2-0.2,0.4-0.4,0.4-0.6c-0.2-0.2-0.4-0.6-0.4-1.4C685.9,240.8,685.8,239.9,685.8,238.8z"/>
	<path class="st10" d="M707.4,273.1c-0.3-1-0.7-2.1-1-3.3c-0.3-1.2-0.6-2.5-0.8-3.7c-0.3-1.2-0.6-2.2-1.1-3
		c-0.2-0.2-0.5-0.3-0.7-0.3c-1.3,0.1-2.4,0.5-3.4,1.1c-1,0.6-1.9,1.4-2.9,2.1c-0.9,0.8-1.9,1.5-2.9,2.2c-1,0.7-2.2,1-3.5,1.1
		c-1.3-1.6-1.9-3-1.7-4.4c0.1-1.4,0.7-2.6,1.8-3.7c1.1-1.1,2.4-1.9,4.1-2.6c1.7-0.6,3.4-1,5.1-1c0.3,0,0.5-0.1,0.6-0.3
		c0.1-0.2,0.2-0.5,0.1-0.7c-0.1-0.3-0.2-0.5-0.3-0.7c-0.2-0.2-0.4-0.3-0.6-0.4c-5.4,0.6-9.4,3.3-12.1,7.9c-0.3,0.4-0.4,1.1-0.4,1.9
		c0,0.8,0.1,1.7,0.3,2.5c0.2,0.9,0.5,1.6,1,2.3c0.5,0.6,1.1,1,1.8,1c1.6,0.1,2.9-0.2,4-0.9c1.1-0.6,2.1-1.4,3.1-2.2
		c0.9-0.8,1.8-1.6,2.7-2.3c0.9-0.7,1.8-1.1,2.9-1.2c0.5,0.9,0.8,1.8,0.8,3c0.1,1.1,0.2,2.3,0.4,3.4c0.2,1.2,0.5,2.2,1,3.2
		c0.5,1,1.4,1.8,2.7,2.4c0.5,0.2,0.8,0.1,1-0.3c0.2-0.4,0.1-0.7-0.3-1C708.3,274.8,707.8,274.1,707.4,273.1z"/>
	<path class="st10" d="M713.4,226.6c0.4-0.1,0.8-0.1,1-0.2c0.2-0.1,0.5-0.1,0.7-0.1c0.2,0,0.5,0,0.7,0c0.3,0,0.6,0.1,1,0.2
		c0.5-0.2,0.7-0.6,0.6-1.1c-0.1-0.5-0.4-0.8-0.8-0.9c-0.4,0.1-0.8,0.2-1,0.2c-0.2,0.1-0.4,0.1-0.6,0.1c-0.2,0-0.3,0.1-0.6,0.1
		c-0.2,0-0.5,0.1-0.9,0.1c0.3-1.6,0.5-3.3,0.7-5.2c0.2-1.9,0.4-3.6,0.5-4.9c-0.1-0.5-0.3-0.7-0.7-0.8c-0.4,0-0.7,0.2-0.9,0.6
		c-0.1,1.4-0.3,3.1-0.5,4.9c-0.2,1.8-0.5,3.6-0.8,5.2c-0.9,0.1-1.8,0.2-2.8,0.2c-1,0-1.9,0-2.8,0c-0.5,0.1-0.7,0.4-0.7,0.8
		c0,0.4,0.2,0.7,0.7,0.8c0.9,0,1.8,0,2.7,0c0.9,0,1.7,0,2.7-0.1c-0.5,3.2-0.7,6.2-0.7,9.1c0,2.7,0.8,5.4,2.2,8
		c-0.1,1.2-0.3,2.5-0.4,4c-0.2,1.8-0.5,3.6-0.8,5.2c-0.9,0.1-1.8,0.2-2.8,0.2c-1,0-1.9,0-2.8,0c-0.5,0.1-0.7,0.4-0.7,0.8
		c0,0.4,0.2,0.7,0.7,0.8c0.9,0,1.8,0,2.7,0c0.9,0,1.7,0,2.7-0.1c-0.5,3.2-0.7,6.2-0.7,9.1c0,2.8,0.8,5.6,2.4,8.3
		c0.2,0.2,0.4,0.3,0.6,0.3c0.3,0,0.5-0.1,0.8-0.2c0.2-0.2,0.4-0.4,0.5-0.6c0.1-0.3,0.1-0.5,0-0.8c-1.1-1-1.8-2-2.3-3.2
		c-0.4-1.2-0.7-2.5-0.7-3.8c0-1.4,0.1-2.8,0.3-4.3c0.2-1.5,0.5-3.1,0.8-4.7c0.4-0.1,0.8-0.1,1-0.2c0.2-0.1,0.5-0.1,0.7-0.1
		c0.2,0,0.5,0,0.7,0c0.3,0,0.6,0.1,1,0.2c0.5-0.2,0.7-0.6,0.6-1.1c-0.1-0.5-0.4-0.8-0.8-0.9c-0.4,0.1-0.8,0.2-1,0.2
		c-0.2,0.1-0.4,0.1-0.6,0.1c-0.2,0-0.3,0.1-0.6,0.1c-0.2,0-0.5,0.1-0.9,0.1c0.3-1.6,0.5-3.3,0.7-5.2c0.2-1.4,0.3-2.7,0.4-3.8
		c0.2-0.2,0.4-0.4,0.5-0.6c0.1-0.3,0.1-0.5,0-0.8c-1.1-1-1.8-2-2.3-3.2c-0.4-1.2-0.7-2.5-0.7-3.8c0-1.4,0.1-2.8,0.3-4.3
		C712.9,229.7,713.2,228.2,713.4,226.6z"/>
	<path class="st10" d="M685.8,266.7c-0.1-1.1-0.1-2.2-0.1-3.5c0-1.2-0.1-2.4-0.2-3.5s-0.3-2.1-0.6-2.9c-0.3-0.8-0.7-1.4-1.2-1.6
		c-0.4-0.2-0.7-0.1-1,0.1c-1,0.7-1.9,1.5-2.5,2.5c-0.7,1-1.3,2-1.9,3c-0.6,1-1.2,2-1.9,3c-0.6,1-1.4,1.7-2.3,2.3
		c-0.2-0.1-0.4-0.5-0.6-1.3c-0.2-0.8-0.4-1.6-0.6-2.5c-0.2-0.9-0.5-1.9-0.8-2.8c-0.3-0.9-0.7-1.6-1.2-2c-0.5-0.4-1.1-0.5-1.8-0.3
		c-0.7,0.2-1.5,1.1-2.4,2.5c-0.3,0.3-0.6,0.8-1.1,1.4c-0.5,0.6-0.8,1-1,1.4c-0.4,0.8-0.8,1.6-1.2,2.6c-0.4,1-0.9,1.9-1.5,2.8
		c-0.2-2-0.2-4.1-0.2-6.2c0-2.1,0-4.2,0-6.2c-0.1-0.6-0.4-0.9-0.9-0.8c-0.5,0.1-0.7,0.4-0.7,1c0,1.2,0,2.4,0.1,3.7
		c0.1,1.3,0.1,2.6,0.1,3.8c0,1.3,0,2.5,0,3.7c-0.1,1.2-0.2,2.3-0.4,3.2c0.1,0.3,0.4,0.5,1,0.6c0.5,0.1,0.9,0,1.2-0.2
		c0.5-0.5,1.1-1.4,1.7-2.6c0.7-1.3,1.4-2.5,2.2-3.8c0.8-1.3,1.6-2.4,2.3-3.4c0.8-1,1.5-1.4,2.1-1.4c0.4,0.6,0.6,1.4,0.7,2.3
		c0.1,0.9,0.2,1.8,0.3,2.7c0.1,0.9,0.3,1.7,0.6,2.5c0.3,0.8,0.8,1.3,1.6,1.7c0.2,0.1,0.4,0.1,0.6-0.1c0.2-0.2,0.4-0.3,0.6-0.4
		c1-0.6,1.8-1.5,2.5-2.5c0.6-1,1.3-2,1.9-3c0.6-1,1.2-2,1.9-3c0.6-1,1.5-1.8,2.5-2.4l0.5,0.2c0.2,0.6,0.3,1.6,0.4,2.9
		c0.1,1.3,0.1,2.6,0.1,4.1c0,1.4,0,2.8-0.1,4.1c-0.1,1.3-0.1,2.3-0.1,2.9c0,0.3,0.1,0.5,0.3,0.6c0.2,0.1,0.5,0.2,0.8,0.1
		c0.3-0.1,0.6-0.2,0.8-0.3c0.2-0.2,0.4-0.4,0.4-0.6c-0.2-0.2-0.4-0.6-0.4-1.4C685.9,268.7,685.8,267.8,685.8,266.7z"/>
	<path class="st10" d="M688.9,242.1c0.5,0.6,1.1,1,1.8,1c1.6,0.1,2.9-0.2,4-0.9c1.1-0.6,2.1-1.4,3.1-2.2c0.9-0.8,1.8-1.6,2.7-2.3
		c0.9-0.7,1.8-1.1,2.9-1.2c0.5,0.9,0.8,1.8,0.8,3c0.1,1.1,0.2,2.3,0.4,3.4c0.2,1.2,0.5,2.2,1,3.2c0.5,1,1.4,1.8,2.7,2.4
		c0.5,0.2,0.8,0.1,1-0.3c0.2-0.4,0.1-0.7-0.3-1c-0.6-0.3-1.1-1-1.5-1.9c-0.3-1-0.7-2.1-1-3.3c-0.3-1.2-0.6-2.5-0.8-3.7
		c-0.3-1.2-0.6-2.2-1.1-3c-0.2-0.2-0.5-0.3-0.7-0.3c-1.3,0.1-2.4,0.5-3.4,1.1c-1,0.6-1.9,1.4-2.9,2.1c-0.9,0.8-1.9,1.5-2.9,2.2
		c-1,0.7-2.2,1-3.5,1.1c-1.3-1.6-1.9-3-1.7-4.4c0.1-1.4,0.7-2.6,1.8-3.7c1.1-1.1,2.4-1.9,4.1-2.6c1.7-0.6,3.4-1,5.1-1
		c0.3,0,0.5-0.1,0.6-0.3c0.1-0.2,0.2-0.5,0.1-0.7c-0.1-0.3-0.2-0.5-0.3-0.7c-0.2-0.2-0.4-0.3-0.6-0.4c-5.4,0.6-9.4,3.3-12.1,7.9
		c-0.3,0.4-0.4,1.1-0.4,1.9c0,0.8,0.1,1.7,0.3,2.5C688.2,240.7,688.5,241.4,688.9,242.1z"/>
	<path class="st10" d="M756,236.4c-0.5,0.6-1.3,1.3-2.4,1.8c-1.1,0.6-2.3,1.1-3.5,1.5c-1.3,0.4-2.6,0.7-3.9,0.8
		c-1.3,0.2-2.5,0.1-3.5-0.1c-1-0.2-1.7-0.7-2.3-1.4c-0.5-0.7-0.6-1.7-0.2-3c0.2-0.6,0.5-1.3,1-2c0.3,0,0.6,0,0.9,0
		c0.3,0,0.6,0,1-0.1c1.5-0.1,3-0.3,4.6-0.6c0.4-0.1,0.9-0.1,1.5-0.2c0.6-0.1,1.3-0.2,2-0.4c0.7-0.2,1.3-0.4,1.8-0.6
		c0.6-0.2,1-0.6,1.3-0.9c0.4-0.4,0.4-0.9,0.2-1.3c-0.3-0.5-0.7-0.9-1.2-1.2c-0.5-0.4-1.1-0.7-1.7-0.9c-0.6-0.2-1-0.4-1.4-0.4
		c-1.9,0.1-3.8,0.6-5.7,1.3c-1.9,0.8-3.3,2.1-4.4,4c-0.8-0.1-1.3-0.3-1.5-0.6c-0.2-0.3-0.6-0.7-1.3-1c-0.3-0.1-0.5-0.1-0.8,0
		c-0.2,0.1-0.4,0.3-0.6,0.5c-0.1,0.2-0.2,0.4-0.2,0.7c0,0.2,0.1,0.4,0.4,0.6c0.8,0.4,1.3,0.6,1.6,0.8c0.3,0.1,0.9,0.3,1.6,0.4
		c-0.4,0.8-0.8,1.6-1.1,2.5c-0.3,0.9-0.2,1.8,0.2,2.5c0.2,0.4,0.5,0.8,0.9,1.2c0.4,0.4,0.7,0.8,1,1.2c0.3,0.4,0.8,0.6,1.6,0.7
		c0.8,0.1,1.8,0.1,2.9,0c1.1-0.1,2.3-0.3,3.5-0.6c1.3-0.3,2.5-0.6,3.6-1c1.2-0.4,2.2-0.9,3.1-1.4c0.9-0.5,1.6-1,2.1-1.6
		c0.2-0.4,0.2-0.8-0.1-1.1C756.7,236.1,756.4,236.1,756,236.4z M744.5,230.4c1-0.6,1.9-1.1,2.9-1.4c1-0.3,1.9-0.4,2.9-0.2
		c0.9,0.2,1.7,0.7,2.3,1.5c-1.1,0.5-2.6,1-4.6,1.5c-2,0.5-4,0.8-6,0.8C742.7,231.8,743.6,231.1,744.5,230.4z"/>
	<path class="st10" d="M739.7,266.2h-0.2c-1,0.9-1.8,1.5-2.4,1.9c-0.6,0.4-1.2,0.7-1.8,0.9c-0.6,0.2-1.1,0.3-1.6,0.4
		c-0.5,0.1-1.2,0.2-1.8,0.4c-0.4,0.1-0.8,0.2-1.2,0.2c-0.4,0.1-0.7,0.1-1,0.1c-1.6,0-2.6-0.4-3.3-1.3c-0.6-0.9-0.9-1.9-0.9-3.2
		c0-2.1,0.5-3.9,1.6-5.3c1-1.4,2.2-2.2,3.6-2.2c0.6,0,1.1,0,1.6,0.1c0.5,0.1,0.9,0.1,1.2,0.1c0.4,0,0.7-0.1,0.7-0.4v-0.4
		c-0.1-0.3-0.2-0.6-0.2-0.9c-0.1-0.3-0.1-0.4-0.2-0.4c-0.1,0-0.1,0-0.2,0.1c0-0.1-0.2-0.2-0.5-0.2c-0.6,0-1.4,0.1-2.4,0.4
		c-1,0.3-1.8,0.5-2.3,0.7c-1.3,0.5-2.4,1.6-3.2,3.1c-0.8,1.6-1.2,3.2-1.2,4.8c0,0.9,0.1,1.7,0.4,2.5c0.2,0.8,0.6,1.5,1.1,2.1
		c0.5,0.6,1.1,1.1,1.9,1.5c0.8,0.4,1.7,0.6,2.8,0.6c1.8,0,3.6-0.4,5.5-1.2c1.8-0.8,3.5-1.7,5.1-2.6c0.2-0.2,0.2-0.3,0.2-0.6
		c0-0.3-0.1-0.6-0.4-0.9C740.3,266.3,740,266.2,739.7,266.2z"/>
	<path class="st10" d="M725.1,234.6c1.2-1.1,2.3-2,3.4-2.6c1.1-0.6,2-0.9,2.9-0.7c0.8,0.1,1.5,0.6,2.1,1.5c0.5,0.9,0.9,2.2,1,4.1
		c0.1,0.7,0.2,1.6,0.2,2.6c0,1,0,1.9,0,2.7c0.1,0.2,0.2,0.4,0.5,0.4c0.3,0.1,0.5,0.1,0.8,0.1c0.3,0,0.5-0.1,0.7-0.2
		c0.2-0.1,0.3-0.3,0.4-0.6c0-0.3,0-0.5-0.1-0.5c-0.1,0-0.2-0.1-0.3-0.3c-0.1-0.2-0.2-0.6-0.3-1.2c-0.1-0.6-0.2-1.6-0.2-3.1
		c-0.1-2.1-0.5-3.7-1.2-4.8c-0.7-1.1-1.6-1.8-2.8-2c-1.1-0.2-2.4,0-3.8,0.6c-1.4,0.6-2.9,1.6-4.3,2.9c-0.8,0.8-1.3,1.4-1.6,2
		c-0.3,0.6-0.8,1.2-1.5,1.9c0-5.1-0.2-10.1-0.5-15.1c-0.3-5-0.5-10-0.6-15c-0.1-0.6-0.4-0.9-0.9-0.8c-0.5,0.1-0.7,0.4-0.7,1
		c0.1,3.2,0.2,6.4,0.3,9.6c0.1,3.2,0.3,6.4,0.5,9.6c0.1,1,0.1,2.2,0,3.6c-0.1,1.4-0.3,2.7-0.4,4c-0.1,1.3-0.1,2.4-0.1,3.4
		c0,1,0.2,1.6,0.6,1.8c0.3,0.2,0.7,0.4,1.1,0.7c0.4,0.3,0.7,0.4,1,0.3c0.5-0.3,0.9-0.7,1.2-1.2c0.3-0.5,0.6-1,0.9-1.6
		c0.3-0.6,0.6-1.1,0.9-1.6C724.3,235.5,724.6,235,725.1,234.6z"/>
	<path class="st10" d="M721.9,249.1h-1.1c-0.5,0.1-0.7,0.5-0.7,1.2c0,0.7,0.3,1.1,0.8,1.2l1-0.8c0.6-0.1,0.9-0.4,0.9-0.8
		C722.8,249.5,722.5,249.2,721.9,249.1z"/>
	<path class="st10" d="M721.7,255.5c0-0.3-0.1-0.5-0.2-0.6c-0.1-0.1-0.3,0-0.5,0.1c-0.2,0.1-0.4,0.3-0.6,0.4
		c-0.2,0.2-0.4,0.4-0.5,0.6c-0.3,0.8-0.3,1.8-0.2,2.9c0.2,1.1,0.2,2.1,0.1,3c-0.1,1.4-0.2,2.7-0.4,4.1c-0.1,1.3-0.2,2.7-0.3,4.1
		c0,0.3,0.1,0.5,0.4,0.6c0.2,0.2,0.5,0.3,0.8,0.3c0.3,0,0.6,0,0.8-0.2c0.3-0.1,0.4-0.3,0.5-0.6c-0.4-0.7-0.6-2.2-0.5-4.5
		C721.2,263.4,721.4,260,721.7,255.5z"/>
	<g>
		<rect x="1153.5" y="271" class="st1" width="246.5" height="334.9"/>
		<rect x="1174.2" y="317.9" class="st18" width="225.8" height="362.5"/>
		<rect x="1174.2" y="271" class="st12" width="225.8" height="46.9"/>
		<rect x="1190.6" y="337.9" class="st19" width="209.4" height="93.1"/>
		<rect x="1190.6" y="451" class="st19" width="209.4" height="96.2"/>
		<rect x="1190.6" y="567.3" class="st19" width="209.4" height="93.1"/>
		<rect x="1190.6" y="391.4" class="st20" width="209.4" height="39.6"/>
		<g>
			<rect x="1201.1" y="347.6" class="st21" width="22.5" height="83.5"/>
			<g>
				<rect x="1206.1" y="358.8" class="st22" width="12.5" height="46.3"/>
				<rect x="1206.1" y="411" class="st22" width="12.5" height="8.9"/>
			</g>
			<rect x="1201.1" y="337.9" class="st23" width="22.5" height="9.7"/>
		</g>
		<g>
			<rect x="1228.3" y="347.6" class="st21" width="22.5" height="83.5"/>
			<g>
				<rect x="1233.3" y="358.8" class="st22" width="12.5" height="46.3"/>
				<rect x="1233.3" y="411" class="st22" width="12.5" height="8.9"/>
			</g>
			<rect x="1228.3" y="337.9" class="st23" width="22.5" height="9.7"/>
		</g>
		<g>
			<rect x="1255.5" y="347.6" class="st21" width="22.5" height="83.5"/>
			<g>
				<rect x="1260.5" y="358.8" class="st22" width="12.5" height="46.3"/>
				<rect x="1260.5" y="411" class="st22" width="12.5" height="8.9"/>
			</g>
			<rect x="1255.5" y="337.9" class="st23" width="22.5" height="9.7"/>
		</g>
		<g>
			<rect x="1282.7" y="347.6" class="st21" width="22.5" height="83.5"/>
			<g>
				<rect x="1287.7" y="358.8" class="st22" width="12.5" height="46.3"/>
				<rect x="1287.7" y="411" class="st22" width="12.5" height="8.9"/>
			</g>
			<rect x="1282.7" y="337.9" class="st23" width="22.5" height="9.7"/>
		</g>
		<rect x="1190.6" y="507.7" class="st20" width="209.4" height="39.6"/>
		<rect x="1190.6" y="620.8" class="st20" width="209.4" height="39.6"/>
		<g>
			<path class="st24" d="M1322.9,415.5c0,5.3,7.8,9.6,17.4,9.6c9.6,0,17.4-4.3,17.4-9.6v-50.4h-34.7V415.5z"/>
			<path class="st25" d="M1322.9,415.5c0,4.2,4.8,7.7,11.5,9.1v-59.5h-11.5V415.5z"/>
			<ellipse class="st26" cx="1340.3" cy="365.1" rx="17.4" ry="9.6"/>
			<path class="st26" d="M1352.6,373.9c-1.5,0-2.8,1.2-2.8,2.8v39.1c0,1.5,1.2,2.8,2.8,2.8c1.5,0,2.8-1.2,2.8-2.8v-39.1
				C1355.3,375.1,1354.1,373.9,1352.6,373.9z"/>
		</g>
		<g>
			<polygon class="st27" points="1374.7,425.1 1400,425.1 1400,373.2 1394.5,353.1 			"/>
			<polygon class="st28" points="1374.7,425.1 1394.5,353.1 1374.7,394.2 			"/>
			<polygon class="st29" points="1400,373.2 1400,364.5 1394.5,353.1 			"/>
		</g>
		<g>
			<path class="st30" d="M1298.9,630.3c0,6.5,9.5,11.8,21.2,11.8c11.7,0,21.2-5.3,21.2-11.8l-21.2-62.2L1298.9,630.3z"/>
			<path class="st31" d="M1331.5,606.9c-0.3-0.9-1.2-1.4-2.1-1.1h0c-0.9,0.3-1.4,1.2-1.1,2.1l7,22.7c0.3,0.9,1.2,1.4,2.1,1.1h0
				c0.9-0.3,1.4-1.2,1.1-2.1L1331.5,606.9z"/>
			<path class="st32" d="M1310.1,640.6l10-72.6l-21.2,62.2C1298.9,634.8,1303.4,638.6,1310.1,640.6z"/>
		</g>
		<g>
			<path class="st10" d="M1216,516c0,4.9,2.3,9.2,5.9,12v5.8h18.8V528c3.6-2.8,5.9-7.2,5.9-12v-17H1216V516z"/>
			<path class="st33" d="M1228,474c1.8,2.9,0.6,7.9,0.7,11.4c0.1,4.1-3,9.3-3.7,13.7h12.6c0.1-2.9-1.3-6.9-1.2-10.9
				C1236.9,471.7,1227.9,473.9,1228,474z"/>
			<path class="st34" d="M1214.5,487.6c0.2,0.1,0.9,0.5,1.2,0.6c0.1,0,0.3,0.1,0.4,0.1C1214.8,487.7,1213.8,487.1,1214.5,487.6z"/>
			<path class="st34" d="M1250,486.9c0.2,0,0.4,0,0.4,0C1250.4,486.9,1250.2,486.9,1250,486.9z"/>
			<path class="st34" d="M1241,478c5.5,0.4,12.9-8.2,12.2-9c-0.7,2-9.9,3-11.8,3.1c-1,0.1-2.8,0.6-4.6,1.4c1.1-1.7,1.3-3,2.1-4
				c2-2.5,0.4-14.7,0.2-18.4c0.2,5.2-0.7,8.4-4.5,12.2c-1.3,1.3-1.2,1.4-2.2,2.7c-0.6,0.8-1.1,1.5-1.5,2.1
				c-2.6-4.7-11.4-8.3-11.8-7.4c1.6,0,4.1,4.6,5.6,7.7c-0.9-0.7-1.8-1.6-2.9-2.7c-4.9-4.9-10.7-5.8-12.5-8.4c-3-4.2,4.8,8,6.3,9.7
				c3.4,3.9,1.8,5.7,8.7,8.2c-1.2,0.2-2.4,0.5-3.8,1.2c-3,1.5-9,1.3-12.3,0.4c-9-2.2-6.7-2.1,6.2,2.6c2.5,0.9,3.8,2.1,7.6,1.1
				c0.8-0.2,2.7-0.6,4.4-0.9c-1,1.6-1.9,3.8-2.7,5c-1.8,2.7-4.2,4.7-7.5,3.8c1.1,0.5,2.6,1.1,3.5,1.1c3.7,0,4.3-1.1,5.9-3.7
				c0.7-1.2,3.4-5.4,4.8-5.6c0.5-0.1,1.9-0.4,3.1-0.8c1.2,0.7,2.5,1.4,3.1,2.1c2.6,2.8,5.7,4.8,9.5,5.7c0.4,0.1,3-0.1,4.1-0.1
				c-0.5,0-1.2,0-1.3,0c-7.2-1.1-7.4-6.2-9.5-8.8C1240,478,1240.6,478,1241,478z"/>
		</g>
		<g>
			<rect x="1273.6" y="492.4" class="st35" width="74.7" height="45.9"/>
			<rect x="1289.8" y="533.9" class="st10" width="28.6" height="0.9"/>
			<g>
				<rect x="1273.6" y="492.4" class="st36" width="74.7" height="38.7"/>
				<ellipse class="st37" cx="1307.2" cy="511.2" rx="15.2" ry="10.1"/>
			</g>
		</g>
		<circle class="st38" cx="1244.2" cy="615" r="29.7"/>
	</g>
	<g>
		<path class="st39" d="M1124.8,107.8h-91.9c-5.8,0-10.6,4.8-10.6,10.6v91.9c0,5.8,4.8,10.6,10.6,10.6h91.9
			c5.8,0,10.6-4.8,10.6-10.6v-91.9C1135.4,112.6,1130.7,107.8,1124.8,107.8z"/>
		<path class="st40" d="M1113.6,121.5h-69.5c-4.4,0-8,3.6-8,8v69.5c0,4.4,3.6,8,8,8h69.5c4.4,0,8-3.6,8-8v-69.5
			C1121.7,125.2,1118.1,121.5,1113.6,121.5z"/>
		<polygon class="st39" points="1080.4,134.2 1077.3,134.2 1077.3,165.9 1097.8,165.9 1097.8,162.8 1080.4,162.8 		"/>
	</g>
	<path class="st6" d="M860.8,506.4h-205v99.5c125.7,0,251.5,0,377.2,0V453.6H860.8V506.4z"/>
	<rect x="617.7" y="696.3" class="st5" width="593.3" height="57.9"/>
	<rect x="696.8" y="590.3" class="st20" width="514.1" height="163.9"/>
	<rect x="696.8" y="506.4" class="st12" width="514.1" height="83.8"/>
	<path class="st13" d="M917.5,531.3c0,21.8,13.4,42,36.5,59h257v-83.8H923.5C919.6,514.4,917.5,522.7,917.5,531.3z"/>
	<rect x="696.8" y="590.3" class="st18" width="514.1" height="22.5"/>
	<rect x="696.8" y="612.8" class="st41" width="514.1" height="7.9"/>
	<g>
		<path class="st11" d="M886.4,405.5h-8.5c-1.8,0-3.2,1.5-3.2,3.2v97.7h15v-97.7C889.7,407,888.2,405.5,886.4,405.5z"/>
		<rect x="889.7" y="414" class="st17" width="128.4" height="60.8"/>
		<path class="st11" d="M1029.8,405.5h-8.5c-1.8,0-3.2,1.5-3.2,3.2v97.7h15v-97.7C1033.1,407,1031.6,405.5,1029.8,405.5z"/>
	</g>
	<rect x="721.1" y="530.8" class="st42" width="74.7" height="45.9"/>
	<rect x="721.1" y="530.8" class="st38" width="74.7" height="34.4"/>
	<rect x="751.2" y="570.3" class="st10" width="28.6" height="0.9"/>
	<rect x="739.7" y="570.3" class="st10" width="8.7" height="0.9"/>
	<g>
		<rect x="721.1" y="515" class="st15" width="74.7" height="45.9"/>
		<rect x="721.1" y="515" class="st16" width="74.7" height="38.7"/>
		<rect x="737.2" y="556.6" class="st10" width="28.6" height="0.9"/>
	</g>
	<path class="st24" d="M1043.3,553.5c0,8.4,12.3,15.3,27.5,15.3s27.5-6.8,27.5-15.3v-79.8h-55.1V553.5z"/>
	<path class="st25" d="M1043.3,553.5c0,6.6,7.6,12.3,18.2,14.4v-94.2h-18.2V553.5z"/>
	<ellipse class="st26" cx="1070.8" cy="473.7" rx="27.5" ry="15.3"/>
	<g>
		<polygon class="st27" points="1120.4,565.7 1175.9,565.7 1148.2,464.8 		"/>
		<polygon class="st28" points="1120.4,565.7 1148.2,464.8 1120.4,522.3 		"/>
		<polygon class="st29" points="1175.9,565.7 1175.9,522.3 1148.2,464.8 		"/>
	</g>
	<path class="st26" d="M1090.3,487.6c-2.4,0-4.4,2-4.4,4.4v61.9c0,2.4,2,4.4,4.4,4.4c2.4,0,4.4-2,4.4-4.4v-61.9
		C1094.7,489.5,1092.7,487.6,1090.3,487.6z"/>
	<path class="st10" d="M850.4,541.3l-13.5,13.5c-1.3,1.3-1.3,3.5,0,4.9c1.3,1.3,3.5,1.3,4.9,0l13.5-13.5c1.3-1.3,1.3-3.5,0-4.9
		C853.9,540,851.7,540,850.4,541.3z"/>
</g>
</svg>
