<?xml version="1.0" standalone="no"?>
<!DOCTYPE svg PUBLIC "-//W3C//DTD SVG 20010904//EN"
 "http://www.w3.org/TR/2001/REC-SVG-20010904/DTD/svg10.dtd">
<svg version="1.0" xmlns="http://www.w3.org/2000/svg"
 width="5120.000000pt" height="5120.000000pt" viewBox="0 0 5120.000000 5120.000000"
 preserveAspectRatio="xMidYMid meet">
<metadata>
Created by potrace 1.16, written by Peter Selinger 2001-2019
</metadata>
<g transform="translate(0.000000,5120.000000) scale(0.100000,-0.100000)"
fill="#000000" stroke="none">
<path d="M24940 44789 c-1204 -42 -2395 -194 -3560 -455 -3957 -887 -7548
-3026 -10235 -6099 -918 -1049 -1747 -2235 -2400 -3435 -284 -521 -586 -1142
-808 -1665 -594 -1395 -1018 -2838 -1268 -4315 -265 -1571 -334 -3196 -203
-4815 364 -4507 2338 -8762 5559 -11980 1708 -1706 3677 -3053 5875 -4018
3626 -1590 7701 -2014 11610 -1207 4065 840 7764 2997 10519 6136 1817 2069
3165 4493 3956 7113 956 3167 1073 6596 334 9836 -515 2259 -1437 4404 -2722
6335 -1741 2614 -4084 4759 -6837 6257 -2820 1535 -5990 2334 -9210 2321 -212
0 -486 -5 -610 -9z m-168 -3556 c4 -601 5 -620 26 -698 89 -322 331 -549 650
-611 359 -69 726 113 888 441 89 181 87 165 92 868 l3 618 67 -6 c37 -3 139
-10 227 -16 88 -5 257 -19 375 -30 2375 -217 4646 -946 6705 -2149 716 -418
1441 -922 2080 -1445 445 -364 765 -655 1206 -1095 367 -367 558 -572 854
-915 1930 -2244 3214 -4983 3699 -7892 99 -593 146 -1010 202 -1795 l6 -88
-613 0 c-677 0 -685 -1 -827 -62 -463 -200 -641 -756 -381 -1185 103 -171 253
-289 454 -360 l80 -28 643 -3 c515 -2 642 -5 642 -16 0 -35 -32 -483 -46 -631
-298 -3331 -1607 -6463 -3773 -9030 -661 -785 -1456 -1558 -2271 -2212 -2005
-1607 -4366 -2717 -6865 -3228 -702 -143 -1426 -243 -2100 -290 -121 -8 -252
-17 -292 -20 l-71 -6 -4 618 c-4 597 -5 621 -26 698 -101 372 -426 625 -802
625 -376 0 -701 -253 -802 -625 -21 -77 -22 -101 -26 -698 l-4 -619 -71 6
c-40 3 -144 11 -232 16 -1431 93 -2926 403 -4300 892 -1898 675 -3627 1678
-5160 2994 -597 512 -1247 1161 -1750 1749 -1234 1440 -2198 3060 -2868 4820
-564 1482 -914 3086 -1017 4660 -5 88 -12 188 -15 222 l-5 62 617 3 c703 4
687 3 868 92 201 100 339 260 417 486 31 92 32 101 32 250 0 142 -3 162 -28
240 -92 282 -304 484 -591 562 -78 21 -99 22 -698 26 l-618 3 5 62 c3 34 8
107 11 162 45 752 170 1649 340 2425 500 2285 1467 4397 2874 6275 723 966
1590 1884 2526 2676 721 611 1548 1191 2380 1671 1289 744 2704 1318 4121
1672 1011 253 2021 408 3054 469 30 2 67 4 82 5 l27 2 3 -617z"/>
<path d="M25508 35479 c-99 -10 -241 -58 -331 -111 -42 -24 -108 -78 -158
-128 -116 -115 -180 -229 -226 -400 -17 -61 -18 -280 -20 -3727 l-3 -3663
-100 -50 c-311 -156 -600 -424 -792 -732 -222 -358 -333 -806 -299 -1210 23
-281 83 -504 201 -745 207 -422 526 -738 955 -944 309 -148 676 -218 1008
-190 278 23 500 83 742 200 397 192 714 501 914 890 l52 101 4877 0 c2996 0
4915 4 4974 10 185 18 346 92 482 220 179 170 259 356 259 600 0 244 -80 430
-259 600 -136 128 -297 202 -482 220 -59 6 -1978 10 -4974 10 l-4876 0 -62
117 c-189 361 -482 654 -843 843 l-117 62 -3 3661 c-2 3451 -3 3666 -20 3727
-44 164 -105 276 -210 387 -178 187 -430 280 -689 252z"/>
</g>
</svg>
