<?xml version="1.0" standalone="no"?>
<!DOCTYPE svg PUBLIC "-//W3C//DTD SVG 20010904//EN"
 "http://www.w3.org/TR/2001/REC-SVG-20010904/DTD/svg10.dtd">
<svg version="1.0" xmlns="http://www.w3.org/2000/svg"
 width="7779.000000pt" height="2828.000000pt" viewBox="0 0 7779.000000 2828.000000"
 preserveAspectRatio="xMidYMid meet">
<metadata>
Created by potrace 1.16, written by Peter Selinger 2001-2019
</metadata>
<g transform="translate(0.000000,2828.000000) scale(0.100000,-0.100000)"
fill="#000000" stroke="none">
<path d="M35577 27255 c-3 -27 -4 -51 -3 -51 0 -1 89 -7 196 -14 107 -6 245
-17 305 -25 61 -7 113 -10 116 -7 14 15 17 91 4 96 -22 8 -322 36 -471 44
l-142 7 -5 -50z"/>
<path d="M34885 27273 c-85 -8 -440 -54 -502 -65 l-65 -12 6 -44 c3 -24 8 -47
11 -51 2 -5 36 -2 74 5 81 15 350 50 464 60 71 6 77 8 77 29 0 34 -12 85 -19
83 -3 -1 -24 -3 -46 -5z"/>
<path d="M36827 27223 c-3 -27 -4 -49 -4 -50 1 -1 60 -9 130 -18 127 -16 320
-59 406 -89 24 -9 48 -16 53 -16 10 0 38 61 38 83 0 25 -274 98 -460 123 -162
21 -156 22 -163 -33z"/>
<path d="M33545 26961 c-172 -70 -415 -188 -415 -202 0 -5 9 -27 20 -49 l20
-39 162 80 c90 44 216 100 281 125 72 29 117 52 117 60 0 22 -28 84 -37 83 -4
0 -71 -26 -148 -58z"/>
<path d="M37984 26785 c-16 -21 -23 -39 -18 -44 61 -55 175 -148 236 -194 43
-32 112 -90 153 -129 l76 -71 37 37 37 38 -70 64 c-38 36 -103 91 -144 122
-40 31 -115 92 -166 135 -51 42 -97 77 -103 77 -6 0 -23 -16 -38 -35z"/>
<path d="M32463 26311 c-65 -54 -170 -148 -233 -209 l-115 -110 37 -38 37 -37
119 114 c66 64 169 157 231 208 l111 93 -28 39 c-15 21 -30 39 -34 39 -4 0
-61 -45 -125 -99z"/>
<path d="M38904 25934 l-27 -35 85 -87 c95 -97 211 -228 278 -314 47 -61 48
-61 102 -15 l27 22 -95 115 c-128 154 -312 350 -329 350 -8 0 -26 -16 -41 -36z"/>
<path d="M31659 25402 c-74 -114 -160 -264 -214 -373 l-45 -88 47 -21 c25 -11
47 -19 48 -18 1 2 30 57 65 123 65 124 145 258 205 348 19 29 35 55 35 58 0 5
-75 59 -82 59 -2 0 -28 -39 -59 -88z"/>
<path d="M35270 25149 c-243 -14 -494 -48 -636 -84 -590 -151 -1013 -486
-1265 -1000 -106 -216 -190 -512 -193 -679 l-1 -80 148 -59 148 -60 -6 -71
c-27 -302 -133 -646 -291 -945 -106 -200 -237 -367 -324 -411 -22 -11 -40 -27
-40 -34 0 -32 244 -232 377 -309 6 -4 38 21 74 58 34 36 64 64 65 62 2 -2 -3
-26 -11 -55 -13 -51 -12 -53 8 -67 96 -62 413 -154 621 -180 l56 -7 19 41 18
42 17 -41 17 -42 84 3 c82 4 85 3 117 -27 152 -141 360 -264 553 -328 91 -29
247 -65 287 -66 15 0 29 -4 32 -8 3 -5 -41 -42 -96 -82 -205 -152 -728 -607
-728 -635 0 -7 21 -31 47 -53 l47 -40 -49 -58 c-28 -32 -135 -157 -239 -278
-104 -122 -191 -228 -193 -237 -6 -20 -60 -52 -77 -46 -7 3 -225 280 -485 616
-395 511 -501 639 -501 608 0 -2 54 -192 120 -422 66 -230 118 -420 116 -422
-2 -3 -16 3 -29 12 -36 23 -103 22 -136 -2 -43 -32 -63 -78 -69 -154 -10 -140
46 -295 141 -393 93 -95 177 -120 235 -71 l30 25 16 -52 c8 -29 45 -159 81
-288 l66 -235 197 -192 197 -192 -97 -1 c-63 0 -159 11 -275 30 -263 45 -386
60 -490 60 -69 0 -93 -3 -93 -13 0 -7 25 -37 56 -67 30 -30 92 -99 136 -154
l82 -99 -55 7 c-299 35 -724 60 -904 53 -217 -10 -280 -37 -268 -116 12 -85
58 -281 113 -492 33 -124 60 -229 60 -235 0 -5 -95 -9 -233 -9 -211 0 -245 -3
-377 -28 -317 -61 -685 -153 -1225 -307 -302 -87 -856 -253 -944 -284 -48 -18
-61 -14 -61 16 0 45 -184 432 -305 644 -149 258 -336 480 -454 537 -72 35
-148 37 -178 5 -36 -40 -43 -65 -43 -158 0 -122 28 -255 99 -470 174 -527 366
-834 569 -910 155 -58 292 25 317 193 l7 46 127 40 c979 307 1786 521 2204
586 81 13 157 16 311 13 113 -1 207 -6 210 -9 5 -4 266 -902 266 -912 0 -2
-39 1 -87 6 -141 15 -693 14 -808 -1 -319 -42 -601 -133 -695 -225 -65 -64
-89 -163 -52 -220 78 -117 451 -258 847 -319 185 -29 568 -32 715 -5 280 49
401 140 400 302 -1 134 -62 277 -166 383 l-71 73 -128 449 c-71 247 -126 453
-122 456 9 9 312 -37 512 -77 289 -58 665 -152 922 -231 l103 -31 24 -81 c14
-45 39 -135 56 -200 17 -66 32 -121 34 -123 7 -7 157 -22 229 -23 42 0 77 -3
77 -7 0 -5 -21 -21 -46 -37 -75 -47 -370 -271 -494 -374 -509 -424 -905 -859
-1237 -1358 -662 -993 -1064 -2209 -1213 -3664 -135 -1332 -37 -2189 335
-2925 573 -1133 1743 -1785 3525 -1964 365 -37 549 -46 975 -45 411 0 537 6
835 40 708 81 1304 291 1732 611 124 93 352 317 437 431 260 346 413 750 477
1267 22 175 25 664 6 860 -47 466 -148 963 -270 1340 -387 1187 -1100 1837
-2148 1960 -171 20 -529 20 -726 -1 -293 -30 -587 -89 -923 -185 -289 -82
-713 -232 -722 -254 -4 -12 570 -2232 580 -2242 3 -2 76 31 163 75 282 140
521 227 755 273 158 32 376 32 501 1 211 -52 388 -179 517 -371 98 -144 197
-393 243 -606 31 -145 31 -350 0 -460 -82 -285 -322 -468 -747 -568 -262 -62
-511 -82 -930 -74 -643 11 -1062 96 -1460 293 -192 95 -311 180 -455 324 -269
269 -424 613 -482 1070 -21 165 -17 804 5 995 103 864 390 1651 891 2440 208
327 370 537 581 754 360 369 712 595 1157 742 294 98 546 134 908 133 261 -1
371 -10 634 -55 65 -11 120 -19 121 -17 5 5 563 2513 560 2516 -14 15 -439 60
-685 73 -298 15 -660 0 -950 -41 -69 -9 -126 -16 -128 -15 -1 1 25 46 59 100
110 176 189 372 233 582 38 182 48 290 47 521 l0 212 63 0 c129 0 221 51 245
135 15 55 14 149 -4 242 -26 137 -120 394 -206 564 l-28 56 69 31 c39 17 70
35 70 40 0 16 -78 199 -122 285 -187 373 -495 700 -807 856 -34 18 -61 34 -60
36 2 1 71 29 154 60 177 68 327 139 484 229 63 36 118 66 121 66 4 0 31 -18
60 -40 29 -22 55 -40 57 -40 2 0 9 12 15 28 l11 27 12 -40 12 -40 174 1 c149
0 193 5 302 28 141 29 381 105 495 156 81 37 81 39 58 128 -8 28 -11 52 -8 52
3 0 28 -21 54 -47 l48 -47 72 23 c40 13 75 27 78 31 3 5 3 47 0 94 -3 47 -3
86 0 86 3 0 35 -29 70 -65 35 -36 69 -65 76 -65 17 0 130 166 338 493 l36 58
-65 61 c-172 160 -377 567 -574 1140 -164 476 -372 831 -650 1109 -182 181
-354 290 -538 340 -43 12 -80 23 -82 25 -2 2 20 38 49 80 29 42 49 79 44 84
-5 5 -61 -6 -129 -26 -65 -18 -120 -34 -122 -34 -1 0 1 61 4 135 4 84 2 135
-4 135 -15 0 -55 -48 -118 -140 -32 -47 -60 -87 -61 -89 -2 -2 -15 6 -31 17
-97 68 -324 156 -494 191 -193 40 -487 56 -739 40z m525 -40 c260 -24 489 -94
673 -206 41 -25 75 -43 76 -41 2 1 31 45 66 96 34 51 67 95 72 98 7 4 8 -34 3
-108 -4 -70 -4 -118 2 -121 5 -3 54 7 108 24 55 16 103 28 107 27 4 -2 -13
-32 -37 -68 -25 -35 -44 -69 -42 -74 2 -6 33 -16 69 -22 307 -57 645 -340 903
-759 79 -128 219 -412 264 -535 17 -47 63 -175 102 -285 176 -490 358 -843
518 -1003 l60 -59 -118 -184 c-65 -101 -139 -215 -165 -252 -55 -78 -43 -80
-148 22 -37 36 -71 61 -75 57 -4 -4 -8 -55 -8 -113 l0 -105 -50 -19 c-27 -10
-51 -19 -53 -19 -1 0 -34 30 -73 66 -46 44 -74 63 -81 56 -6 -6 -2 -39 11 -96
12 -48 21 -89 21 -91 0 -6 -155 -68 -255 -102 -228 -77 -421 -113 -611 -113
l-122 0 -18 56 c-11 31 -23 56 -29 56 -9 1 -28 -28 -38 -57 -2 -5 -20 3 -40
18 l-37 28 90 86 c128 121 223 275 245 395 l7 37 30 -22 c45 -33 138 -31 200
6 148 87 234 326 208 583 -10 96 -32 146 -90 198 -54 48 -102 68 -165 69 -70
1 -121 -19 -173 -66 -65 -61 -100 -138 -117 -260 l-6 -49 -78 164 c-84 176
-323 629 -347 657 -2 2 -74 -15 -161 -37 -186 -48 -337 -79 -446 -90 l-78 -8
-62 90 c-80 117 -173 217 -182 196 -3 -9 7 -78 23 -153 15 -76 26 -140 23
-142 -2 -3 -137 -5 -300 -5 -293 0 -460 10 -576 33 l-60 13 -41 134 c-23 74
-50 161 -59 193 -9 32 -22 57 -29 57 -14 0 -20 -43 -31 -225 -3 -49 -8 -104
-11 -122 l-5 -32 -87 5 c-176 10 -320 26 -445 50 -129 25 -331 85 -362 108
-15 11 -14 26 21 189 21 97 34 180 30 184 -34 35 -138 -333 -165 -589 -16
-139 -13 -358 4 -495 50 -390 201 -739 459 -1056 47 -59 86 -109 86 -112 0 -3
-25 -5 -56 -3 l-57 3 -20 53 c-11 28 -24 52 -29 52 -5 0 -20 -25 -34 -55 l-24
-56 -38 6 c-146 25 -300 61 -395 91 -114 37 -207 78 -207 92 0 4 9 40 20 80
11 39 20 76 20 82 0 26 -31 3 -105 -77 l-81 -87 -64 44 c-159 106 -298 228
-272 237 26 10 109 82 148 129 233 281 436 788 484 1210 7 56 10 111 8 123 -2
19 -28 32 -148 80 l-145 58 2 70 c1 39 14 124 28 189 187 836 799 1387 1665
1498 320 41 633 50 895 25z m-1030 -2019 c20 -69 43 -130 52 -137 25 -20 182
-43 368 -54 225 -13 614 -3 622 17 2 7 -5 60 -17 119 -12 59 -19 109 -17 112
7 6 79 -86 135 -170 l44 -69 72 7 c101 10 308 50 469 92 80 20 142 32 147 27
29 -30 340 -634 416 -806 20 -46 35 -68 47 -68 15 0 17 11 17 89 0 158 55 278
149 328 121 63 276 -7 317 -145 19 -61 18 -225 -2 -320 -52 -257 -246 -408
-368 -286 -14 14 -31 24 -37 22 -7 -2 -18 -33 -25 -68 -28 -137 -137 -310
-260 -415 -162 -137 -516 -316 -829 -419 -251 -82 -467 -118 -705 -119 -179 0
-271 10 -425 50 -397 103 -705 343 -960 748 -253 402 -355 912 -279 1398 l16
106 37 -15 c201 -87 485 -144 794 -160 110 -6 141 -4 147 6 4 7 11 74 15 148
4 74 11 129 15 121 4 -8 24 -70 45 -139z m1219 -2248 c8 -56 -11 -207 -35
-262 -24 -57 -50 -83 -103 -105 -83 -35 -156 6 -210 118 -41 84 -71 206 -53
212 7 1 50 8 97 15 47 7 126 22 175 35 124 31 121 32 129 -13z m-813 -151 c93
-42 236 -87 352 -112 95 -20 104 -25 136 -61 43 -50 79 -68 138 -68 51 0 91
19 136 64 20 20 36 26 69 26 72 0 206 19 336 47 l124 26 74 -74 c41 -40 74
-76 74 -80 0 -19 -303 -80 -489 -99 -309 -30 -656 9 -891 102 -87 34 -266 126
-280 143 -8 9 8 27 56 64 37 28 74 51 84 51 9 0 46 -13 81 -29z m-1781 -776
c238 -308 439 -573 446 -590 22 -48 591 -1655 586 -1655 -12 0 -945 938 -953
958 -5 13 -126 432 -269 930 -143 499 -263 916 -266 927 -5 18 -4 18 9 5 8 -8
209 -267 447 -575z m1439 497 c147 -94 227 -136 365 -193 l138 -57 -68 -37
c-38 -21 -92 -51 -120 -66 -28 -16 -58 -29 -65 -29 -8 0 -45 15 -81 33 l-67
32 49 60 c28 33 50 65 50 72 0 28 -28 10 -78 -52 l-52 -64 -48 21 c-38 17
-122 67 -254 152 -10 6 -18 15 -17 21 1 9 158 153 168 155 2 0 38 -22 80 -48z
m890 -575 c61 -230 111 -420 111 -421 0 -2 -42 13 -92 32 -62 24 -115 37 -158
39 -58 4 -71 1 -116 -26 -96 -56 -149 -170 -148 -321 1 -204 87 -367 228 -434
107 -51 261 -52 404 -5 35 12 65 19 66 18 4 -6 145 -543 143 -545 -11 -8
-1669 -555 -1673 -552 -2 3 -141 389 -308 859 l-304 854 32 17 c352 196 1693
913 1698 909 3 -3 56 -194 117 -424z m1152 248 c27 -49 45 -93 41 -96 -21 -20
-356 -109 -409 -109 -18 0 -31 16 -63 80 -22 44 -44 80 -50 80 -22 0 -18 -24
15 -89 19 -39 35 -72 35 -74 0 -11 -123 -28 -260 -37 -142 -9 -413 0 -427 13
-7 8 -63 220 -59 224 2 2 57 -2 122 -8 264 -26 604 5 878 81 55 16 107 28 115
27 8 -1 36 -42 62 -92z m-2273 -258 c24 -21 42 -40 40 -42 -2 -1 -97 -53 -213
-115 -115 -62 -239 -129 -275 -148 l-65 -36 29 34 c16 19 103 122 194 227
l165 193 41 -37 c22 -20 60 -54 84 -76z m-1525 -97 c50 -40 67 -80 127 -295
l61 -217 -19 -31 c-36 -63 -117 -42 -209 55 -60 64 -98 134 -118 220 -26 112
-14 219 31 269 24 26 93 26 127 -1z m3822 -217 c118 -264 175 -449 182 -588 4
-88 2 -104 -16 -132 -24 -38 -69 -53 -163 -53 -62 0 -68 2 -72 23 -2 12 -14
86 -26 164 -24 158 -70 354 -120 512 -19 58 -29 106 -24 108 5 2 43 19 84 37
41 19 82 35 91 35 11 1 31 -33 64 -106z m-232 -81 l25 -82 -26 -6 c-15 -3 -52
-12 -82 -19 -66 -16 -232 -42 -313 -50 l-58 -5 -11 33 c-7 17 -28 65 -48 105
-20 39 -33 72 -30 72 24 0 487 41 495 44 16 6 22 -5 48 -92z m-577 21 c41 -54
92 -185 111 -288 21 -108 13 -199 -22 -270 -32 -67 -92 -110 -219 -158 -75
-29 -90 -31 -211 -32 -123 0 -133 2 -187 28 -131 65 -209 214 -211 407 -1 140
53 251 143 298 61 32 117 26 254 -26 60 -23 120 -42 133 -42 16 0 30 12 49 43
44 70 65 88 98 85 22 -2 39 -15 62 -45z m701 -540 l19 -128 -25 -12 c-14 -7
-42 -12 -62 -13 -49 0 -226 52 -367 108 -97 39 -118 51 -120 70 -4 27 1 29
108 42 47 5 132 17 190 26 170 26 204 31 221 33 12 1 19 -24 36 -126z m-383
-154 l129 -47 -59 -11 c-140 -27 -162 -30 -209 -36 -103 -11 -194 -15 -198 -8
-3 5 -8 24 -12 44 -6 35 -5 37 37 62 23 14 56 39 71 55 l28 30 42 -21 c23 -11
100 -42 171 -68z m422 -446 c-11 -154 -27 -287 -37 -299 -12 -15 -152 -49
-284 -70 -58 -9 -195 -18 -325 -21 -191 -4 -248 -2 -379 16 -85 11 -155 22
-157 24 -2 1 117 42 264 91 147 49 272 93 278 98 9 6 8 23 -3 64 -8 31 -12 58
-10 60 2 3 64 13 138 24 167 24 365 64 444 89 33 11 64 20 69 20 4 1 5 -43 2
-96z m-3463 -73 l59 -12 92 -141 c246 -376 488 -840 608 -1162 73 -197 138
-469 138 -575 l0 -32 -127 6 c-71 4 -147 9 -169 12 l-41 6 5 132 c17 464 -183
1028 -574 1618 -57 86 -104 159 -104 163 0 4 12 4 28 1 15 -3 53 -10 85 -16z
m544 -112 c33 -35 71 -83 83 -108 125 -252 440 -587 765 -815 244 -171 629
-371 913 -475 40 -15 73 -30 73 -35 1 -17 -362 -166 -508 -208 l-52 -16 -145
83 c-254 146 -441 292 -647 502 -291 299 -510 655 -623 1014 -37 117 -37 120
27 120 51 0 54 -1 114 -62z m-1150 -203 c286 -23 442 -38 451 -44 35 -24 211
-324 302 -516 110 -230 231 -541 208 -533 -39 15 -358 103 -516 143 -342 85
-734 162 -929 181 -40 3 -77 12 -81 18 -13 16 -156 571 -187 723 -6 28 -3 33
17 37 13 3 32 7 43 10 36 9 506 -3 692 -19z m2504 -260 c301 -70 522 -90 873
-82 138 4 316 13 396 21 79 8 146 13 149 10 10 -10 -122 -253 -187 -343 l-67
-94 -180 6 c-451 15 -899 111 -1254 268 -113 50 -337 177 -328 185 2 3 76 28
163 58 l159 53 83 -29 c46 -15 133 -39 193 -53z m-6510 -275 c99 -51 160 -138
320 -460 150 -301 184 -404 165 -504 -6 -32 -10 -36 -38 -36 -78 0 -212 108
-298 240 -140 215 -279 610 -254 718 17 68 37 76 105 42z m9132 -323 c64 -8
119 -16 122 -18 7 -8 -462 -2094 -471 -2093 -196 32 -311 39 -599 39 -332 0
-416 -8 -670 -61 -770 -163 -1433 -636 -1971 -1409 -614 -882 -979 -1806
-1089 -2755 -54 -469 -40 -985 35 -1335 54 -247 173 -525 308 -715 82 -116
278 -316 392 -400 293 -216 667 -363 1115 -439 531 -91 1215 -89 1671 5 479
98 799 317 928 634 52 127 61 183 60 375 0 210 -16 304 -90 525 -167 501 -437
789 -843 898 -87 23 -114 25 -291 26 -165 1 -212 -3 -308 -22 -207 -42 -441
-120 -666 -221 -38 -17 -71 -30 -73 -27 -7 7 -473 1799 -468 1804 9 9 259 95
413 142 745 227 1398 287 1922 174 959 -205 1570 -953 1865 -2283 168 -762
184 -1452 45 -1996 -233 -913 -916 -1470 -2060 -1679 -632 -115 -1470 -123
-2288 -20 -1841 230 -2953 1002 -3357 2329 -153 504 -198 1013 -154 1770 102
1792 573 3254 1403 4362 412 550 955 1055 1581 1473 259 172 266 175 385 195
537 88 1130 326 1470 591 43 34 71 47 125 58 121 25 395 65 525 76 69 5 141
12 160 14 80 9 762 -4 873 -17z m-5558 -918 c123 -11 156 -22 188 -57 18 -20
17 -20 -60 -50 -130 -50 -234 -66 -438 -65 -194 0 -325 17 -442 55 -64 21
-142 70 -150 95 -13 38 577 53 902 22z m-490 -309 c325 -16 495 -42 646 -99
67 -25 179 -96 179 -112 0 -27 -96 -107 -155 -129 -311 -116 -892 -93 -1338
54 -127 42 -279 108 -322 139 -20 15 -20 16 3 40 47 50 177 90 339 106 128 12
408 13 648 1z"/>
<path d="M34450 22580 c-45 -45 -49 -162 -8 -248 26 -54 51 -69 83 -48 51 33
58 165 13 254 -28 55 -60 70 -88 42z"/>
<path d="M35824 22549 c-27 -29 -27 -188 -1 -236 21 -39 58 -66 80 -57 61 23
61 228 0 296 -22 24 -56 23 -79 -3z"/>
<path d="M35570 21426 c0 -8 12 -24 26 -35 24 -19 26 -25 20 -65 -10 -66 -79
-199 -128 -249 -91 -90 -213 -115 -313 -64 -76 39 -129 90 -192 185 -31 48
-58 89 -60 91 -2 3 -8 0 -14 -6 -31 -31 159 -257 256 -303 73 -35 170 -33 247
4 102 49 199 181 230 314 11 49 13 51 37 44 42 -11 114 -8 118 6 3 8 -6 12
-29 12 -53 0 -106 19 -142 51 -37 32 -56 37 -56 15z"/>
<path d="M39673 24948 c-18 -11 -33 -24 -33 -29 0 -5 31 -67 70 -137 38 -70
99 -189 134 -266 36 -76 67 -140 69 -142 2 -2 25 5 50 16 l46 20 -43 93 c-103
222 -235 467 -251 466 -5 0 -25 -10 -42 -21z"/>
<path d="M31156 24287 c-41 -140 -106 -468 -106 -533 0 -30 3 -34 28 -34 15 0
37 -3 48 -6 20 -5 22 -1 28 53 11 92 63 349 91 448 14 50 25 93 25 97 0 7 -65
28 -87 28 -6 0 -19 -24 -27 -53z"/>
<path d="M40205 23809 c-11 -5 -32 -13 -47 -19 l-28 -9 21 -53 c70 -177 84
-203 166 -301 47 -56 98 -120 114 -144 l30 -43 39 26 c22 15 40 32 40 38 0 13
-112 159 -175 226 -30 33 -54 77 -89 165 -26 66 -49 121 -49 121 -1 1 -11 -2
-22 -7z"/>
<path d="M16765 23399 c-157 -16 -495 -81 -495 -95 0 -20 24 -94 30 -94 5 0
48 9 97 21 134 32 297 58 406 65 l97 7 0 54 c0 61 12 57 -135 42z"/>
<path d="M17537 23362 c-3 -4 -8 -26 -12 -49 -5 -32 -3 -44 7 -47 7 -2 78 -20
158 -39 118 -28 311 -92 401 -131 13 -6 21 3 34 39 11 27 14 49 9 55 -40 37
-584 195 -597 172z"/>
<path d="M13916 23331 c-3 -5 -3 -30 0 -55 l7 -46 166 0 c91 0 226 -7 300 -16
74 -8 137 -12 141 -7 4 4 10 27 14 49 l6 42 -78 11 c-191 28 -544 42 -556 22z"/>
<path d="M13245 23218 c-123 -38 -282 -101 -407 -160 l-147 -71 19 -38 c11
-21 24 -40 29 -43 5 -3 69 23 142 58 129 62 373 156 403 156 23 0 26 13 13 58
-15 51 -16 51 -52 40z"/>
<path d="M15145 23075 c-10 -25 -16 -47 -14 -49 2 -2 47 -22 99 -45 52 -23
135 -64 184 -91 l88 -50 102 62 c55 34 105 65 109 68 9 8 -28 90 -41 90 -4 0
-44 -22 -90 -48 l-82 -48 -148 72 c-196 97 -186 95 -207 39z"/>
<path d="M31037 23083 c-3 -5 -1 -32 3 -60 9 -53 9 -53 -52 -149 -52 -83 -168
-307 -168 -325 0 -4 21 -14 47 -24 37 -15 48 -15 51 -5 14 42 136 268 184 340
l55 85 -10 73 -11 72 -47 0 c-26 0 -50 -3 -52 -7z"/>
<path d="M18674 22829 l-29 -42 39 -31 c22 -17 74 -61 117 -97 l79 -65 137
-12 c76 -7 154 -15 174 -18 l36 -6 7 48 c4 31 2 50 -5 54 -11 8 -214 30 -267
30 -25 0 -51 15 -110 63 -42 35 -93 75 -113 90 l-36 27 -29 -41z"/>
<path d="M40775 22705 c-47 -14 -47 -9 -11 -160 30 -130 43 -214 52 -352 l7
-103 48 0 49 0 0 74 c0 154 -72 560 -99 555 -3 -1 -24 -7 -46 -14z"/>
<path d="M64975 22709 c-55 -5 -125 -12 -155 -17 l-55 -7 3 -35 c6 -70 -1 -67
129 -53 65 7 205 15 311 19 l192 7 0 49 0 48 -162 -1 c-90 -1 -208 -6 -263
-10z"/>
<path d="M66026 22638 c-14 -71 -13 -73 71 -87 99 -17 324 -72 431 -106 46
-15 85 -25 86 -23 1 2 9 22 18 46 16 40 15 43 -2 52 -30 16 -295 88 -418 114
-196 40 -179 39 -186 4z"/>
<path d="M12025 22480 l-130 -130 -56 0 c-31 0 -77 -3 -103 -6 l-46 -7 0 -50
0 -49 127 7 127 7 144 145 143 145 -26 34 c-14 19 -31 34 -38 34 -7 0 -71 -58
-142 -130z"/>
<path d="M64090 22559 c-19 -6 -93 -25 -165 -45 -71 -19 -189 -53 -261 -75
l-131 -42 15 -49 c12 -35 20 -48 32 -45 8 3 87 27 175 54 88 28 213 63 279 79
65 16 120 34 123 40 6 15 -16 94 -25 93 -4 0 -23 -5 -42 -10z"/>
<path d="M19846 22464 c-9 -26 -16 -48 -16 -49 0 -1 19 -7 43 -14 76 -23 289
-113 407 -171 l116 -58 22 38 c12 22 22 44 22 50 0 20 -447 219 -551 245 -25
6 -28 3 -43 -41z"/>
<path d="M10958 22284 c-115 -18 -344 -68 -438 -97 -81 -25 -86 -34 -62 -98
l11 -27 98 30 c92 27 321 76 443 95 l55 8 -3 45 c-2 25 -7 48 -10 51 -4 3 -46
0 -94 -7z"/>
<path d="M67210 22220 c-11 -21 -20 -43 -20 -48 0 -11 77 -46 140 -62 66 -17
263 -96 352 -141 83 -41 81 -42 112 19 l17 33 -123 59 c-68 32 -190 82 -273
110 -82 28 -154 55 -159 60 -17 17 -25 11 -46 -30z"/>
<path d="M62749 22067 c-181 -92 -359 -193 -359 -203 0 -6 24 -52 38 -73 8
-10 31 0 113 47 57 33 178 97 269 142 91 45 167 84 169 86 5 5 -33 94 -40 94
-4 0 -89 -42 -190 -93z"/>
<path d="M48030 22002 l0 -49 205 -7 c113 -3 251 -11 307 -16 56 -6 103 -8
105 -7 1 2 6 24 9 50 6 43 5 46 -17 51 -48 11 -321 26 -463 26 l-146 0 0 -48z"/>
<path d="M47235 21974 c-137 -25 -442 -97 -452 -107 -5 -6 16 -97 22 -97 2 0
75 18 162 40 87 22 220 50 296 63 76 14 139 26 142 28 2 2 1 25 -2 52 -7 55 7
53 -168 21z"/>
<path d="M9735 21859 c-92 -51 -343 -212 -409 -264 -18 -14 -18 -15 9 -52 16
-21 29 -39 30 -41 2 -2 72 44 156 101 85 57 201 130 259 162 58 32 106 60 108
61 2 1 -7 23 -20 48 l-23 46 -110 -61z"/>
<path d="M30664 21873 c-15 -104 19 -557 45 -585 3 -4 28 -2 54 4 37 8 47 13
43 26 -20 68 -38 260 -39 414 l-1 176 -29 6 c-60 12 -65 9 -73 -41z"/>
<path d="M20948 21876 c-16 -19 -28 -39 -27 -43 0 -4 34 -35 76 -68 42 -33
143 -125 224 -205 l147 -145 38 31 37 32 -62 69 c-85 95 -381 363 -400 363 -3
0 -18 -16 -33 -34z"/>
<path d="M49285 21898 c-2 -7 -8 -30 -14 -50 l-9 -38 41 -11 c127 -32 297 -86
411 -130 72 -27 133 -46 137 -42 5 5 15 25 23 45 19 45 27 40 -146 103 -100
37 -415 135 -434 135 -2 0 -6 -6 -9 -12z"/>
<path d="M68370 21748 c-11 -18 -20 -38 -20 -45 0 -6 37 -33 81 -59 105 -61
216 -140 304 -217 39 -33 78 -67 88 -76 16 -13 21 -11 52 19 l35 34 -23 24
c-41 46 -197 172 -285 231 -89 59 -193 121 -205 121 -4 0 -16 -15 -27 -32z"/>
<path d="M46015 21562 c-157 -81 -370 -206 -381 -223 -3 -6 6 -28 21 -50 l26
-40 27 17 c83 56 253 153 374 215 76 38 138 72 138 75 0 12 -41 84 -48 84 -4
0 -74 -35 -157 -78z"/>
<path d="M61737 21410 c-130 -107 -167 -139 -273 -241 l-82 -77 37 -35 36 -35
115 105 c63 58 162 144 220 191 58 47 111 91 119 98 11 10 9 18 -15 48 -16 20
-33 36 -39 36 -5 0 -59 -41 -118 -90z"/>
<path d="M40705 21403 c-38 -107 -136 -312 -192 -401 -25 -40 -44 -74 -42 -76
2 -1 21 -13 42 -26 47 -28 45 -30 122 105 61 105 121 237 160 345 36 101 36
100 -15 116 -25 8 -46 14 -46 14 -1 0 -14 -35 -29 -77z"/>
<path d="M56930 21439 c-89 -9 -240 -35 -247 -43 -3 -2 -1 -25 3 -51 l7 -47
36 6 c141 25 259 37 409 43 l172 6 0 49 0 48 -147 -1 c-82 -1 -186 -6 -233
-10z"/>
<path d="M50430 21378 c-22 -39 -22 -42 -6 -52 81 -48 300 -200 384 -265 l103
-81 29 33 c16 17 30 37 30 44 0 23 -474 363 -507 363 -5 0 -20 -19 -33 -42z"/>
<path d="M57928 21291 l-16 -50 52 -17 c145 -48 371 -149 469 -211 21 -13 40
-23 41 -21 17 23 46 78 46 86 0 14 -326 175 -440 215 -148 54 -134 54 -152 -2z"/>
<path d="M55825 21134 c-115 -40 -242 -85 -282 -99 l-71 -26 12 -32 c7 -18 16
-40 19 -49 6 -16 11 -16 69 6 35 13 158 56 273 96 116 40 220 77 232 81 22 8
22 9 7 54 -11 30 -21 45 -32 44 -10 0 -111 -34 -227 -75z"/>
<path d="M8747 21052 c-119 -140 -297 -379 -297 -399 0 -9 65 -53 78 -53 5 0
34 37 64 83 66 96 222 294 281 354 24 25 37 46 32 51 -6 4 -24 20 -41 35 l-32
28 -85 -99z"/>
<path d="M21785 20944 c-22 -13 -39 -29 -37 -36 2 -6 25 -49 53 -96 58 -97
132 -244 179 -352 18 -41 36 -79 40 -83 4 -4 26 0 49 9 38 15 42 19 36 43 -14
60 -263 543 -278 541 -1 0 -20 -12 -42 -26z"/>
<path d="M44977 20813 c-71 -71 -167 -170 -214 -222 l-84 -94 36 -36 36 -36
96 105 c53 58 149 157 215 220 65 63 118 120 118 126 0 12 -52 64 -65 64 -4 0
-67 -57 -138 -127z"/>
<path d="M69248 20869 c-21 -11 -38 -21 -38 -23 0 -2 22 -50 50 -108 51 -106
118 -297 140 -400 14 -62 17 -64 79 -52 40 8 40 20 0 160 -47 170 -157 433
-184 440 -5 2 -27 -6 -47 -17z"/>
<path d="M16915 20811 c-69 -33 -117 -79 -140 -134 -12 -30 -13 -42 -4 -53 20
-24 39 -16 98 42 63 63 85 74 145 74 49 0 107 -34 171 -99 47 -49 83 -54 114
-15 l21 26 -23 32 c-103 145 -245 193 -382 127z"/>
<path d="M54590 20672 c-157 -63 -287 -116 -288 -117 -7 -6 38 -97 46 -93 5 1
135 54 290 116 l281 114 -16 41 c-9 23 -19 45 -22 48 -3 4 -134 -45 -291 -109z"/>
<path d="M13979 20757 c-83 -31 -168 -108 -213 -191 -19 -35 -19 -36 0 -57 49
-54 80 -44 162 50 112 128 202 134 326 22 58 -52 85 -62 105 -37 32 38 -45
138 -144 187 -76 37 -176 48 -236 26z"/>
<path d="M30733 20508 c3 -106 13 -218 26 -289 11 -63 18 -125 15 -136 -5 -17
1 -21 45 -30 48 -10 52 -9 57 11 9 36 7 57 -15 181 -12 66 -25 188 -28 271
l-6 152 -36 6 c-68 11 -64 23 -58 -166z"/>
<path d="M58992 20647 c-18 -18 -32 -37 -32 -41 0 -4 30 -40 66 -79 80 -86
188 -228 249 -329 25 -40 49 -73 53 -73 17 1 82 40 82 49 0 35 -268 395 -357
478 l-29 28 -32 -33z"/>
<path d="M51401 20586 c-22 -22 -30 -39 -25 -47 4 -7 52 -65 106 -127 54 -63
137 -166 185 -228 51 -68 90 -111 97 -107 31 19 66 48 66 55 0 21 -333 435
-382 475 -12 10 -20 7 -47 -21z"/>
<path d="M60918 20568 c-110 -137 -325 -466 -311 -477 4 -4 24 -17 44 -29 l36
-21 63 102 c58 93 169 253 252 365 l33 44 -33 29 c-18 16 -36 29 -41 29 -5 0
-24 -19 -43 -42z"/>
<path d="M65205 20573 c-498 -41 -1056 -201 -1516 -434 -517 -262 -957 -656
-1209 -1081 -59 -100 -70 -128 -50 -128 5 0 48 16 94 35 47 19 87 35 90 35 3
0 -30 -54 -74 -121 -92 -141 -162 -272 -184 -347 -19 -65 -12 -70 67 -43 l57
20 -5 -22 c-24 -108 -35 -430 -14 -443 6 -3 26 9 45 27 19 18 34 31 34 28 0
-17 45 -251 66 -347 l25 -113 -30 -47 c-146 -227 -141 -476 12 -579 72 -48
199 -66 314 -44 l41 8 32 -76 c137 -327 409 -624 745 -810 127 -71 319 -145
476 -185 l134 -34 -65 -28 c-254 -110 -550 -313 -795 -546 -57 -54 -96 -99
-92 -105 4 -6 75 -64 157 -128 83 -65 150 -118 150 -120 0 -1 -78 25 -172 57
-248 85 -489 158 -499 152 -5 -3 -9 -28 -9 -55 0 -37 -3 -49 -12 -45 -38 15
-89 29 -93 24 -3 -3 10 -112 30 -242 19 -130 35 -246 35 -256 0 -12 -16 -26
-47 -42 -27 -12 -80 -54 -119 -93 -55 -54 -76 -83 -93 -129 -31 -82 -36 -157
-17 -246 43 -207 205 -388 364 -407 l48 -5 59 -407 c32 -223 59 -411 59 -417
1 -6 -51 -48 -114 -94 -231 -165 -485 -393 -478 -428 2 -9 33 -24 78 -37 41
-12 90 -28 108 -36 l33 -14 -76 -110 c-41 -60 -82 -111 -91 -113 -14 -4 -455
140 -482 157 -11 7 -11 94 -3 487 38 1691 42 2937 8 2970 -6 6 -2539 -745
-2551 -756 -5 -5 12 -190 38 -427 316 -2850 314 -5564 -4 -8248 -15 -132 -27
-241 -25 -243 6 -7 2097 -494 2101 -490 12 12 140 739 198 1123 151 993 236
2080 224 2873 -1 127 -1 232 1 232 1 0 89 -27 195 -60 858 -267 1631 -408
2516 -460 230 -14 878 -14 1111 0 219 13 576 45 731 65 72 10 114 12 118 5 3
-5 12 -101 18 -212 30 -495 138 -2148 194 -2961 l12 -178 35 6 c97 18 2303
484 2306 487 1 1 -6 59 -16 128 -65 440 -127 1115 -159 1730 -16 312 -29 301
108 94 65 -99 142 -213 172 -254 l54 -75 17 -240 c22 -299 46 -561 64 -702
l14 -108 -4 120 c-2 66 -9 253 -15 415 -7 162 -10 321 -8 353 l3 58 129 -172
129 -172 97 7 c264 17 619 115 1050 289 102 41 186 74 186 73 1 0 -7 -95 -17
-211 -10 -115 -21 -282 -25 -370 l-7 -160 26 -31 c14 -17 52 -44 84 -61 139
-74 317 -104 596 -103 l191 2 13 -44 c268 -880 469 -1751 490 -2126 7 -127 5
-132 -56 -132 -51 0 -247 -46 -389 -92 -265 -84 -537 -207 -608 -273 -85 -81
-9 -130 260 -169 329 -49 750 -41 911 17 35 12 42 12 70 -4 69 -40 193 -54
490 -54 296 0 429 13 551 55 115 40 141 70 124 146 -33 147 -163 323 -273 369
-30 12 -96 104 -471 649 -240 349 -439 641 -442 649 -3 8 69 293 161 634 91
340 170 634 176 654 8 32 19 42 92 83 145 82 269 178 403 311 235 234 378 493
430 775 15 82 15 92 0 138 -58 173 -776 1261 -1045 1582 -162 194 -324 339
-439 393 l-63 29 108 60 c199 111 374 233 493 344 58 55 75 64 165 94 473 154
944 359 1173 510 96 64 197 156 220 201 13 24 11 29 -18 60 -112 122 -203 340
-250 603 -20 107 -30 223 -50 526 -5 85 -19 200 -30 255 -69 340 -231 672
-470 968 l-70 87 55 0 c31 0 55 4 55 10 0 18 -83 101 -127 127 -24 14 -62 31
-85 37 -40 12 -41 14 -91 135 -37 88 -55 121 -67 119 -12 -3 -14 -17 -11 -81
l3 -78 -74 73 c-209 206 -533 347 -941 409 -190 29 -523 36 -684 15 -600 -79
-1068 -395 -1553 -1046 -51 -69 -125 -165 -163 -215 -39 -49 -72 -92 -74 -94
-13 -18 -9 44 22 300 64 539 157 1242 234 1784 6 38 9 70 8 71 -1 1 -56 4
-122 8 l-120 7 -58 -468 c-68 -548 -142 -1213 -188 -1678 l-32 -330 -46 -54
c-25 -29 -102 -108 -171 -173 -118 -113 -125 -119 -128 -93 -4 30 22 320 74
840 85 844 196 1764 330 2714 30 216 53 396 50 398 -6 7 -2590 162 -2595 157
-14 -13 -181 -1848 -181 -1980 0 -16 -14 -26 -65 -46 l-65 -26 0 38 c0 21 -3
41 -7 43 -7 4 -134 -45 -351 -134 -26 -10 -28 -15 27 70 53 84 108 209 122
278 7 34 11 64 8 67 -28 26 -254 162 -359 216 -221 112 -399 178 -628 235
l-112 27 108 48 c178 77 374 201 522 329 211 183 411 435 526 664 l44 87 73 0
c222 1 412 121 480 305 45 119 107 330 118 400 8 44 14 158 14 253 0 94 1 172
2 172 1 0 50 -29 108 -65 57 -36 112 -65 120 -65 18 0 18 9 4 125 -18 150 -70
300 -132 389 -20 29 -20 29 -1 22 36 -14 186 -56 200 -56 20 0 18 23 -15 153
-50 197 -132 381 -248 556 -64 95 -216 258 -301 322 -31 24 -61 46 -66 51 -6
4 35 50 92 104 56 53 102 102 102 109 0 33 -209 25 -371 -13 l-77 -19 -12 41
c-32 108 -111 220 -187 267 -48 30 -54 17 -51 -104 2 -53 1 -97 -2 -97 -3 1
-23 26 -45 57 -59 82 -215 225 -325 299 -310 206 -737 310 -1135 277z m530
-67 c347 -74 608 -214 826 -443 42 -44 95 -108 118 -142 23 -34 48 -60 54 -58
8 2 14 45 17 126 l5 123 51 -54 c60 -63 79 -97 110 -193 14 -43 28 -69 36 -68
7 1 54 11 103 22 50 12 137 24 195 27 l105 5 -97 -94 c-54 -52 -98 -98 -98
-103 0 -5 31 -29 68 -54 89 -60 233 -206 309 -313 73 -104 157 -266 206 -397
39 -104 83 -268 74 -276 -2 -3 -60 13 -128 35 -137 45 -163 42 -112 -11 52
-55 92 -128 122 -223 28 -87 57 -242 50 -264 -2 -6 -56 20 -118 58 -63 38
-118 68 -121 66 -4 -2 -5 -89 -2 -192 4 -200 -7 -304 -49 -445 -19 -66 -39
-97 -39 -61 0 30 -57 120 -93 147 -52 40 -114 58 -204 59 l-81 2 5 90 c6 105
-10 376 -32 519 -18 116 -24 126 -162 264 -57 57 -100 92 -110 90 -14 -3 -22
-38 -44 -201 -14 -109 -28 -199 -30 -201 -2 -3 -164 87 -359 199 -195 112
-359 200 -363 196 -7 -7 -57 -354 -57 -395 0 -25 -141 139 -207 243 -20 31
-51 90 -70 131 -18 41 -36 76 -41 78 -5 1 -56 -28 -113 -66 -149 -99 -430
-264 -437 -258 -3 4 15 60 40 126 32 84 42 123 34 129 -17 13 -253 -30 -476
-87 -214 -55 -516 -147 -714 -217 -70 -25 -129 -45 -132 -45 -19 0 30 193 76
301 24 58 27 71 15 76 -20 7 -111 -48 -380 -228 -348 -232 -472 -322 -592
-430 -78 -68 -113 -94 -113 -82 0 79 57 327 116 501 18 57 34 106 34 108 0 2
-8 4 -18 4 -43 0 -172 -494 -172 -658 0 -49 29 -35 137 64 82 77 105 93 100
74 -13 -54 -56 -288 -63 -338 -4 -29 -10 -54 -14 -57 -4 -2 -26 3 -48 12 -50
19 -96 12 -147 -23 -21 -14 -41 -22 -46 -17 -9 9 -61 259 -79 381 -7 45 -17
85 -22 89 -6 3 -21 -8 -35 -26 -13 -17 -29 -31 -34 -31 -14 0 -11 136 7 296 9
80 14 147 11 150 -3 3 -29 -2 -57 -11 -28 -9 -54 -14 -57 -11 -16 16 89 211
214 395 56 83 80 128 73 135 -6 6 -41 -4 -105 -31 -52 -23 -95 -38 -95 -34 0
5 24 47 54 94 176 280 456 567 773 790 411 290 977 515 1558 622 212 39 280
44 525 40 195 -3 241 -7 345 -29z m-146 -1818 c76 -160 293 -430 322 -401 5 5
18 87 29 183 11 96 24 187 28 202 l7 26 355 -204 c204 -117 358 -200 363 -195
9 9 57 322 57 374 0 15 4 27 9 27 10 0 174 -171 196 -203 43 -67 69 -589 41
-827 -29 -246 -69 -376 -187 -610 -123 -243 -263 -435 -450 -615 -466 -449
-1079 -645 -1779 -570 -507 54 -891 225 -1200 535 -142 142 -224 252 -303 408
-101 197 -136 354 -144 652 -5 175 -4 194 26 364 37 207 65 335 77 345 56 50
760 521 778 521 3 0 -8 -35 -24 -78 -31 -85 -60 -212 -60 -263 0 -25 3 -30 18
-26 9 3 116 40 238 81 290 100 631 196 846 240 236 47 231 47 222 27 -23 -54
-84 -239 -84 -253 0 -10 6 -18 14 -18 14 0 442 254 516 307 25 18 48 32 52 33
4 0 20 -28 37 -62z m1639 -953 c99 -30 158 -110 169 -231 5 -58 3 -69 -27
-131 -78 -158 -240 -253 -432 -253 -44 0 -59 3 -55 13 4 6 22 53 42 102 51
130 56 136 109 169 39 24 63 31 125 36 99 7 95 25 -7 25 -61 0 -86 -5 -121
-23 l-44 -23 7 23 c3 13 13 73 21 133 9 61 18 125 21 143 l5 32 68 0 c37 0 91
-7 119 -15z m-4350 -58 c15 -14 18 -37 20 -176 l2 -160 -35 15 c-43 18 -108
19 -103 2 3 -7 23 -16 46 -20 89 -15 94 -21 113 -138 9 -58 21 -123 28 -145 7
-26 7 -43 1 -49 -15 -15 -229 -12 -265 3 -162 66 -204 240 -113 459 37 90 110
188 158 214 42 23 120 20 148 -5z m5695 -791 c576 -35 1050 -65 1052 -67 1 -2
-1 -29 -6 -59 -39 -251 -180 -1338 -243 -1885 -160 -1370 -279 -2848 -321
-3965 -5 -133 -19 -251 -56 -495 -26 -176 -74 -502 -105 -724 l-56 -405 33
-75 c18 -42 62 -134 98 -206 l65 -130 7 -250 c21 -680 82 -1475 153 -1985 8
-52 11 -98 7 -101 -9 -8 -1892 -402 -1897 -396 -5 5 -66 904 -158 2340 -34
543 -65 990 -69 993 -3 3 -92 -6 -199 -20 -253 -34 -439 -53 -682 -71 -212
-16 -676 -32 -676 -23 0 3 18 43 39 90 95 205 189 509 217 701 21 147 15 300
-15 379 -29 74 -84 130 -155 157 -109 40 -200 20 -287 -65 l-46 -45 -56 23
c-32 13 -57 26 -57 30 0 3 36 57 81 120 85 118 172 255 207 324 l20 40 94 12
c569 75 1465 205 1698 248 175 32 237 50 249 73 21 38 -56 150 -259 381 -102
116 -110 128 -110 167 l0 42 81 26 c78 24 272 66 371 80 26 3 50 10 53 15 5 9
-79 222 -97 246 -7 9 -16 9 -38 1 -27 -10 -38 -5 -189 96 -160 107 -161 107
-161 145 0 20 3 54 7 75 5 35 11 41 61 65 l55 27 -6 170 c-4 94 -10 269 -13
391 l-7 221 46 12 c124 35 217 206 233 426 3 44 7 100 9 125 6 77 -13 190 -44
257 -36 76 -107 149 -180 186 l-55 27 3 52 c15 332 162 2091 186 2236 5 28 10
32 38 32 18 0 504 -29 1080 -64z m-2858 -971 c216 -49 451 -133 644 -230 108
-54 294 -164 335 -199 29 -24 30 -25 18 -76 -17 -73 -73 -189 -138 -287 -54
-81 -60 -86 -140 -126 -46 -22 -85 -39 -87 -37 -3 3 -57 101 -121 217 -65 117
-122 215 -127 219 -6 3 -15 2 -21 -4 -7 -7 21 -68 92 -199 57 -103 111 -202
122 -220 l19 -32 -71 -38 c-409 -217 -710 -419 -979 -657 l-123 -109 -26 34
c-73 97 -221 218 -401 326 -153 92 -474 248 -646 313 -23 9 -23 9 62 202 138
315 142 324 132 339 -15 26 -35 -9 -143 -259 -57 -134 -107 -246 -110 -249 -3
-3 -47 11 -98 31 -81 32 -116 54 -273 177 -99 77 -181 144 -183 148 -1 4 37
46 85 92 233 225 553 438 799 533 l91 35 94 -10 c140 -15 160 -19 154 -29 -11
-18 15 -208 35 -262 59 -158 160 -231 317 -231 79 1 136 31 179 94 45 68 58
145 51 303 l-6 133 92 17 c51 10 126 28 167 41 41 13 80 23 85 24 6 0 60 -10
120 -24z m-533 -176 c1 -155 -29 -225 -107 -254 -40 -16 -55 -17 -108 -7 -125
23 -192 116 -213 295 l-6 57 148 1 c82 1 176 4 209 8 33 4 64 4 68 0 5 -3 8
-49 9 -100z m-412 -146 c36 -73 82 -114 152 -137 63 -20 118 -20 165 -1 76 32
106 83 128 213 l14 87 -3 -110 c-6 -156 -37 -229 -118 -271 -36 -19 -133 -18
-190 2 -128 43 -209 193 -207 384 l1 75 14 -90 c9 -57 25 -113 44 -152z
m-2733 -1025 c-6 -730 -16 -1326 -36 -2173 -5 -203 -6 -374 -2 -378 12 -12
377 -143 569 -203 11 -3 9 -12 -7 -38 -27 -43 -27 -78 2 -103 100 -91 400
-234 1092 -523 326 -136 744 -309 797 -329 l27 -10 -54 -115 c-99 -210 -175
-471 -175 -602 0 -159 73 -243 182 -210 114 34 305 218 556 532 58 74 111 134
116 134 17 0 117 -43 113 -49 -168 -300 -230 -867 -122 -1113 6 -16 0 -18 -66
-18 -181 0 -648 44 -969 90 -637 92 -1247 241 -1875 458 l-200 69 4 -521 c6
-969 -51 -1738 -210 -2816 -52 -358 -151 -925 -162 -937 -4 -3 -383 83 -844
191 -461 108 -842 196 -847 196 -5 0 -6 24 -3 53 176 1606 237 2662 237 4137
0 1443 -71 2720 -230 4144 -17 148 -29 270 -27 272 6 6 2110 632 2126 633 12
1 13 -109 8 -771z m4891 538 c-2 -1 -91 -42 -198 -91 -412 -189 -995 -493
-1235 -644 -53 -33 -93 -56 -90 -51 23 38 428 314 629 430 222 127 620 316
841 397 l50 19 3 -29 c2 -16 2 -30 0 -31z m134 -7 c-4 -4 -72 -36 -152 -72
-423 -189 -1219 -588 -1502 -754 -5 -2 -8 -2 -8 1 0 7 315 193 475 281 379
207 1174 583 1187 562 4 -7 4 -15 0 -18z m-3732 -61 c752 -244 1328 -511 1616
-750 40 -33 84 -75 98 -92 23 -30 7 -24 -187 75 -366 185 -769 363 -1416 623
l-375 151 1 33 c1 17 2 35 2 38 1 6 -13 11 261 -78z m3965 -462 c104 -49 179
-146 204 -264 34 -164 -8 -452 -85 -574 -41 -65 -88 -92 -163 -96 -84 -4 -132
22 -176 92 -29 47 -30 55 -30 155 1 95 4 114 33 186 58 146 153 279 225 316
41 22 53 55 15 44 -13 -4 -38 -19 -56 -32 -18 -14 -35 -23 -36 -22 -2 2 -6 52
-9 112 -6 123 -6 123 78 83z m-4287 -123 c7 -42 11 -78 8 -80 -2 -2 -15 1 -30
7 -37 14 -79 13 -74 -1 2 -7 46 -24 97 -40 56 -17 108 -39 130 -57 85 -68 140
-220 127 -353 -7 -82 -38 -168 -70 -198 -113 -107 -340 30 -427 258 -61 162
-40 313 59 423 33 37 144 118 162 118 3 0 12 -34 18 -77z m8292 -960 c-91
-340 -99 -374 -87 -378 7 -1 53 -8 102 -15 249 -34 537 -135 633 -223 20 -19
23 -19 35 -4 39 50 402 485 404 483 2 -1 -24 -123 -56 -272 -33 -148 -56 -272
-53 -275 4 -4 72 -32 152 -64 170 -67 267 -114 332 -161 l47 -33 53 82 c30 45
87 135 128 199 l75 118 5 -225 5 -225 86 80 86 79 6 -247 c13 -469 49 -746
114 -875 l24 -49 -64 -133 c-36 -73 -83 -160 -105 -192 -118 -174 -430 -410
-737 -558 -103 -49 -269 -116 -325 -130 l-25 -6 4 151 c4 185 -24 368 -84 538
-3 8 -25 -4 -64 -35 -362 -292 -862 -345 -1290 -137 -98 48 -125 67 -192 133
-45 46 -82 75 -89 71 -20 -12 105 -357 170 -467 11 -18 16 -33 11 -33 -4 0
-50 35 -103 79 -218 181 -399 447 -496 730 l-36 106 -4 221 c-5 294 25 547 94
804 31 114 107 329 152 430 l47 105 55 14 c37 9 114 14 240 14 187 1 230 -6
385 -57 17 -6 33 11 100 106 100 142 272 356 287 357 4 1 -6 -47 -22 -106z
m-8383 -1119 c132 -44 304 -121 460 -206 217 -117 601 -382 673 -465 l31 -35
-28 -30 c-15 -16 -40 -39 -56 -50 l-27 -20 -61 57 c-271 250 -783 552 -1137
670 l-84 27 43 44 c24 24 51 44 61 44 10 0 66 -16 125 -36z m4648 -94 c21 -50
36 -92 34 -93 -2 -2 -76 -17 -164 -35 -88 -17 -209 -47 -269 -67 -59 -19 -121
-35 -137 -35 -15 0 -32 -6 -36 -14 -4 -8 -62 -41 -128 -74 -151 -76 -303 -178
-422 -281 -50 -45 -94 -81 -96 -81 -3 0 -33 32 -67 70 -76 85 -81 75 94 188
288 189 584 337 840 422 77 25 268 81 307 89 4 0 23 -40 44 -89z m1868 -100
c33 -69 93 -173 133 -233 l73 -107 -14 -238 c-19 -322 -44 -935 -47 -1169 -2
-145 -6 -189 -14 -180 -7 7 -77 129 -157 272 l-144 260 8 195 c17 400 61 1168
75 1310 6 57 8 62 17 40 6 -14 37 -81 70 -150z m-6358 -44 c61 -29 155 -79
210 -110 153 -88 422 -270 404 -274 -44 -8 -856 192 -882 218 -11 10 129 220
146 220 6 0 62 -24 122 -54z m1906 -170 l296 -137 273 136 c238 118 275 134
289 122 24 -20 322 -269 344 -288 17 -13 18 -18 6 -37 -12 -18 -11 -24 7 -44
50 -57 52 -54 -48 -67 -587 -76 -1252 -74 -1888 5 -149 18 -156 20 -164 41 -9
23 28 59 166 163 149 113 394 257 417 246 3 -1 139 -64 302 -140z m1941 -95
l-3 -79 -47 -12 c-81 -20 -335 -70 -339 -66 -13 12 348 235 382 236 6 0 9 -31
7 -79z m329 -176 c94 -110 161 -196 156 -201 -12 -13 -599 -103 -1282 -199
-258 -36 -513 -72 -565 -79 l-95 -14 -35 32 c-157 141 -366 158 -559 44 -79
-47 -217 -188 -286 -293 -32 -49 -60 -92 -62 -94 -6 -8 -1061 431 -1399 582
-215 96 -398 186 -455 224 l-39 25 17 29 c10 16 21 29 25 29 4 0 76 -20 160
-44 601 -175 1207 -286 1853 -338 240 -19 920 -16 1160 6 421 38 736 89 1133
182 l152 36 0 106 c1 102 1 106 18 87 9 -12 56 -66 103 -120z m2627 -65 l59
-35 33 -100 c18 -55 64 -161 101 -235 270 -533 813 -883 1407 -907 78 -3 142
-9 142 -14 0 -12 -150 -145 -232 -206 -40 -30 -110 -77 -156 -105 -94 -56
-322 -168 -345 -168 -8 0 -54 52 -103 115 l-88 115 -26 -17 c-114 -76 -246
-145 -462 -244 l-128 -58 -31 40 c-57 73 -145 98 -226 64 -19 -8 -37 -15 -39
-15 -2 0 -22 32 -45 72 l-42 71 7 151 c16 350 71 1224 92 1449 4 37 10 66 14
65 5 -2 35 -19 68 -38z m-4653 -325 c68 -18 144 -57 176 -91 31 -33 32 -88 2
-147 -25 -50 -225 -351 -265 -400 l-23 -27 -270 110 c-148 61 -274 115 -279
120 -4 4 11 37 34 72 202 300 407 419 625 363z m5444 -344 c184 -94 390 -137
625 -128 276 10 459 76 721 262 20 13 22 8 45 -81 46 -176 61 -369 40 -498 -5
-32 -11 -60 -13 -62 -10 -11 -178 -45 -287 -60 -147 -19 -377 -15 -510 10
-178 32 -402 111 -541 189 l-74 42 -70 140 c-39 77 -84 181 -102 232 l-32 92
61 -49 c34 -27 96 -67 137 -89z m-831 -1286 c-7 -6 -526 -209 -649 -253 -177
-65 -299 -105 -304 -100 -4 3 120 883 165 1168 27 179 69 420 76 443 4 13 118
-184 361 -618 195 -350 353 -638 351 -640z m-5043 1010 c143 -59 262 -109 264
-111 6 -6 -33 -59 -132 -178 l-86 -105 -54 54 c-64 63 -171 135 -290 194 l-86
43 33 71 c60 130 70 148 80 143 6 -2 128 -52 271 -111z m748 -15 c48 0 51 -15
12 -65 -109 -144 -198 -418 -235 -725 -6 -52 -13 -110 -16 -129 l-5 -33 -57 7
c-31 3 -81 14 -109 22 l-53 17 0 59 c0 69 24 245 46 332 43 173 111 331 150
345 16 7 24 17 24 34 0 36 98 122 153 134 23 6 48 8 55 6 8 -2 23 -4 35 -4z
m110 -42 c16 -12 14 -17 -14 -58 -124 -183 -212 -527 -234 -920 -6 -103 3
-246 21 -336 5 -26 1 -33 -21 -48 -15 -10 -28 -16 -30 -14 -2 2 -11 31 -20 63
-25 92 -31 332 -12 495 43 363 122 622 238 778 43 56 47 58 72 40z m-1104
-152 c128 -73 261 -181 261 -214 0 -7 -64 -77 -142 -156 -149 -148 -218 -196
-283 -196 -64 0 -95 61 -95 185 0 97 18 192 62 325 45 139 40 133 92 109 25
-11 72 -35 105 -53z m7990 43 c24 -10 72 -39 107 -64 l64 -46 -5 -182 c-21
-916 -359 -1476 -949 -1572 -49 -8 -90 -14 -91 -12 -1 1 -19 34 -40 72 -21 39
-74 130 -117 203 l-80 133 22 147 c57 404 135 814 192 1027 l33 120 36 3 36 3
-23 -82 c-57 -197 -11 -344 122 -386 132 -41 244 34 352 237 40 75 98 227 127
330 14 53 17 56 67 77 57 23 77 22 147 -8z m-269 -132 c-90 -282 -199 -447
-315 -476 -51 -13 -83 -8 -136 21 -93 51 -113 199 -50 368 l21 55 122 22 c68
12 182 41 253 65 72 24 131 43 133 42 1 -1 -11 -44 -28 -97z m597 -134 c107
-118 204 -238 311 -385 109 -151 582 -860 610 -914 57 -113 69 -309 23 -391
-31 -55 -83 -83 -154 -83 l-56 0 39 -82 c93 -194 76 -297 -60 -366 -47 -23
-90 -36 -152 -44 l-88 -12 0 -36 c0 -51 -27 -148 -55 -195 -54 -92 -140 -152
-257 -180 -69 -16 -212 -19 -270 -6 -36 8 -37 8 -74 -45 -85 -124 -218 -214
-346 -236 -53 -8 -80 -7 -144 6 -84 17 -214 75 -278 124 l-40 30 -69 -53
c-103 -79 -169 -109 -247 -113 -58 -3 -70 0 -111 26 -56 36 -115 123 -150 222
l-27 75 14 145 c7 80 13 155 14 168 0 19 14 30 78 59 243 111 459 216 470 227
16 16 -6 79 -94 265 -30 63 -53 115 -52 116 2 2 34 8 71 14 147 25 290 82 412
164 84 56 221 197 284 292 187 284 301 719 301 1153 0 78 4 142 9 142 5 0 45
-39 88 -87z m-1262 -40 c-28 -71 -116 -524 -165 -848 -16 -110 -32 -215 -36
-233 -5 -32 -10 -26 -133 160 -70 106 -176 260 -235 342 -59 83 -108 153 -109
158 -1 4 45 29 103 56 183 84 361 196 500 316 41 36 77 65 79 65 2 1 0 -7 -4
-16z m-774 -356 c256 -341 450 -627 628 -919 l22 -37 -31 11 c-94 32 -237 -57
-296 -187 -76 -165 -36 -322 100 -393 43 -22 64 -26 132 -27 73 0 85 3 123 30
51 34 93 104 110 179 20 89 35 81 95 -47 68 -146 110 -246 105 -251 -27 -25
-492 -238 -724 -331 -455 -184 -799 -280 -1036 -292 l-115 -6 -140 189 c-322
433 -572 816 -749 1144 -67 124 -165 331 -165 348 0 5 66 33 148 61 648 232
1437 569 1602 685 19 14 40 25 45 25 6 1 71 -81 146 -182z m-878 -8 c30 -15
87 -70 87 -83 0 -10 -159 -81 -165 -74 -6 6 -75 130 -75 134 0 3 15 11 33 19
39 17 91 19 120 4z m-4773 -144 c36 -8 77 -15 93 -15 l27 0 0 -122 c1 -109 13
-215 35 -300 7 -26 5 -28 -25 -28 -126 0 -214 156 -234 414 -6 78 -6 78 17 72
12 -4 51 -13 87 -21z m6319 -861 c84 -72 118 -201 87 -324 -21 -83 -60 -139
-116 -167 -52 -27 -88 -29 -159 -7 -110 32 -168 120 -159 242 6 83 33 146 89
207 90 98 180 115 258 49z m2510 -269 c20 -52 20 -59 6 -137 -52 -296 -234
-603 -495 -834 -309 -273 -805 -493 -1285 -569 -140 -22 -426 -30 -552 -16
-185 22 -344 75 -406 136 -24 25 -27 35 -27 96 0 39 4 69 10 69 6 0 10 -5 10
-10 0 -18 82 -101 125 -126 117 -68 280 -44 439 65 l43 30 64 -34 c198 -107
412 -120 584 -36 69 34 176 122 220 180 l30 40 105 1 c58 0 135 7 172 15 198
41 343 178 392 367 l13 52 64 16 c96 25 153 53 208 105 85 80 111 193 75 330
-15 60 -15 60 8 75 83 52 138 147 138 239 l1 46 19 -23 c10 -13 28 -47 39 -77z
m-963 -1342 c-23 -78 -336 -1252 -336 -1261 0 -7 194 -295 431 -640 238 -345
432 -633 433 -640 1 -7 -53 -34 -124 -63 -171 -69 -428 -196 -524 -259 -43
-28 -82 -48 -86 -43 -4 4 -19 58 -35 118 -36 142 -51 180 -84 208 -26 22 -28
29 -40 171 -35 427 -183 1089 -433 1936 -33 113 -61 211 -62 219 -1 10 34 20
129 38 213 39 536 141 670 211 50 26 68 28 61 5z m639 -2587 c42 -18 118 -87
156 -143 16 -23 29 -44 29 -47 0 -9 -148 -52 -270 -79 -262 -58 -469 -72 -508
-33 -15 15 -15 19 2 51 10 19 27 42 36 50 35 32 460 213 503 214 10 1 33 -5
52 -13z m-985 -16 c12 -12 26 -33 32 -48 22 -55 47 -167 39 -175 -4 -4 -51
-23 -104 -42 -288 -103 -512 -118 -664 -44 -62 30 -113 80 -113 112 0 23 36
40 237 106 316 105 526 138 573 91z m-826 -241 c12 -27 35 -51 70 -74 79 -52
152 -69 291 -69 141 0 240 18 405 76 150 52 152 52 163 6 7 -30 5 -43 -10 -65
-11 -15 -22 -35 -25 -44 -7 -19 -91 -44 -198 -59 -97 -15 -453 -14 -595 0
-212 21 -372 55 -405 86 -13 12 -11 18 16 45 32 32 227 138 254 138 8 0 23
-18 34 -40z m2041 -15 c34 -89 36 -114 11 -139 -29 -29 -125 -60 -251 -82
-149 -25 -602 -25 -738 0 -53 11 -107 27 -119 37 -21 17 -21 18 -5 44 23 34
111 103 185 143 l59 33 -1 -43 c-1 -38 2 -44 34 -60 76 -40 402 -1 685 82 55
16 105 29 111 30 6 0 19 -20 29 -45z"/>
<path d="M63983 17625 c-85 -60 -40 -332 47 -285 66 35 77 200 19 274 -24 30
-36 32 -66 11z"/>
<path d="M65507 17592 c-25 -28 -37 -69 -37 -133 0 -73 20 -125 56 -141 24
-11 29 -10 54 19 48 53 52 171 10 241 -22 36 -57 43 -83 14z"/>
<path d="M64224 16479 c-10 -16 75 -118 157 -187 81 -68 203 -133 289 -153 70
-16 190 -16 260 0 71 17 221 89 286 138 124 94 179 153 143 153 -6 0 -36 -23
-67 -51 -111 -101 -258 -184 -373 -209 -33 -8 -94 -11 -150 -8 -170 9 -272 61
-431 220 -60 60 -110 103 -114 97z"/>
<path d="M70173 12067 c-52 -23 -81 -170 -46 -237 14 -28 24 -35 47 -35 25 0
33 7 53 44 39 74 27 216 -19 233 -7 3 -23 1 -35 -5z"/>
<path d="M71503 11868 c-37 -41 -47 -72 -47 -144 0 -87 20 -127 62 -122 63 7
103 192 55 256 -26 35 -44 38 -70 10z"/>
<path d="M40044 20298 c-77 -99 -264 -294 -311 -325 l-23 -15 31 -39 c17 -22
35 -39 40 -39 5 0 57 46 115 103 107 102 224 234 282 320 l31 45 -39 26 c-22
14 -41 26 -43 26 -2 0 -39 -46 -83 -102z"/>
<path d="M53640 20264 c-41 -20 -168 -81 -282 -136 l-206 -101 21 -43 c11 -24
25 -44 29 -44 5 0 54 23 111 51 56 29 178 87 272 131 93 43 171 80 173 83 4 4
-35 96 -40 94 -2 0 -37 -16 -78 -35z"/>
<path d="M23570 20143 l0 -50 158 -7 c125 -5 331 -23 442 -39 10 -1 16 12 22
48 4 27 6 50 5 51 -10 10 -300 36 -444 41 l-183 6 0 -50z"/>
<path d="M22775 20105 c-166 -36 -225 -52 -363 -97 -88 -28 -93 -32 -88 -54
13 -50 27 -76 39 -71 107 41 375 113 514 137 l71 13 -5 36 c-12 74 -2 72 -168
36z"/>
<path d="M8109 19998 c-48 -126 -86 -240 -125 -382 -37 -133 -37 -145 6 -146
8 0 25 -3 37 -6 18 -5 23 -1 29 22 31 130 126 421 178 545 5 12 -3 20 -36 32
-24 10 -47 17 -50 17 -4 0 -21 -37 -39 -82z"/>
<path d="M24809 19962 c-26 -67 -26 -67 131 -131 80 -32 204 -88 277 -124
l132 -66 25 44 25 45 -62 34 c-96 54 -344 163 -480 212 -37 13 -38 13 -48 -14z"/>
<path d="M44218 19872 c-79 -127 -238 -413 -238 -428 0 -5 20 -20 44 -32 l45
-21 71 136 c39 75 109 197 155 270 l83 133 -36 25 c-20 14 -41 25 -47 25 -5
-1 -40 -49 -77 -108z"/>
<path d="M28118 19915 c-112 -14 -268 -44 -280 -54 -4 -3 -2 -27 4 -54 9 -36
15 -46 27 -42 89 26 283 53 454 61 l137 7 0 49 0 48 -117 -1 c-65 -1 -166 -7
-225 -14z"/>
<path d="M29090 19795 c-27 -72 -29 -69 70 -105 100 -35 300 -131 391 -186 31
-19 61 -34 65 -34 10 0 54 65 54 78 0 13 -203 126 -316 176 -87 38 -237 96
-250 96 -2 0 -9 -11 -14 -25z"/>
<path d="M52420 19639 c-232 -135 -207 -126 -226 -85 l-17 34 -43 -21 c-24
-11 -44 -25 -44 -29 0 -5 18 -44 40 -88 l40 -79 122 73 c68 40 174 101 236
136 61 34 112 65 112 67 0 15 -45 83 -54 82 -6 0 -81 -41 -166 -90z"/>
<path d="M69699 19702 l-37 -17 40 -105 c21 -58 44 -124 49 -146 l11 -42 96
-6 c54 -4 137 -12 185 -17 49 -6 91 -9 93 -7 2 3 7 25 10 50 8 54 16 51 -178
69 l-126 12 -39 111 c-24 68 -44 112 -53 113 -8 2 -31 -5 -51 -15z"/>
<path d="M39142 19625 c-24 -11 -32 -20 -28 -32 2 -10 12 -54 21 -98 23 -109
25 -115 38 -115 16 0 230 -118 307 -169 34 -23 63 -41 65 -41 6 0 55 73 55 81
0 10 -143 100 -252 159 -54 28 -99 59 -102 68 -2 9 -8 33 -12 52 -6 34 -44
110 -54 110 -3 -1 -20 -7 -38 -15z"/>
<path d="M27138 19554 c-112 -76 -249 -188 -332 -272 l-68 -70 38 -35 39 -36
90 88 c99 97 204 182 308 250 37 24 67 48 67 53 0 16 -40 78 -50 78 -5 0 -47
-25 -92 -56z"/>
<path d="M47870 19578 c-474 -44 -906 -248 -1220 -574 -318 -331 -534 -721
-617 -1114 -24 -111 -27 -148 -27 -325 -1 -230 16 -341 85 -550 125 -385 443
-840 761 -1088 370 -289 805 -420 1343 -404 219 6 379 31 555 84 320 96 561
241 801 482 316 317 536 690 628 1063 38 154 51 259 51 413 -1 447 -178 882
-533 1306 -156 187 -308 320 -497 435 -365 222 -836 319 -1330 272z m549 -224
c541 -71 948 -341 1292 -858 140 -210 231 -424 280 -656 18 -85 22 -138 22
-280 0 -142 -4 -195 -22 -280 -65 -308 -211 -596 -448 -886 -335 -409 -736
-615 -1274 -656 -473 -35 -920 83 -1250 331 -190 143 -402 387 -549 631 -354
587 -339 1207 42 1788 319 485 682 746 1181 847 225 45 476 52 726 19z"/>
<path d="M30411 19489 c-134 -132 -298 -345 -288 -372 2 -7 -2 -19 -9 -28 -12
-13 -9 -20 19 -47 l33 -32 61 92 c75 115 202 267 286 344 l65 59 -33 38 c-18
20 -35 37 -38 37 -3 0 -46 -41 -96 -91z"/>
<path d="M59615 19566 c-33 -10 -40 -16 -39 -36 0 -14 22 -119 48 -235 25
-115 53 -242 62 -281 l15 -71 50 10 c27 5 49 14 49 19 0 5 -29 141 -65 303
-36 161 -65 296 -65 299 0 8 -8 7 -55 -8z"/>
<path d="M60325 19428 c-9 -40 -23 -125 -31 -188 -8 -63 -25 -168 -36 -233
-12 -64 -19 -119 -16 -122 2 -3 25 -8 50 -11 l44 -6 22 103 c11 57 26 151 32
209 6 58 20 145 31 195 10 49 19 92 19 97 0 7 -64 28 -86 28 -7 0 -19 -33 -29
-72z"/>
<path d="M25901 19342 l-30 -38 127 -102 c70 -55 177 -146 237 -201 l110 -99
33 31 c17 17 32 35 32 39 0 23 -447 408 -473 408 -3 0 -19 -17 -36 -38z"/>
<path d="M16803 19291 c-225 -83 -332 -337 -227 -543 85 -168 278 -246 466
-188 109 33 189 103 245 212 26 48 28 63 28 163 0 106 -1 112 -34 173 -41 76
-104 135 -179 170 -77 35 -220 41 -299 13z m243 -104 c27 -14 56 -33 63 -41 9
-10 30 -16 58 -16 39 0 51 -5 84 -39 35 -35 39 -44 39 -89 0 -39 -6 -57 -25
-81 -14 -16 -34 -33 -44 -36 -10 -3 -24 -24 -32 -47 -22 -68 -80 -132 -150
-167 -146 -73 -324 -19 -394 120 -32 63 -31 71 3 32 45 -48 89 -67 158 -68 50
0 69 5 110 30 59 36 104 114 104 180 0 57 -37 123 -88 160 -36 24 -52 29 -105
30 -34 0 -73 -4 -86 -9 -38 -13 -16 11 32 36 65 33 87 38 157 34 45 -2 81 -11
116 -29z"/>
<path d="M14065 19276 c-264 -64 -408 -342 -296 -570 40 -82 119 -156 199
-187 212 -81 459 17 555 219 30 62 32 75 32 172 0 96 -3 110 -29 161 -83 166
-275 250 -461 205z m245 -107 c46 -20 126 -89 103 -89 -7 0 -14 4 -18 9 -3 5
-29 15 -58 22 -70 15 -145 -5 -204 -55 -56 -49 -76 -103 -68 -181 9 -75 34
-118 91 -151 76 -45 198 -31 261 28 38 35 26 4 -16 -43 -121 -138 -339 -150
-464 -25 -18 18 -45 36 -59 39 -39 10 -85 61 -92 102 -9 44 22 115 58 135 13
7 32 30 42 52 22 48 89 119 135 144 89 46 200 51 289 13z"/>
<path d="M70750 19233 c-11 -25 -19 -47 -18 -48 2 -1 46 -23 98 -48 108 -52
250 -136 351 -208 38 -27 72 -49 77 -49 11 1 62 72 57 80 -3 4 -58 43 -122 87
-117 78 -284 173 -375 212 l-47 20 -21 -46z"/>
<path d="M56850 18881 c-1093 -373 -1845 -679 -2620 -1068 -1831 -917 -2885
-1926 -3229 -3091 -72 -244 -105 -494 -104 -787 1 -401 58 -757 183 -1136 119
-362 352 -819 529 -1039 469 -581 1577 -1179 3281 -1769 562 -195 776 -279
1045 -411 543 -266 803 -524 782 -777 -8 -110 -67 -213 -191 -337 -169 -171
-343 -287 -695 -465 -1400 -707 -2868 -940 -4359 -690 -68 12 -125 19 -127 17
-4 -4 761 -2937 768 -2944 5 -5 571 41 817 66 1494 155 2764 433 3865 847 245
92 572 231 732 312 1004 503 1617 1306 1838 2406 104 514 124 1087 54 1524
-170 1068 -908 1901 -2184 2466 -428 190 -818 319 -1445 480 -456 117 -623
165 -922 265 -849 284 -1358 601 -1536 956 -116 232 -71 492 136 784 82 116
406 445 577 586 579 477 1274 836 2106 1088 459 138 882 230 1439 310 174 26
225 36 223 47 -3 21 -533 2461 -539 2482 -3 9 -8 17 -12 16 -4 0 -189 -62
-412 -138z m486 -1167 c122 -560 221 -1021 219 -1023 -2 -2 -120 -23 -262 -46
-1431 -240 -2542 -703 -3398 -1416 -133 -111 -419 -392 -511 -502 -234 -279
-351 -570 -328 -816 54 -599 748 -1083 2129 -1485 105 -30 348 -96 540 -145
706 -181 1144 -333 1601 -555 489 -238 833 -475 1139 -781 210 -211 368 -429
500 -690 220 -434 305 -887 276 -1470 -42 -860 -253 -1514 -662 -2055 -345
-456 -785 -783 -1429 -1060 -1214 -522 -2706 -866 -4475 -1029 -279 -26 -405
-35 -405 -28 0 3 -20 81 -44 173 -280 1063 -596 2278 -593 2280 1 2 75 -5 162
-16 311 -36 475 -45 850 -44 442 0 702 20 1100 84 729 117 1435 348 2145 701
376 187 624 353 795 530 128 133 197 244 231 372 18 68 18 209 -1 280 -56 217
-256 435 -579 632 -301 183 -637 331 -1211 530 -1313 456 -2143 830 -2756
1241 -253 170 -500 390 -623 555 -109 147 -277 456 -371 684 -253 608 -331
1310 -209 1886 151 721 646 1423 1454 2065 813 646 1965 1251 3445 1809 391
148 1022 367 1040 362 5 -2 109 -462 231 -1023z"/>
<path d="M7860 18832 c0 -17 -12 -20 -122 -25 -66 -4 -163 -7 -213 -7 -51 0
-107 -3 -124 -6 -30 -6 -31 -9 -31 -56 l0 -50 143 6 c78 3 211 8 295 12 l152
6 0 63 c0 69 -5 75 -66 75 -26 0 -34 -4 -34 -18z"/>
<path d="M43736 18842 c-7 -12 -55 -184 -82 -295 l-27 -108 -47 6 c-52 7 -51
9 -65 -61 l-6 -30 78 -17 c43 -10 88 -20 100 -23 19 -5 22 0 33 53 6 32 32
137 57 233 25 96 47 185 50 196 4 18 -3 24 -41 37 -25 9 -47 13 -50 9z"/>
<path d="M41350 18820 c-105 -11 -285 -41 -299 -50 -9 -5 -9 -18 0 -54 11 -44
13 -47 38 -41 72 18 302 45 433 51 l148 7 0 49 0 48 -122 -1 c-68 -1 -157 -5
-198 -9z"/>
<path d="M40043 18790 c-18 -16 -33 -32 -33 -36 0 -3 20 -29 44 -57 54 -64
127 -168 190 -270 48 -76 49 -77 72 -62 13 8 53 31 89 51 36 20 68 40 71 45 4
7 -21 59 -42 88 -2 2 -23 -8 -48 -23 -24 -14 -49 -26 -53 -26 -5 0 -35 38 -67
84 -65 96 -175 236 -184 236 -4 0 -22 -14 -39 -30z"/>
<path d="M6460 18755 c-124 -7 -253 -14 -287 -14 l-63 -1 0 -49 c0 -28 3 -52
8 -54 4 -3 146 2 315 11 l308 16 -3 51 c-4 61 22 57 -278 40z"/>
<path d="M42305 18727 c-19 -57 -23 -88 -12 -92 22 -7 585 -135 594 -135 8 0
36 91 30 97 -1 0 -132 31 -292 67 -159 37 -296 69 -303 71 -7 3 -15 -1 -17 -8z"/>
<path d="M5167 18689 c-99 -9 -304 -43 -314 -53 -2 -2 1 -25 8 -51 l12 -47 36
7 c20 4 70 14 111 22 41 7 161 17 266 20 l192 6 5 46 c3 25 4 48 2 50 -9 8
-220 9 -318 0z"/>
<path d="M20164 18524 c-196 -542 -640 -921 -1194 -1019 -55 -10 -991 -62
-2690 -150 -3003 -155 -3141 -163 -3147 -169 -2 -2 9 -368 26 -813 17 -444 31
-829 31 -854 0 -45 0 -45 30 -41 l30 4 -1 87 c0 47 -8 281 -17 520 -11 286
-14 435 -7 437 6 2 1367 73 3025 158 1658 86 3060 160 3114 166 267 30 492
143 679 340 201 212 300 460 300 755 0 189 -34 337 -115 500 -47 95 -55 105
-64 79z"/>
<path d="M71731 18470 l-34 -29 41 -58 c88 -123 241 -386 264 -455 3 -9 16 -7
52 6 56 22 57 16 -26 176 -82 157 -236 391 -256 390 -4 -1 -22 -14 -41 -30z"/>
<path d="M4165 18342 c-123 -83 -197 -143 -302 -246 -57 -55 -103 -102 -103
-105 0 -3 16 -19 35 -34 l36 -28 86 81 c95 90 225 193 321 255 34 22 62 43 62
47 0 15 -43 78 -53 78 -7 0 -44 -22 -82 -48z"/>
<path d="M59883 18338 c-24 -5 -43 -15 -43 -22 0 -10 106 -504 125 -582 4 -20
8 -21 47 -12 24 6 46 14 50 17 4 3 -22 139 -58 301 -35 161 -64 298 -64 302 0
9 0 9 -57 -4z"/>
<path d="M60232 18243 c-19 -4 -22 -9 -17 -36 21 -133 29 -171 46 -242 11 -44
33 -122 50 -173 16 -51 29 -102 29 -115 0 -41 13 -49 64 -42 l47 7 -7 47 c-3
25 -19 87 -35 136 -40 130 -59 207 -79 320 -16 99 -17 100 -46 101 -16 1 -39
0 -52 -3z"/>
<path d="M23386 17715 c-175 -29 -314 -74 -487 -161 -349 -174 -704 -500
-1049 -964 -299 -402 -687 -1086 -892 -1571 -692 -1634 -710 -4169 -54 -7594
112 -587 161 -810 177 -807 13 3 2360 795 2393 808 10 4 -8 51 -74 187 -442
916 -689 1785 -786 2762 -21 218 -30 926 -15 1207 42 771 159 1488 352 2163
91 319 224 698 282 808 45 85 122 167 157 167 107 0 264 -191 434 -528 290
-576 587 -1454 996 -2952 216 -789 326 -1156 480 -1595 669 -1906 1437 -2911
2345 -3070 65 -12 151 -18 245 -18 313 1 584 84 825 255 183 129 417 391 569
637 728 1178 1205 3466 1451 6971 41 594 72 1146 64 1154 -2 3 -445 68 -984
146 -539 77 -994 143 -1010 146 l-30 5 -2 -208 c-2 -412 -98 -1487 -299 -3348
-143 -1329 -170 -1547 -235 -1868 -62 -311 -129 -508 -208 -614 -44 -61 -75
-59 -147 8 -309 293 -742 1598 -1262 3804 -79 331 -83 346 -180 585 -758 1867
-1512 2988 -2257 3358 -107 54 -218 93 -330 118 -101 22 -358 27 -469 9z m331
-206 c492 -55 979 -474 1506 -1297 327 -509 721 -1310 1046 -2124 63 -158 80
-217 156 -537 531 -2252 958 -3512 1305 -3860 198 -197 409 -145 546 135 115
238 206 650 278 1264 58 488 207 1888 281 2625 81 817 124 1317 146 1695 6
113 13 206 14 208 3 3 956 -132 1430 -202 l150 -22 -3 -110 c-1 -60 -14 -284
-27 -499 -228 -3560 -690 -5932 -1389 -7134 -292 -502 -607 -770 -1008 -858
-119 -25 -402 -25 -513 1 -529 124 -985 543 -1427 1315 -426 744 -779 1691
-1168 3136 -195 726 -346 1236 -524 1770 -198 591 -314 889 -481 1230 -173
352 -331 562 -485 645 -60 32 -72 35 -150 35 -103 0 -156 -22 -230 -96 -106
-106 -170 -240 -300 -629 -272 -814 -426 -1625 -480 -2530 -52 -889 10 -1652
199 -2443 119 -496 325 -1083 548 -1556 29 -63 52 -115 51 -116 -5 -4 -1933
-654 -1947 -657 -16 -3 -25 37 -126 562 -271 1414 -419 2616 -466 3770 -13
318 -7 1090 10 1340 66 944 206 1639 462 2285 115 292 422 878 646 1235 550
875 1130 1359 1702 1419 112 12 142 12 248 0z"/>
<path d="M3358 17358 c-39 -100 -88 -251 -88 -271 0 -7 -23 -57 -51 -111 -28
-54 -49 -99 -47 -101 11 -9 69 -35 80 -35 21 0 105 176 134 280 15 52 45 139
66 193 22 54 38 100 36 102 -11 9 -69 35 -80 35 -8 0 -29 -40 -50 -92z"/>
<path d="M72222 17331 c-18 -3 -33 -9 -34 -14 -1 -9 10 -115 18 -173 l6 -41
129 -6 c71 -4 178 -12 239 -18 61 -6 112 -10 114 -8 2 2 6 25 10 50 l7 47 -63
7 c-35 5 -126 13 -203 19 l-140 11 -9 68 c-10 72 -8 71 -74 58z"/>
<path d="M50490 17063 c-57 -219 -173 -485 -295 -678 -133 -210 -347 -469
-500 -606 -341 -305 -720 -482 -1186 -556 -164 -26 -625 -26 -789 0 -220 35
-457 104 -637 187 -47 22 -88 40 -90 40 -5 0 71 -103 141 -190 76 -94 162
-185 246 -260 l65 -58 60 19 c33 10 512 87 1063 171 954 144 1007 151 1069
141 118 -21 222 -87 284 -184 l33 -50 64 63 c155 152 352 429 451 632 72 147
110 255 147 412 26 111 28 134 29 334 0 170 -4 234 -18 305 -17 85 -72 268
-101 336 -13 30 -13 29 -36 -58z"/>
<path d="M73322 17002 c-17 -56 -16 -60 21 -67 60 -13 323 -104 432 -150 60
-25 112 -42 116 -38 5 5 15 25 24 45 15 37 15 37 -13 52 -84 43 -457 177 -536
191 -31 6 -33 5 -44 -33z"/>
<path d="M8925 16693 c-1761 -46 -3162 -113 -3475 -168 -67 -12 -76 -11 -87 3
-15 18 -15 20 -13 -123 1 -153 -34 -311 -87 -382 -28 -39 -50 -52 -103 -61
l-40 -7 222 -201 c123 -111 285 -261 360 -333 75 -71 148 -133 162 -137 14 -3
26 -8 26 -11 0 -3 -23 -31 -52 -62 -147 -160 -255 -405 -318 -720 -77 -388
-92 -773 -59 -1558 17 -413 -22 -671 -128 -853 -35 -59 -114 -142 -158 -166
-19 -10 -35 -25 -35 -32 0 -32 69 -141 130 -206 140 -149 336 -241 595 -282
150 -23 439 -23 550 1 198 41 318 122 447 298 11 14 13 0 15 -90 1 -73 9 -133
23 -183 11 -41 21 -82 23 -90 4 -30 -424 -118 -753 -155 -591 -65 -1462 -63
-2154 5 -54 6 -107 10 -117 10 -15 0 -19 7 -19 39 0 48 -31 95 -90 136 -30 20
-67 64 -110 129 -72 108 -90 124 -126 108 -42 -20 -41 -111 2 -194 8 -16 12
-28 8 -28 -4 0 -43 31 -88 69 -89 74 -119 89 -141 71 -33 -27 -6 -101 71 -194
26 -33 41 -57 32 -54 -55 22 -158 49 -202 54 -41 5 -56 3 -69 -11 -46 -45 8
-107 135 -155 49 -18 87 -35 85 -36 -1 -2 -54 -8 -117 -14 -125 -13 -150 -24
-150 -70 0 -63 78 -91 215 -77 44 4 107 9 140 10 l60 2 -2 -40 c-9 -167 -8
-176 11 -191 11 -8 27 -14 35 -14 26 0 114 102 160 185 115 208 119 215 149
210 55 -10 544 -44 792 -56 326 -15 1039 -6 1280 15 330 30 612 72 839 126 68
17 126 30 129 30 8 0 -6 -164 -24 -270 -39 -235 -101 -440 -306 -1020 -194
-549 -270 -735 -423 -1040 -73 -146 -145 -293 -159 -327 -89 -215 -31 -496
152 -739 280 -371 916 -713 1472 -791 l121 -17 44 -80 c47 -87 103 -219 141
-329 l23 -67 -53 -60 c-224 -251 -493 -377 -879 -411 -159 -14 -315 -2 -549
43 -161 30 -167 31 -193 14 -32 -21 -58 -76 -82 -172 -24 -98 -24 -437 1 -544
40 -176 111 -260 187 -220 72 39 123 331 100 581 -11 120 -32 224 -53 263 -9
17 -8 18 23 12 189 -38 219 -41 444 -41 199 1 243 4 328 23 293 65 519 187
690 372 35 38 59 56 62 48 30 -90 77 -315 105 -506 24 -168 110 -951 144
-1312 42 -451 41 -411 16 -499 -35 -119 -13 -182 74 -222 82 -37 189 -18 301
55 85 56 287 262 382 391 161 217 293 474 297 577 1 42 -3 53 -24 70 -20 16
-34 19 -74 14 -178 -21 -593 -338 -801 -613 -38 -51 -70 -91 -72 -89 -1 1 -14
126 -28 277 -63 663 -141 1342 -180 1555 -23 121 -81 363 -90 372 -2 2 28 52
67 110 66 100 208 372 208 399 0 18 11 22 118 48 230 56 496 172 688 300 l111
74 17 67 c65 260 73 756 20 1279 -89 874 -287 1652 -556 2184 l-57 113 56 52
c31 28 60 50 64 49 4 -2 70 -29 146 -62 677 -289 1367 -432 2091 -433 l243 0
22 -33 c11 -18 36 -42 54 -55 18 -12 75 -61 125 -108 114 -104 200 -162 243
-162 67 0 72 46 15 154 l-40 75 22 15 c13 8 75 26 139 40 64 13 130 31 147 40
40 21 72 63 72 95 0 58 -36 63 -189 27 -56 -13 -101 -23 -101 -21 0 1 28 24
62 51 78 62 118 117 118 160 0 27 -5 35 -25 40 -39 10 -67 -2 -162 -65 -48
-33 -89 -58 -91 -56 -2 2 3 16 11 32 41 79 56 210 26 229 -29 18 -59 -9 -119
-106 -34 -55 -63 -100 -64 -100 -2 0 -1 24 2 53 5 69 -12 133 -43 153 -50 33
-80 -6 -106 -141 -14 -72 -39 -124 -80 -166 -16 -17 -34 -41 -39 -54 -8 -21
-17 -24 -97 -31 -119 -10 -572 11 -763 36 -512 66 -980 193 -1446 391 -117 50
-144 65 -138 78 25 60 36 117 36 186 1 69 -6 111 -37 220 -5 17 8 25 102 63
l108 43 95 -12 c125 -15 373 -6 520 20 441 77 842 305 1080 612 110 143 202
315 244 457 l15 53 -47 -7 c-124 -16 -290 55 -412 176 -177 176 -313 432 -441
832 -98 307 -210 502 -378 660 l-70 67 42 -15 c67 -24 309 -86 314 -80 3 3
-15 39 -41 80 -180 289 -407 503 -719 679 l-97 54 112 7 c62 4 219 13 349 20
218 12 239 14 279 37 83 46 111 150 72 265 -30 86 -81 158 -214 303 -117 129
-653 649 -695 675 -11 6 -54 10 -108 9z m-3260 -668 c110 -159 210 -316 222
-347 32 -78 46 -162 39 -227 -9 -77 -30 -111 -69 -111 -9 0 -108 85 -220 188
-111 104 -255 235 -319 293 -64 57 -117 106 -117 109 -1 3 16 14 36 25 70 37
126 166 139 318 3 34 7 81 10 105 l5 43 38 -53 c20 -29 127 -183 236 -343z
m3535 -1311 c299 -23 321 -27 377 -65 73 -50 204 -185 261 -271 143 -213 228
-460 263 -766 7 -63 9 -184 7 -310 -5 -180 -9 -219 -31 -302 -152 -576 -690
-1074 -1395 -1291 -440 -136 -941 -131 -1357 11 -113 39 -318 132 -359 162
-18 14 -18 16 -1 49 28 54 95 150 138 196 36 39 42 63 14 63 -26 0 -151 85
-212 145 -275 272 -429 813 -460 1620 l-7 170 78 56 c156 112 315 199 501 275
48 19 102 42 120 50 57 26 336 102 488 133 240 49 540 83 840 95 146 6 537 -5
735 -20z m-2184 -2901 c55 -29 63 -37 86 -90 14 -32 33 -80 41 -108 46 -146
110 -455 95 -455 -29 0 -196 99 -237 140 -61 61 -82 131 -89 286 -5 132 14
272 36 262 4 -2 34 -17 68 -35z m196 -92 c119 -47 235 -81 372 -109 l129 -27
23 -69 c59 -173 141 -537 183 -811 50 -322 78 -787 66 -1089 l-7 -183 -82 -7
c-124 -9 -414 -7 -421 3 -3 5 -23 202 -45 438 -63 683 -103 1020 -156 1323
-31 183 -88 417 -120 494 -13 33 -24 61 -24 63 0 6 10 3 82 -26z m1583 -78
c26 -89 31 -208 11 -279 -60 -209 -266 -320 -641 -344 -71 -4 -161 -5 -199 -1
l-69 6 -35 150 c-19 82 -51 207 -72 278 l-38 128 157 -7 c245 -10 499 21 731
89 63 19 120 35 127 36 6 0 19 -25 28 -56z m-5147 -167 c44 -69 75 -105 117
-136 64 -48 90 -94 79 -144 -6 -28 -37 -88 -146 -280 -39 -70 -104 -146 -124
-146 -17 0 -19 54 -3 133 10 49 9 60 -6 83 l-17 27 -107 -8 c-58 -5 -139 -9
-178 -9 -63 -1 -75 2 -95 22 -21 21 -22 24 -6 35 9 7 80 19 159 26 79 7 149
16 157 18 33 13 1 37 -98 72 -145 52 -190 77 -190 109 0 12 10 14 53 9 41 -4
192 -47 263 -74 6 -2 14 3 18 13 5 12 -10 34 -48 74 -62 64 -116 145 -116 172
0 10 2 18 5 18 3 0 61 -45 128 -100 99 -80 124 -97 135 -86 10 10 6 27 -24 90
-41 87 -57 176 -31 176 8 0 42 -42 75 -94z m7833 -348 c10 -19 9 -179 -3 -228
-2 -9 4 -15 17 -15 15 0 40 33 98 125 43 69 83 127 89 129 23 8 -1 -109 -40
-198 -55 -125 -43 -133 74 -45 154 114 228 140 190 65 -16 -30 -114 -118 -188
-168 -36 -25 -47 -46 -30 -57 5 -3 79 11 166 31 170 38 194 37 162 -11 -23
-37 -63 -54 -173 -76 -204 -41 -221 -60 -160 -172 38 -68 48 -118 24 -118 -36
0 -230 154 -374 298 -57 56 -59 100 -8 154 46 49 69 98 89 188 28 123 43 144
67 98z m-3289 -4203 c-60 -123 -157 -285 -171 -285 -3 0 -22 42 -41 93 -19 50
-56 136 -82 190 -26 54 -48 100 -48 101 0 2 66 6 148 10 81 5 170 11 197 15
28 4 52 6 54 4 2 -2 -23 -59 -57 -128z m1088 -1973 c0 -63 -93 -258 -204 -427
-181 -275 -379 -477 -542 -552 -96 -43 -102 -20 -34 117 67 132 311 477 449
633 143 163 331 292 331 229z"/>
<path d="M5417 16203 c-5 -8 387 -505 403 -511 4 -2 11 2 15 8 7 12 -379 503
-400 508 -7 2 -15 -1 -18 -5z"/>
<path d="M5364 16027 c-4 -11 66 -94 221 -264 125 -136 232 -248 238 -248 7 0
12 5 12 12 0 10 -414 473 -451 504 -11 9 -15 8 -20 -4z"/>
<path d="M5301 15907 c-15 -18 517 -524 533 -507 11 12 -40 64 -371 377 -119
113 -153 140 -162 130z"/>
<path d="M9313 14249 c-55 -20 -69 -103 -30 -179 46 -90 112 -103 150 -30 46
90 -40 239 -120 209z"/>
<path d="M8024 14207 c-25 -22 -29 -32 -29 -79 1 -116 87 -200 150 -146 68 59
25 220 -66 243 -20 5 -33 0 -55 -18z"/>
<path d="M8766 12421 c-52 -58 -76 -274 -37 -338 39 -63 92 -49 140 36 61 109
19 321 -63 321 -13 0 -31 -9 -40 -19z"/>
<path d="M8871 11988 c-29 -89 -72 -138 -122 -138 -45 0 -58 10 -74 56 -16 47
-41 53 -37 9 2 -16 11 -41 21 -55 69 -95 191 -44 240 101 24 72 26 99 8 99 -7
0 -23 -31 -36 -72z"/>
<path d="M74501 16571 c-12 -22 -21 -42 -21 -45 0 -2 37 -26 83 -52 104 -62
254 -173 338 -252 l66 -61 37 38 37 38 -75 68 c-92 83 -232 187 -335 248 -108
66 -106 65 -130 18z"/>
<path d="M41530 16365 c-18 -47 -190 -635 -244 -830 -514 -1886 -800 -3766
-877 -5780 -14 -362 -6 -938 15 -1155 97 -959 360 -1632 830 -2118 441 -455
1026 -703 1801 -761 114 -9 138 -7 490 40 1082 145 1878 278 2270 378 153 40
309 92 339 114 16 12 10 106 -96 1372 -88 1042 -117 1359 -127 1357 -7 -1 -61
-16 -119 -31 -59 -16 -594 -154 -1189 -306 l-1083 -276 -45 26 c-410 241 -551
1067 -410 2405 122 1156 451 2708 986 4653 50 181 89 330 87 331 -2 2 -912
212 -2586 597 -29 6 -34 4 -42 -16z m1220 -475 c575 -132 1068 -246 1096 -252
l51 -13 -54 -195 c-554 -2003 -892 -3662 -1000 -4910 -25 -296 -25 -966 0
-1170 37 -296 96 -530 177 -706 94 -203 237 -365 397 -447 50 -26 99 -47 109
-47 10 0 513 126 1117 280 605 155 1102 278 1105 275 4 -3 49 -524 102 -1157
l96 -1150 -23 -9 c-53 -20 -401 -101 -578 -134 -427 -81 -1278 -211 -1969
-301 -200 -27 -216 -27 -357 -16 -849 70 -1474 410 -1872 1018 -288 439 -451
993 -519 1764 -34 381 -6 1344 62 2180 141 1723 447 3378 925 5009 36 122 65
224 65 226 0 2 6 2 13 0 6 -3 482 -113 1057 -245z"/>
<path d="M57991 16297 c-80 -87 -147 -110 -431 -152 -1585 -233 -2833 -788
-3635 -1616 -303 -313 -390 -514 -300 -695 32 -64 182 -223 267 -281 l46 -33
71 84 c39 46 142 153 229 237 658 641 1507 1102 2592 1408 348 98 835 200
1200 251 85 12 162 24 171 28 14 6 5 56 -71 402 -47 217 -88 400 -91 405 -2 6
-24 -12 -48 -38z"/>
<path d="M2982 16242 c-10 -24 -9 -472 1 -555 l9 -68 46 7 c26 4 50 8 53 10 4
2 3 23 -2 46 -15 74 -22 378 -11 473 6 50 10 90 9 91 -1 1 -24 4 -50 7 -40 6
-49 4 -55 -11z"/>
<path d="M38345 16088 c-2 -7 -72 -318 -155 -690 -83 -373 -159 -702 -170
-730 -37 -100 -130 -190 -242 -236 -81 -33 -164 -34 -353 -5 -410 64 -791 50
-1149 -42 -175 -45 -272 -81 -451 -169 -444 -219 -809 -565 -1172 -1111 -491
-738 -800 -1527 -902 -2300 -34 -257 -44 -459 -38 -739 7 -312 34 -511 90
-671 13 -38 14 -37 20 81 34 637 244 1387 568 2038 l79 158 -24 93 c-34 127
-40 180 -27 249 16 85 53 158 110 219 62 66 118 97 282 157 l129 47 67 89
c237 316 537 610 814 800 592 406 1262 563 2040 478 74 -8 171 -21 215 -28 43
-8 80 -13 80 -13 3 4 512 2302 510 2304 -2 2 -274 33 -296 33 -11 0 -23 -6
-25 -12z"/>
<path d="M75417 15726 l-38 -34 61 -73 c75 -90 183 -248 240 -352 23 -43 45
-77 49 -75 3 2 23 10 44 18 20 8 37 18 37 22 0 46 -213 371 -321 490 l-34 37
-38 -33z"/>
<path d="M3235 15028 c-22 -11 -41 -22 -43 -23 -4 -4 86 -162 134 -235 l47
-70 -16 -112 c-8 -62 -12 -116 -8 -120 3 -3 26 -8 51 -9 l44 -4 19 136 18 136
-64 95 c-35 52 -79 125 -98 161 -19 37 -36 67 -39 67 -3 -1 -23 -10 -45 -22z"/>
<path d="M48570 14808 c-575 -88 -1047 -162 -1049 -164 -2 -2 4 -59 13 -126
107 -753 167 -1387 196 -2073 14 -320 14 -1131 0 -1435 -88 -1992 -500 -3767
-1270 -5482 -107 -237 -351 -729 -469 -942 -45 -82 -78 -153 -74 -157 10 -10
2534 -1022 2538 -1017 7 8 213 547 284 745 676 1868 1073 3733 1206 5673 8
118 20 323 27 455 17 321 17 1531 0 1850 -52 988 -139 1785 -298 2733 -15 92
-19 102 -38 101 -12 -1 -491 -73 -1066 -161z m913 -100 c13 -52 89 -573 122
-833 268 -2104 222 -4159 -136 -6185 -202 -1142 -515 -2310 -915 -3417 -83
-230 -213 -575 -220 -582 -2 -3 -2104 833 -2121 844 -2 1 71 147 161 326 843
1665 1337 3401 1516 5329 117 1264 86 2581 -96 3999 -19 151 -33 275 -32 276
3 3 1670 260 1704 264 7 0 14 -9 17 -21z"/>
<path d="M44200 14706 c0 -2 -52 -208 -115 -457 -405 -1603 -624 -2778 -712
-3809 -24 -284 -24 -860 0 -1048 19 -146 51 -313 72 -370 13 -36 14 -35 14 48
2 213 56 780 112 1175 156 1102 496 2626 948 4240 34 125 37 141 22 147 -14 7
-321 78 -335 78 -3 0 -6 -2 -6 -4z"/>
<path d="M76018 14630 l-37 -20 41 -87 c51 -112 90 -207 143 -358 47 -131 49
-132 117 -106 l28 10 -36 102 c-78 225 -189 479 -208 479 -6 -1 -28 -10 -48
-20z"/>
<path d="M31056 14389 c-3 -24 -15 -172 -26 -329 -108 -1481 -282 -2854 -496
-3920 -454 -2262 -1140 -3519 -2085 -3819 -453 -143 -936 -108 -1353 98 -63
31 -112 52 -107 47 59 -82 208 -253 291 -336 281 -280 562 -446 872 -511 147
-31 379 -32 534 -1 283 56 485 169 709 396 196 198 356 437 525 781 342 697
611 1654 836 2970 40 238 57 365 65 495 34 604 106 1193 204 1670 45 219 140
1389 191 2351 l7 126 -24 6 c-13 3 -50 9 -81 12 l-56 7 -6 -43z"/>
<path d="M62619 14394 l-46 -14 -7 -442 c-4 -244 -11 -636 -16 -873 -6 -236
-10 -487 -10 -556 l0 -125 56 -18 c31 -10 57 -16 59 -14 8 7 22 1658 16 1849
l-6 206 -46 -13z"/>
<path d="M23387 14062 c-251 -746 -387 -1435 -457 -2312 -18 -218 -24 -910
-11 -1120 13 -205 43 -486 70 -661 l17 -114 7 335 c15 798 105 1490 288 2225
120 478 311 1041 398 1170 l30 44 -65 152 c-63 146 -164 355 -202 418 l-19 31
-56 -168z"/>
<path d="M3300 13785 c0 -50 9 -45 -115 -66 -68 -11 -315 -75 -323 -84 -5 -5
18 -77 28 -88 4 -5 45 3 91 17 101 30 259 63 352 72 l67 7 0 93 0 94 -50 0
-50 0 0 -45z"/>
<path d="M76403 13440 c-24 -4 -45 -8 -47 -11 -3 -3 1 -59 9 -126 8 -66 17
-181 21 -254 6 -123 9 -138 36 -186 16 -29 33 -53 38 -53 13 0 80 41 80 48 0
4 -11 25 -23 48 -21 35 -25 59 -31 185 -6 133 -29 347 -37 353 -2 1 -23 -1
-46 -4z"/>
<path d="M2153 13311 c-121 -81 -210 -152 -313 -249 l-75 -71 37 -37 37 -38
78 75 c96 92 243 206 335 261 l68 40 -22 41 c-13 22 -27 42 -33 44 -5 1 -56
-28 -112 -66z"/>
<path d="M20067 13266 c-4 -27 -7 -92 -7 -145 0 -203 -36 -507 -81 -691 -88
-354 -301 -671 -576 -853 -206 -137 -428 -215 -703 -246 -52 -6 -700 -29
-1440 -51 -3532 -105 -3900 -116 -3904 -121 -2 -4 100 -2720 103 -2726 1 -2
14 -3 31 -3 l29 0 -5 83 c-9 152 -75 1989 -72 1993 2 2 539 19 1193 39 655 19
1413 42 1685 50 272 9 1020 31 1661 50 641 19 1201 40 1244 46 424 59 705 284
841 674 l28 80 7 460 c4 253 13 546 20 650 19 273 17 426 -9 575 -12 69 -26
139 -30 155 -8 29 -9 28 -15 -19z"/>
<path d="M50276 12445 c3 -60 9 -195 15 -300 5 -104 12 -413 15 -685 27 -2128
-269 -4213 -893 -6290 -183 -610 -581 -1727 -660 -1853 -81 -129 -228 -204
-382 -195 -73 4 -116 20 -836 309 -418 167 -762 305 -766 307 -3 1 -11 -10
-18 -25 -6 -16 -44 -90 -84 -164 l-73 -137 1164 -467 c640 -256 1165 -465
1167 -463 6 7 158 405 230 603 108 294 310 902 399 1202 500 1675 778 3349
846 5088 13 331 13 1194 0 1520 -21 524 -60 1063 -110 1495 -18 160 -19 162
-14 55z"/>
<path d="M1305 12395 c-90 -152 -211 -434 -203 -472 4 -20 88 -47 93 -30 53
161 151 375 222 486 38 59 39 55 -29 96 l-27 16 -56 -96z"/>
<path d="M76702 12239 c-23 -7 -32 -15 -28 -24 20 -52 39 -250 39 -412 l1
-181 46 -4 c25 -3 47 -3 50 0 3 2 4 99 3 215 -1 154 -7 239 -20 312 -20 110
-23 114 -91 94z"/>
<path d="M975 11174 c-14 -205 14 -531 45 -527 70 7 91 15 86 31 -23 78 -39
342 -28 477 5 61 8 111 7 113 -1 1 -25 5 -53 9 l-50 6 -7 -109z"/>
<path d="M76498 10891 c-38 -76 -105 -193 -150 -262 -46 -68 -83 -127 -83
-131 0 -8 65 -58 77 -58 17 0 173 252 243 393 82 164 81 153 12 181 l-32 14
-67 -137z"/>
<path d="M52161 10844 c146 -212 386 -429 719 -649 234 -155 405 -251 740
-419 552 -275 1174 -526 2045 -826 132 -46 332 -120 445 -165 l205 -83 27 32
c15 17 35 46 45 64 17 31 17 33 -2 69 -61 113 -282 272 -590 423 -233 115
-469 210 -860 345 -1218 422 -2076 802 -2698 1193 -54 34 -100 62 -103 62 -3
0 9 -21 27 -46z"/>
<path d="M1258 10059 c-21 -11 -38 -24 -38 -30 0 -17 101 -185 165 -274 61
-84 181 -227 197 -234 5 -2 25 11 43 29 l34 33 -77 91 c-96 113 -154 195 -223
314 -30 50 -56 92 -59 92 -3 -1 -22 -10 -42 -21z"/>
<path d="M75753 10006 c-39 -29 -81 -60 -93 -69 l-23 -16 70 -123 c39 -68 92
-162 118 -210 l47 -88 41 21 c23 12 43 23 45 24 5 4 -56 123 -122 239 -31 54
-56 102 -56 106 0 4 18 19 39 34 71 50 74 56 37 98 l-32 37 -71 -53z"/>
<path d="M36345 9806 c-115 -17 -196 -37 -315 -76 -106 -35 -308 -118 -314
-129 -3 -4 17 -92 45 -197 27 -104 70 -270 96 -369 25 -99 48 -182 50 -184 1
-2 56 21 120 52 372 178 697 267 981 269 72 0 132 4 132 8 0 3 -13 44 -29 91
-102 300 -239 463 -440 523 -76 22 -220 28 -326 12z"/>
<path d="M62526 8996 c-26 -957 -116 -1850 -296 -2911 -112 -664 -125 -712
-227 -813 -75 -75 -163 -115 -268 -120 -76 -4 -116 4 -708 143 -346 81 -630
146 -632 143 -2 -2 -16 -105 -30 -229 -14 -123 -27 -231 -29 -240 -3 -12 16
-20 88 -37 50 -12 370 -87 711 -167 341 -80 727 -170 858 -201 131 -31 240
-55 241 -53 2 2 26 132 54 289 178 993 270 1752 324 2680 7 120 12 449 13 747
0 327 4 533 9 533 6 0 105 -31 220 -69 1131 -373 2346 -548 3490 -502 154 6
281 13 282 14 1 1 -7 154 -19 341 l-22 338 -60 -6 c-1033 -103 -2096 -50
-3120 155 -236 47 -677 154 -811 197 l-61 19 -7 -251z"/>
<path d="M2121 9170 c-11 -21 -21 -43 -21 -49 0 -6 26 -24 58 -40 31 -16 114
-67 184 -115 113 -76 285 -173 293 -164 1 2 12 22 24 45 l21 43 -60 30 c-80
40 -180 102 -260 159 -36 26 -99 65 -141 88 l-77 41 -21 -38z"/>
<path d="M76111 8928 c-40 -9 -43 -12 -38 -36 18 -91 28 -250 25 -404 -3 -197
-7 -188 68 -188 l32 0 6 133 c7 130 -5 345 -24 448 -6 29 -10 53 -10 55 0 5
-4 4 -59 -8z"/>
<path d="M15610 8719 c-47 -5 -148 -20 -225 -34 -77 -13 -191 -31 -253 -40
-372 -52 -671 -200 -912 -452 -151 -157 -250 -321 -324 -533 l-31 -92 -81 -2
c-69 -2 -91 -7 -145 -34 -68 -34 -94 -55 -146 -115 -35 -40 -43 -89 -23 -127
9 -16 7 -20 -12 -25 -305 -70 -382 -80 -618 -80 -178 1 -217 3 -292 22 -184
47 -293 124 -358 253 -60 120 -143 182 -262 196 -98 11 -213 -35 -277 -113
-131 -159 -73 -398 154 -628 130 -133 262 -215 458 -284 303 -107 717 -114
1170 -21 l88 18 28 -42 c56 -80 132 -118 236 -118 85 0 119 14 216 87 41 30
80 55 87 55 7 0 34 -20 60 -44 212 -196 677 -431 1030 -520 185 -47 291 -59
482 -53 145 4 192 9 272 31 131 35 259 91 363 161 l87 58 71 -5 c40 -3 99 -15
132 -28 33 -12 78 -29 100 -37 64 -25 228 -20 362 10 393 89 690 320 799 621
20 55 25 61 63 74 41 14 98 60 117 94 9 16 16 15 97 -13 304 -105 607 -117
856 -33 92 31 192 81 272 134 133 91 260 235 293 333 50 147 -21 315 -162 384
-48 24 -70 28 -137 28 -67 0 -89 -4 -135 -27 -52 -26 -140 -99 -140 -116 0 -5
-15 -22 -32 -38 -93 -87 -174 -117 -318 -117 -123 0 -202 17 -345 74 -157 63
-286 140 -334 200 -50 63 -102 105 -166 135 -54 25 -161 46 -193 37 -14 -3
-43 19 -113 90 -343 344 -794 577 -1274 658 -139 23 -452 33 -585 18z m425
-109 c520 -49 1034 -301 1389 -681 l85 -92 83 2 c75 2 89 -1 145 -29 75 -37
121 -89 170 -187 31 -63 35 -78 29 -120 -21 -154 -166 -170 -319 -34 -32 28
-63 51 -69 51 -11 0 -11 0 17 -205 24 -174 5 -305 -61 -437 -46 -91 -152 -200
-244 -250 -67 -37 -195 -82 -265 -94 -22 -3 -51 -8 -65 -11 -14 -3 -128 -7
-255 -8 -159 -1 -256 -7 -315 -18 -47 -9 -98 -18 -115 -21 -16 -2 -79 -14
-140 -25 -208 -40 -374 -46 -450 -16 -65 24 -70 35 -35 83 84 116 255 153 715
151 268 0 332 7 402 47 39 23 83 88 83 124 0 7 13 41 30 74 63 130 26 288 -84
355 -44 28 -178 54 -236 46 -25 -3 -61 -8 -80 -10 -97 -12 -267 -55 -470 -120
-354 -113 -543 -133 -581 -64 -12 24 0 48 42 83 109 92 265 128 660 151 273
16 358 29 447 70 98 45 143 104 164 213 24 123 7 172 -93 267 -157 149 -336
213 -585 209 -244 -3 -436 -52 -724 -182 -192 -87 -303 -122 -402 -129 -94 -7
-98 1 -37 71 89 101 251 201 414 255 50 16 160 41 245 56 85 14 170 31 187 36
44 14 73 53 73 98 0 73 -73 141 -244 229 l-78 40 47 8 c161 24 357 29 520 14z
m-717 -86 c160 -64 355 -176 335 -194 -4 -4 -69 -17 -143 -29 -235 -38 -388
-92 -538 -192 -183 -120 -291 -261 -279 -365 14 -132 165 -207 367 -184 139
16 252 57 430 156 173 96 312 139 498 154 185 15 384 -15 504 -76 79 -40 98
-64 98 -124 0 -71 -20 -104 -82 -134 -70 -34 -190 -53 -378 -61 -295 -12 -454
-35 -590 -85 -134 -48 -217 -117 -268 -220 -23 -47 -27 -68 -27 -140 0 -99 18
-135 88 -173 37 -19 56 -22 152 -21 134 1 295 40 535 129 418 155 543 180 642
129 33 -17 43 -35 52 -90 8 -47 -10 -169 -27 -183 -35 -28 -102 -34 -412 -36
-248 -2 -340 -6 -408 -19 -100 -19 -187 -49 -233 -80 -17 -12 -64 -43 -105
-70 -87 -57 -125 -91 -145 -128 -24 -45 -67 -61 -180 -65 -82 -2 -120 2 -196
21 -181 46 -368 135 -588 280 -234 155 -358 265 -390 347 -12 30 -29 62 -37
72 -30 32 -90 14 -95 -28 -1 -11 4 -39 11 -62 14 -42 13 -44 -26 -125 -53
-107 -89 -143 -148 -143 -88 0 -126 73 -107 203 24 155 14 238 -36 315 l-25
38 27 28 c36 38 111 77 161 85 25 4 61 1 95 -9 105 -30 95 -33 109 32 56 249
187 489 361 663 231 232 549 374 918 409 8 0 44 -11 80 -25z"/>
<path d="M3256 8664 c-3 -26 -4 -49 -2 -52 22 -21 569 -28 618 -7 14 6 16 15
11 53 -3 26 -7 48 -8 50 -1 1 -49 -3 -106 -9 -101 -11 -375 -7 -465 7 l-41 6
-7 -48z"/>
<path d="M39847 8515 c-29 -502 -129 -915 -313 -1285 -259 -520 -651 -901
-1209 -1175 -652 -321 -1415 -458 -2450 -442 -1227 19 -2234 232 -3045 643
-128 64 -294 159 -385 219 l-30 20 35 -45 c558 -729 1474 -1189 2750 -1384
391 -59 728 -85 1210 -93 595 -9 981 22 1424 113 515 108 959 301 1281 559 92
73 242 222 317 312 259 317 424 726 495 1233 14 99 17 195 18 465 0 361 -13
517 -69 855 l-22 135 -7 -130z"/>
<path d="M3866 8043 c-16 -4 -18 -12 -12 -66 16 -143 109 -523 135 -550 8 -8
91 20 91 32 0 3 -16 59 -35 124 -34 116 -77 312 -90 415 -7 51 -8 52 -38 51
-18 -1 -40 -3 -51 -6z"/>
<path d="M75951 7628 c-37 -116 -109 -295 -162 -401 l-49 -97 45 -22 c28 -14
49 -18 55 -12 17 17 129 272 174 397 63 175 63 175 32 187 -71 27 -70 27 -95
-52z"/>
<path d="M59466 7222 c-38 -102 -142 -320 -207 -435 -363 -637 -926 -1149
-1643 -1493 -1185 -568 -2911 -995 -4721 -1169 -148 -14 -286 -29 -306 -33
l-36 -7 87 -330 c47 -181 91 -329 96 -329 5 1 56 4 114 8 172 11 628 55 900
87 1562 183 2864 505 3975 982 473 203 816 419 1132 713 169 157 385 422 494
605 39 65 39 67 28 119 -13 62 -13 69 35 490 37 328 89 861 84 866 -2 1 -16
-32 -32 -74z"/>
<path d="M23527 7109 c-16 -9 -289 -102 -1497 -511 -261 -88 -480 -163 -486
-167 -8 -4 12 -119 62 -369 40 -199 74 -366 76 -371 2 -4 494 158 1095 362
l1092 370 -43 86 c-52 103 -179 389 -231 519 -20 50 -40 92 -44 92 -3 0 -14
-5 -24 -11z"/>
<path d="M4324 6879 c-4 -6 -20 -8 -39 -5 l-33 6 -40 -113 c-43 -120 -105
-358 -117 -444 l-7 -52 47 -6 c25 -4 48 -6 50 -4 2 3 13 52 25 109 26 131 70
284 116 406 19 52 32 99 29 104 -8 13 -22 13 -31 -1z"/>
<path d="M75343 6521 c-35 -43 -105 -126 -158 -184 -52 -58 -95 -109 -95 -114
1 -14 53 -78 98 -118 l44 -39 35 37 35 38 -43 38 -43 38 63 69 c68 75 211 248
211 256 0 6 -73 58 -81 58 -2 0 -32 -36 -66 -79z"/>
<path d="M64365 6557 c-3 -18 -21 -138 -40 -267 -18 -129 -37 -254 -41 -277
-6 -40 -5 -42 20 -48 78 -16 73 -17 80 18 6 32 68 448 81 540 7 52 7 52 -57
60 -36 5 -38 4 -43 -26z"/>
<path d="M20491 6537 c-21 -70 -96 -222 -157 -314 -263 -406 -703 -666 -1179
-698 -49 -4 -1062 -35 -2250 -70 -1188 -36 -2794 -83 -3570 -106 -1551 -47
-1525 -47 -1745 9 -63 16 -116 29 -117 28 -8 -6 66 -152 110 -218 115 -173
259 -299 441 -388 146 -72 268 -101 441 -107 77 -2 1123 25 2325 61 1202 37
2786 84 3520 106 734 22 1373 45 1419 50 433 56 802 384 919 818 23 88 26 114
26 277 0 163 -3 189 -27 278 -25 94 -113 297 -134 310 -6 4 -16 -13 -22 -36z"/>
<path d="M64627 6513 c-36 -4 -37 -5 -32 -41 2 -20 12 -152 20 -292 9 -140 18
-264 20 -275 4 -17 11 -20 56 -16 l52 3 -6 52 c-3 28 -14 169 -23 314 -15 226
-20 262 -33 260 -9 -1 -33 -3 -54 -5z"/>
<path d="M69741 6344 c0 -11 -15 -48 -31 -82 -41 -82 -139 -173 -217 -202 -32
-12 -448 -104 -925 -204 -477 -100 -870 -185 -874 -188 -6 -7 41 -716 48 -724
3 -2 480 95 1059 217 l1055 222 -18 126 c-16 120 -68 574 -87 766 -4 50 -9 81
-10 69z"/>
<path d="M46224 5934 c-285 -133 -1141 -291 -2692 -499 -343 -46 -344 -46
-490 -35 -506 37 -943 152 -1325 347 l-114 58 55 -75 c240 -328 529 -561 902
-730 273 -123 635 -209 1008 -240 129 -10 140 -10 440 30 725 97 1649 239
1860 286 20 4 43 44 127 217 103 212 308 668 303 672 -2 1 -35 -13 -74 -31z"/>
<path d="M4046 5632 c-14 -23 36 -535 60 -615 3 -11 12 -16 22 -13 9 2 32 8
50 11 30 6 33 10 28 33 -24 115 -51 365 -59 532 l-2 55 -47 3 c-25 2 -49 -1
-52 -6z"/>
<path d="M75657 5615 c-20 -14 -37 -29 -37 -33 0 -4 9 -20 20 -37 44 -64 131
-236 186 -365 31 -74 58 -137 60 -138 4 -5 77 18 86 27 9 8 -33 121 -96 256
-50 108 -166 315 -175 315 -4 0 -23 -11 -44 -25z"/>
<path d="M24892 5477 l-32 -33 138 -135 c139 -138 308 -289 322 -289 5 0 22
16 38 36 l30 37 -81 69 c-45 39 -148 133 -229 209 -80 77 -148 139 -150 139
-2 0 -18 -15 -36 -33z"/>
<path d="M64170 5346 c0 -31 -78 -388 -106 -480 -19 -65 -34 -119 -32 -120 2
-1 22 -9 46 -18 39 -15 43 -15 51 0 20 38 74 248 108 416 38 190 37 195 -14
196 -12 0 -28 3 -37 6 -9 3 -16 4 -16 0z"/>
<path d="M30546 5281 l-49 -50 27 -35 c29 -39 47 -44 66 -21 11 13 16 12 40
-8 49 -40 325 -260 336 -269 8 -6 22 6 42 33 l31 42 -99 76 c-54 42 -151 122
-215 176 -64 55 -120 101 -124 103 -3 1 -29 -20 -55 -47z"/>
<path d="M64783 5268 c-18 -6 -33 -17 -33 -25 0 -46 166 -425 237 -540 l19
-32 42 25 c23 14 42 27 42 28 0 2 -31 64 -69 137 -64 123 -150 325 -166 392
-8 29 -19 32 -72 15z"/>
<path d="M24300 5223 c-19 -9 -147 -55 -285 -103 -274 -96 -264 -89 -236 -162
l10 -26 218 74 c207 71 373 133 373 139 0 7 -39 95 -42 94 -2 0 -19 -8 -38
-16z"/>
<path d="M29940 4794 c-79 -55 -301 -182 -393 -225 -37 -17 -67 -35 -67 -40 0
-12 31 -89 36 -89 23 0 333 170 472 260 l82 52 -31 44 c-16 24 -31 44 -32 43
-1 0 -31 -20 -67 -45z"/>
<path d="M22859 4728 l-297 -100 16 -49 c9 -27 21 -48 27 -46 5 2 136 46 290
97 154 51 284 96 288 100 4 4 0 27 -10 52 l-18 45 -296 -99z"/>
<path d="M25871 4694 c-12 -19 -21 -39 -21 -44 0 -20 517 -280 557 -280 8 0
47 91 41 95 -2 0 -34 14 -73 30 -83 34 -339 160 -413 204 -29 17 -57 31 -61
31 -5 0 -18 -16 -30 -36z"/>
<path d="M31536 4588 c-14 -23 -23 -45 -20 -49 16 -26 543 -294 554 -282 5 4
15 25 24 46 l15 37 -162 81 c-148 75 -272 141 -354 191 l-31 19 -26 -43z"/>
<path d="M39938 4425 c-16 -18 -28 -37 -28 -41 0 -22 503 -376 514 -362 2 1
15 22 29 45 l26 42 -47 27 c-70 40 -254 167 -364 250 -54 41 -99 74 -100 73
-2 0 -15 -15 -30 -34z"/>
<path d="M76020 4433 c0 -5 -2 -91 -4 -193 -4 -148 -17 -287 -39 -404 -3 -14
93 -37 98 -23 20 54 38 234 42 415 l5 212 -51 0 c-28 0 -51 -3 -51 -7z"/>
<path d="M4348 4413 c-21 -8 -38 -21 -38 -29 0 -43 217 -400 302 -497 l33 -37
39 33 40 34 -41 49 c-66 79 -167 236 -228 354 -31 61 -59 110 -63 109 -4 0
-24 -7 -44 -16z"/>
<path d="M21850 4389 c-114 -36 -308 -76 -407 -85 l-73 -7 0 -48 c0 -26 4 -50
8 -53 23 -14 341 44 489 89 145 44 135 37 117 90 -9 25 -21 45 -27 44 -7 0
-55 -14 -107 -30z"/>
<path d="M28770 4299 c-98 -25 -325 -65 -419 -75 l-73 -7 7 -51 c3 -28 7 -51
8 -52 3 -3 218 26 277 36 161 30 340 74 340 84 0 6 -5 28 -11 49 -12 43 -17
44 -129 16z"/>
<path d="M39330 4278 c-45 -28 -344 -166 -437 -203 l-72 -28 16 -41 c9 -22 19
-44 23 -49 10 -12 495 206 558 251 11 8 10 17 -7 51 -24 47 -33 49 -81 19z"/>
<path d="M27033 4231 l-10 -50 51 -10 c161 -32 456 -71 543 -71 30 0 32 2 39
45 3 25 5 48 2 50 -2 2 -58 9 -124 15 -105 10 -376 48 -460 65 -31 7 -31 6
-41 -44z"/>
<path d="M65439 4204 l-34 -36 55 -50 c123 -114 415 -328 447 -328 11 0 53 63
53 79 0 5 -30 27 -67 49 -93 55 -253 176 -339 256 -40 36 -74 66 -76 66 -2 0
-20 -16 -39 -36z"/>
<path d="M63663 4081 c-45 -59 -134 -163 -198 -229 l-116 -121 32 -35 31 -36
46 38 c63 51 211 217 299 335 40 54 73 101 73 105 0 8 -66 52 -77 52 -5 0 -45
-49 -90 -109z"/>
<path d="M32675 4064 c-8 -20 -15 -42 -15 -50 0 -8 68 -35 183 -73 185 -60
387 -121 405 -121 9 0 38 87 31 94 -2 2 -60 20 -130 40 -69 20 -199 61 -289
91 -90 30 -166 55 -167 55 -2 0 -10 -16 -18 -36z"/>
<path d="M69230 3914 c-135 -29 -246 -53 -246 -54 -2 0 18 -94 20 -97 1 -2 87
15 191 37 104 22 196 40 206 40 13 0 19 -11 25 -45 7 -49 13 -52 75 -35 l37
10 -13 63 c-7 34 -16 79 -19 100 -4 20 -12 36 -19 36 -7 -1 -122 -25 -257 -55z"/>
<path d="M20665 3870 c-82 -42 -206 -98 -275 -125 -69 -27 -126 -50 -127 -50
-7 -4 30 -95 39 -95 35 0 405 167 525 237 l43 25 -20 38 c-11 21 -23 40 -27
43 -5 2 -75 -31 -158 -73z"/>
<path d="M38100 3813 c-69 -18 -201 -49 -295 -68 -93 -20 -171 -38 -173 -40
-3 -2 -1 -25 2 -50 5 -29 12 -45 21 -45 27 0 350 70 475 103 120 32 125 34
121 57 -1 14 -8 36 -15 50 l-11 26 -125 -33z"/>
<path d="M41009 3774 c-11 -26 -18 -48 -17 -50 19 -18 551 -214 582 -214 10 0
42 89 34 95 -2 1 -55 19 -118 40 -104 34 -325 117 -423 159 l-38 16 -20 -46z"/>
<path d="M33883 3721 l-10 -50 49 -11 c128 -27 566 -95 572 -89 2 2 6 25 9 51
l6 47 -47 6 c-62 9 -498 82 -538 90 -31 7 -31 6 -41 -44z"/>
<path d="M68048 3666 c-158 -33 -288 -64 -289 -69 0 -4 2 -28 6 -53 5 -36 10
-44 23 -40 9 3 139 30 287 61 149 31 279 59 291 61 19 5 20 9 11 55 -7 35 -14
49 -26 48 -9 -1 -145 -29 -303 -63z"/>
<path d="M58865 3649 c-49 -28 -129 -71 -177 -95 l-88 -44 22 -45 c12 -25 26
-45 31 -45 10 0 161 79 260 137 l59 33 77 -24 c43 -14 91 -26 106 -28 26 -3
29 1 41 44 l12 48 -42 10 c-22 6 -75 22 -116 36 -41 13 -80 24 -85 24 -6 0
-50 -23 -100 -51z"/>
<path d="M66521 3594 c-6 -22 -11 -44 -11 -51 0 -25 329 -88 526 -100 l104 -6
0 50 0 51 -82 7 c-181 14 -261 27 -505 82 -18 4 -23 -1 -32 -33z"/>
<path d="M36830 3605 c-74 -7 -206 -16 -294 -20 l-158 -8 4 -49 c3 -26 7 -50
9 -52 10 -7 571 29 609 40 13 3 15 14 10 52 -6 56 4 54 -180 37z"/>
<path d="M35128 3554 c-3 -27 -4 -50 -4 -51 1 -2 324 -22 482 -29 l141 -6 6
47 c4 26 5 50 2 54 -2 5 -96 11 -207 14 -112 4 -251 10 -309 13 l-107 7 -4
-49z"/>
<path d="M19515 3514 c-87 -13 -361 -34 -437 -34 l-38 0 0 -50 0 -50 88 0
c108 0 292 15 437 36 61 9 111 17 112 18 1 0 -3 23 -9 49 -11 54 -5 53 -153
31z"/>
<path d="M5153 3469 c-32 -49 -39 -42 109 -125 109 -61 231 -117 356 -163 l83
-31 10 28 c26 66 22 70 -86 111 -99 38 -292 132 -392 191 l-52 31 -28 -42z"/>
<path d="M59817 3473 c-3 -5 -8 -26 -11 -49 l-7 -40 288 -68 c158 -37 295 -69
305 -72 13 -4 18 6 26 43 6 26 8 51 4 54 -7 6 -572 139 -591 139 -5 0 -12 -3
-14 -7z"/>
<path d="M18000 3450 c-107 -4 -198 -8 -202 -9 -5 0 -8 -23 -8 -51 l0 -50 48
0 c120 1 575 19 579 23 2 3 1 26 -2 51 l-7 46 -107 -2 c-58 -1 -194 -5 -301
-8z"/>
<path d="M42216 3441 c-2 -9 -7 -32 -10 -52 l-6 -36 167 -27 c157 -25 406 -56
445 -56 15 0 18 9 18 49 0 54 -8 61 -65 61 -46 0 -316 36 -442 58 -93 17 -103
17 -107 3z"/>
<path d="M10777 3322 c-47 -70 -128 -180 -179 -245 -51 -65 -97 -125 -103
-133 -7 -10 -1 -21 25 -43 19 -17 38 -30 41 -31 15 -1 309 388 346 459 13 24
15 35 6 38 -8 3 -9 13 -3 33 7 26 5 30 -20 38 -27 10 -29 8 -113 -116z"/>
<path d="M16695 3410 l-160 -5 0 -50 0 -50 125 2 c69 2 209 5 313 9 l187 6 0
49 0 49 -152 -2 c-84 -1 -225 -5 -313 -8z"/>
<path d="M43710 3404 c-52 -7 -131 -18 -175 -24 l-80 -11 3 -50 c5 -58 -8 -56
179 -30 l133 18 55 -96 c30 -53 59 -102 63 -109 8 -11 18 -9 51 13 22 15 41
30 41 32 0 2 -22 42 -50 89 -27 46 -61 107 -75 134 -14 28 -31 50 -38 49 -6
-1 -55 -7 -107 -15z"/>
<path d="M15665 3379 c-104 -3 -234 -7 -287 -8 l-98 -1 0 -55 0 -56 33 5 c17
3 156 8 307 11 151 4 277 8 280 10 3 2 3 26 2 54 -4 45 -6 51 -25 49 -12 -1
-107 -5 -212 -9z"/>
<path d="M62720 3330 c-105 -49 -342 -132 -412 -145 -42 -8 -45 -16 -28 -77
l11 -36 90 24 c160 44 432 150 485 188 17 13 17 15 0 55 -11 22 -24 41 -30 40
-6 0 -58 -23 -116 -49z"/>
<path d="M14325 3339 c-104 -3 -216 -7 -247 -8 l-58 -1 0 -51 0 -51 308 7
c169 4 310 9 315 12 4 2 7 26 7 54 l0 49 -67 -2 c-38 -1 -153 -5 -258 -9z"/>
<path d="M12985 3299 c-104 -3 -196 -7 -202 -8 -9 -1 -13 -19 -13 -52 l0 -51
213 6 c116 4 257 9 312 12 l100 6 -3 49 -4 49 -106 -2 c-59 -1 -192 -5 -297
-9z"/>
<path d="M11527 3293 c-3 -4 -7 -28 -8 -53 l-4 -45 110 -12 c61 -6 201 -12
313 -12 l202 -1 0 50 0 50 -149 0 c-141 0 -375 14 -433 26 -14 3 -28 2 -31 -3z"/>
<path d="M57934 3211 c-49 -21 -178 -71 -285 -111 -106 -40 -196 -74 -198 -76
-5 -4 31 -94 39 -94 16 0 567 214 578 225 3 3 -36 95 -40 95 -2 -1 -44 -18
-94 -39z"/>
<path d="M75715 3173 c-70 -118 -152 -227 -237 -318 -43 -46 -78 -87 -78 -92
0 -5 15 -24 33 -41 l34 -33 72 76 c118 124 320 413 305 437 -3 5 -23 17 -44
28 l-39 20 -46 -77z"/>
<path d="M61032 3153 c-6 -27 -8 -51 -4 -55 11 -11 296 -66 404 -77 54 -6 124
-11 158 -11 l60 0 0 49 0 48 -92 7 c-161 12 -408 53 -499 81 -12 4 -18 -6 -27
-42z"/>
<path d="M69717 3174 l-38 -25 22 -37 c78 -128 184 -267 288 -375 l84 -88 34
33 c18 17 33 37 33 43 0 6 -30 40 -66 75 -77 76 -168 190 -249 313 -32 48 -61
87 -64 86 -3 0 -23 -11 -44 -25z"/>
<path d="M6340 3121 c0 -16 -6 -31 -12 -34 -17 -6 54 -147 135 -271 77 -117
176 -246 190 -246 6 0 25 14 43 31 l32 31 -68 87 c-80 101 -162 229 -222 347
-38 74 -46 84 -70 84 -24 0 -28 -4 -28 -29z"/>
<path d="M56780 2804 c-25 -8 -148 -44 -275 -80 -126 -36 -235 -67 -242 -69
-11 -4 -7 -35 12 -92 3 -9 23 -6 77 8 119 33 523 151 526 154 2 1 -2 23 -9 49
-13 51 -18 53 -89 30z"/>
<path d="M44341 2633 l-30 -36 43 -38 c159 -140 452 -339 476 -324 6 4 19 24
30 45 l20 38 -67 38 c-100 55 -216 137 -330 230 -56 46 -104 84 -107 84 -2 0
-18 -17 -35 -37z"/>
<path d="M50592 2435 c-35 -69 -101 -181 -146 -249 l-83 -125 38 -30 c21 -17
40 -31 42 -31 10 0 158 229 202 313 38 72 50 87 66 82 13 -5 25 4 45 35 15 22
25 42 23 43 -2 2 -30 22 -61 45 -31 23 -58 42 -60 42 -2 0 -31 -56 -66 -125z"/>
<path d="M55492 2470 c-68 -15 -200 -43 -293 -61 l-170 -34 7 -40 c3 -22 9
-45 13 -51 4 -7 72 3 216 32 263 53 385 81 392 88 11 11 -12 91 -27 93 -8 1
-70 -11 -138 -27z"/>
<path d="M9960 2429 c-87 -70 -244 -177 -347 -239 -40 -23 -73 -44 -73 -47 0
-2 9 -22 21 -44 15 -30 25 -39 37 -34 67 26 327 201 481 325 l31 25 -31 38
c-17 20 -34 37 -37 37 -4 0 -41 -27 -82 -61z"/>
<path d="M74815 2353 c-94 -48 -267 -117 -373 -149 -48 -14 -92 -27 -99 -29
-8 -3 -8 -16 1 -52 14 -54 10 -54 121 -21 108 32 280 100 385 153 52 26 96 49
98 50 7 6 -43 85 -53 84 -5 0 -41 -16 -80 -36z"/>
<path d="M70630 2332 c-11 -25 -19 -47 -17 -48 32 -33 522 -204 582 -204 14 0
19 11 30 66 l6 31 -68 17 c-114 29 -282 86 -400 136 l-113 48 -20 -46z"/>
<path d="M54365 2259 c-22 -4 -160 -24 -307 -45 l-267 -38 6 -45 c3 -25 8 -49
12 -52 5 -5 475 59 575 79 39 7 41 9 38 41 -7 61 -13 68 -57 60z"/>
<path d="M7166 2190 c-15 -22 -24 -45 -21 -50 9 -14 175 -107 277 -154 93 -43
289 -119 293 -114 1 2 9 24 18 50 l15 46 -76 28 c-157 56 -341 145 -458 221
-19 12 -23 10 -48 -27z"/>
<path d="M51308 2134 l-16 -46 35 -14 c110 -46 429 -121 538 -127 l50 -2 3 47
c4 54 11 50 -123 69 -88 12 -306 66 -399 98 -33 12 -62 21 -65 21 -3 0 -14
-21 -23 -46z"/>
<path d="M53010 2089 c-41 -4 -160 -15 -265 -24 -104 -9 -192 -18 -195 -20 -3
-2 -4 -24 -2 -49 l4 -46 42 0 c45 0 577 48 582 52 1 2 0 24 -3 51 l-6 47 -41
-1 c-22 -1 -75 -5 -116 -10z"/>
<path d="M71848 2075 c-5 -5 -8 -27 -8 -51 l0 -42 93 -6 c203 -12 406 -17 470
-10 l67 7 0 48 0 49 -188 0 c-104 0 -242 3 -308 6 -65 4 -122 3 -126 -1z"/>
<path d="M45440 2045 c-6 -14 -14 -36 -19 -48 -10 -26 -52 -7 565 -254 9 -3
44 67 44 89 0 5 -218 94 -533 219 l-48 19 -9 -25z"/>
<path d="M73515 2058 c-82 -5 -210 -7 -282 -6 l-133 4 0 -53 0 -53 213 1 c220
1 401 10 411 20 3 3 3 27 0 52 -6 43 -9 47 -33 46 -14 -1 -93 -6 -176 -11z"/>
<path d="M8938 1925 c-15 -15 -266 -48 -413 -53 l-170 -7 -3 -54 -3 -54 153 7
c84 3 185 11 223 16 148 21 247 43 251 55 3 7 0 31 -6 54 -10 38 -19 48 -32
36z"/>
<path d="M49909 1604 c-25 -30 -275 -191 -386 -247 l-113 -58 16 -37 c8 -20
19 -41 24 -46 28 -28 550 294 536 331 -8 19 -49 72 -57 72 -4 1 -12 -6 -20
-15z"/>
<path d="M46599 1555 c-11 -26 -19 -48 -17 -49 9 -8 565 -226 574 -226 14 0
47 82 36 91 -5 5 -292 121 -560 226 -7 3 -20 -13 -33 -42z"/>
<path d="M47785 1147 c-2 -7 -8 -27 -14 -46 -6 -19 -8 -38 -4 -42 5 -4 54 -17
110 -28 265 -54 555 -67 808 -37 77 10 143 20 147 24 6 7 -5 89 -13 96 -2 2
-47 -3 -99 -10 -155 -22 -361 -28 -515 -15 -135 12 -314 40 -383 60 -24 7 -34
7 -37 -2z"/>
</g>
</svg>
