<?xml version="1.0" encoding="utf-8"?>
<!-- Generator: Adobe Illustrator 16.0.0, SVG Export Plug-In . SVG Version: 6.00 Build 0)  -->
<!DOCTYPE svg PUBLIC "-//W3C//DTD SVG 1.1//EN" "http://www.w3.org/Graphics/SVG/1.1/DTD/svg11.dtd">
<svg version="1.1" id="Layer_1" xmlns="http://www.w3.org/2000/svg" xmlns:xlink="http://www.w3.org/1999/xlink" x="0px" y="0px"
	 width="1400px" height="980px" viewBox="0 0 1400 980" enable-background="new 0 0 1400 980" xml:space="preserve">
<g>
	<g>
		<g>
			<rect fill="#FFFFFF" width="1400" height="980"/>
		</g>
	</g>
	<g>
		<path fill="#C8AA00" d="M985.2,543.3c0,6.3-5.1,11.5-11.5,11.5h-26.2c-6.3,0-11.5-5.1-11.5-11.5V124c0-6.3,5.1-11.5,11.5-11.5
			h26.2c6.3,0,11.5,5.1,11.5,11.5V543.3z"/>
		<path d="M973.7,556.2h-26.2c-7.1,0-12.9-5.8-12.9-12.9V124c0-7.1,5.8-12.9,12.9-12.9h26.2c7.1,0,12.9,5.8,12.9,12.9v419.3
			C986.6,550.4,980.8,556.2,973.7,556.2z M947.5,113.9c-5.6,0-10.1,4.5-10.1,10.1v419.3c0,5.5,4.5,10.1,10.1,10.1h26.2
			c5.6,0,10.1-4.5,10.1-10.1V124c0-5.5-4.5-10.1-10.1-10.1H947.5z"/>
	</g>
	<g>
		<path fill="#C8AA00" d="M1308.2,543.3c0,6.3-5.1,11.5-11.5,11.5h-26.2c-6.3,0-11.5-5.1-11.5-11.5V124c0-6.3,5.1-11.5,11.5-11.5
			h26.2c6.3,0,11.5,5.1,11.5,11.5V543.3z"/>
		<path d="M1296.7,556.2h-26.2c-7.1,0-12.9-5.8-12.9-12.9V124c0-7.1,5.8-12.9,12.9-12.9h26.2c7.1,0,12.9,5.8,12.9,12.9v419.3
			C1309.6,550.4,1303.8,556.2,1296.7,556.2z M1270.5,113.9c-5.5,0-10.1,4.5-10.1,10.1v419.3c0,5.5,4.5,10.1,10.1,10.1h26.2
			c5.5,0,10.1-4.5,10.1-10.1V124c0-5.5-4.5-10.1-10.1-10.1H1270.5z"/>
	</g>
	<g>
		<line fill="#FFFFFF" x1="1259.1" y1="156.5" x2="985.2" y2="156.5"/>
		<path d="M1259.1,157.9H985.2c-0.8,0-1.4-0.6-1.4-1.4c0-0.8,0.6-1.4,1.4-1.4h273.9c0.8,0,1.4,0.6,1.4,1.4
			C1260.5,157.3,1259.8,157.9,1259.1,157.9z"/>
	</g>
	<g>
		<line fill="#FFFFFF" x1="1259.1" y1="244.6" x2="985.2" y2="244.6"/>
		<path d="M1259.1,246H985.2c-0.8,0-1.4-0.6-1.4-1.4c0-0.8,0.6-1.4,1.4-1.4h273.9c0.8,0,1.4,0.6,1.4,1.4
			C1260.5,245.4,1259.8,246,1259.1,246z"/>
	</g>
	<g>
		<line fill="#FFFFFF" x1="1259.1" y1="332.6" x2="985.2" y2="332.6"/>
		<path d="M1259.1,334.1H985.2c-0.8,0-1.4-0.6-1.4-1.4s0.6-1.4,1.4-1.4h273.9c0.8,0,1.4,0.6,1.4,1.4S1259.8,334.1,1259.1,334.1z"/>
	</g>
	<g>
		<line fill="#FFFFFF" x1="1259.1" y1="420.7" x2="985.2" y2="420.7"/>
		<path d="M1259.1,422.1H985.2c-0.8,0-1.4-0.6-1.4-1.4c0-0.8,0.6-1.4,1.4-1.4h273.9c0.8,0,1.4,0.6,1.4,1.4
			C1260.5,421.5,1259.8,422.1,1259.1,422.1z"/>
	</g>
	<g>
		<line fill="#FFFFFF" x1="1259.1" y1="508.8" x2="985.2" y2="508.8"/>
		<path d="M1259.1,510.2H985.2c-0.8,0-1.4-0.6-1.4-1.4c0-0.8,0.6-1.4,1.4-1.4h273.9c0.8,0,1.4,0.6,1.4,1.4
			C1260.5,509.5,1259.8,510.2,1259.1,510.2z"/>
	</g>
	<g>
		<circle fill="#FF826C" cx="1237" cy="156.5" r="16.3"/>
		<path d="M1237,174.2c-9.8,0-17.7-7.9-17.7-17.7c0-9.8,7.9-17.7,17.7-17.7c9.8,0,17.7,7.9,17.7,17.7
			C1254.7,166.3,1246.7,174.2,1237,174.2z M1237,141.7c-8.2,0-14.8,6.7-14.8,14.8s6.7,14.8,14.8,14.8s14.8-6.7,14.8-14.8
			S1245.2,141.7,1237,141.7z"/>
	</g>
	<g>
		<circle fill="#FF826C" cx="1199.4" cy="156.5" r="16.3"/>
		<path d="M1199.4,174.2c-9.8,0-17.7-7.9-17.7-17.7c0-9.8,7.9-17.7,17.7-17.7s17.7,7.9,17.7,17.7
			C1217.1,166.3,1209.2,174.2,1199.4,174.2z M1199.4,141.7c-8.2,0-14.8,6.7-14.8,14.8s6.7,14.8,14.8,14.8c8.2,0,14.8-6.7,14.8-14.8
			S1207.6,141.7,1199.4,141.7z"/>
	</g>
	<g>
		<circle fill="#FF826C" cx="1161.8" cy="156.5" r="16.3"/>
		<path d="M1161.8,174.2c-9.8,0-17.7-7.9-17.7-17.7c0-9.8,7.9-17.7,17.7-17.7c9.8,0,17.7,7.9,17.7,17.7
			C1179.5,166.3,1171.6,174.2,1161.8,174.2z M1161.8,141.7c-8.2,0-14.8,6.7-14.8,14.8s6.7,14.8,14.8,14.8c8.2,0,14.8-6.7,14.8-14.8
			S1170,141.7,1161.8,141.7z"/>
	</g>
	<g>
		<path fill="#FF826C" d="M1140.6,156.5c0,9-7.3,16.3-16.3,16.3c-9,0-16.3-7.3-16.3-16.3s7.3-16.3,16.3-16.3
			C1133.3,140.2,1140.6,147.5,1140.6,156.5z"/>
		<path d="M1124.3,174.2c-9.8,0-17.7-7.9-17.7-17.7c0-9.8,7.9-17.7,17.7-17.7c9.8,0,17.7,7.9,17.7,17.7
			C1142,166.3,1134,174.2,1124.3,174.2z M1124.3,141.7c-8.2,0-14.9,6.7-14.9,14.8s6.7,14.8,14.9,14.8c8.2,0,14.8-6.7,14.8-14.8
			S1132.5,141.7,1124.3,141.7z"/>
	</g>
	<g>
		<circle fill="#FF826C" cx="1237" cy="244.6" r="16.3"/>
		<path d="M1237,262.3c-9.8,0-17.7-7.9-17.7-17.7c0-9.8,7.9-17.7,17.7-17.7c9.8,0,17.7,7.9,17.7,17.7
			C1254.7,254.3,1246.7,262.3,1237,262.3z M1237,229.7c-8.2,0-14.8,6.7-14.8,14.8c0,8.2,6.7,14.8,14.8,14.8s14.8-6.7,14.8-14.8
			C1251.8,236.4,1245.2,229.7,1237,229.7z"/>
	</g>
	<g>
		<circle fill="#FF826C" cx="1199.4" cy="244.6" r="16.3"/>
		<path d="M1199.4,262.3c-9.8,0-17.7-7.9-17.7-17.7c0-9.8,7.9-17.7,17.7-17.7s17.7,7.9,17.7,17.7
			C1217.1,254.3,1209.2,262.3,1199.4,262.3z M1199.4,229.7c-8.2,0-14.8,6.7-14.8,14.8c0,8.2,6.7,14.8,14.8,14.8
			c8.2,0,14.8-6.7,14.8-14.8C1214.3,236.4,1207.6,229.7,1199.4,229.7z"/>
	</g>
	<g>
		<circle fill="#FF826C" cx="1087.7" cy="244.6" r="16.3"/>
		<path d="M1087.7,262.3c-9.8,0-17.7-7.9-17.7-17.7c0-9.8,7.9-17.7,17.7-17.7c9.8,0,17.7,7.9,17.7,17.7
			C1105.4,254.3,1097.5,262.3,1087.7,262.3z M1087.7,229.7c-8.2,0-14.8,6.7-14.8,14.8c0,8.2,6.7,14.8,14.8,14.8
			c8.2,0,14.9-6.7,14.9-14.8C1102.6,236.4,1095.9,229.7,1087.7,229.7z"/>
	</g>
	<g>
		<circle fill="#FF826C" cx="1050.2" cy="244.6" r="16.3"/>
		<path d="M1050.2,262.3c-9.8,0-17.7-7.9-17.7-17.7c0-9.8,7.9-17.7,17.7-17.7c9.8,0,17.7,7.9,17.7,17.7
			C1067.9,254.3,1059.9,262.3,1050.2,262.3z M1050.2,229.7c-8.2,0-14.9,6.7-14.9,14.8c0,8.2,6.7,14.8,14.9,14.8
			c8.2,0,14.8-6.7,14.8-14.8C1065,236.4,1058.4,229.7,1050.2,229.7z"/>
	</g>
	<g>
		<circle fill="#FF826C" cx="1012.6" cy="244.6" r="16.3"/>
		<path d="M1012.6,262.3c-9.8,0-17.7-7.9-17.7-17.7c0-9.8,7.9-17.7,17.7-17.7s17.7,7.9,17.7,17.7
			C1030.3,254.3,1022.4,262.3,1012.6,262.3z M1012.6,229.7c-8.2,0-14.8,6.7-14.8,14.8c0,8.2,6.7,14.8,14.8,14.8
			c8.2,0,14.8-6.7,14.8-14.8C1027.5,236.4,1020.8,229.7,1012.6,229.7z"/>
	</g>
	<g>
		<circle fill="#FF826C" cx="1161.8" cy="333.6" r="16.3"/>
		<path d="M1161.8,351.3c-9.8,0-17.7-7.9-17.7-17.7c0-9.8,7.9-17.7,17.7-17.7c9.8,0,17.7,7.9,17.7,17.7
			C1179.5,343.4,1171.6,351.3,1161.8,351.3z M1161.8,318.8c-8.2,0-14.8,6.7-14.8,14.8s6.7,14.8,14.8,14.8c8.2,0,14.8-6.7,14.8-14.8
			S1170,318.8,1161.8,318.8z"/>
	</g>
	<g>
		<circle fill="#FF826C" cx="1087.7" cy="333.6" r="16.3"/>
		<path d="M1087.7,351.3c-9.8,0-17.7-7.9-17.7-17.7c0-9.8,7.9-17.7,17.7-17.7c9.8,0,17.7,7.9,17.7,17.7
			C1105.4,343.4,1097.5,351.3,1087.7,351.3z M1087.7,318.8c-8.2,0-14.8,6.7-14.8,14.8s6.7,14.8,14.8,14.8c8.2,0,14.9-6.7,14.9-14.8
			S1095.9,318.8,1087.7,318.8z"/>
	</g>
	<g>
		<circle fill="#FF826C" cx="1050.2" cy="333.6" r="16.3"/>
		<path d="M1050.2,351.3c-9.8,0-17.7-7.9-17.7-17.7c0-9.8,7.9-17.7,17.7-17.7c9.8,0,17.7,7.9,17.7,17.7
			C1067.9,343.4,1059.9,351.3,1050.2,351.3z M1050.2,318.8c-8.2,0-14.9,6.7-14.9,14.8s6.7,14.8,14.9,14.8c8.2,0,14.8-6.7,14.8-14.8
			S1058.4,318.8,1050.2,318.8z"/>
	</g>
	<g>
		<circle fill="#FF826C" cx="1012.6" cy="333.6" r="16.3"/>
		<path d="M1012.6,351.3c-9.8,0-17.7-7.9-17.7-17.7c0-9.8,7.9-17.7,17.7-17.7s17.7,7.9,17.7,17.7
			C1030.3,343.4,1022.4,351.3,1012.6,351.3z M1012.6,318.8c-8.2,0-14.8,6.7-14.8,14.8s6.7,14.8,14.8,14.8c8.2,0,14.8-6.7,14.8-14.8
			S1020.8,318.8,1012.6,318.8z"/>
	</g>
	<g>
		<circle fill="#FF826C" cx="1087.3" cy="420.5" r="16.3"/>
		<path d="M1087.3,438.2c-9.8,0-17.7-7.9-17.7-17.7c0-9.8,7.9-17.7,17.7-17.7c9.8,0,17.7,7.9,17.7,17.7
			C1105,430.3,1097,438.2,1087.3,438.2z M1087.3,405.7c-8.2,0-14.9,6.7-14.9,14.8c0,8.2,6.7,14.9,14.9,14.9
			c8.2,0,14.8-6.7,14.8-14.9C1102.1,412.3,1095.5,405.7,1087.3,405.7z"/>
	</g>
	<g>
		<circle fill="#FF826C" cx="1049.7" cy="420.5" r="16.3"/>
		<path d="M1049.7,438.2c-9.8,0-17.7-7.9-17.7-17.7c0-9.8,7.9-17.7,17.7-17.7c9.8,0,17.7,7.9,17.7,17.7
			C1067.4,430.3,1059.5,438.2,1049.7,438.2z M1049.7,405.7c-8.2,0-14.8,6.7-14.8,14.8c0,8.2,6.7,14.9,14.8,14.9
			c8.2,0,14.8-6.7,14.8-14.9C1064.5,412.3,1057.9,405.7,1049.7,405.7z"/>
	</g>
	<g>
		<circle fill="#FF826C" cx="1012.1" cy="420.5" r="16.3"/>
		<path d="M1012.1,438.2c-9.8,0-17.7-7.9-17.7-17.7c0-9.8,7.9-17.7,17.7-17.7c9.8,0,17.7,7.9,17.7,17.7
			C1029.8,430.3,1021.9,438.2,1012.1,438.2z M1012.1,405.7c-8.2,0-14.9,6.7-14.9,14.8c0,8.2,6.7,14.9,14.9,14.9
			c8.2,0,14.8-6.7,14.8-14.9C1027,412.3,1020.3,405.7,1012.1,405.7z"/>
	</g>
	<g>
		<circle fill="#FF826C" cx="1087.7" cy="508.8" r="16.3"/>
		<path d="M1087.7,526.4c-9.8,0-17.7-7.9-17.7-17.7s7.9-17.7,17.7-17.7c9.8,0,17.7,7.9,17.7,17.7S1097.5,526.4,1087.7,526.4z
			 M1087.7,493.9c-8.2,0-14.8,6.7-14.8,14.8s6.7,14.8,14.8,14.8c8.2,0,14.9-6.7,14.9-14.8S1095.9,493.9,1087.7,493.9z"/>
	</g>
	<g>
		<circle fill="#FF826C" cx="1050.2" cy="508.8" r="16.3"/>
		<path d="M1050.2,526.4c-9.8,0-17.7-7.9-17.7-17.7s7.9-17.7,17.7-17.7c9.8,0,17.7,7.9,17.7,17.7S1059.9,526.4,1050.2,526.4z
			 M1050.2,493.9c-8.2,0-14.9,6.7-14.9,14.8s6.7,14.8,14.9,14.8c8.2,0,14.8-6.7,14.8-14.8S1058.4,493.9,1050.2,493.9z"/>
	</g>
	<g>
		<circle fill="#FF826C" cx="1012.6" cy="508.8" r="16.3"/>
		<path d="M1012.6,526.4c-9.8,0-17.7-7.9-17.7-17.7s7.9-17.7,17.7-17.7s17.7,7.9,17.7,17.7S1022.4,526.4,1012.6,526.4z
			 M1012.6,493.9c-8.2,0-14.8,6.7-14.8,14.8s6.7,14.8,14.8,14.8c8.2,0,14.8-6.7,14.8-14.8S1020.8,493.9,1012.6,493.9z"/>
	</g>
	<g>
		<path fill="#FF826C" d="M1140.6,333.6c0,9-7.3,16.3-16.3,16.3c-9,0-16.3-7.3-16.3-16.3c0-9,7.3-16.3,16.3-16.3
			C1133.3,317.3,1140.6,324.6,1140.6,333.6z"/>
		<path d="M1124.3,351.3c-9.8,0-17.7-7.9-17.7-17.7c0-9.8,7.9-17.7,17.7-17.7c9.8,0,17.7,7.9,17.7,17.7
			C1142,343.4,1134,351.3,1124.3,351.3z M1124.3,318.8c-8.2,0-14.9,6.7-14.9,14.8s6.7,14.8,14.9,14.8c8.2,0,14.8-6.7,14.8-14.8
			S1132.5,318.8,1124.3,318.8z"/>
	</g>
	<g>
		<circle fill="#FF826C" cx="1237" cy="420.5" r="16.3"/>
		<path d="M1237,438.2c-9.8,0-17.7-7.9-17.7-17.7c0-9.8,7.9-17.7,17.7-17.7c9.8,0,17.7,7.9,17.7,17.7
			C1254.7,430.3,1246.7,438.2,1237,438.2z M1237,405.7c-8.2,0-14.8,6.7-14.8,14.8c0,8.2,6.7,14.9,14.8,14.9s14.8-6.7,14.8-14.9
			C1251.8,412.3,1245.2,405.7,1237,405.7z"/>
	</g>
	<g>
		<circle fill="#FF826C" cx="1124.3" cy="420.5" r="16.3"/>
		<path d="M1124.3,438.2c-9.8,0-17.7-7.9-17.7-17.7c0-9.8,7.9-17.7,17.7-17.7c9.8,0,17.7,7.9,17.7,17.7
			C1142,430.3,1134,438.2,1124.3,438.2z M1124.3,405.7c-8.2,0-14.9,6.7-14.9,14.8c0,8.2,6.7,14.9,14.9,14.9
			c8.2,0,14.8-6.7,14.8-14.9C1139.1,412.3,1132.5,405.7,1124.3,405.7z"/>
	</g>
	<g>
		<circle fill="#FF826C" cx="1237" cy="511.7" r="16.3"/>
		<path d="M1237,529.4c-9.8,0-17.7-7.9-17.7-17.7s7.9-17.7,17.7-17.7c9.8,0,17.7,7.9,17.7,17.7S1246.7,529.4,1237,529.4z
			 M1237,496.9c-8.2,0-14.8,6.7-14.8,14.8s6.7,14.8,14.8,14.8s14.8-6.7,14.8-14.8S1245.2,496.9,1237,496.9z"/>
	</g>
	<g>
		<circle fill="#FF826C" cx="1199.4" cy="511.7" r="16.3"/>
		<path d="M1199.4,529.4c-9.8,0-17.7-7.9-17.7-17.7s7.9-17.7,17.7-17.7s17.7,7.9,17.7,17.7S1209.2,529.4,1199.4,529.4z
			 M1199.4,496.9c-8.2,0-14.8,6.7-14.8,14.8s6.7,14.8,14.8,14.8c8.2,0,14.8-6.7,14.8-14.8S1207.6,496.9,1199.4,496.9z"/>
	</g>
	<g>
		<circle fill="#FF826C" cx="1012.6" cy="156.5" r="16.3"/>
		<path d="M1012.6,174.2c-9.8,0-17.7-7.9-17.7-17.7c0-9.8,7.9-17.7,17.7-17.7s17.7,7.9,17.7,17.7
			C1030.3,166.3,1022.4,174.2,1012.6,174.2z M1012.6,141.7c-8.2,0-14.8,6.7-14.8,14.8s6.7,14.8,14.8,14.8c8.2,0,14.8-6.7,14.8-14.8
			S1020.8,141.7,1012.6,141.7z"/>
	</g>
	<g>
		<rect x="390.6" y="310.9" fill="#5E5F61" width="618.9" height="371.9"/>
		<path d="M1009.4,684.1H390.6c-0.8,0-1.4-0.6-1.4-1.4V310.9c0-0.8,0.6-1.4,1.4-1.4h618.9c0.8,0,1.4,0.6,1.4,1.4v371.9
			C1010.9,683.5,1010.2,684.1,1009.4,684.1z M392,681.3h616v-369H392V681.3z"/>
	</g>
	<g>
		<path fill="#C8AA00" d="M1051.2,701.7c0,10.5-8.5,19-19,19H367.8c-10.5,0-19-8.5-19-19l0,0c0-10.5,8.5-19,19-19h664.4
			C1042.7,682.7,1051.2,691.2,1051.2,701.7L1051.2,701.7z"/>
		<path d="M1032.2,722.1H367.8c-11.2,0-20.4-9.1-20.4-20.4c0-11.2,9.1-20.4,20.4-20.4h664.4c11.2,0,20.4,9.1,20.4,20.4
			C1052.6,712.9,1043.5,722.1,1032.2,722.1z M367.8,684.1c-9.7,0-17.6,7.9-17.6,17.6c0,9.7,7.9,17.6,17.6,17.6h664.4
			c9.7,0,17.6-7.9,17.6-17.6c0-9.7-7.9-17.6-17.6-17.6H367.8z"/>
	</g>
	<g>
		<g>
			<rect x="470.7" y="496.8" fill="#6D6E71" width="57.3" height="57.3"/>
			<path fill="#5E5F61" d="M528,557h-57.3c-1.6,0-2.8-1.3-2.8-2.8v-57.3c0-1.6,1.3-2.8,2.8-2.8H528c1.6,0,2.8,1.3,2.8,2.8v57.3
				C530.8,555.7,529.6,557,528,557z M473.5,551.3h51.6v-51.6h-51.6V551.3z"/>
		</g>
		<g>
			<rect x="470.7" y="439.5" fill="#6D6E71" width="57.3" height="57.3"/>
			<path fill="#5E5F61" d="M528,499.6h-57.3c-1.6,0-2.8-1.3-2.8-2.8v-57.3c0-1.6,1.3-2.8,2.8-2.8H528c1.6,0,2.8,1.3,2.8,2.8v57.3
				C530.8,498.4,529.6,499.6,528,499.6z M473.5,493.9h51.6v-51.6h-51.6V493.9z"/>
		</g>
		<g>
			<rect x="528" y="554.1" fill="#6D6E71" width="57.3" height="57.3"/>
			<path fill="#5E5F61" d="M585.3,614.3H528c-1.6,0-2.8-1.3-2.8-2.8v-57.3c0-1.6,1.3-2.8,2.8-2.8h57.3c1.6,0,2.8,1.3,2.8,2.8v57.3
				C588.2,613,586.9,614.3,585.3,614.3z M530.8,608.6h51.6V557h-51.6V608.6z"/>
		</g>
		<g>
			<rect x="470.7" y="554.1" fill="#6D6E71" width="57.3" height="57.3"/>
			<path fill="#5E5F61" d="M528,614.3h-57.3c-1.6,0-2.8-1.3-2.8-2.8v-57.3c0-1.6,1.3-2.8,2.8-2.8H528c1.6,0,2.8,1.3,2.8,2.8v57.3
				C530.8,613,529.6,614.3,528,614.3z M473.5,608.6h51.6V557h-51.6V608.6z"/>
		</g>
		<g>
			<rect x="585.3" y="382.1" fill="#6D6E71" width="57.3" height="57.3"/>
			<path fill="#5E5F61" d="M642.7,442.3h-57.3c-1.6,0-2.8-1.3-2.8-2.8v-57.3c0-1.6,1.3-2.8,2.8-2.8h57.3c1.6,0,2.8,1.3,2.8,2.8v57.3
				C645.5,441,644.2,442.3,642.7,442.3z M588.2,436.6h51.6V385h-51.6V436.6z"/>
		</g>
		<g>
			<rect x="528" y="382.1" fill="#6D6E71" width="57.3" height="57.3"/>
			<path fill="#5E5F61" d="M585.3,442.3H528c-1.6,0-2.8-1.3-2.8-2.8v-57.3c0-1.6,1.3-2.8,2.8-2.8h57.3c1.6,0,2.8,1.3,2.8,2.8v57.3
				C588.2,441,586.9,442.3,585.3,442.3z M530.8,436.6h51.6V385h-51.6V436.6z"/>
		</g>
		<g>
			<rect x="470.7" y="382.1" fill="#6D6E71" width="57.3" height="57.3"/>
			<path fill="#5E5F61" d="M528,442.3h-57.3c-1.6,0-2.8-1.3-2.8-2.8v-57.3c0-1.6,1.3-2.8,2.8-2.8H528c1.6,0,2.8,1.3,2.8,2.8v57.3
				C530.8,441,529.6,442.3,528,442.3z M473.5,436.6h51.6V385h-51.6V436.6z"/>
		</g>
		<g>
			<rect x="814.7" y="554.1" fill="#6D6E71" width="57.3" height="57.3"/>
			<path fill="#5E5F61" d="M872,614.3h-57.3c-1.6,0-2.8-1.3-2.8-2.8v-57.3c0-1.6,1.3-2.8,2.8-2.8H872c1.6,0,2.8,1.3,2.8,2.8v57.3
				C874.8,613,873.6,614.3,872,614.3z M817.5,608.6h51.6V557h-51.6V608.6z"/>
		</g>
		<g>
			<rect x="757.3" y="554.1" fill="#6D6E71" width="57.3" height="57.3"/>
			<path fill="#5E5F61" d="M814.7,614.3h-57.3c-1.6,0-2.8-1.3-2.8-2.8v-57.3c0-1.6,1.3-2.8,2.8-2.8h57.3c1.6,0,2.8,1.3,2.8,2.8v57.3
				C817.5,613,816.2,614.3,814.7,614.3z M760.2,608.6h51.6V557h-51.6V608.6z"/>
		</g>
		<g>
			<rect x="585.3" y="554.1" fill="#6D6E71" width="57.3" height="57.3"/>
			<path fill="#5E5F61" d="M642.7,614.3h-57.3c-1.6,0-2.8-1.3-2.8-2.8v-57.3c0-1.6,1.3-2.8,2.8-2.8h57.3c1.6,0,2.8,1.3,2.8,2.8v57.3
				C645.5,613,644.2,614.3,642.7,614.3z M588.2,608.6h51.6V557h-51.6V608.6z"/>
		</g>
		<g>
			<rect x="872" y="554.1" fill="#6D6E71" width="57.3" height="57.3"/>
			<path fill="#5E5F61" d="M929.3,614.3H872c-1.6,0-2.8-1.3-2.8-2.8v-57.3c0-1.6,1.3-2.8,2.8-2.8h57.3c1.6,0,2.8,1.3,2.8,2.8v57.3
				C932.2,613,930.9,614.3,929.3,614.3z M874.8,608.6h51.6V557h-51.6V608.6z"/>
		</g>
		<g>
			<rect x="642.7" y="382.1" fill="#6D6E71" width="57.3" height="57.3"/>
			<path fill="#5E5F61" d="M700,442.3h-57.3c-1.6,0-2.8-1.3-2.8-2.8v-57.3c0-1.6,1.3-2.8,2.8-2.8H700c1.6,0,2.8,1.3,2.8,2.8v57.3
				C702.8,441,701.6,442.3,700,442.3z M645.5,436.6h51.6V385h-51.6V436.6z"/>
		</g>
		<g>
			<rect x="700" y="554.1" fill="#6D6E71" width="57.3" height="57.3"/>
			<path fill="#5E5F61" d="M757.3,614.3H700c-1.6,0-2.8-1.3-2.8-2.8v-57.3c0-1.6,1.3-2.8,2.8-2.8h57.3c1.6,0,2.8,1.3,2.8,2.8v57.3
				C760.2,613,758.9,614.3,757.3,614.3z M702.8,608.6h51.6V557h-51.6V608.6z"/>
		</g>
		<g>
			<rect x="642.7" y="554.1" fill="#6D6E71" width="57.3" height="57.3"/>
			<path fill="#5E5F61" d="M700,614.3h-57.3c-1.6,0-2.8-1.3-2.8-2.8v-57.3c0-1.6,1.3-2.8,2.8-2.8H700c1.6,0,2.8,1.3,2.8,2.8v57.3
				C702.8,613,701.6,614.3,700,614.3z M645.5,608.6h51.6V557h-51.6V608.6z"/>
		</g>
		<g>
			<rect x="585.3" y="439.5" fill="#6D6E71" width="57.3" height="57.3"/>
			<path fill="#5E5F61" d="M642.7,499.6h-57.3c-1.6,0-2.8-1.3-2.8-2.8v-57.3c0-1.6,1.3-2.8,2.8-2.8h57.3c1.6,0,2.8,1.3,2.8,2.8v57.3
				C645.5,498.4,644.2,499.6,642.7,499.6z M588.2,493.9h51.6v-51.6h-51.6V493.9z"/>
		</g>
		<g>
			<rect x="528" y="496.8" fill="#6D6E71" width="57.3" height="57.3"/>
			<path fill="#5E5F61" d="M585.3,557H528c-1.6,0-2.8-1.3-2.8-2.8v-57.3c0-1.6,1.3-2.8,2.8-2.8h57.3c1.6,0,2.8,1.3,2.8,2.8v57.3
				C588.2,555.7,586.9,557,585.3,557z M530.8,551.3h51.6v-51.6h-51.6V551.3z"/>
		</g>
		<g>
			<rect x="585.3" y="496.8" fill="#6D6E71" width="57.3" height="57.3"/>
			<path fill="#5E5F61" d="M642.7,557h-57.3c-1.6,0-2.8-1.3-2.8-2.8v-57.3c0-1.6,1.3-2.8,2.8-2.8h57.3c1.6,0,2.8,1.3,2.8,2.8v57.3
				C645.5,555.7,644.2,557,642.7,557z M588.2,551.3h51.6v-51.6h-51.6V551.3z"/>
		</g>
		<g>
			<rect x="528" y="439.5" fill="#6D6E71" width="57.3" height="57.3"/>
			<path fill="#5E5F61" d="M585.3,499.6H528c-1.6,0-2.8-1.3-2.8-2.8v-57.3c0-1.6,1.3-2.8,2.8-2.8h57.3c1.6,0,2.8,1.3,2.8,2.8v57.3
				C588.2,498.4,586.9,499.6,585.3,499.6z M530.8,493.9h51.6v-51.6h-51.6V493.9z"/>
		</g>
		<g>
			<rect x="872" y="496.8" fill="#6D6E71" width="57.3" height="57.3"/>
			<path fill="#5E5F61" d="M929.3,557H872c-1.6,0-2.8-1.3-2.8-2.8v-57.3c0-1.6,1.3-2.8,2.8-2.8h57.3c1.6,0,2.8,1.3,2.8,2.8v57.3
				C932.2,555.7,930.9,557,929.3,557z M874.8,551.3h51.6v-51.6h-51.6V551.3z"/>
		</g>
		<g>
			<rect x="642.7" y="496.8" fill="#6D6E71" width="57.3" height="57.3"/>
			<path fill="#5E5F61" d="M700,557h-57.3c-1.6,0-2.8-1.3-2.8-2.8v-57.3c0-1.6,1.3-2.8,2.8-2.8H700c1.6,0,2.8,1.3,2.8,2.8v57.3
				C702.8,555.7,701.6,557,700,557z M645.5,551.3h51.6v-51.6h-51.6V551.3z"/>
		</g>
		<g>
			<rect x="757.3" y="439.5" fill="#6D6E71" width="57.3" height="57.3"/>
			<path fill="#5E5F61" d="M814.7,499.6h-57.3c-1.6,0-2.8-1.3-2.8-2.8v-57.3c0-1.6,1.3-2.8,2.8-2.8h57.3c1.6,0,2.8,1.3,2.8,2.8v57.3
				C817.5,498.4,816.2,499.6,814.7,499.6z M760.2,493.9h51.6v-51.6h-51.6V493.9z"/>
		</g>
		<g>
			<rect x="642.7" y="439.5" fill="#6D6E71" width="57.3" height="57.3"/>
			<path fill="#5E5F61" d="M700,499.6h-57.3c-1.6,0-2.8-1.3-2.8-2.8v-57.3c0-1.6,1.3-2.8,2.8-2.8H700c1.6,0,2.8,1.3,2.8,2.8v57.3
				C702.8,498.4,701.6,499.6,700,499.6z M645.5,493.9h51.6v-51.6h-51.6V493.9z"/>
		</g>
		<g>
			<rect x="700" y="496.8" fill="#6D6E71" width="57.3" height="57.3"/>
			<path fill="#5E5F61" d="M757.3,557H700c-1.6,0-2.8-1.3-2.8-2.8v-57.3c0-1.6,1.3-2.8,2.8-2.8h57.3c1.6,0,2.8,1.3,2.8,2.8v57.3
				C760.2,555.7,758.9,557,757.3,557z M702.8,551.3h51.6v-51.6h-51.6V551.3z"/>
		</g>
		<g>
			<rect x="814.7" y="439.5" fill="#6D6E71" width="57.3" height="57.3"/>
			<path fill="#5E5F61" d="M872,499.6h-57.3c-1.6,0-2.8-1.3-2.8-2.8v-57.3c0-1.6,1.3-2.8,2.8-2.8H872c1.6,0,2.8,1.3,2.8,2.8v57.3
				C874.8,498.4,873.6,499.6,872,499.6z M817.5,493.9h51.6v-51.6h-51.6V493.9z"/>
		</g>
		<g>
			<rect x="700" y="382.1" fill="#6D6E71" width="57.3" height="57.3"/>
			<path fill="#5E5F61" d="M757.3,442.3H700c-1.6,0-2.8-1.3-2.8-2.8v-57.3c0-1.6,1.3-2.8,2.8-2.8h57.3c1.6,0,2.8,1.3,2.8,2.8v57.3
				C760.2,441,758.9,442.3,757.3,442.3z M702.8,436.6h51.6V385h-51.6V436.6z"/>
		</g>
		<g>
			<rect x="757.3" y="382.1" fill="#6D6E71" width="57.3" height="57.3"/>
			<path fill="#5E5F61" d="M814.7,442.3h-57.3c-1.6,0-2.8-1.3-2.8-2.8v-57.3c0-1.6,1.3-2.8,2.8-2.8h57.3c1.6,0,2.8,1.3,2.8,2.8v57.3
				C817.5,441,816.2,442.3,814.7,442.3z M760.2,436.6h51.6V385h-51.6V436.6z"/>
		</g>
		<g>
			<rect x="814.7" y="382.1" fill="#6D6E71" width="57.3" height="57.3"/>
			<path fill="#5E5F61" d="M872,442.3h-57.3c-1.6,0-2.8-1.3-2.8-2.8v-57.3c0-1.6,1.3-2.8,2.8-2.8H872c1.6,0,2.8,1.3,2.8,2.8v57.3
				C874.8,441,873.6,442.3,872,442.3z M817.5,436.6h51.6V385h-51.6V436.6z"/>
		</g>
		<g>
			<rect x="814.7" y="496.8" fill="#6D6E71" width="57.3" height="57.3"/>
			<path fill="#5E5F61" d="M872,557h-57.3c-1.6,0-2.8-1.3-2.8-2.8v-57.3c0-1.6,1.3-2.8,2.8-2.8H872c1.6,0,2.8,1.3,2.8,2.8v57.3
				C874.8,555.7,873.6,557,872,557z M817.5,551.3h51.6v-51.6h-51.6V551.3z"/>
		</g>
		<g>
			<rect x="757.3" y="496.8" fill="#6D6E71" width="57.3" height="57.3"/>
			<path fill="#5E5F61" d="M814.7,557h-57.3c-1.6,0-2.8-1.3-2.8-2.8v-57.3c0-1.6,1.3-2.8,2.8-2.8h57.3c1.6,0,2.8,1.3,2.8,2.8v57.3
				C817.5,555.7,816.2,557,814.7,557z M760.2,551.3h51.6v-51.6h-51.6V551.3z"/>
		</g>
		<g>
			<rect x="700" y="439.5" fill="#6D6E71" width="57.3" height="57.3"/>
			<path fill="#5E5F61" d="M757.3,499.6H700c-1.6,0-2.8-1.3-2.8-2.8v-57.3c0-1.6,1.3-2.8,2.8-2.8h57.3c1.6,0,2.8,1.3,2.8,2.8v57.3
				C760.2,498.4,758.9,499.6,757.3,499.6z M702.8,493.9h51.6v-51.6h-51.6V493.9z"/>
		</g>
		<g>
			<rect x="528" y="611.5" fill="#6D6E71" width="57.3" height="48.5"/>
			<path fill="#5E5F61" d="M585.3,662.8H528c-1.6,0-2.8-1.3-2.8-2.8v-48.5c0-1.6,1.3-2.8,2.8-2.8h57.3c1.6,0,2.8,1.3,2.8,2.8V660
				C588.2,661.5,586.9,662.8,585.3,662.8z M530.8,657.1h51.6v-42.8h-51.6V657.1z"/>
		</g>
		<g>
			<rect x="700" y="611.5" fill="#6D6E71" width="57.3" height="48.5"/>
			<path fill="#5E5F61" d="M757.3,662.8H700c-1.6,0-2.8-1.3-2.8-2.8v-48.5c0-1.6,1.3-2.8,2.8-2.8h57.3c1.6,0,2.8,1.3,2.8,2.8V660
				C760.2,661.5,758.9,662.8,757.3,662.8z M702.8,657.1h51.6v-42.8h-51.6V657.1z"/>
		</g>
		<g>
			<rect x="642.7" y="611.5" fill="#6D6E71" width="57.3" height="48.5"/>
			<path fill="#5E5F61" d="M700,662.8h-57.3c-1.6,0-2.8-1.3-2.8-2.8v-48.5c0-1.6,1.3-2.8,2.8-2.8H700c1.6,0,2.8,1.3,2.8,2.8V660
				C702.8,661.5,701.6,662.8,700,662.8z M645.5,657.1h51.6v-42.8h-51.6V657.1z"/>
		</g>
		<g>
			<rect x="585.3" y="611.5" fill="#6D6E71" width="57.3" height="48.5"/>
			<path fill="#5E5F61" d="M642.7,662.8h-57.3c-1.6,0-2.8-1.3-2.8-2.8v-48.5c0-1.6,1.3-2.8,2.8-2.8h57.3c1.6,0,2.8,1.3,2.8,2.8V660
				C645.5,661.5,644.2,662.8,642.7,662.8z M588.2,657.1h51.6v-42.8h-51.6V657.1z"/>
		</g>
		<g>
			<rect x="413.3" y="554.1" fill="#6D6E71" width="57.3" height="57.3"/>
			<path fill="#5E5F61" d="M470.7,614.3h-57.3c-1.6,0-2.8-1.3-2.8-2.8v-57.3c0-1.6,1.3-2.8,2.8-2.8h57.3c1.6,0,2.8,1.3,2.8,2.8v57.3
				C473.5,613,472.2,614.3,470.7,614.3z M416.2,608.6h51.6V557h-51.6V608.6z"/>
		</g>
		<g>
			<rect x="470.7" y="611.5" fill="#6D6E71" width="57.3" height="48.5"/>
			<path fill="#5E5F61" d="M528,662.8h-57.3c-1.6,0-2.8-1.3-2.8-2.8v-48.5c0-1.6,1.3-2.8,2.8-2.8H528c1.6,0,2.8,1.3,2.8,2.8V660
				C530.8,661.5,529.6,662.8,528,662.8z M473.5,657.1h51.6v-42.8h-51.6V657.1z"/>
		</g>
		<g>
			<rect x="413.3" y="611.5" fill="#6D6E71" width="57.3" height="48.5"/>
			<path fill="#5E5F61" d="M470.7,662.8h-57.3c-1.6,0-2.8-1.3-2.8-2.8v-48.5c0-1.6,1.3-2.8,2.8-2.8h57.3c1.6,0,2.8,1.3,2.8,2.8V660
				C473.5,661.5,472.2,662.8,470.7,662.8z M416.2,657.1h51.6v-42.8h-51.6V657.1z"/>
		</g>
		<g>
			<rect x="872" y="611.5" fill="#6D6E71" width="57.3" height="48.5"/>
			<path fill="#5E5F61" d="M929.3,662.8H872c-1.6,0-2.8-1.3-2.8-2.8v-48.5c0-1.6,1.3-2.8,2.8-2.8h57.3c1.6,0,2.8,1.3,2.8,2.8V660
				C932.2,661.5,930.9,662.8,929.3,662.8z M874.8,657.1h51.6v-42.8h-51.6V657.1z"/>
		</g>
		<g>
			<rect x="929.3" y="554.1" fill="#6D6E71" width="57.3" height="57.3"/>
			<path fill="#5E5F61" d="M986.7,614.3h-57.3c-1.6,0-2.8-1.3-2.8-2.8v-57.3c0-1.6,1.3-2.8,2.8-2.8h57.3c1.6,0,2.8,1.3,2.8,2.8v57.3
				C989.5,613,988.2,614.3,986.7,614.3z M932.2,608.6h51.6V557h-51.6V608.6z"/>
		</g>
		<g>
			<rect x="872" y="439.5" fill="#6D6E71" width="57.3" height="57.3"/>
			<path fill="#5E5F61" d="M929.3,499.6H872c-1.6,0-2.8-1.3-2.8-2.8v-57.3c0-1.6,1.3-2.8,2.8-2.8h57.3c1.6,0,2.8,1.3,2.8,2.8v57.3
				C932.2,498.4,930.9,499.6,929.3,499.6z M874.8,493.9h51.6v-51.6h-51.6V493.9z"/>
		</g>
		<g>
			<rect x="929.3" y="439.5" fill="#6D6E71" width="57.3" height="57.3"/>
			<path fill="#5E5F61" d="M986.7,499.6h-57.3c-1.6,0-2.8-1.3-2.8-2.8v-57.3c0-1.6,1.3-2.8,2.8-2.8h57.3c1.6,0,2.8,1.3,2.8,2.8v57.3
				C989.5,498.4,988.2,499.6,986.7,499.6z M932.2,493.9h51.6v-51.6h-51.6V493.9z"/>
		</g>
		<g>
			<rect x="929.3" y="611.5" fill="#6D6E71" width="57.3" height="48.5"/>
			<path fill="#5E5F61" d="M986.7,662.8h-57.3c-1.6,0-2.8-1.3-2.8-2.8v-48.5c0-1.6,1.3-2.8,2.8-2.8h57.3c1.6,0,2.8,1.3,2.8,2.8V660
				C989.5,661.5,988.2,662.8,986.7,662.8z M932.2,657.1h51.6v-42.8h-51.6V657.1z"/>
		</g>
		<g>
			<rect x="814.7" y="611.5" fill="#6D6E71" width="57.3" height="48.5"/>
			<path fill="#5E5F61" d="M872,662.8h-57.3c-1.6,0-2.8-1.3-2.8-2.8v-48.5c0-1.6,1.3-2.8,2.8-2.8H872c1.6,0,2.8,1.3,2.8,2.8V660
				C874.8,661.5,873.6,662.8,872,662.8z M817.5,657.1h51.6v-42.8h-51.6V657.1z"/>
		</g>
		<g>
			<rect x="413.3" y="496.8" fill="#6D6E71" width="57.3" height="57.3"/>
			<path fill="#5E5F61" d="M470.7,557h-57.3c-1.6,0-2.8-1.3-2.8-2.8v-57.3c0-1.6,1.3-2.8,2.8-2.8h57.3c1.6,0,2.8,1.3,2.8,2.8v57.3
				C473.5,555.7,472.2,557,470.7,557z M416.2,551.3h51.6v-51.6h-51.6V551.3z"/>
		</g>
		<g>
			<rect x="757.3" y="611.5" fill="#6D6E71" width="57.3" height="48.5"/>
			<path fill="#5E5F61" d="M814.7,662.8h-57.3c-1.6,0-2.8-1.3-2.8-2.8v-48.5c0-1.6,1.3-2.8,2.8-2.8h57.3c1.6,0,2.8,1.3,2.8,2.8V660
				C817.5,661.5,816.2,662.8,814.7,662.8z M760.2,657.1h51.6v-42.8h-51.6V657.1z"/>
		</g>
		<g>
			<rect x="929.3" y="496.8" fill="#6D6E71" width="57.3" height="57.3"/>
			<path fill="#5E5F61" d="M986.7,557h-57.3c-1.6,0-2.8-1.3-2.8-2.8v-57.3c0-1.6,1.3-2.8,2.8-2.8h57.3c1.6,0,2.8,1.3,2.8,2.8v57.3
				C989.5,555.7,988.2,557,986.7,557z M932.2,551.3h51.6v-51.6h-51.6V551.3z"/>
		</g>
		<g>
			<rect x="814.7" y="333.6" fill="#6D6E71" width="57.3" height="48.5"/>
			<path fill="#5E5F61" d="M872,385h-57.3c-1.6,0-2.8-1.3-2.8-2.8v-48.5c0-1.6,1.3-2.8,2.8-2.8H872c1.6,0,2.8,1.3,2.8,2.8v48.5
				C874.8,383.7,873.6,385,872,385z M817.5,379.3h51.6v-42.8h-51.6V379.3z"/>
		</g>
		<g>
			<rect x="872" y="333.6" fill="#6D6E71" width="57.3" height="48.5"/>
			<path fill="#5E5F61" d="M929.3,385H872c-1.6,0-2.8-1.3-2.8-2.8v-48.5c0-1.6,1.3-2.8,2.8-2.8h57.3c1.6,0,2.8,1.3,2.8,2.8v48.5
				C932.2,383.7,930.9,385,929.3,385z M874.8,379.3h51.6v-42.8h-51.6V379.3z"/>
		</g>
		<g>
			<rect x="757.3" y="333.6" fill="#6D6E71" width="57.3" height="48.5"/>
			<path fill="#5E5F61" d="M814.7,385h-57.3c-1.6,0-2.8-1.3-2.8-2.8v-48.5c0-1.6,1.3-2.8,2.8-2.8h57.3c1.6,0,2.8,1.3,2.8,2.8v48.5
				C817.5,383.7,816.2,385,814.7,385z M760.2,379.3h51.6v-42.8h-51.6V379.3z"/>
		</g>
		<g>
			<rect x="929.3" y="333.6" fill="#6D6E71" width="57.3" height="48.5"/>
			<path fill="#5E5F61" d="M986.7,385h-57.3c-1.6,0-2.8-1.3-2.8-2.8v-48.5c0-1.6,1.3-2.8,2.8-2.8h57.3c1.6,0,2.8,1.3,2.8,2.8v48.5
				C989.5,383.7,988.2,385,986.7,385z M932.2,379.3h51.6v-42.8h-51.6V379.3z"/>
		</g>
		<g>
			<rect x="872" y="382.1" fill="#6D6E71" width="57.3" height="57.3"/>
			<path fill="#5E5F61" d="M929.3,442.3H872c-1.6,0-2.8-1.3-2.8-2.8v-57.3c0-1.6,1.3-2.8,2.8-2.8h57.3c1.6,0,2.8,1.3,2.8,2.8v57.3
				C932.2,441,930.9,442.3,929.3,442.3z M874.8,436.6h51.6V385h-51.6V436.6z"/>
		</g>
		<g>
			<rect x="929.3" y="382.1" fill="#6D6E71" width="57.3" height="57.3"/>
			<path fill="#5E5F61" d="M986.7,442.3h-57.3c-1.6,0-2.8-1.3-2.8-2.8v-57.3c0-1.6,1.3-2.8,2.8-2.8h57.3c1.6,0,2.8,1.3,2.8,2.8v57.3
				C989.5,441,988.2,442.3,986.7,442.3z M932.2,436.6h51.6V385h-51.6V436.6z"/>
		</g>
		<g>
			<rect x="413.3" y="439.5" fill="#6D6E71" width="57.3" height="57.3"/>
			<path fill="#5E5F61" d="M470.7,499.6h-57.3c-1.6,0-2.8-1.3-2.8-2.8v-57.3c0-1.6,1.3-2.8,2.8-2.8h57.3c1.6,0,2.8,1.3,2.8,2.8v57.3
				C473.5,498.4,472.2,499.6,470.7,499.6z M416.2,493.9h51.6v-51.6h-51.6V493.9z"/>
		</g>
		<g>
			<rect x="700" y="333.6" fill="#6D6E71" width="57.3" height="48.5"/>
			<path fill="#5E5F61" d="M757.3,385H700c-1.6,0-2.8-1.3-2.8-2.8v-48.5c0-1.6,1.3-2.8,2.8-2.8h57.3c1.6,0,2.8,1.3,2.8,2.8v48.5
				C760.2,383.7,758.9,385,757.3,385z M702.8,379.3h51.6v-42.8h-51.6V379.3z"/>
		</g>
		<g>
			<rect x="642.7" y="333.6" fill="#6D6E71" width="57.3" height="48.5"/>
			<path fill="#5E5F61" d="M700,385h-57.3c-1.6,0-2.8-1.3-2.8-2.8v-48.5c0-1.6,1.3-2.8,2.8-2.8H700c1.6,0,2.8,1.3,2.8,2.8v48.5
				C702.8,383.7,701.6,385,700,385z M645.5,379.3h51.6v-42.8h-51.6V379.3z"/>
		</g>
		<g>
			<rect x="413.3" y="382.1" fill="#6D6E71" width="57.3" height="57.3"/>
			<path fill="#5E5F61" d="M470.7,442.3h-57.3c-1.6,0-2.8-1.3-2.8-2.8v-57.3c0-1.6,1.3-2.8,2.8-2.8h57.3c1.6,0,2.8,1.3,2.8,2.8v57.3
				C473.5,441,472.2,442.3,470.7,442.3z M416.2,436.6h51.6V385h-51.6V436.6z"/>
		</g>
		<g>
			<rect x="470.7" y="333.6" fill="#6D6E71" width="57.3" height="48.5"/>
			<path fill="#5E5F61" d="M528,385h-57.3c-1.6,0-2.8-1.3-2.8-2.8v-48.5c0-1.6,1.3-2.8,2.8-2.8H528c1.6,0,2.8,1.3,2.8,2.8v48.5
				C530.8,383.7,529.6,385,528,385z M473.5,379.3h51.6v-42.8h-51.6V379.3z"/>
		</g>
		<g>
			<rect x="413.3" y="333.6" fill="#6D6E71" width="57.3" height="48.5"/>
			<path fill="#5E5F61" d="M470.7,385h-57.3c-1.6,0-2.8-1.3-2.8-2.8v-48.5c0-1.6,1.3-2.8,2.8-2.8h57.3c1.6,0,2.8,1.3,2.8,2.8v48.5
				C473.5,383.7,472.2,385,470.7,385z M416.2,379.3h51.6v-42.8h-51.6V379.3z"/>
		</g>
		<g>
			<rect x="528" y="333.6" fill="#6D6E71" width="57.3" height="48.5"/>
			<path fill="#5E5F61" d="M585.3,385H528c-1.6,0-2.8-1.3-2.8-2.8v-48.5c0-1.6,1.3-2.8,2.8-2.8h57.3c1.6,0,2.8,1.3,2.8,2.8v48.5
				C588.2,383.7,586.9,385,585.3,385z M530.8,379.3h51.6v-42.8h-51.6V379.3z"/>
		</g>
		<g>
			<rect x="585.3" y="333.6" fill="#6D6E71" width="57.3" height="48.5"/>
			<path fill="#5E5F61" d="M642.7,385h-57.3c-1.6,0-2.8-1.3-2.8-2.8v-48.5c0-1.6,1.3-2.8,2.8-2.8h57.3c1.6,0,2.8,1.3,2.8,2.8v48.5
				C645.5,383.7,644.2,385,642.7,385z M588.2,379.3h51.6v-42.8h-51.6V379.3z"/>
		</g>
	</g>
	<g>
		<path fill="#FFFFFF" d="M563,541.9c2-1.8,3.1-4.2,3.1-7.2c0-3.2-1-5.8-3-7.6c-2-1.8-4.6-2.7-7.8-2.7c-0.3,0-0.6,0-0.9,0
			c-0.3,0-0.5,0-0.8,0.1l-0.3-1.8l1.3,0.1c6.9,0.3,10.3-2.2,10.3-7.6c0-4.7-2.9-7-8.8-7c-4.6,0-7.4,2-8.6,5.9l-1.6-0.8
			c1.4-4.6,5-6.8,10.6-6.8c3,0,5.4,0.7,7.3,2c2.1,1.5,3.1,3.7,3.1,6.6c0,5.3-2.1,8.1-6.4,8.5c2.3,0.5,4.2,1.8,5.6,4.1
			c1.3,2,2,4.3,2,6.8c0,3.6-1.2,6.5-3.5,8.7c-2.3,2-5.2,3.1-8.8,3.1c-6.4,0-10.2-3-11.3-9.1l1.7-0.8c0.9,5.4,4,8.1,9.6,8.1
			C558.6,544.5,561.1,543.7,563,541.9z"/>
	</g>
	<g>
		<path fill="#FFFFFF" d="M679.4,517.1c0-2.7-0.8-4.9-2.4-6.4c-1.6-1.6-3.7-2.4-6.4-2.4c-2.9,0-5.2,0.8-6.8,2.5
			c-1.7,1.7-2.5,4-2.5,6.9v0.6h-1.9v-0.5c0-3.6,1-6.3,3-8.3c2-2,4.8-3,8.3-3c3.3,0,5.9,0.9,7.9,2.8c2,1.8,3,4.4,3,7.6
			c0,2.8-0.8,5.2-2.5,7.1h0.1l-17.7,19.6h19.9v1.7h-24l20-22C678.7,521.5,679.4,519.5,679.4,517.1z"/>
	</g>
	<g>
		<path fill="#FFFFFF" d="M775.1,535.6c0.6,6.1,3.8,9.2,9.5,9.2c3.3,0,5.9-1,7.7-3.1c1.8-1.9,2.7-4.6,2.7-7.9c0-3.2-0.9-5.8-2.7-7.6
			c-1.8-1.9-4.3-2.8-7.4-2.8c-3.8,0-6.7,1.3-8.7,4h-1.5l-0.1-19.7h20.8v1.7h-19v15.6c2.1-2.1,5.1-3.2,8.8-3.2c3.6,0,6.5,1.1,8.6,3.4
			c2.1,2.3,3.1,5.2,3.1,8.8c0,1.9-0.3,3.6-0.9,5.1c-0.6,1.5-1.4,2.8-2.4,3.9c-1.1,1.1-2.3,1.9-3.8,2.5c-1.5,0.6-3.2,0.9-5.1,0.9
			c-3.3,0-6-1-8-2.9c-1.9-1.9-3.1-4.5-3.4-7.9H775.1z"/>
	</g>
	<g>
		<path fill="#FFFFFF" d="M681.4,400.2c-0.7-5.1-3.6-7.6-8.6-7.6c-7.3,0-11,6.2-11,18.6c0,0.6,0,1.2,0,1.7c0,0.4,0,0.8,0.1,1.1
			c1.4-5.9,5-8.9,10.6-8.9c3.7,0,6.5,1.2,8.5,3.7c1.9,2.3,2.8,5.3,2.8,9.1c0,3.6-0.9,6.6-2.8,9c-2.1,2.5-4.9,3.8-8.4,3.8
			c-8.4,0-12.6-6.3-12.6-19c0-13.9,4.4-20.8,13.2-20.8c2.9,0,5.3,0.8,7.1,2.5c1.7,1.6,2.7,3.9,3,6.8H681.4z M679.5,410.1
			c-1.7-2.2-4.1-3.3-7.2-3.3c-3,0-5.4,1.1-7.2,3.3c-1.6,2.1-2.3,4.7-2.3,7.8c0,3.2,0.7,5.8,2.2,7.7c1.6,2.3,3.9,3.4,7,3.4
			c3.1,0,5.5-1.1,7.3-3.3c1.6-2,2.4-4.6,2.4-7.8C681.8,414.6,681,412,679.5,410.1z"/>
	</g>
	<g>
		<path fill="#FFFFFF" d="M796.7,400.2c-0.7-5.1-3.6-7.6-8.6-7.6c-7.3,0-11,6.2-11,18.6c0,0.6,0,1.2,0,1.7c0,0.4,0,0.8,0.1,1.1
			c1.4-5.9,5-8.9,10.6-8.9c3.7,0,6.5,1.2,8.5,3.7c1.9,2.3,2.8,5.3,2.8,9.1c0,3.6-0.9,6.6-2.8,9c-2.1,2.5-4.9,3.8-8.4,3.8
			c-8.4,0-12.6-6.3-12.6-19c0-13.9,4.4-20.8,13.2-20.8c2.9,0,5.3,0.8,7.1,2.5c1.7,1.6,2.7,3.9,3,6.8H796.7z M794.8,410.1
			c-1.7-2.2-4.1-3.3-7.2-3.3c-3,0-5.4,1.1-7.2,3.3c-1.6,2.1-2.3,4.7-2.3,7.8c0,3.2,0.7,5.8,2.2,7.7c1.6,2.3,3.9,3.4,7,3.4
			c3.1,0,5.5-1.1,7.3-3.3c1.6-2,2.4-4.6,2.4-7.8C797,414.6,796.3,412,794.8,410.1z"/>
	</g>
	<g>
		<path fill="#FFFFFF" d="M909.1,426.2c2-1.8,3.1-4.2,3.1-7.2c0-3.2-1-5.8-3-7.6c-2-1.8-4.6-2.7-7.8-2.7c-0.3,0-0.6,0-0.9,0
			c-0.3,0-0.5,0-0.8,0.1l-0.3-1.8l1.3,0.1c6.9,0.3,10.3-2.2,10.3-7.6c0-4.7-2.9-7-8.8-7c-4.6,0-7.4,2-8.6,5.9l-1.6-0.8
			c1.4-4.6,5-6.8,10.6-6.8c3,0,5.4,0.7,7.3,2c2.1,1.5,3.1,3.7,3.1,6.6c0,5.3-2.1,8.1-6.4,8.5c2.3,0.5,4.2,1.8,5.6,4.1
			c1.3,2,2,4.3,2,6.8c0,3.6-1.2,6.5-3.5,8.7c-2.3,2-5.2,3.1-8.8,3.1c-6.4,0-10.2-3-11.3-9.1l1.7-0.8c0.9,5.4,4,8.1,9.6,8.1
			C904.6,428.8,907.1,427.9,909.1,426.2z"/>
	</g>
	<g>
		<path fill="#FFFFFF" d="M966.5,400.2c-0.7-5.1-3.6-7.6-8.6-7.6c-7.3,0-11,6.2-11,18.6c0,0.6,0,1.2,0,1.7c0,0.4,0,0.8,0.1,1.1
			c1.4-5.9,5-8.9,10.6-8.9c3.7,0,6.5,1.2,8.5,3.7c1.9,2.3,2.8,5.3,2.8,9.1c0,3.6-0.9,6.6-2.8,9c-2.1,2.5-4.9,3.8-8.4,3.8
			c-8.4,0-12.6-6.3-12.6-19c0-13.9,4.4-20.8,13.2-20.8c2.9,0,5.3,0.8,7.1,2.5c1.7,1.6,2.7,3.9,3,6.8H966.5z M964.6,410.1
			c-1.7-2.2-4.1-3.3-7.2-3.3c-3,0-5.4,1.1-7.2,3.3c-1.6,2.1-2.3,4.7-2.3,7.8c0,3.2,0.7,5.8,2.2,7.7c1.6,2.3,3.9,3.4,7,3.4
			c3.1,0,5.5-1.1,7.3-3.3c1.6-2,2.4-4.6,2.4-7.8C966.8,414.6,966.1,412,964.6,410.1z"/>
	</g>
	<g>
		<g>
			<path fill="#FFFFFF" d="M629,526.9H599c-0.8,0-1.4-0.6-1.4-1.4c0-0.8,0.6-1.4,1.4-1.4H629c0.8,0,1.4,0.6,1.4,1.4
				C630.4,526.2,629.8,526.9,629,526.9z"/>
		</g>
		<g>
			<path fill="#FFFFFF" d="M614,541.8c-0.8,0-1.4-0.6-1.4-1.4v-29.9c0-0.8,0.6-1.4,1.4-1.4s1.4,0.6,1.4,1.4v29.9
				C615.4,541.2,614.8,541.8,614,541.8z"/>
		</g>
	</g>
	<g>
		<g>
			<path fill="#FFFFFF" d="M739.2,422.8c-0.4,0-0.7-0.1-1-0.4l-21.2-21.2c-0.6-0.6-0.6-1.5,0-2c0.6-0.6,1.5-0.6,2,0l21.2,21.2
				c0.6,0.6,0.6,1.5,0,2C740,422.7,739.6,422.8,739.2,422.8z"/>
		</g>
		<g>
			<path fill="#FFFFFF" d="M718.1,422.8c-0.4,0-0.7-0.1-1-0.4c-0.6-0.6-0.6-1.5,0-2l21.2-21.2c0.6-0.6,1.5-0.6,2,0
				c0.6,0.6,0.6,1.5,0,2l-21.2,21.2C718.8,422.7,718.4,422.8,718.1,422.8z"/>
		</g>
	</g>
	<g>
		<path fill="#FFFFFF" d="M743.6,520.4h-29.9c-0.8,0-1.4-0.6-1.4-1.4c0-0.8,0.6-1.4,1.4-1.4h29.9c0.8,0,1.4,0.6,1.4,1.4
			C745.1,519.7,744.4,520.4,743.6,520.4z"/>
	</g>
	<g>
		<path fill="#FFFFFF" d="M743.6,533.4h-29.9c-0.8,0-1.4-0.6-1.4-1.4c0-0.8,0.6-1.4,1.4-1.4h29.9c0.8,0,1.4,0.6,1.4,1.4
			C745.1,532.8,744.4,533.4,743.6,533.4z"/>
	</g>
	<g>
		<path fill="#FFFFFF" d="M858.3,405.7h-29.9c-0.8,0-1.4-0.6-1.4-1.4c0-0.8,0.6-1.4,1.4-1.4h29.9c0.8,0,1.4,0.6,1.4,1.4
			C859.7,405,859.1,405.7,858.3,405.7z"/>
	</g>
	<g>
		<path fill="#FFFFFF" d="M858.3,418.7h-29.9c-0.8,0-1.4-0.6-1.4-1.4c0-0.8,0.6-1.4,1.4-1.4h29.9c0.8,0,1.4,0.6,1.4,1.4
			C859.7,418.1,859.1,418.7,858.3,418.7z"/>
	</g>
	<g>
		<g>
			<path fill="#FFFFFF" d="M1067.8,868.8c0,5.5-4.5,10.1-10.1,10.1H870.6c-5.6,0-10.1-4.5-10.1-10.1V604.4c0-5.5,4.5-10.1,10.1-10.1
				h187.1c5.5,0,10.1,4.5,10.1,10.1V868.8z"/>
			<path d="M1057.7,880.3H870.6c-6.3,0-11.5-5.2-11.5-11.5V604.4c0-6.3,5.2-11.5,11.5-11.5h187.1c6.3,0,11.5,5.2,11.5,11.5v264.4
				C1069.2,875.1,1064,880.3,1057.7,880.3z M870.6,595.7c-4.8,0-8.7,3.9-8.7,8.7v264.4c0,4.8,3.9,8.7,8.7,8.7h187.1
				c4.8,0,8.7-3.9,8.7-8.7V604.4c0-4.8-3.9-8.7-8.7-8.7H870.6z"/>
		</g>
		<g>
			<rect x="874.4" y="610.6" fill="#C0B7FF" width="179.8" height="50.4"/>
			<path d="M1054.2,662.5H874.4c-0.8,0-1.4-0.6-1.4-1.4v-50.4c0-0.8,0.6-1.4,1.4-1.4h179.8c0.8,0,1.4,0.6,1.4,1.4v50.4
				C1055.6,661.8,1055,662.5,1054.2,662.5z M875.8,659.6h177v-47.6h-177V659.6z"/>
		</g>
		<g>
			<rect x="874.4" y="681.4" fill="#F1F2F2" width="34.1" height="34.1"/>
			<path d="M908.5,716.9h-34.1c-0.8,0-1.4-0.6-1.4-1.4v-34.1c0-0.8,0.6-1.4,1.4-1.4h34.1c0.8,0,1.4,0.6,1.4,1.4v34.1
				C910,716.3,909.3,716.9,908.5,716.9z M875.8,714.1h31.3v-31.3h-31.3V714.1z"/>
		</g>
		<g>
			<rect x="922.9" y="681.4" fill="#F1F2F2" width="34.1" height="34.1"/>
			<path d="M957.1,716.9h-34.1c-0.8,0-1.4-0.6-1.4-1.4v-34.1c0-0.8,0.6-1.4,1.4-1.4h34.1c0.8,0,1.4,0.6,1.4,1.4v34.1
				C958.5,716.3,957.9,716.9,957.1,716.9z M924.4,714.1h31.3v-31.3h-31.3V714.1z"/>
		</g>
		<g>
			<rect x="971.5" y="681.4" fill="#F1F2F2" width="34.1" height="34.1"/>
			<path d="M1005.7,716.9h-34.1c-0.8,0-1.4-0.6-1.4-1.4v-34.1c0-0.8,0.6-1.4,1.4-1.4h34.1c0.8,0,1.4,0.6,1.4,1.4v34.1
				C1007.1,716.3,1006.4,716.9,1005.7,716.9z M972.9,714.1h31.3v-31.3h-31.3V714.1z"/>
		</g>
		<g>
			<rect x="1020.1" y="681.4" fill="#F1F2F2" width="34.1" height="34.1"/>
			<path d="M1054.2,716.9h-34.1c-0.8,0-1.4-0.6-1.4-1.4v-34.1c0-0.8,0.6-1.4,1.4-1.4h34.1c0.8,0,1.4,0.6,1.4,1.4v34.1
				C1055.6,716.3,1055,716.9,1054.2,716.9z M1021.5,714.1h31.3v-31.3h-31.3V714.1z"/>
		</g>
		<g>
			<rect x="874.4" y="729" fill="#F1F2F2" width="34.1" height="34.1"/>
			<path d="M908.5,764.6h-34.1c-0.8,0-1.4-0.6-1.4-1.4V729c0-0.8,0.6-1.4,1.4-1.4h34.1c0.8,0,1.4,0.6,1.4,1.4v34.1
				C910,763.9,909.3,764.6,908.5,764.6z M875.8,761.7h31.3v-31.3h-31.3V761.7z"/>
		</g>
		<g>
			<rect x="922.9" y="729" fill="#F1F2F2" width="34.1" height="34.1"/>
			<path d="M957.1,764.6h-34.1c-0.8,0-1.4-0.6-1.4-1.4V729c0-0.8,0.6-1.4,1.4-1.4h34.1c0.8,0,1.4,0.6,1.4,1.4v34.1
				C958.5,763.9,957.9,764.6,957.1,764.6z M924.4,761.7h31.3v-31.3h-31.3V761.7z"/>
		</g>
		<g>
			<rect x="971.5" y="729" fill="#F1F2F2" width="34.1" height="34.1"/>
			<path d="M1005.7,764.6h-34.1c-0.8,0-1.4-0.6-1.4-1.4V729c0-0.8,0.6-1.4,1.4-1.4h34.1c0.8,0,1.4,0.6,1.4,1.4v34.1
				C1007.1,763.9,1006.4,764.6,1005.7,764.6z M972.9,761.7h31.3v-31.3h-31.3V761.7z"/>
		</g>
		<g>
			<rect x="1020.1" y="729" fill="#F1F2F2" width="34.1" height="34.1"/>
			<path d="M1054.2,764.6h-34.1c-0.8,0-1.4-0.6-1.4-1.4V729c0-0.8,0.6-1.4,1.4-1.4h34.1c0.8,0,1.4,0.6,1.4,1.4v34.1
				C1055.6,763.9,1055,764.6,1054.2,764.6z M1021.5,761.7h31.3v-31.3h-31.3V761.7z"/>
		</g>
		<g>
			<rect x="874.4" y="776.6" fill="#F1F2F2" width="34.1" height="34.1"/>
			<path d="M908.5,812.2h-34.1c-0.8,0-1.4-0.6-1.4-1.4v-34.1c0-0.8,0.6-1.4,1.4-1.4h34.1c0.8,0,1.4,0.6,1.4,1.4v34.1
				C910,811.5,909.3,812.2,908.5,812.2z M875.8,809.3h31.3V778h-31.3V809.3z"/>
		</g>
		<g>
			<rect x="922.9" y="776.6" fill="#F1F2F2" width="34.1" height="34.1"/>
			<path d="M957.1,812.2h-34.1c-0.8,0-1.4-0.6-1.4-1.4v-34.1c0-0.8,0.6-1.4,1.4-1.4h34.1c0.8,0,1.4,0.6,1.4,1.4v34.1
				C958.5,811.5,957.9,812.2,957.1,812.2z M924.4,809.3h31.3V778h-31.3V809.3z"/>
		</g>
		<g>
			<rect x="971.5" y="776.6" fill="#F1F2F2" width="34.1" height="34.1"/>
			<path d="M1005.7,812.2h-34.1c-0.8,0-1.4-0.6-1.4-1.4v-34.1c0-0.8,0.6-1.4,1.4-1.4h34.1c0.8,0,1.4,0.6,1.4,1.4v34.1
				C1007.1,811.5,1006.4,812.2,1005.7,812.2z M972.9,809.3h31.3V778h-31.3V809.3z"/>
		</g>
		<g>
			<rect x="874.4" y="824.2" fill="#F1F2F2" width="34.1" height="34.1"/>
			<path d="M908.5,859.8h-34.1c-0.8,0-1.4-0.6-1.4-1.4v-34.1c0-0.8,0.6-1.4,1.4-1.4h34.1c0.8,0,1.4,0.6,1.4,1.4v34.1
				C910,859.2,909.3,859.8,908.5,859.8z M875.8,856.9h31.3v-31.3h-31.3V856.9z"/>
		</g>
		<g>
			<rect x="922.9" y="824.2" fill="#F1F2F2" width="34.1" height="34.1"/>
			<path d="M957.1,859.8h-34.1c-0.8,0-1.4-0.6-1.4-1.4v-34.1c0-0.8,0.6-1.4,1.4-1.4h34.1c0.8,0,1.4,0.6,1.4,1.4v34.1
				C958.5,859.2,957.9,859.8,957.1,859.8z M924.4,856.9h31.3v-31.3h-31.3V856.9z"/>
		</g>
		<g>
			<rect x="971.5" y="824.2" fill="#F1F2F2" width="34.1" height="34.1"/>
			<path d="M1005.7,859.8h-34.1c-0.8,0-1.4-0.6-1.4-1.4v-34.1c0-0.8,0.6-1.4,1.4-1.4h34.1c0.8,0,1.4,0.6,1.4,1.4v34.1
				C1007.1,859.2,1006.4,859.8,1005.7,859.8z M972.9,856.9h31.3v-31.3h-31.3V856.9z"/>
		</g>
		<g>
			<rect x="1020.1" y="776.6" fill="#F1F2F2" width="34.1" height="81.8"/>
			<path d="M1054.2,859.8h-34.1c-0.8,0-1.4-0.6-1.4-1.4v-81.8c0-0.8,0.6-1.4,1.4-1.4h34.1c0.8,0,1.4,0.6,1.4,1.4v81.8
				C1055.6,859.2,1055,859.8,1054.2,859.8z M1021.5,856.9h31.3V778h-31.3V856.9z"/>
		</g>
	</g>
	<g>
		<path d="M677.6,710.4H350.3c-0.8,0-1.4-0.6-1.4-1.4s0.6-1.4,1.4-1.4h327.3c0.8,0,1.4,0.6,1.4,1.4S678.4,710.4,677.6,710.4z"/>
	</g>
	<g>
		<path fill="#FF826C" d="M795.1,809.1c0,29.3-23.7,53-53,53s-53-23.7-53-53c0-29.3,23.7-53,53-53S795.1,779.8,795.1,809.1z"/>
		<path d="M742.2,863.4c-30,0-54.4-24.4-54.4-54.4c0-30,24.4-54.4,54.4-54.4s54.4,24.4,54.4,54.4C796.6,839,772.2,863.4,742.2,863.4
			z M742.2,757.5c-28.4,0-51.5,23.1-51.5,51.5c0,28.4,23.1,51.5,51.5,51.5c28.4,0,51.5-23.1,51.5-51.5
			C793.7,780.6,770.6,757.5,742.2,757.5z"/>
	</g>
	<g>
		<g>
			<path d="M726.3,843.2c-0.8,0-1.4-0.6-1.4-1.4v-65.4c0-0.8,0.6-1.4,1.4-1.4c0.8,0,1.4,0.6,1.4,1.4v65.4
				C727.7,842.6,727.1,843.2,726.3,843.2z"/>
		</g>
		<g>
			<path d="M758,843.2c-0.8,0-1.4-0.6-1.4-1.4v-65.4c0-0.8,0.6-1.4,1.4-1.4c0.8,0,1.4,0.6,1.4,1.4v65.4
				C759.4,842.6,758.8,843.2,758,843.2z"/>
		</g>
		<g>
			<path d="M774.9,794.6h-65.4c-0.8,0-1.4-0.6-1.4-1.4c0-0.8,0.6-1.4,1.4-1.4h65.4c0.8,0,1.4,0.6,1.4,1.4
				C776.3,794,775.7,794.6,774.9,794.6z"/>
		</g>
		<g>
			<path d="M774.9,826.3h-65.4c-0.8,0-1.4-0.6-1.4-1.4c0-0.8,0.6-1.4,1.4-1.4h65.4c0.8,0,1.4,0.6,1.4,1.4
				C776.3,825.7,775.7,826.3,774.9,826.3z"/>
		</g>
	</g>
	<g>
		<g>
			<path d="M1045.9,818.9h-17.5c-0.8,0-1.4-0.6-1.4-1.4c0-0.8,0.6-1.4,1.4-1.4h17.5c0.8,0,1.4,0.6,1.4,1.4
				C1047.3,818.3,1046.7,818.9,1045.9,818.9z"/>
		</g>
		<g>
			<path d="M1037.1,827.7c-0.8,0-1.4-0.6-1.4-1.4v-17.5c0-0.8,0.6-1.4,1.4-1.4s1.4,0.6,1.4,1.4v17.5
				C1038.6,827,1037.9,827.7,1037.1,827.7z"/>
		</g>
	</g>
	<g>
		<g>
			<path d="M997.5,838.2h-17.9c-0.8,0-1.4-0.6-1.4-1.4c0-0.8,0.6-1.4,1.4-1.4h17.9c0.8,0,1.4,0.6,1.4,1.4
				C998.9,837.5,998.3,838.2,997.5,838.2z"/>
		</g>
		<g>
			<path d="M997.5,847.3h-17.9c-0.8,0-1.4-0.6-1.4-1.4c0-0.8,0.6-1.4,1.4-1.4h17.9c0.8,0,1.4,0.6,1.4,1.4
				C998.9,846.6,998.3,847.3,997.5,847.3z"/>
		</g>
	</g>
	<g>
		<path d="M1023.9,649c-0.4,0-0.7-0.1-1-0.4c-0.6-0.6-0.6-1.5,0-2l23.4-23.4c0.6-0.6,1.5-0.6,2,0s0.6,1.5,0,2l-23.4,23.4
			C1024.6,648.8,1024.2,649,1023.9,649z"/>
	</g>
	<g>
		<g>
			<path fill="#6D6E71" d="M230.6,132.5c57.4,0,104,17.3,104,38.6l0,15.2l74.6-40.5l-178.6-97L52,145.8l74.6,40.5v-15.2
				C126.6,149.8,173.2,132.5,230.6,132.5z"/>
			<path d="M126.6,187.7c-0.2,0-0.5-0.1-0.7-0.2L51.4,147c-0.5-0.3-0.7-0.7-0.7-1.3c0-0.5,0.3-1,0.7-1.3l178.6-97
				c0.4-0.2,0.9-0.2,1.4,0l178.6,97c0.5,0.2,0.7,0.7,0.7,1.3c0,0.5-0.3,1-0.7,1.3l-74.6,40.5c-0.4,0.2-1,0.2-1.4,0
				c-0.4-0.3-0.7-0.7-0.7-1.2l0-15.2c0-20.5-46-37.2-102.6-37.2c-27.6,0-53.6,4-73,11.2c-18.8,7-29.5,16.4-29.5,26v15.2
				c0,0.5-0.3,1-0.7,1.2C127.1,187.7,126.9,187.7,126.6,187.7z M55,145.8l70.2,38.1v-12.8c0-10.9,11.1-21.1,31.4-28.6
				c19.8-7.3,46.1-11.4,74-11.4c59.1,0,105.4,17.6,105.4,40l0,12.8l70.2-38.1L230.6,50.3L55,145.8z"/>
		</g>
		<g>
			<path fill="#5E5F61" d="M334.6,171.1c0-21.3-46.6-38.6-104-38.6c-57.4,0-104,17.3-104,38.6v15.2v45.1v1.7c0-0.6,0.1-1.2,0.1-1.7
				h207.7c0.1,0.6,0.1,1.2,0.1,1.7v-1.7l0-45.1L334.6,171.1z"/>
			<path d="M126.6,234.6c-0.8,0-1.4-0.6-1.4-1.4v-62.1c0-10.9,11.1-21.1,31.4-28.6c19.8-7.3,46.1-11.4,74-11.4
				c59.1,0,105.4,17.6,105.4,40l0,15.2l0,46.9c0,0.8-0.6,1.4-1.4,1.4c-0.8,0-1.4-0.6-1.4-1.4c0-0.1,0-0.2,0-0.3H128.1
				c0,0.1,0,0.2,0,0.3C128.1,233.9,127.4,234.6,126.6,234.6z M128.1,230h205.1l0-43.7l0-15.2c0-20.5-46-37.2-102.6-37.2
				c-27.6,0-53.6,4-73,11.2c-18.8,7-29.5,16.4-29.5,26V230z"/>
		</g>
		<g>
			<line fill="#FFFFFF" x1="123.5" y1="254.5" x2="337.7" y2="254.5"/>
			<path d="M337.7,256H123.5c-0.8,0-1.4-0.6-1.4-1.4c0-0.8,0.6-1.4,1.4-1.4h214.2c0.8,0,1.4,0.6,1.4,1.4
				C339.1,255.3,338.5,256,337.7,256z"/>
		</g>
		<g>
			<line fill="#FFFFFF" x1="334.6" y1="210.4" x2="210.8" y2="210.4"/>
			<path d="M334.6,211.9H210.8c-0.8,0-1.4-0.6-1.4-1.4s0.6-1.4,1.4-1.4h123.8c0.8,0,1.4,0.6,1.4,1.4S335.4,211.9,334.6,211.9z"/>
		</g>
		<g>
			<line fill="#FFFFFF" x1="334.6" y1="194.5" x2="258.9" y2="194.5"/>
			<path d="M334.6,196h-75.7c-0.8,0-1.4-0.6-1.4-1.4c0-0.8,0.6-1.4,1.4-1.4h75.7c0.8,0,1.4,0.6,1.4,1.4
				C336,195.3,335.4,196,334.6,196z"/>
		</g>
	</g>
	<g>
		<path fill="#FFFFFF" d="M337,434c0,18.9-15.3,34.2-34.2,34.2H144.4c-18.9,0-34.2-15.3-34.2-34.2v-95.7c0-18.9,15.3-34.2,34.2-34.2
			h158.4c18.9,0,34.2,15.3,34.2,34.2V434z"/>
		<path d="M302.9,469.5H144.4c-19.6,0-35.6-16-35.6-35.6v-95.7c0-19.6,16-35.6,35.6-35.6h158.4c19.6,0,35.6,16,35.6,35.6V434
			C338.4,453.6,322.5,469.5,302.9,469.5z M144.4,305.6c-18,0-32.7,14.7-32.7,32.7V434c0,18,14.7,32.7,32.7,32.7h158.4
			c18,0,32.7-14.7,32.7-32.7v-95.7c0-18-14.7-32.7-32.7-32.7H144.4z"/>
	</g>
	<g>
		<polygon fill="#FFEFA8" points="223.6,328.1 241.2,363.7 280.4,369.4 252,397.1 258.8,436.1 223.6,417.7 188.5,436.1 195.2,397.1 
			166.8,369.4 206.1,363.7 		"/>
		<path d="M258.8,437.6c-0.2,0-0.5-0.1-0.7-0.2l-34.4-18.1l-34.4,18.1c-0.5,0.3-1.1,0.2-1.5-0.1c-0.4-0.3-0.7-0.9-0.6-1.4l6.6-38.4
			l-27.9-27.2c-0.4-0.4-0.5-0.9-0.4-1.5c0.2-0.5,0.6-0.9,1.1-1l38.5-5.6l17.2-34.9c0.5-1,2.1-1,2.6,0l17.2,34.9l38.5,5.6
			c0.5,0.1,1,0.5,1.1,1c0.2,0.5,0,1.1-0.4,1.5l-27.9,27.2l6.6,38.4c0.1,0.5-0.1,1.1-0.6,1.4C259.3,437.5,259,437.6,258.8,437.6z
			 M223.6,416.3c0.2,0,0.5,0.1,0.7,0.2l32.6,17.1l-6.2-36.2c-0.1-0.5,0.1-0.9,0.4-1.3l26.3-25.7l-36.4-5.3c-0.5-0.1-0.9-0.4-1.1-0.8
			l-16.3-33l-16.3,33c-0.2,0.4-0.6,0.7-1.1,0.8l-36.4,5.3l26.3,25.7c0.3,0.3,0.5,0.8,0.4,1.3l-6.2,36.2l32.6-17.1
			C223.2,416.3,223.4,416.3,223.6,416.3z"/>
	</g>
	<g>
		<g>
			<g>
				<path fill="#FFFFFF" d="M191.4,490c-7.1,0-12.8-5.7-12.8-12.8v-66.9c0-7.1,5.7-12.8,12.8-12.8c7.1,0,12.8,5.7,12.8,12.8v66.9
					C204.2,484.2,198.5,490,191.4,490z"/>
				<path d="M191.4,491.4c-7.8,0-14.2-6.4-14.2-14.2v-66.9c0-7.8,6.4-14.2,14.2-14.2c7.8,0,14.2,6.4,14.2,14.2v66.9
					C205.6,485,199.3,491.4,191.4,491.4z M191.4,398.9c-6.3,0-11.4,5.1-11.4,11.4v66.9c0,6.3,5.1,11.4,11.4,11.4s11.4-5.1,11.4-11.4
					v-66.9C202.8,404,197.7,398.9,191.4,398.9z"/>
			</g>
		</g>
		<g>
			<path fill="#F1F2F2" d="M193.5,587.1l60.4,257.6l35.7,34.2l-63.6-304C217.1,582.1,205.8,586.6,193.5,587.1z"/>
			<path d="M289.6,880.3c-0.4,0-0.7-0.1-1-0.4L253,845.7c-0.2-0.2-0.3-0.4-0.4-0.7l-60.4-257.6c-0.1-0.4,0-0.8,0.3-1.2
				c0.3-0.3,0.7-0.5,1.1-0.6c11.7-0.4,22.6-4.6,31.7-11.9c0.4-0.3,0.9-0.4,1.4-0.2c0.5,0.2,0.8,0.6,0.9,1l63.6,304
				c0.1,0.6-0.2,1.2-0.7,1.5C290.1,880.2,289.8,880.3,289.6,880.3z M255.2,843.9l32,30.7l-62.2-297.3c-8.7,6.5-18.9,10.3-29.8,11
				L255.2,843.9z"/>
		</g>
		<g>
			<path fill="#F1F2F2" d="M93.2,878.9l35.7-34.2l60.4-257.6c-12.3-0.5-23.6-5-32.5-12.2L93.2,878.9z"/>
			<path d="M93.2,880.3c-0.2,0-0.5-0.1-0.7-0.2c-0.5-0.3-0.8-0.9-0.7-1.5l63.6-304c0.1-0.5,0.4-0.9,0.9-1c0.5-0.2,1-0.1,1.4,0.2
				c9.1,7.4,20,11.5,31.7,11.9c0.4,0,0.8,0.2,1.1,0.6c0.3,0.3,0.4,0.8,0.3,1.2L130.3,845c-0.1,0.3-0.2,0.5-0.4,0.7l-35.7,34.2
				C93.9,880.1,93.6,880.3,93.2,880.3z M157.7,577.4L95.5,874.7l32-30.7l60-255.5C176.7,587.7,166.4,583.9,157.7,577.4z"/>
		</g>
		<g>
			<path fill="#6D6E71" d="M191.4,477.2c-30.4,0-55,24.6-55,55c0,17.2,7.9,32.6,20.4,42.7c8.9,7.3,20.2,11.8,32.5,12.2
				c0.7,0,1.4,0.1,2.1,0.1c0.7,0,1.4,0,2.1-0.1c12.3-0.5,23.6-5,32.5-12.2c12.4-10.1,20.4-25.5,20.4-42.7
				C246.4,501.8,221.8,477.2,191.4,477.2z"/>
			<path d="M191.4,588.6c-0.7,0-1.3,0-2,0c-12.5-0.5-24-4.8-33.6-12.6c-13.3-10.8-20.9-26.7-20.9-43.8c0-31.1,25.3-56.4,56.4-56.4
				c31.1,0,56.4,25.3,56.4,56.4c0,17.1-7.6,33-20.9,43.8c-9.5,7.7-21.1,12.1-33.4,12.5C192.7,588.5,192.1,588.6,191.4,588.6z
				 M191.4,478.6c-29.5,0-53.6,24-53.6,53.6c0,16.2,7.2,31.4,19.8,41.6c9.1,7.4,20,11.5,31.7,11.9c1.6,0.1,2.7,0.1,3.9,0
				c11.9-0.5,22.8-4.6,31.9-11.9c12.6-10.2,19.8-25.4,19.8-41.6C245,502.6,220.9,478.6,191.4,478.6z"/>
		</g>
		<g>
			<line fill="#FFFFFF" x1="88.1" y1="746.4" x2="120.9" y2="746.4"/>
			<path d="M120.9,747.8H88.1c-0.8,0-1.4-0.6-1.4-1.4s0.6-1.4,1.4-1.4h32.8c0.8,0,1.4,0.6,1.4,1.4S121.7,747.8,120.9,747.8z"/>
		</g>
		<g>
			<line fill="#FFFFFF" x1="261.6" y1="746.4" x2="294.4" y2="746.4"/>
			<path d="M294.4,747.8h-32.8c-0.8,0-1.4-0.6-1.4-1.4s0.6-1.4,1.4-1.4h32.8c0.8,0,1.4,0.6,1.4,1.4S295.2,747.8,294.4,747.8z"/>
		</g>
		<g>
			<line fill="#FFFFFF" x1="152.2" y1="746.4" x2="183.5" y2="746.4"/>
			<path d="M183.5,747.8h-31.3c-0.8,0-1.4-0.6-1.4-1.4s0.6-1.4,1.4-1.4h31.3c0.8,0,1.4,0.6,1.4,1.4S184.3,747.8,183.5,747.8z"/>
		</g>
		<g>
			<line fill="#FFFFFF" x1="199.4" y1="746.4" x2="230.6" y2="746.4"/>
			<path d="M230.6,747.8h-31.3c-0.8,0-1.4-0.6-1.4-1.4s0.6-1.4,1.4-1.4h31.3c0.8,0,1.4,0.6,1.4,1.4S231.4,747.8,230.6,747.8z"/>
		</g>
		<g>
			<rect x="183.5" y="708.2" fill="#FFEFA8" width="15.9" height="76.4"/>
			<path d="M199.4,786h-15.9c-0.8,0-1.4-0.6-1.4-1.4v-76.4c0-0.8,0.6-1.4,1.4-1.4h15.9c0.8,0,1.4,0.6,1.4,1.4v76.4
				C200.8,785.3,200.1,786,199.4,786z M184.9,783.1h13v-73.5h-13V783.1z"/>
		</g>
		<g>
			<path fill="#F1F2F2" d="M217.4,532.1c0,14.4-11.6,26-26,26c-14.4,0-26-11.6-26-26c0-14.4,11.6-26,26-26
				C205.8,506.1,217.4,517.8,217.4,532.1z"/>
			<path d="M191.4,559.6c-15.1,0-27.4-12.3-27.4-27.4s12.3-27.4,27.4-27.4c15.1,0,27.4,12.3,27.4,27.4S206.5,559.6,191.4,559.6z
				 M191.4,507.6c-13.6,0-24.6,11-24.6,24.6c0,13.6,11,24.6,24.6,24.6c13.6,0,24.6-11,24.6-24.6C216,518.6,205,507.6,191.4,507.6z"
				/>
		</g>
		<g>
			<line fill="#FFFFFF" x1="93.2" y1="878.9" x2="93.2" y2="909.6"/>
			<path d="M93.2,911c-0.8,0-1.4-0.6-1.4-1.4v-30.8c0-0.8,0.6-1.4,1.4-1.4c0.8,0,1.4,0.6,1.4,1.4v30.8C94.6,910.4,94,911,93.2,911z"
				/>
		</g>
		<g>
			<line fill="#FFFFFF" x1="289.6" y1="878.9" x2="289.6" y2="909.6"/>
			<path d="M289.6,911c-0.8,0-1.4-0.6-1.4-1.4v-30.8c0-0.8,0.6-1.4,1.4-1.4c0.8,0,1.4,0.6,1.4,1.4v30.8
				C291,910.4,290.4,911,289.6,911z"/>
		</g>
	</g>
	<g>
		<rect x="1067.8" y="640" fill="#FFEFA8" width="240.4" height="26.6"/>
		<path d="M1308.2,668h-240.4c-0.8,0-1.4-0.6-1.4-1.4V640c0-0.8,0.6-1.4,1.4-1.4h240.4c0.8,0,1.4,0.6,1.4,1.4v26.6
			C1309.6,667.3,1309,668,1308.2,668z M1069.2,665.1h237.6v-23.7h-237.6V665.1z"/>
	</g>
	<g>
		<rect x="1067.8" y="694" fill="#FFEFA8" width="200.3" height="26.6"/>
		<path d="M1268.1,722.1h-200.3c-0.8,0-1.4-0.6-1.4-1.4V694c0-0.8,0.6-1.4,1.4-1.4h200.3c0.8,0,1.4,0.6,1.4,1.4v26.6
			C1269.5,721.5,1268.9,722.1,1268.1,722.1z M1069.2,719.2h197.5v-23.8h-197.5V719.2z"/>
	</g>
	<g>
		<path fill="#FFFFFF" d="M1296,858.8l-68.6-157.6v-83.3h-22.3h-22.3v83.3l-68.6,157.6c0,0-6.5,21,13.5,21h77.4h77.4
			C1302.5,879.8,1296,858.8,1296,858.8z"/>
		<path d="M1282.5,881.2h-154.8c-6,0-10.5-1.8-13.1-5.4c-4.9-6.7-1.8-16.9-1.7-17.3l68.5-157.5v-83c0-0.8,0.6-1.4,1.4-1.4h44.6
			c0.8,0,1.4,0.6,1.4,1.4v83l68.5,157.4c0.2,0.6,3.3,10.8-1.7,17.5C1293,879.4,1288.6,881.2,1282.5,881.2z M1115.5,859.4
			c0,0-2.7,9.2,1.3,14.7c2.1,2.8,5.7,4.3,10.8,4.3h154.8c5.1,0,8.7-1.4,10.8-4.3c4.1-5.5,1.3-14.7,1.3-14.8l-68.5-157.5
			c-0.1-0.2-0.1-0.4-0.1-0.6v-81.9h-41.7v81.9c0,0.2,0,0.4-0.1,0.6L1115.5,859.4C1115.5,859.4,1115.5,859.4,1115.5,859.4z"/>
	</g>
	<g>
		<polygon fill="#C0B7FF" points="1168.1,785.1 1135.6,859.8 1274.7,859.8 1242.1,785.1 		"/>
		<path d="M1274.7,861.2h-139.1c-0.5,0-0.9-0.2-1.2-0.6c-0.3-0.4-0.3-0.9-0.1-1.3l32.5-74.7c0.2-0.5,0.7-0.9,1.3-0.9h74
			c0.6,0,1.1,0.3,1.3,0.9l32.5,74.7c0.2,0.4,0.2,0.9-0.1,1.3C1275.6,861,1275.1,861.2,1274.7,861.2z M1137.7,858.4h134.7l-31.3-71.9
			H1169L1137.7,858.4z"/>
	</g>
	<g>
		<rect x="1172.9" y="594.7" fill="#808285" width="62.5" height="23.2"/>
		<path d="M1235.5,619.3h-62.5c-0.8,0-1.4-0.6-1.4-1.4v-23.2c0-0.8,0.6-1.4,1.4-1.4h62.5c0.8,0,1.4,0.6,1.4,1.4v23.2
			C1236.9,618.7,1236.2,619.3,1235.5,619.3z M1174.4,616.5h59.7v-20.4h-59.7V616.5z"/>
	</g>
	<g>
		<path d="M1242.1,786.5h-74c-0.8,0-1.4-0.6-1.4-1.4c0-0.8,0.6-1.4,1.4-1.4h74c0.8,0,1.4,0.6,1.4,1.4
			C1243.6,785.9,1242.9,786.5,1242.1,786.5z"/>
	</g>
	<g>
		<path d="M1294.2,556.2c-0.8,0-1.4-0.6-1.4-1.4V333.6c0-0.8,0.6-1.4,1.4-1.4c0.8,0,1.4,0.6,1.4,1.4v221.1
			C1295.6,555.5,1295,556.2,1294.2,556.2z"/>
	</g>
	<g>
		<path d="M1273.8,556.2c-0.8,0-1.4-0.6-1.4-1.4v-141c0-0.8,0.6-1.4,1.4-1.4s1.4,0.6,1.4,1.4v141
			C1275.2,555.5,1274.6,556.2,1273.8,556.2z"/>
	</g>
	<g>
		<path d="M948.4,312.3c-0.8,0-1.4-0.6-1.4-1.4v-82.5c0-0.8,0.6-1.4,1.4-1.4c0.8,0,1.4,0.6,1.4,1.4v82.5
			C949.8,311.6,949.2,312.3,948.4,312.3z"/>
	</g>
	<g>
		<path d="M969.8,312.3c-0.8,0-1.4-0.6-1.4-1.4v-32.3c0-0.8,0.6-1.4,1.4-1.4c0.8,0,1.4,0.6,1.4,1.4v32.3
			C971.2,311.6,970.6,312.3,969.8,312.3z"/>
	</g>
	<g>
		<rect x="500.3" y="118.4" fill="#C0B7FF" width="190.1" height="22.2"/>
	</g>
	<g>
		<rect x="730.8" y="118.4" fill="#C0B7FF" width="45.9" height="22.2"/>
	</g>
	<g>
		<g>
			<polygon fill="#6D6E71" points="445.5,118.4 466.1,130.9 466.1,105.8 			"/>
			<path d="M466.1,132.3c-0.3,0-0.5-0.1-0.7-0.2l-20.6-12.5c-0.4-0.3-0.7-0.7-0.7-1.2c0-0.5,0.3-1,0.7-1.2l20.6-12.5
				c0.4-0.3,1-0.3,1.4,0c0.4,0.3,0.7,0.7,0.7,1.2v25c0,0.5-0.3,1-0.7,1.2C466.6,132.2,466.3,132.3,466.1,132.3z M448.2,118.4
				l16.4,10v-20L448.2,118.4z"/>
		</g>
		<g>
			<rect x="831" y="93.9" fill="#FF826C" width="27.4" height="48.9"/>
			<path d="M858.4,144.2H831c-0.8,0-1.4-0.6-1.4-1.4V93.9c0-0.8,0.6-1.4,1.4-1.4h27.4c0.8,0,1.4,0.6,1.4,1.4v48.9
				C859.8,143.6,859.2,144.2,858.4,144.2z M832.4,141.4H857v-46h-24.5V141.4z"/>
		</g>
		<g>
			<path d="M500.3,153.1C500.3,153.1,500.2,153.1,500.3,153.1L500.3,153.1C500.2,153.1,500.2,153.1,500.3,153.1
				c-0.3,0-0.5-0.1-0.8-0.2l-34.2-20.8c-0.4-0.3-0.7-0.7-0.7-1.2v-25c0-0.5,0.3-1,0.7-1.2l34.2-20.8c0.2-0.1,0.5-0.2,0.7-0.2H831
				c0.8,0,1.4,0.6,1.4,1.4v66.6c0,0.8-0.6,1.4-1.4,1.4H500.3C500.3,153.1,500.3,153.1,500.3,153.1z M501.7,150.2h327.9V86.5H500.7
				l-33.2,20.1v23.4l31.3,19v-30.8c0-0.8,0.6-1.4,1.4-1.4H706c0.8,0,1.4,0.6,1.4,1.4c0,0.8-0.6,1.4-1.4,1.4H501.7V150.2z"/>
		</g>
		<g>
			<path d="M784.8,119.8h-54c-0.8,0-1.4-0.6-1.4-1.4s0.6-1.4,1.4-1.4h54c0.8,0,1.4,0.6,1.4,1.4S785.6,119.8,784.8,119.8z"/>
		</g>
	</g>
	<g>
		<rect x="445.5" y="203" fill="#F1F2F2" width="427" height="15"/>
	</g>
	<g>
		<g>
			<path d="M885.6,273.8H409.3c-5.5,0-10-4.5-10-10v-61.5c0-5.5,4.5-10,10-10h476.3c5.5,0,10,4.5,10,10v61.5
				C895.6,269.3,891.1,273.8,885.6,273.8z M409.3,195.2c-3.9,0-7.1,3.2-7.1,7.1v61.5c0,3.9,3.2,7.1,7.1,7.1h476.3
				c3.9,0,7.1-3.2,7.1-7.1v-61.5c0-3.9-3.2-7.1-7.1-7.1H409.3z"/>
		</g>
		<g>
			<circle fill="#FFFFFF" cx="425.9" cy="233" r="10.4"/>
			<path d="M425.9,244.8c-6.5,0-11.8-5.3-11.8-11.8c0-6.5,5.3-11.8,11.8-11.8c6.5,0,11.8,5.3,11.8,11.8
				C437.7,239.5,432.4,244.8,425.9,244.8z M425.9,224.1c-4.9,0-8.9,4-8.9,8.9s4,8.9,8.9,8.9c4.9,0,8.9-4,8.9-8.9
				S430.9,224.1,425.9,224.1z"/>
		</g>
		<g>
			<path d="M468.4,234.5c-0.8,0-1.4-0.6-1.4-1.4V203c0-0.8,0.6-1.4,1.4-1.4c0.8,0,1.4,0.6,1.4,1.4V233
				C469.8,233.8,469.2,234.5,468.4,234.5z"/>
		</g>
		<g>
			<path d="M493.6,219.4c-0.8,0-1.4-0.6-1.4-1.4v-15c0-0.8,0.6-1.4,1.4-1.4c0.8,0,1.4,0.6,1.4,1.4v15
				C495,218.8,494.4,219.4,493.6,219.4z"/>
		</g>
		<g>
			<path d="M518.9,234.5c-0.8,0-1.4-0.6-1.4-1.4V203c0-0.8,0.6-1.4,1.4-1.4c0.8,0,1.4,0.6,1.4,1.4V233
				C520.3,233.8,519.7,234.5,518.9,234.5z"/>
		</g>
		<g>
			<path d="M544.1,219.4c-0.8,0-1.4-0.6-1.4-1.4v-15c0-0.8,0.6-1.4,1.4-1.4c0.8,0,1.4,0.6,1.4,1.4v15
				C545.6,218.8,544.9,219.4,544.1,219.4z"/>
		</g>
		<g>
			<path d="M569.4,234.5c-0.8,0-1.4-0.6-1.4-1.4V203c0-0.8,0.6-1.4,1.4-1.4s1.4,0.6,1.4,1.4V233
				C570.8,233.8,570.2,234.5,569.4,234.5z"/>
		</g>
		<g>
			<path d="M594.7,219.4c-0.8,0-1.4-0.6-1.4-1.4v-15c0-0.8,0.6-1.4,1.4-1.4s1.4,0.6,1.4,1.4v15C596.1,218.8,595.4,219.4,594.7,219.4
				z"/>
		</g>
		<g>
			<path d="M619.9,234.5c-0.8,0-1.4-0.6-1.4-1.4V203c0-0.8,0.6-1.4,1.4-1.4c0.8,0,1.4,0.6,1.4,1.4V233
				C621.3,233.8,620.7,234.5,619.9,234.5z"/>
		</g>
		<g>
			<path d="M645.2,219.4c-0.8,0-1.4-0.6-1.4-1.4v-15c0-0.8,0.6-1.4,1.4-1.4c0.8,0,1.4,0.6,1.4,1.4v15
				C646.6,218.8,646,219.4,645.2,219.4z"/>
		</g>
		<g>
			<path d="M670.4,234.5c-0.8,0-1.4-0.6-1.4-1.4V203c0-0.8,0.6-1.4,1.4-1.4c0.8,0,1.4,0.6,1.4,1.4V233
				C671.9,233.8,671.2,234.5,670.4,234.5z"/>
		</g>
		<g>
			<path d="M695.7,219.4c-0.8,0-1.4-0.6-1.4-1.4v-15c0-0.8,0.6-1.4,1.4-1.4c0.8,0,1.4,0.6,1.4,1.4v15
				C697.1,218.8,696.5,219.4,695.7,219.4z"/>
		</g>
		<g>
			<path d="M720.9,234.5c-0.8,0-1.4-0.6-1.4-1.4V203c0-0.8,0.6-1.4,1.4-1.4s1.4,0.6,1.4,1.4V233
				C722.4,233.8,721.7,234.5,720.9,234.5z"/>
		</g>
		<g>
			<path d="M746.2,219.4c-0.8,0-1.4-0.6-1.4-1.4v-15c0-0.8,0.6-1.4,1.4-1.4c0.8,0,1.4,0.6,1.4,1.4v15
				C747.6,218.8,747,219.4,746.2,219.4z"/>
		</g>
		<g>
			<path d="M771.5,234.5c-0.8,0-1.4-0.6-1.4-1.4V203c0-0.8,0.6-1.4,1.4-1.4c0.8,0,1.4,0.6,1.4,1.4V233
				C772.9,233.8,772.2,234.5,771.5,234.5z"/>
		</g>
		<g>
			<path d="M796.7,219.4c-0.8,0-1.4-0.6-1.4-1.4v-15c0-0.8,0.6-1.4,1.4-1.4c0.8,0,1.4,0.6,1.4,1.4v15
				C798.1,218.8,797.5,219.4,796.7,219.4z"/>
		</g>
		<g>
			<path d="M822,234.5c-0.8,0-1.4-0.6-1.4-1.4V203c0-0.8,0.6-1.4,1.4-1.4c0.8,0,1.4,0.6,1.4,1.4V233
				C823.4,233.8,822.8,234.5,822,234.5z"/>
		</g>
		<g>
			<path d="M847.2,219.4c-0.8,0-1.4-0.6-1.4-1.4v-15c0-0.8,0.6-1.4,1.4-1.4c0.8,0,1.4,0.6,1.4,1.4v15
				C848.7,218.8,848,219.4,847.2,219.4z"/>
		</g>
		<g>
			<path d="M872.5,234.5c-0.8,0-1.4-0.6-1.4-1.4V203c0-0.8,0.6-1.4,1.4-1.4c0.8,0,1.4,0.6,1.4,1.4V233
				C873.9,233.8,873.3,234.5,872.5,234.5z"/>
		</g>
	</g>
	<g>
		<path fill="#FFFFFF" d="M343.8,530.5v351.9h312.3L343.8,530.5z M399,675.9l134.3,151.4H399V675.9z"/>
		<path d="M656.1,883.9H343.8c-0.8,0-1.4-0.6-1.4-1.4V530.5c0-0.6,0.4-1.1,0.9-1.3c0.6-0.2,1.2-0.1,1.6,0.4l312.3,351.9
			c0.4,0.4,0.5,1,0.2,1.5C657.2,883.6,656.7,883.9,656.1,883.9z M345.3,881.1H653L345.3,534.3V881.1z M533.4,828.7H399
			c-0.8,0-1.4-0.6-1.4-1.4V675.9c0-0.6,0.4-1.1,0.9-1.3c0.6-0.2,1.2-0.1,1.6,0.4l134.3,151.4c0.4,0.4,0.5,1,0.2,1.5
			C534.4,828.4,533.9,828.7,533.4,828.7z M400.5,825.9h129.7L400.5,679.7V825.9z"/>
	</g>
	<g>
		<rect x="343.8" y="578.3" fill="#F1F2F2" width="18" height="284.1"/>
	</g>
	<g>
		<line fill="#FFFFFF" x1="343.8" y1="852.6" x2="364.9" y2="852.6"/>
		<path d="M364.9,854h-21.1c-0.8,0-1.4-0.6-1.4-1.4c0-0.8,0.6-1.4,1.4-1.4h21.1c0.8,0,1.4,0.6,1.4,1.4
			C366.3,853.4,365.7,854,364.9,854z"/>
	</g>
	<g>
		<line fill="#FFFFFF" x1="343.8" y1="821" x2="364.9" y2="821"/>
		<path d="M364.9,822.4h-21.1c-0.8,0-1.4-0.6-1.4-1.4c0-0.8,0.6-1.4,1.4-1.4h21.1c0.8,0,1.4,0.6,1.4,1.4
			C366.3,821.8,365.7,822.4,364.9,822.4z"/>
	</g>
	<g>
		<line fill="#FFFFFF" x1="343.8" y1="789.5" x2="364.9" y2="789.5"/>
		<path d="M364.9,790.9h-21.1c-0.8,0-1.4-0.6-1.4-1.4c0-0.8,0.6-1.4,1.4-1.4h21.1c0.8,0,1.4,0.6,1.4,1.4
			C366.3,790.3,365.7,790.9,364.9,790.9z"/>
	</g>
	<g>
		<line fill="#FFFFFF" x1="343.8" y1="757.9" x2="364.9" y2="757.9"/>
		<path d="M364.9,759.3h-21.1c-0.8,0-1.4-0.6-1.4-1.4c0-0.8,0.6-1.4,1.4-1.4h21.1c0.8,0,1.4,0.6,1.4,1.4
			C366.3,758.7,365.7,759.3,364.9,759.3z"/>
	</g>
	<g>
		<line fill="#FFFFFF" x1="343.8" y1="726.4" x2="364.9" y2="726.4"/>
		<path d="M364.9,727.8h-21.1c-0.8,0-1.4-0.6-1.4-1.4c0-0.8,0.6-1.4,1.4-1.4h21.1c0.8,0,1.4,0.6,1.4,1.4
			C366.3,727.1,365.7,727.8,364.9,727.8z"/>
	</g>
	<g>
		<line fill="#FFFFFF" x1="343.8" y1="694.8" x2="364.9" y2="694.8"/>
		<path d="M364.9,696.2h-21.1c-0.8,0-1.4-0.6-1.4-1.4s0.6-1.4,1.4-1.4h21.1c0.8,0,1.4,0.6,1.4,1.4S365.7,696.2,364.9,696.2z"/>
	</g>
	<g>
		<line fill="#FFFFFF" x1="343.8" y1="663.2" x2="364.9" y2="663.2"/>
		<path d="M364.9,664.7h-21.1c-0.8,0-1.4-0.6-1.4-1.4c0-0.8,0.6-1.4,1.4-1.4h21.1c0.8,0,1.4,0.6,1.4,1.4
			C366.3,664,365.7,664.7,364.9,664.7z"/>
	</g>
	<g>
		<line fill="#FFFFFF" x1="343.8" y1="631.7" x2="364.9" y2="631.7"/>
		<path d="M364.9,633.1h-21.1c-0.8,0-1.4-0.6-1.4-1.4c0-0.8,0.6-1.4,1.4-1.4h21.1c0.8,0,1.4,0.6,1.4,1.4
			C366.3,632.5,365.7,633.1,364.9,633.1z"/>
	</g>
	<g>
		<line fill="#FFFFFF" x1="343.8" y1="600.1" x2="364.9" y2="600.1"/>
		<path d="M364.9,601.6h-21.1c-0.8,0-1.4-0.6-1.4-1.4s0.6-1.4,1.4-1.4h21.1c0.8,0,1.4,0.6,1.4,1.4S365.7,601.6,364.9,601.6z"/>
	</g>
	<g>
		<path d="M656.1,883.9H343.8c-0.8,0-1.4-0.6-1.4-1.4V530.5c0-0.6,0.4-1.1,0.9-1.3c0.6-0.2,1.2-0.1,1.6,0.4l312.3,351.9
			c0.4,0.4,0.5,1,0.2,1.5C657.2,883.6,656.7,883.9,656.1,883.9z M345.3,881.1H653L345.3,534.3V881.1z M533.4,828.7H399
			c-0.8,0-1.4-0.6-1.4-1.4V675.9c0-0.6,0.4-1.1,0.9-1.3c0.6-0.2,1.2-0.1,1.6,0.4l134.3,151.4c0.4,0.4,0.5,1,0.2,1.5
			C534.4,828.4,533.9,828.7,533.4,828.7z M400.5,825.9h129.7L400.5,679.7V825.9z"/>
	</g>
	<g>
		<path d="M128.8,786c-0.1,0-0.2,0-0.3,0c-0.8-0.2-1.2-0.9-1.1-1.7l46.1-200c0.2-0.8,0.9-1.2,1.7-1.1c0.8,0.2,1.2,0.9,1.1,1.7
			l-46.1,200C130,785.5,129.4,786,128.8,786z"/>
	</g>
	<g>
		<path d="M1249.2,802.8h-48c-0.8,0-1.4-0.6-1.4-1.4s0.6-1.4,1.4-1.4h48c0.8,0,1.4,0.6,1.4,1.4S1250,802.8,1249.2,802.8z"/>
	</g>
	<g>
		<path d="M1260.8,829.4H1177c-0.8,0-1.4-0.6-1.4-1.4s0.6-1.4,1.4-1.4h83.7c0.8,0,1.4,0.6,1.4,1.4S1261.6,829.4,1260.8,829.4z"/>
	</g>
</g>
</svg>
