<?xml version="1.0" standalone="no"?>
<!DOCTYPE svg PUBLIC "-//W3C//DTD SVG 20010904//EN"
 "http://www.w3.org/TR/2001/REC-SVG-20010904/DTD/svg10.dtd">
<svg version="1.0" xmlns="http://www.w3.org/2000/svg"
 width="830.000000pt" height="830.000000pt" viewBox="0 0 830.000000 830.000000"
 preserveAspectRatio="xMidYMid meet">
<metadata>
Created by potrace 1.16, written by Peter Selinger 2001-2019
</metadata>
<g transform="translate(0.000000,830.000000) scale(0.100000,-0.100000)"
fill="#000000" stroke="none">
<path d="M0 4150 l0 -4150 4150 0 4150 0 0 4150 0 4150 -4150 0 -4150 0 0
-4150z m4568 3251 c709 -93 1351 -402 1866 -901 480 -465 810 -1075 936 -1731
44 -230 54 -345 54 -619 0 -319 -25 -527 -95 -804 -140 -555 -457 -1116 -846
-1498 l-58 -58 -248 330 -248 329 71 107 c208 312 293 630 260 981 -32 351
-169 638 -413 869 -111 105 -209 170 -402 264 -233 114 -622 252 -947 337
l-68 17 0 493 0 494 23 -12 c61 -33 157 -103 199 -146 54 -55 121 -168 169
-284 l33 -81 46 7 c25 3 268 42 540 85 272 43 534 84 583 91 80 12 87 15 87
36 0 41 -77 257 -128 358 -131 261 -359 489 -617 618 -219 109 -534 188 -847
212 l-88 7 0 169 0 169 -250 0 -250 0 0 -169 0 -168 -92 -7 c-369 -28 -719
-131 -952 -280 -32 -20 -59 -36 -61 -34 -1 2 -71 95 -154 207 -117 156 -150
206 -139 213 7 5 90 47 183 93 372 184 776 293 1200 325 160 12 483 3 653 -19z
m-2457 -1175 l220 -295 -20 -65 c-43 -141 -55 -232 -55 -431 1 -200 15 -303
64 -455 99 -306 372 -611 666 -746 152 -70 336 -136 612 -219 117 -36 214 -65
216 -65 2 0 29 -33 60 -74 l56 -73 0 -543 c0 -512 -1 -542 -17 -536 -57 21
-186 111 -249 172 -58 57 -81 89 -118 165 -46 96 -83 210 -107 332 -11 59 -15
67 -35 67 -13 0 -213 -22 -446 -50 -233 -27 -530 -62 -661 -77 l-239 -27 6
-47 c17 -126 91 -359 161 -504 170 -352 507 -652 900 -800 164 -61 508 -134
717 -151 l88 -7 2 -321 3 -321 248 -3 247 -2 0 323 0 324 123 7 c232 12 471
59 657 129 52 20 98 33 101 29 4 -4 114 -150 245 -326 228 -304 237 -319 219
-333 -42 -31 -296 -153 -430 -206 -764 -301 -1624 -301 -2390 0 -1402 551
-2249 1982 -2055 3473 79 605 314 1158 697 1635 76 94 278 315 289 315 2 0
103 -132 225 -294z m1815 -1063 c-16 -16 -61 34 -212 237 l-172 229 10 52 c26
144 122 244 305 318 l68 28 3 -430 c1 -237 0 -432 -2 -434z m644 -2213 l130
-174 -34 -18 c-34 -18 -158 -60 -208 -72 l-28 -6 0 226 c0 125 2 225 5 222 3
-2 63 -83 135 -178z"/>
</g>
</svg>
