<?xml version="1.0" encoding="utf-8"?>
<!-- Generator: Adobe Illustrator 16.0.0, SVG Export Plug-In . SVG Version: 6.00 Build 0)  -->
<!DOCTYPE svg PUBLIC "-//W3C//DTD SVG 1.1//EN" "http://www.w3.org/Graphics/SVG/1.1/DTD/svg11.dtd">
<svg version="1.1" id="Layer_1" xmlns="http://www.w3.org/2000/svg" xmlns:xlink="http://www.w3.org/1999/xlink" x="0px" y="0px"
	 width="1400px" height="980px" viewBox="0 0 1400 980" enable-background="new 0 0 1400 980" xml:space="preserve">
<g>
	<g>
		<rect fill="#FFFFFF" width="1400" height="980"/>
	</g>
	<g>
		<g>
			<path d="M186.6,604.5h-54.2c-1,0-1.9-0.8-1.9-1.9v-81.2c0-1,0.8-1.9,1.9-1.9h54.2c1,0,1.9,0.8,1.9,1.9v81.2
				C188.5,603.7,187.6,604.5,186.6,604.5z M134.3,600.8h50.4v-77.4h-50.4V600.8z"/>
		</g>
		<g>
			<path fill="#C4D1FF" d="M132.4,706.6c0,15,12.1,27.1,27.1,27.1c15,0,27.1-12.1,27.1-27.1V602.6h-54.2V706.6z"/>
			<path d="M159.5,735.6c-16,0-29-13-29-29V602.6c0-1,0.8-1.9,1.9-1.9h54.2c1,0,1.9,0.8,1.9,1.9v103.9
				C188.5,722.6,175.5,735.6,159.5,735.6z M134.3,604.5v102.1c0,13.9,11.3,25.2,25.2,25.2c13.9,0,25.2-11.3,25.2-25.2V604.5H134.3z"
				/>
		</g>
		<g>
			<path fill="#FFF6C8" d="M254.9,563.9v142.7c0,15,12.1,27.1,27.1,27.1c15,0,27.1-12.1,27.1-27.1V563.9H254.9z"/>
			<path d="M282,735.6c-16,0-29-13-29-29V563.9c0-1,0.8-1.9,1.9-1.9h54.2c1,0,1.9,0.8,1.9,1.9v142.7C311,722.6,298,735.6,282,735.6z
				 M256.8,565.8v140.8c0,13.9,11.3,25.2,25.2,25.2s25.2-11.3,25.2-25.2V565.8H256.8z"/>
		</g>
		<g>
			<path d="M309.1,565.8h-54.2c-1,0-1.9-0.8-1.9-1.9v-42.5c0-1,0.8-1.9,1.9-1.9h54.2c1,0,1.9,0.8,1.9,1.9v42.5
				C311,565,310.1,565.8,309.1,565.8z M256.8,562h50.4v-38.7h-50.4V562z"/>
		</g>
	</g>
	<g>
		<rect x="381.9" y="75.7" fill="#C4D1FF" width="636.2" height="347.2"/>
		<path d="M1018.1,424.8H381.9c-1,0-1.9-0.8-1.9-1.9V75.7c0-1,0.8-1.9,1.9-1.9h636.2c1,0,1.9,0.8,1.9,1.9v347.2
			C1020,423.9,1019.2,424.8,1018.1,424.8z M383.8,421h632.5V77.6H383.8V421z"/>
	</g>
	<g>
		<path d="M1018.1,498.1H381.9c-1,0-1.9-0.8-1.9-1.9v-73.3c0-1,0.8-1.9,1.9-1.9h636.2c1,0,1.9,0.8,1.9,1.9v73.3
			C1020,497.3,1019.2,498.1,1018.1,498.1z M383.8,494.4h632.5v-69.6H383.8V494.4z"/>
	</g>
	<g>
		<path d="M702.2,305.6c-80.2,0-143-24.7-143-56.2c0-31.5,62.8-56.2,143-56.2c80.2,0,143,24.7,143,56.2
			C845.2,280.9,782.4,305.6,702.2,305.6z M702.2,196.9c-76.8,0-139.2,23.5-139.2,52.4c0,28.9,62.4,52.4,139.2,52.4
			c76.8,0,139.2-23.5,139.2-52.4C841.5,220.5,779,196.9,702.2,196.9z"/>
	</g>
	<g>
		<path d="M760.9,376.5c-29.5,0-73.6-40.7-107.3-99c-40.1-69.4-50.1-136.2-22.8-151.9c3.7-2.2,8.1-3.3,12.9-3.3
			c29.5,0,73.6,40.7,107.3,99c40.1,69.4,50.1,136.2,22.8,151.9C770,375.4,765.7,376.5,760.9,376.5z M643.6,126.1
			c-4.1,0-7.8,0.9-11,2.8c-25,14.5-14.2,80.3,24.2,146.8c32.5,56.3,76.2,97.1,104,97.1c4.1,0,7.8-0.9,11-2.8
			c25-14.5,14.2-80.3-24.2-146.8C715.2,166.9,671.4,126.1,643.6,126.1z"/>
	</g>
	<g>
		<path d="M643.6,376.5c-4.8,0-9.1-1.1-12.9-3.3c-27.3-15.8-17.3-82.5,22.8-151.9c33.6-58.3,77.8-99,107.3-99
			c4.8,0,9.1,1.1,12.9,3.3C801,141.3,791,208,750.9,277.5C717.3,335.7,673.1,376.5,643.6,376.5z M760.9,126.1
			c-27.8,0-71.5,40.8-104,97.1c-38.4,66.5-49.2,132.3-24.2,146.8c3.2,1.8,6.9,2.8,11,2.8c27.8,0,71.5-40.8,104-97.1
			c38.4-66.5,49.2-132.3,24.2-146.8C768.7,127,765,126.1,760.9,126.1z"/>
	</g>
	<g>
		<circle fill="#FF8F81" cx="772.8" cy="371.6" r="20.8"/>
		<path d="M772.8,394.3c-12.5,0-22.7-10.2-22.7-22.7s10.2-22.7,22.7-22.7c12.5,0,22.7,10.2,22.7,22.7S785.3,394.3,772.8,394.3z
			 M772.8,352.6c-10.4,0-18.9,8.5-18.9,18.9s8.5,18.9,18.9,18.9c10.4,0,18.9-8.5,18.9-18.9S783.2,352.6,772.8,352.6z"/>
	</g>
	<g>
		<circle fill="#FF8F81" cx="772.8" cy="127.8" r="20.8"/>
		<path d="M772.8,150.5c-12.5,0-22.7-10.2-22.7-22.7c0-12.5,10.2-22.7,22.7-22.7c12.5,0,22.7,10.2,22.7,22.7
			C795.5,140.3,785.3,150.5,772.8,150.5z M772.8,108.9c-10.4,0-18.9,8.5-18.9,18.9c0,10.4,8.5,18.9,18.9,18.9
			c10.4,0,18.9-8.5,18.9-18.9C791.7,117.4,783.2,108.9,772.8,108.9z"/>
	</g>
	<g>
		<circle fill="#FF8F81" cx="561.1" cy="249.4" r="20.8"/>
		<path d="M561.1,272.1c-12.5,0-22.7-10.2-22.7-22.7c0-12.5,10.2-22.7,22.7-22.7s22.7,10.2,22.7,22.7
			C583.8,261.9,573.7,272.1,561.1,272.1z M561.1,230.4c-10.4,0-18.9,8.5-18.9,18.9c0,10.4,8.5,18.9,18.9,18.9
			c10.4,0,18.9-8.5,18.9-18.9C580.1,238.9,571.6,230.4,561.1,230.4z"/>
	</g>
	<g>
		<rect x="682.2" y="441.8" fill="#BCBEC0" width="35.6" height="35.6"/>
		<path d="M717.8,479.2h-35.6c-1,0-1.9-0.8-1.9-1.9v-35.6c0-1,0.8-1.9,1.9-1.9h35.6c1,0,1.9,0.8,1.9,1.9v35.6
			C719.7,478.4,718.8,479.2,717.8,479.2z M684.1,475.5h31.8v-31.8h-31.8V475.5z"/>
	</g>
	<g>
		<rect x="619.1" y="496.2" fill="#BCBEC0" width="161.8" height="80.9"/>
		<path d="M780.9,579H619.1c-1,0-1.9-0.8-1.9-1.9v-80.9c0-1,0.8-1.9,1.9-1.9h161.8c1,0,1.9,0.8,1.9,1.9v80.9
			C782.8,578.2,781.9,579,780.9,579z M621,575.2h158v-77.1H621V575.2z"/>
	</g>
	<g>
		<path d="M840.2,630.8H559.8c-1,0-1.9-0.8-1.9-1.9v-12.9c0-22.4,18.3-40.7,40.7-40.7h202.7c22.4,0,40.7,18.3,40.7,40.7v12.9
			C842.1,629.9,841.2,630.8,840.2,630.8z M561.7,627h276.6v-11.1c0-20.4-16.6-36.9-36.9-36.9H598.6c-20.4,0-36.9,16.6-36.9,36.9V627
			z"/>
	</g>
	<g>
		<polygon fill="#FFF6C8" points="893.1,214.9 871.5,177.6 893.1,140.3 936.1,140.3 957.7,177.6 936.1,214.9 		"/>
		<path d="M936.1,216.8h-43.1c-0.7,0-1.3-0.4-1.6-0.9l-21.5-37.3c-0.3-0.6-0.3-1.3,0-1.9l21.5-37.3c0.3-0.6,1-0.9,1.6-0.9h43.1
			c0.7,0,1.3,0.4,1.6,0.9l21.5,37.3c0.3,0.6,0.3,1.3,0,1.9l-21.5,37.3C937.4,216.4,936.8,216.8,936.1,216.8z M894.1,213H935
			l20.4-35.4L935,142.2h-40.9l-20.4,35.4L894.1,213z"/>
	</g>
	<g>
		<polygon fill="#FFF6C8" points="500.8,297.9 470.6,315.4 440.3,297.9 440.3,263.1 470.6,245.6 500.8,263.1 		"/>
		<path d="M470.6,317.3c-0.3,0-0.7-0.1-0.9-0.3l-30.2-17.4c-0.6-0.3-0.9-1-0.9-1.6v-34.9c0-0.7,0.4-1.3,0.9-1.6l30.2-17.4
			c0.6-0.3,1.3-0.3,1.9,0l30.2,17.4c0.6,0.3,0.9,1,0.9,1.6v34.9c0,0.7-0.4,1.3-0.9,1.6L471.5,317
			C471.2,317.2,470.9,317.3,470.6,317.3z M442.2,296.8l28.3,16.4l28.3-16.4v-32.7l-28.3-16.4l-28.3,16.4V296.8z"/>
	</g>
	<g>
		<polygon fill="#FFF6C8" points="538.2,361.3 508,378.7 477.8,361.3 477.8,326.4 508,309 538.2,326.4 		"/>
		<path d="M508,380.6c-0.3,0-0.7-0.1-0.9-0.3l-30.2-17.4c-0.6-0.3-0.9-1-0.9-1.6v-34.9c0-0.7,0.4-1.3,0.9-1.6l30.2-17.4
			c0.6-0.3,1.3-0.3,1.9,0l30.2,17.4c0.6,0.3,0.9,1,0.9,1.6v34.9c0,0.7-0.4,1.3-0.9,1.6l-30.2,17.4
			C508.6,380.5,508.3,380.6,508,380.6z M479.6,360.2l28.3,16.4l28.3-16.4v-32.7L508,311.2l-28.3,16.4V360.2z"/>
	</g>
	<g>
		<path d="M914.6,294c-1,0-1.9-0.8-1.9-1.9v-61.4c0-1,0.8-1.9,1.9-1.9c1,0,1.9,0.8,1.9,1.9v61.4C916.5,293.1,915.6,294,914.6,294z"
			/>
	</g>
	<g>
		<path d="M868.8,147.7c-0.4,0-0.7-0.1-1-0.3l-42.1-28c-0.9-0.6-1.1-1.7-0.5-2.6c0.6-0.9,1.7-1.1,2.6-0.5l42.1,28
			c0.9,0.6,1.1,1.7,0.5,2.6C870,147.4,869.4,147.7,868.8,147.7z"/>
	</g>
	<g>
		<path d="M957.7,328.3H855.3c-1,0-1.9-0.8-1.9-1.9c0-1,0.8-1.9,1.9-1.9h102.4c1,0,1.9,0.8,1.9,1.9
			C959.5,327.4,958.7,328.3,957.7,328.3z"/>
	</g>
	<g>
		<path d="M957.7,355.8H855.3c-1,0-1.9-0.8-1.9-1.9s0.8-1.9,1.9-1.9h102.4c1,0,1.9,0.8,1.9,1.9S958.7,355.8,957.7,355.8z"/>
	</g>
	<g>
		<path d="M957.7,383.3H855.3c-1,0-1.9-0.8-1.9-1.9c0-1,0.8-1.9,1.9-1.9h102.4c1,0,1.9,0.8,1.9,1.9
			C959.5,382.4,958.7,383.3,957.7,383.3z"/>
	</g>
	<g>
		<path fill="#FFFFFF" d="M840.5,326.4c0,4.3-3.5,7.8-7.8,7.8c-4.3,0-7.8-3.5-7.8-7.8c0-4.3,3.5-7.8,7.8-7.8
			C837,318.6,840.5,322.1,840.5,326.4z"/>
		<path d="M832.6,336.1c-5.4,0-9.7-4.4-9.7-9.7c0-5.4,4.4-9.7,9.7-9.7c5.3,0,9.7,4.4,9.7,9.7C842.3,331.7,838,336.1,832.6,336.1z
			 M832.6,320.5c-3.3,0-5.9,2.7-5.9,5.9c0,3.3,2.7,5.9,5.9,5.9c3.3,0,5.9-2.7,5.9-5.9C838.6,323.1,835.9,320.5,832.6,320.5z"/>
	</g>
	<g>
		<path fill="#FFFFFF" d="M542.6,107.3c0,3.1-2.5,5.5-5.5,5.5s-5.5-2.5-5.5-5.5c0-3.1,2.5-5.5,5.5-5.5S542.6,104.3,542.6,107.3z"/>
		<path d="M537,114.7c-4.1,0-7.4-3.3-7.4-7.4c0-4.1,3.3-7.4,7.4-7.4c4.1,0,7.4,3.3,7.4,7.4C544.5,111.4,541.1,114.7,537,114.7z
			 M537,103.7c-2,0-3.7,1.6-3.7,3.7c0,2,1.6,3.6,3.7,3.6c2,0,3.7-1.6,3.7-3.6C540.7,105.3,539.1,103.7,537,103.7z"/>
	</g>
	<g>
		<path fill="#FFFFFF" d="M542.6,129.3c0,3.1-2.5,5.5-5.5,5.5s-5.5-2.5-5.5-5.5c0-3.1,2.5-5.5,5.5-5.5S542.6,126.2,542.6,129.3z"/>
		<path d="M537,136.7c-4.1,0-7.4-3.3-7.4-7.4c0-4.1,3.3-7.4,7.4-7.4c4.1,0,7.4,3.3,7.4,7.4C544.5,133.4,541.1,136.7,537,136.7z
			 M537,125.6c-2,0-3.7,1.6-3.7,3.7c0,2,1.6,3.7,3.7,3.7c2,0,3.7-1.6,3.7-3.7C540.7,127.3,539.1,125.6,537,125.6z"/>
	</g>
	<g>
		<circle fill="#FFFFFF" cx="537" cy="151.3" r="5.5"/>
		<path d="M537,158.7c-4.1,0-7.4-3.3-7.4-7.4c0-4.1,3.3-7.4,7.4-7.4c4.1,0,7.4,3.3,7.4,7.4C544.5,155.4,541.1,158.7,537,158.7z
			 M537,147.6c-2,0-3.7,1.6-3.7,3.7c0,2,1.6,3.7,3.7,3.7c2,0,3.7-1.6,3.7-3.7C540.7,149.3,539.1,147.6,537,147.6z"/>
	</g>
	<g>
		<circle fill="#FFFFFF" cx="537" cy="173.3" r="5.5"/>
		<path d="M537,180.7c-4.1,0-7.4-3.3-7.4-7.4c0-4.1,3.3-7.4,7.4-7.4c4.1,0,7.4,3.3,7.4,7.4C544.5,177.3,541.1,180.7,537,180.7z
			 M537,169.6c-2,0-3.7,1.6-3.7,3.7c0,2,1.6,3.7,3.7,3.7c2,0,3.7-1.6,3.7-3.7C540.7,171.2,539.1,169.6,537,169.6z"/>
	</g>
	<g>
		<path fill="#FFFFFF" d="M840.5,353.9c0,4.3-3.5,7.8-7.8,7.8c-4.3,0-7.8-3.5-7.8-7.8s3.5-7.8,7.8-7.8
			C837,346.1,840.5,349.6,840.5,353.9z"/>
		<path d="M832.6,363.6c-5.4,0-9.7-4.4-9.7-9.7c0-5.4,4.4-9.7,9.7-9.7c5.3,0,9.7,4.4,9.7,9.7C842.3,359.2,838,363.6,832.6,363.6z
			 M832.6,348c-3.3,0-5.9,2.7-5.9,5.9c0,3.3,2.7,5.9,5.9,5.9c3.3,0,5.9-2.7,5.9-5.9C838.6,350.6,835.9,348,832.6,348z"/>
	</g>
	<g>
		<path fill="#FFFFFF" d="M840.5,381.4c0,4.3-3.5,7.8-7.8,7.8c-4.3,0-7.8-3.5-7.8-7.8c0-4.3,3.5-7.8,7.8-7.8
			C837,373.6,840.5,377.1,840.5,381.4z"/>
		<path d="M832.6,391.1c-5.4,0-9.7-4.4-9.7-9.7c0-5.4,4.4-9.7,9.7-9.7c5.3,0,9.7,4.4,9.7,9.7C842.3,386.7,838,391.1,832.6,391.1z
			 M832.6,375.5c-3.3,0-5.9,2.7-5.9,5.9c0,3.3,2.7,5.9,5.9,5.9c3.3,0,5.9-2.7,5.9-5.9C838.6,378.1,835.9,375.5,832.6,375.5z"/>
	</g>
	<g>
		<path d="M447.5,211.7c-2-0.5-3.3-2.5-2.9-4.5l0,0c0.5-2,2.5-3.3,4.5-2.8l0,0c2,0.5,3.3,2.4,2.9,4.5l0,0c-0.4,1.8-2,2.9-3.7,2.9
			l0,0C448.1,211.7,447.8,211.7,447.5,211.7z M479.6,202.5c-1.3-1.6-1.1-4,0.6-5.3l0,0c1.6-1.3,4-1,5.3,0.6l0,0c1.3,1.6,1,4-0.6,5.3
			l0,0c0,0,0,0,0,0l0,0c-0.7,0.6-1.5,0.8-2.3,0.8l0,0C481.4,203.9,480.3,203.5,479.6,202.5z M417.6,187.8c-0.9-1.9-0.1-4.1,1.7-5
			l0,0c1.9-0.9,4.1-0.1,5,1.8l0,0c0.9,1.8,0.1,4.1-1.7,5l0,0c-0.6,0.3-1.1,0.4-1.7,0.4l0,0C419.6,189.9,418.2,189.2,417.6,187.8z
			 M493.9,168.6C493.9,168.6,493.9,168.5,493.9,168.6L493.9,168.6c0-0.1,0-0.1,0-0.2l0,0c0-2.1,1.7-3.8,3.7-3.8l0,0
			c2.1,0,3.8,1.7,3.8,3.7l0,0c0,0,0,0.1,0,0.1l0,0c0,0,0,0.1,0,0.1l0,0c0,2.1-1.7,3.8-3.8,3.8l0,0
			C495.6,172.3,493.9,170.7,493.9,168.6z M501.5,168.4L501.5,168.4L501.5,168.4C501.5,168.4,501.5,168.4,501.5,168.4L501.5,168.4
			C501.5,168.4,501.5,168.4,501.5,168.4z M419.3,154.5c-1.9-0.9-2.7-3.1-1.8-5l0,0c0.9-1.9,3.1-2.7,5-1.8l0,0c1.9,0.9,2.7,3.2,1.8,5
			l0,0c-0.6,1.4-2,2.1-3.4,2.1l0,0C420.3,154.9,419.8,154.8,419.3,154.5z M480,139.9c-1.6-1.3-1.9-3.7-0.6-5.3l0,0
			c1.3-1.6,3.7-1.9,5.3-0.6l0,0c1.7,1.3,1.9,3.7,0.6,5.3l0,0c-0.8,0.9-1.8,1.4-3,1.4l0,0C481.5,140.7,480.7,140.4,480,139.9z
			 M444.5,130.1c-0.5-2,0.8-4.1,2.8-4.5l0,0c2-0.5,4.1,0.8,4.5,2.8l0,0c0.5,2-0.8,4-2.8,4.5l0,0c-0.3,0-0.6,0.1-0.8,0.1l0,0
			C446.5,133,444.9,131.8,444.5,130.1z"/>
	</g>
	<g>
		<path d="M1094.8,205.7c-2-0.5-3.3-2.5-2.9-4.5l0,0c0.5-2,2.5-3.3,4.5-2.8l0,0c2,0.5,3.3,2.5,2.8,4.5l0,0c-0.4,1.8-1.9,2.9-3.7,2.9
			l0,0C1095.4,205.8,1095.1,205.8,1094.8,205.7z M1126.8,196.6c-1.3-1.6-1-4,0.6-5.3l0,0c1.6-1.3,4-1,5.3,0.6l0,0
			c1.3,1.6,1.1,4-0.6,5.3l0,0c-0.7,0.5-1.5,0.8-2.4,0.8l0,0C1128.7,198,1127.6,197.5,1126.8,196.6z M1064.9,181.9L1064.9,181.9
			L1064.9,181.9c-0.9-1.9-0.2-4.1,1.7-5l0,0c1.9-0.9,4.1-0.1,5,1.8l0,0c0.9,1.8,0.1,4.1-1.8,5l0,0c-0.5,0.3-1.1,0.4-1.6,0.4l0,0
			C1066.8,184,1065.5,183.3,1064.9,181.9z M1141.2,162.7C1141.2,162.7,1141.2,162.6,1141.2,162.7L1141.2,162.7c0-0.1,0-0.1,0-0.2
			l0,0c0-2.1,1.7-3.8,3.7-3.8l0,0c2.1,0,3.8,1.7,3.8,3.8l0,0c0,0,0,0,0,0.1l0,0c0,0,0,0.1,0,0.1l0,0c0,2.1-1.7,3.8-3.8,3.8l0,0
			C1142.9,166.4,1141.2,164.8,1141.2,162.7z M1148.7,162.5L1148.7,162.5L1148.7,162.5C1148.7,162.5,1148.7,162.5,1148.7,162.5
			L1148.7,162.5L1148.7,162.5z M1066.5,148.6c-1.8-0.9-2.6-3.1-1.7-5l0,0l0,0l0,0c0.9-1.9,3.1-2.7,5-1.8l0,0c1.9,0.9,2.7,3.2,1.8,5
			v0c-0.6,1.3-2,2.1-3.4,2.1l0,0C1067.6,149,1067,148.9,1066.5,148.6z M1127.3,134c-1.6-1.3-1.9-3.7-0.6-5.3l0,0
			c1.3-1.6,3.7-1.9,5.3-0.6l0,0c1.6,1.3,1.9,3.7,0.6,5.3l0,0c-0.7,0.9-1.8,1.4-2.9,1.4l0,0C1128.8,134.8,1128,134.5,1127.3,134z
			 M1091.8,124.2c-0.5-2,0.8-4.1,2.8-4.5l0,0c2-0.5,4.1,0.8,4.5,2.8l0,0c0.5,2-0.8,4-2.8,4.5l0,0c-0.3,0.1-0.6,0.1-0.9,0.1l0,0
			C1093.8,127.1,1092.2,125.9,1091.8,124.2z"/>
	</g>
	<g>
		<path d="M1229.6,862.4c-1.8-1-2.4-3.4-1.4-5.1l0,0c1-1.8,3.3-2.4,5.1-1.4l0,0c1.8,1,2.4,3.4,1.4,5.1l0,0c-0.7,1.2-2,1.9-3.3,1.9
			l0,0C1230.8,862.9,1230.2,862.7,1229.6,862.4z M1262.5,861c-1.1-1.8-0.5-4.1,1.4-5.2l0,0c1.8-1.1,4.1-0.4,5.2,1.4l0,0
			c1,1.8,0.4,4.1-1.4,5.2l0,0c-0.6,0.3-1.2,0.5-1.9,0.5l0,0C1264.5,862.9,1263.2,862.2,1262.5,861z M1210.5,829.5
			c0-2.1,1.7-3.8,3.8-3.8l0,0c2.1,0,3.8,1.7,3.8,3.8l0,0c0,2.1-1.7,3.8-3.8,3.8l0,0C1212.2,833.2,1210.5,831.6,1210.5,829.5z
			 M1279.1,829.4L1279.1,829.4L1279.1,829.4c0-0.1,0-0.1,0-0.1l0,0c0-2.1,1.7-3.8,3.7-3.8l0,0c2.1,0,3.8,1.7,3.8,3.7l0,0
			c0,0,0,0.1,0,0.1l0,0v0l0,0c0,2.1-1.7,3.8-3.8,3.8l0,0C1280.8,833.2,1279.1,831.5,1279.1,829.4z M1279.1,829.3L1279.1,829.3
			L1279.1,829.3L1279.1,829.3L1279.1,829.3z M1228.1,801.6c-1.1-1.8-0.5-4.1,1.4-5.1l0,0c1.8-1.1,4.1-0.5,5.1,1.4l0,0
			c1.1,1.8,0.5,4.1-1.4,5.2l0,0c-0.6,0.3-1.2,0.5-1.9,0.5l0,0C1230.1,803.5,1228.8,802.8,1228.1,801.6z M1263.7,802.9
			c-1.8-1-2.4-3.3-1.4-5.1l0,0c1.1-1.8,3.4-2.4,5.2-1.4l0,0c1.8,1,2.4,3.3,1.4,5.1l0,0c-0.7,1.2-2,1.9-3.3,1.9l0,0
			C1265,803.4,1264.3,803.3,1263.7,802.9z"/>
	</g>
	<g>
		<path fill="#5992C1" d="M478,168.6c0,11.4-9.3,20.7-20.7,20.7c-11.4,0-20.7-9.2-20.7-20.7c0-11.4,9.3-20.7,20.7-20.7
			C468.7,147.9,478,157.2,478,168.6z"/>
		<path d="M457.3,191.1c-12.4,0-22.5-10.1-22.5-22.5c0-12.4,10.1-22.5,22.5-22.5c12.4,0,22.5,10.1,22.5,22.5
			C479.9,181,469.7,191.1,457.3,191.1z M457.3,149.8c-10.4,0-18.8,8.4-18.8,18.8c0,10.4,8.4,18.8,18.8,18.8
			c10.4,0,18.8-8.4,18.8-18.8C476.1,158.2,467.7,149.8,457.3,149.8z"/>
	</g>
	<g>
		<path d="M601.7,109.2h-50.2c-1,0-1.9-0.8-1.9-1.9c0-1,0.8-1.9,1.9-1.9h50.2c1,0,1.9,0.8,1.9,1.9
			C603.6,108.4,602.8,109.2,601.7,109.2z"/>
	</g>
	<g>
		<path d="M601.7,131.7h-50.2c-1,0-1.9-0.8-1.9-1.9s0.8-1.9,1.9-1.9h50.2c1,0,1.9,0.8,1.9,1.9S602.8,131.7,601.7,131.7z"/>
	</g>
	<g>
		<path d="M581.1,154.3h-29.6c-1,0-1.9-0.8-1.9-1.9c0-1,0.8-1.9,1.9-1.9h29.6c1,0,1.9,0.8,1.9,1.9
			C583,153.4,582.2,154.3,581.1,154.3z"/>
	</g>
	<g>
		<path d="M581.1,176.8h-29.6c-1,0-1.9-0.8-1.9-1.9c0-1,0.8-1.9,1.9-1.9h29.6c1,0,1.9,0.8,1.9,1.9C583,176,582.2,176.8,581.1,176.8z
			"/>
	</g>
	<g>
		<path d="M780.9,522.4h-77c-1,0-1.9-0.8-1.9-1.9s0.8-1.9,1.9-1.9h77c1,0,1.9,0.8,1.9,1.9S781.9,522.4,780.9,522.4z"/>
	</g>
	<g>
		<path d="M780.9,549.5h-77c-1,0-1.9-0.8-1.9-1.9s0.8-1.9,1.9-1.9h77c1,0,1.9,0.8,1.9,1.9S781.9,549.5,780.9,549.5z"/>
	</g>
	<g>
		<path d="M770.2,461.5h-34c-1,0-1.9-0.8-1.9-1.9s0.8-1.9,1.9-1.9h34c1,0,1.9,0.8,1.9,1.9S771.2,461.5,770.2,461.5z"/>
	</g>
	<g>
		<path d="M663.8,461.5h-34c-1,0-1.9-0.8-1.9-1.9s0.8-1.9,1.9-1.9h34c1,0,1.9,0.8,1.9,1.9S664.8,461.5,663.8,461.5z"/>
	</g>
	<g>
		<path d="M587.4,345.8h-38c-1,0-1.9-0.8-1.9-1.9c0-1,0.8-1.9,1.9-1.9h38c1,0,1.9,0.8,1.9,1.9C589.3,344.9,588.5,345.8,587.4,345.8z
			"/>
	</g>
	<g>
		<path d="M430.7,349.2c-0.3,0-0.7-0.1-1-0.3c-0.9-0.5-1.2-1.7-0.7-2.6l19.2-32.8c0.5-0.9,1.7-1.2,2.6-0.7c0.9,0.5,1.2,1.7,0.7,2.6
			l-19.2,32.8C432,348.9,431.4,349.2,430.7,349.2z"/>
	</g>
	<g>
		<g>
			<g>
				<rect x="1067.8" y="329.8" fill="#FFF6C8" width="99.1" height="30.5"/>
				<path d="M1167,362.2h-99.1c-1,0-1.9-0.8-1.9-1.9v-30.5c0-1,0.8-1.9,1.9-1.9h99.1c1,0,1.9,0.8,1.9,1.9v30.5
					C1168.9,361.3,1168,362.2,1167,362.2z M1069.7,358.4h95.4v-26.7h-95.4V358.4z"/>
			</g>
			<g>
				<g>
					<path d="M1174.4,541.3h-114c-0.7,0-1.3-0.4-1.6-0.9c-0.3-0.6-0.3-1.3,0-1.9l27.8-48.1V360.3c0-1,0.8-1.9,1.9-1.9h57.9
						c1,0,1.9,0.8,1.9,1.9v130.1l27.8,48.1c0.3,0.6,0.3,1.3,0,1.9C1175.7,541,1175.1,541.3,1174.4,541.3z M1063.7,537.6h107.5
						l-26.4-45.7c-0.2-0.3-0.3-0.6-0.3-0.9V362.2h-54.1v128.7c0,0.3-0.1,0.7-0.3,0.9L1063.7,537.6z"/>
				</g>
				<g>
					<path fill="#FF8F81" d="M1174.4,539.4h-114l-55.1,95.4c-9.9,17.1-1.8,31,17.9,31l188.3,0c19.7,0,27.8-14,17.9-31L1174.4,539.4z
						"/>
					<path d="M1211.5,667.7L1211.5,667.7l-188.3,0c-10.2,0-17.9-3.6-21.7-10.1c-3.7-6.5-3-14.9,2.1-23.8l55.1-95.4
						c0.3-0.6,1-0.9,1.6-0.9h114c0.7,0,1.3,0.4,1.6,0.9l55.1,95.4c5.1,8.9,5.9,17.3,2.1,23.8
						C1229.5,664.2,1221.8,667.7,1211.5,667.7z M1061.5,541.3l-54.5,94.4c-4.4,7.6-5.2,14.8-2.1,20c3,5.3,9.6,8.2,18.4,8.2l188.3,0
						c8.8,0,15.4-2.9,18.4-8.2c3-5.3,2.3-12.4-2.1-20l-54.5-94.4H1061.5z"/>
				</g>
			</g>
			<g>
				<path fill="#FFFFFF" d="M1099,578.7c0,8.2-6.6,14.8-14.8,14.8c-8.2,0-14.8-6.6-14.8-14.8c0-8.2,6.6-14.8,14.8-14.8
					C1092.4,563.9,1099,570.6,1099,578.7z"/>
				<path d="M1084.3,595.4c-9.2,0-16.7-7.5-16.7-16.7c0-9.2,7.5-16.7,16.7-16.7c9.2,0,16.7,7.5,16.7,16.7
					C1100.9,587.9,1093.5,595.4,1084.3,595.4z M1084.3,565.8c-7.1,0-12.9,5.8-12.9,12.9c0,7.1,5.8,12.9,12.9,12.9
					c7.1,0,12.9-5.8,12.9-12.9C1097.2,571.6,1091.4,565.8,1084.3,565.8z"/>
			</g>
			<g>
				<path fill="#FFFFFF" d="M1178.8,614.5c0,15.8-12.8,28.7-28.7,28.7c-15.8,0-28.7-12.8-28.7-28.7c0-15.8,12.8-28.7,28.7-28.7
					C1165.9,585.9,1178.8,598.7,1178.8,614.5z"/>
				<path d="M1150.1,645.1c-16.8,0-30.5-13.7-30.5-30.6c0-16.8,13.7-30.5,30.5-30.5c16.8,0,30.6,13.7,30.6,30.5
					C1180.7,631.4,1167,645.1,1150.1,645.1z M1150.1,587.8c-14.8,0-26.8,12-26.8,26.8c0,14.8,12,26.8,26.8,26.8s26.8-12,26.8-26.8
					C1176.9,599.8,1164.9,587.8,1150.1,587.8z"/>
			</g>
		</g>
		<g>
			<path d="M1086.7,305.8c-0.4,0-0.8-0.1-1.1-0.4c-0.8-0.6-1-1.8-0.4-2.6l35.7-49.8c0.6-0.8,1.8-1,2.6-0.4s1,1.8,0.4,2.6l-35.7,49.8
				C1087.9,305.5,1087.3,305.8,1086.7,305.8z"/>
		</g>
		<g>
			<path d="M1119.7,305.8c-0.4,0-0.8-0.1-1.1-0.4c-0.8-0.6-1-1.8-0.4-2.6l61.8-86.2c0.6-0.8,1.8-1,2.6-0.4c0.8,0.6,1,1.8,0.4,2.6
				l-61.8,86.2C1120.9,305.5,1120.3,305.8,1119.7,305.8z"/>
		</g>
		<g>
			<path d="M1152.8,305.8c-0.4,0-0.8-0.1-1.1-0.4c-0.8-0.6-1-1.8-0.4-2.6l35.7-49.8c0.6-0.8,1.8-1,2.6-0.4c0.8,0.6,1,1.8,0.4,2.6
				l-35.7,49.8C1153.9,305.5,1153.4,305.8,1152.8,305.8z"/>
		</g>
	</g>
	<g>
		<g>
			<path fill="#FF8F81" d="M118.4,162.7V204h12.6c3.5,0,6.4,2.9,6.4,6.4c0,3.5-2.9,6.4-6.4,6.4h-12.6v41.6h12.6
				c3.5,0,6.4,2.9,6.4,6.4c0,3.5-2.9,6.4-6.4,6.4h-12.6v41.6h12.6c3.5,0,6.4,2.9,6.4,6.4c0,3.5-2.9,6.4-6.4,6.4h-12.6v41.6h12.6
				c3.5,0,6.4,2.9,6.4,6.4c0,3.5-2.9,6.4-6.4,6.4h-12.6v41.4h204.8V162.7H118.4z"/>
			<path d="M323.1,423.4H118.4c-1,0-1.9-0.8-1.9-1.9v-41.4c0-1,0.8-1.9,1.9-1.9h12.6c2.5,0,4.5-2,4.5-4.5c0-2.5-2-4.5-4.5-4.5h-12.6
				c-1,0-1.9-0.8-1.9-1.9v-41.6c0-1,0.8-1.9,1.9-1.9h12.6c2.5,0,4.5-2,4.5-4.5c0-2.5-2-4.5-4.5-4.5h-12.6c-1,0-1.9-0.8-1.9-1.9
				v-41.6c0-1,0.8-1.9,1.9-1.9h12.6c2.5,0,4.5-2,4.5-4.5c0-2.5-2-4.5-4.5-4.5h-12.6c-1,0-1.9-0.8-1.9-1.9v-41.6c0-1,0.8-1.9,1.9-1.9
				h12.6c2.5,0,4.5-2,4.5-4.5c0-2.5-2-4.5-4.5-4.5h-12.6c-1,0-1.9-0.8-1.9-1.9v-41.4c0-1,0.8-1.9,1.9-1.9h204.8c1,0,1.9,0.8,1.9,1.9
				v258.8C325,422.5,324.2,423.4,323.1,423.4z M120.2,419.6h201v-255h-201v37.6h10.7c4.6,0,8.3,3.7,8.3,8.3c0,4.6-3.7,8.3-8.3,8.3
				h-10.7v37.9h10.7c4.6,0,8.3,3.7,8.3,8.3c0,4.6-3.7,8.3-8.3,8.3h-10.7V311h10.7c4.6,0,8.3,3.7,8.3,8.3c0,4.6-3.7,8.3-8.3,8.3
				h-10.7v37.9h10.7c4.6,0,8.3,3.7,8.3,8.3c0,4.6-3.7,8.3-8.3,8.3h-10.7V419.6z"/>
		</g>
		<g>
			<g>
				<path fill="#BCBEC0" d="M105.8,216.8h12.6h12.6c3.5,0,6.4-2.9,6.4-6.4c0-3.5-2.9-6.4-6.4-6.4h-12.6h-12.6
					c-3.5,0-6.4,2.9-6.4,6.4C99.4,214,102.3,216.8,105.8,216.8z"/>
				<path d="M130.9,218.7h-25.1c-4.6,0-8.3-3.7-8.3-8.3c0-4.6,3.7-8.3,8.3-8.3h25.1c4.6,0,8.3,3.7,8.3,8.3
					C139.2,215,135.5,218.7,130.9,218.7z M105.8,205.9c-2.5,0-4.5,2-4.5,4.5c0,2.5,2,4.5,4.5,4.5h25.1c2.5,0,4.5-2,4.5-4.5
					c0-2.5-2-4.5-4.5-4.5H105.8z"/>
			</g>
			<g>
				<path fill="#BCBEC0" d="M130.9,258.5h-12.6h-12.6c-3.5,0-6.4,2.9-6.4,6.4c0,3.5,2.9,6.4,6.4,6.4h12.6h12.6
					c3.5,0,6.4-2.9,6.4-6.4C137.3,261.3,134.5,258.5,130.9,258.5z"/>
				<path d="M130.9,273.1h-25.1c-4.6,0-8.3-3.7-8.3-8.3c0-4.6,3.7-8.3,8.3-8.3h25.1c4.6,0,8.3,3.7,8.3,8.3
					C139.2,269.4,135.5,273.1,130.9,273.1z M105.8,260.4c-2.5,0-4.5,2-4.5,4.5c0,2.5,2,4.5,4.5,4.5h25.1c2.5,0,4.5-2,4.5-4.5
					c0-2.5-2-4.5-4.5-4.5H105.8z"/>
			</g>
			<g>
				<path fill="#BCBEC0" d="M130.9,312.9h-12.6h-12.6c-3.5,0-6.4,2.9-6.4,6.4c0,3.5,2.9,6.4,6.4,6.4h12.6h12.6
					c3.5,0,6.4-2.9,6.4-6.4C137.3,315.8,134.5,312.9,130.9,312.9z"/>
				<path d="M130.9,327.6h-25.1c-4.6,0-8.3-3.7-8.3-8.3c0-4.6,3.7-8.3,8.3-8.3h25.1c4.6,0,8.3,3.7,8.3,8.3
					C139.2,323.9,135.5,327.6,130.9,327.6z M105.8,314.8c-2.5,0-4.5,2-4.5,4.5c0,2.5,2,4.5,4.5,4.5h25.1c2.5,0,4.5-2,4.5-4.5
					c0-2.5-2-4.5-4.5-4.5H105.8z"/>
			</g>
			<g>
				<path fill="#BCBEC0" d="M130.9,367.3h-12.6h-12.6c-3.5,0-6.4,2.9-6.4,6.4c0,3.5,2.9,6.4,6.4,6.4h12.6h12.6
					c3.5,0,6.4-2.9,6.4-6.4C137.3,370.2,134.5,367.3,130.9,367.3z"/>
				<path d="M130.9,382h-25.1c-4.6,0-8.3-3.7-8.3-8.3c0-4.6,3.7-8.3,8.3-8.3h25.1c4.6,0,8.3,3.7,8.3,8.3
					C139.2,378.3,135.5,382,130.9,382z M105.8,369.2c-2.5,0-4.5,2-4.5,4.5c0,2.5,2,4.5,4.5,4.5h25.1c2.5,0,4.5-2,4.5-4.5
					c0-2.5-2-4.5-4.5-4.5H105.8z"/>
			</g>
		</g>
		<g>
			<rect x="213.6" y="201.1" fill="#FFFFFF" width="76.1" height="49.1"/>
			<path d="M289.7,252h-76.1c-1,0-1.9-0.8-1.9-1.9v-49.1c0-1,0.8-1.9,1.9-1.9h76.1c1,0,1.9,0.8,1.9,1.9v49.1
				C291.6,251.2,290.8,252,289.7,252z M215.5,248.3h72.3V203h-72.3V248.3z"/>
		</g>
	</g>
	<g>
		<g>
			<path d="M1053.3,816.4c-4.5,0-8.8-1.6-12.3-4.4c-8.2-6.8-9.4-19-2.6-27.2c3.7-4.5,9.1-7,14.9-7c4.5,0,8.8,1.6,12.3,4.4
				c4,3.3,6.5,7.9,7,13.1c0.5,5.1-1,10.2-4.3,14.1C1064.6,813.8,1059.1,816.4,1053.3,816.4z M1053.4,781.5c-4.7,0-9.1,2.1-12,5.7
				c-5.5,6.6-4.5,16.5,2.1,21.9c2.8,2.3,6.3,3.5,9.9,3.5c4.7,0,9.1-2.1,12-5.7c2.6-3.2,3.9-7.3,3.5-11.4c-0.4-4.1-2.4-7.9-5.6-10.5
				C1060.5,782.7,1057,781.5,1053.4,781.5z"/>
		</g>
		<g>
			<path d="M1280.6,762.8C1280.6,762.8,1280.6,762.8,1280.6,762.8c-4.5,0-8.8-1.6-12.3-4.4c-4-3.3-6.5-7.9-7-13.1
				c-0.5-5.1,1-10.2,4.3-14.1c3.7-4.5,9.1-7,14.9-7c4.5,0,8.8,1.6,12.3,4.4c8.2,6.8,9.4,19,2.6,27.2
				C1291.9,760.3,1286.4,762.8,1280.6,762.8z M1280.6,727.9c-4.7,0-9.1,2.1-12,5.7c-2.6,3.2-3.9,7.3-3.5,11.4
				c0.4,4.1,2.4,7.9,5.6,10.5c2.8,2.3,6.3,3.5,9.9,3.5h0c4.7,0,9.1-2.1,12-5.7c5.5-6.6,4.5-16.4-2.1-21.9
				C1287.7,729.2,1284.2,727.9,1280.6,727.9z"/>
		</g>
		<g>
			<path d="M1165.2,886.8L1165.2,886.8c-4.5,0-8.8-1.6-12.3-4.4c-4-3.3-6.5-7.9-7-13.1c-0.5-5.1,1-10.2,4.3-14.1
				c3.7-4.5,9.1-7,14.9-7c4.5,0,8.8,1.6,12.3,4.4c4,3.3,6.5,7.9,6.9,13.1c0.5,5.1-1,10.2-4.3,14.1
				C1176.4,884.3,1171,886.8,1165.2,886.8z M1165.2,851.9c-4.7,0-9.1,2.1-12,5.7c-2.6,3.2-3.9,7.3-3.5,11.4
				c0.4,4.1,2.4,7.9,5.6,10.5c2.8,2.3,6.3,3.5,9.9,3.5c4.7,0,9.1-2.1,12-5.7c2.6-3.2,3.9-7.3,3.5-11.4c-0.4-4.1-2.4-7.9-5.6-10.5
				C1172.3,853.2,1168.8,851.9,1165.2,851.9z"/>
		</g>
		<g>
			<path fill="#5992C1" d="M1189.8,721.6c-13.9-11.5-34.6-9.5-46,4.5c-11.5,13.9-9.5,34.6,4.5,46c13.9,11.5,34.6,9.5,46-4.5
				C1205.7,753.7,1203.7,733.1,1189.8,721.6z"/>
			<path d="M1169,781.5L1169,781.5c-8,0-15.8-2.8-22-7.9c-14.7-12.1-16.8-34-4.7-48.7c6.6-8,16.3-12.6,26.7-12.6
				c8,0,15.8,2.8,22,7.9c14.7,12.1,16.8,34,4.7,48.7C1189.1,776.9,1179.4,781.5,1169,781.5z M1169,716.1c-9.3,0-17.9,4.1-23.8,11.2
				c-10.8,13.1-8.9,32.6,4.2,43.4c5.5,4.5,12.5,7,19.6,7c9.3,0,17.9-4.1,23.8-11.2c10.8-13.1,8.9-32.6-4.2-43.4
				C1183.1,718.6,1176.1,716.1,1169,716.1z"/>
		</g>
		<g>
			<path d="M1164.3,851.1C1164.3,851.1,1164.2,851.1,1164.3,851.1c-1.1,0-1.9-0.9-1.9-1.9l2.4-69.8c0-1,0.9-1.9,1.9-1.8
				c1,0,1.9,0.9,1.8,1.9l-2.4,69.8C1166.1,850.3,1165.3,851.1,1164.3,851.1z"/>
		</g>
		<g>
			<path d="M1067.8,789.1c-0.8,0-1.5-0.5-1.8-1.2c-0.4-1,0.1-2.1,1.1-2.4l71-27.9c1-0.4,2.1,0.1,2.4,1.1c0.4,1-0.1,2.1-1.1,2.4
				l-71,27.9C1068.2,789.1,1068,789.1,1067.8,789.1z"/>
		</g>
		<g>
			<path d="M1201.6,746.1c-1,0-1.8-0.8-1.9-1.8c0-1,0.8-1.9,1.8-1.9l60.9-2.2c1,0,1.9,0.8,1.9,1.8c0,1-0.8,1.9-1.8,1.9L1201.6,746.1
				C1201.6,746.1,1201.6,746.1,1201.6,746.1z"/>
		</g>
	</g>
	<g>
		<g>
			<path d="M1283.3,541.1c-0.5,0-1-0.2-1.4-0.6c-19.3-20.2-20.1-40.5-20.1-41.3l0-124.7c0-1,0.8-1.9,1.9-1.9h39.2
				c1,0,1.9,0.8,1.9,1.9v124.6c0,0.9-0.8,21.2-20.1,41.4C1284.3,540.9,1283.9,541.1,1283.3,541.1z M1265.6,376.3v122.8
				c0,0.1,0.8,18.7,17.7,37.3c16.9-18.6,17.7-37.2,17.7-37.4V376.3H1265.6z"/>
		</g>
		<g>
			<path d="M1283.3,555.7c-1,0-1.9-0.8-1.9-1.9v-14.6c0-1,0.8-1.9,1.9-1.9s1.9,0.8,1.9,1.9v14.6
				C1285.2,554.9,1284.4,555.7,1283.3,555.7z"/>
		</g>
		<g>
			<rect x="1266.8" y="166.7" fill="#FF8F81" width="33" height="20.9"/>
			<path d="M1299.8,189.5h-33c-1,0-1.9-0.8-1.9-1.9v-20.9c0-1,0.8-1.9,1.9-1.9h33c1,0,1.9,0.8,1.9,1.9v20.9
				C1301.7,188.6,1300.9,189.5,1299.8,189.5z M1268.7,185.7h29.2v-17.1h-29.2V185.7z"/>
		</g>
		<g>
			<path fill="#C4D1FF" d="M1257.5,317.7v49.6c0,3.9,3.2,7.1,7.1,7.1h0.3h36.8h0.3c3.9,0,7.1-3.2,7.1-7.1V241.9h-51.7V317.7z"/>
			<path d="M1302,376.3h-37.1c-5.3,0-9.3-4-9.3-9V241.9c0-1,0.8-1.9,1.9-1.9h51.7c1,0,1.9,0.8,1.9,1.9v125.4
				C1311.1,372.3,1307,376.3,1302,376.3z M1259.4,243.8v123.5c0,2.9,2.4,5.2,5.2,5.2h37.4c2.9,0,5.2-2.4,5.2-5.2V243.8H1259.4z"/>
		</g>
		<g>
			<path fill="#C4D1FF" d="M1302,187.6h-37.4c-3.9,0-7.1,3.2-7.1,7.1v22.5v9.8h51.7v-32.3C1309.2,190.8,1306,187.6,1302,187.6z"/>
			<path d="M1309.2,228.9h-51.7c-1,0-1.9-0.8-1.9-1.9v-32.3c0-5,4-9,9-9h37.4c5,0,9,4,9,9V227C1311.1,228,1310.2,228.9,1309.2,228.9
				z M1259.4,225.1h47.9v-30.4c0-2.9-2.4-5.2-5.2-5.2h-37.4c-2.9,0-5.2,2.4-5.2,5.2V225.1z"/>
		</g>
		<g>
			<g>
				<polygon fill="#FFF6C8" points="1257.5,227 1257.5,217.2 1241.5,217.2 1241.5,317.7 1257.5,317.7 1257.5,241.9 1309.2,241.9 
					1309.2,227 				"/>
			</g>
			<g>
				<path d="M1257.5,319.6h-16c-1,0-1.9-0.8-1.9-1.9V217.2c0-1,0.8-1.9,1.9-1.9h16c1,0,1.9,0.8,1.9,1.9v7.9h49.8
					c1,0,1.9,0.8,1.9,1.9v14.9c0,1-0.8,1.9-1.9,1.9h-49.8v73.9C1259.4,318.7,1258.5,319.6,1257.5,319.6z M1243.4,315.8h12.2v-73.9
					c0-1,0.8-1.9,1.9-1.9h49.8v-11.2h-49.8c-1,0-1.9-0.8-1.9-1.9v-7.9h-12.2V315.8z"/>
			</g>
		</g>
		<g>
			<g>
				<path d="M1249.5,319.6c-1,0-1.9-0.8-1.9-1.9v-65c0-1,0.8-1.9,1.9-1.9s1.9,0.8,1.9,1.9v65
					C1251.4,318.7,1250.5,319.6,1249.5,319.6z"/>
			</g>
		</g>
	</g>
	<g>
		<g>
			<g>
				<path fill="#5992C1" d="M445.8,762.5c-4.1,0-7.5-3.4-7.5-7.5v-81.6c0-4.1,3.4-7.5,7.5-7.5h508.3c4.1,0,7.5,3.4,7.5,7.5V755
					c0,4.1-3.4,7.5-7.5,7.5H445.8z"/>
			</g>
			<g>
				<path d="M954.2,764.4H445.8c-5.2,0-9.4-4.2-9.4-9.4v-81.6c0-5.2,4.2-9.4,9.4-9.4h508.3c5.2,0,9.4,4.2,9.4,9.4V755
					C963.6,760.2,959.4,764.4,954.2,764.4z M445.8,667.7c-3.1,0-5.6,2.5-5.6,5.6V755c0,3.1,2.5,5.6,5.6,5.6h508.3
					c3.1,0,5.6-2.5,5.6-5.6v-81.6c0-3.1-2.5-5.6-5.6-5.6H445.8z"/>
			</g>
		</g>
		<g>
			<g>
				<path d="M925.9,764.4c-1,0-1.9-0.8-1.9-1.9v-35.1c0-1,0.8-1.9,1.9-1.9c1,0,1.9,0.8,1.9,1.9v35.1
					C927.8,763.5,927,764.4,925.9,764.4z"/>
			</g>
		</g>
		<g>
			<g>
				<path d="M869.4,764.4c-1,0-1.9-0.8-1.9-1.9v-22c0-1,0.8-1.9,1.9-1.9c1,0,1.9,0.8,1.9,1.9v22
					C871.3,763.5,870.5,764.4,869.4,764.4z"/>
			</g>
		</g>
		<g>
			<g>
				<path d="M813,764.4c-1,0-1.9-0.8-1.9-1.9v-35.1c0-1,0.8-1.9,1.9-1.9c1,0,1.9,0.8,1.9,1.9v35.1C814.8,763.5,814,764.4,813,764.4z
					"/>
			</g>
		</g>
		<g>
			<g>
				<path d="M756.5,764.4c-1,0-1.9-0.8-1.9-1.9v-22c0-1,0.8-1.9,1.9-1.9s1.9,0.8,1.9,1.9v22C758.4,763.5,757.5,764.4,756.5,764.4z"
					/>
			</g>
		</g>
		<g>
			<g>
				<path d="M700,764.4c-1,0-1.9-0.8-1.9-1.9v-35.1c0-1,0.8-1.9,1.9-1.9s1.9,0.8,1.9,1.9v35.1C701.9,763.5,701,764.4,700,764.4z"/>
			</g>
		</g>
		<g>
			<g>
				<path d="M643.5,764.4c-1,0-1.9-0.8-1.9-1.9v-22c0-1,0.8-1.9,1.9-1.9c1,0,1.9,0.8,1.9,1.9v22
					C645.4,763.5,644.6,764.4,643.5,764.4z"/>
			</g>
		</g>
		<g>
			<g>
				<path d="M587,764.4c-1,0-1.9-0.8-1.9-1.9v-35.1c0-1,0.8-1.9,1.9-1.9s1.9,0.8,1.9,1.9v35.1C588.9,763.5,588.1,764.4,587,764.4z"
					/>
			</g>
		</g>
		<g>
			<g>
				<path d="M530.5,764.4c-1,0-1.9-0.8-1.9-1.9v-22c0-1,0.8-1.9,1.9-1.9c1,0,1.9,0.8,1.9,1.9v22
					C532.4,763.5,531.6,764.4,530.5,764.4z"/>
			</g>
		</g>
		<g>
			<g>
				<path d="M474.1,764.4c-1,0-1.9-0.8-1.9-1.9v-35.1c0-1,0.8-1.9,1.9-1.9c1,0,1.9,0.8,1.9,1.9v35.1
					C475.9,763.5,475.1,764.4,474.1,764.4z"/>
			</g>
		</g>
		<g>
			<g>
				<path d="M925.9,689.1H610.3c-1,0-1.9-0.8-1.9-1.9s0.8-1.9,1.9-1.9h315.7c1,0,1.9,0.8,1.9,1.9S927,689.1,925.9,689.1z"/>
			</g>
		</g>
		<g>
			<g>
				<circle fill="#FFFFFF" cx="502.3" cy="714.2" r="13.2"/>
			</g>
			<g>
				<path d="M502.3,729.2c-8.3,0-15.1-6.8-15.1-15.1c0-8.3,6.8-15.1,15.1-15.1c8.3,0,15.1,6.8,15.1,15.1
					C517.4,722.5,510.6,729.2,502.3,729.2z M502.3,702.9c-6.2,0-11.3,5.1-11.3,11.3s5.1,11.3,11.3,11.3c6.2,0,11.3-5.1,11.3-11.3
					S508.5,702.9,502.3,702.9z"/>
			</g>
		</g>
	</g>
	<g>
		<g>
			<g>
				<path d="M188.5,523.3h-57.9c-6.8,0-12.4-5.6-12.4-12.4c0-6.8,5.6-12.4,12.4-12.4h57.9c6.8,0,12.4,5.6,12.4,12.4
					C200.9,517.8,195.3,523.3,188.5,523.3z M130.5,502.3c-4.8,0-8.7,3.9-8.7,8.7c0,4.8,3.9,8.7,8.7,8.7h57.9c4.8,0,8.7-3.9,8.7-8.7
					c0-4.8-3.9-8.7-8.7-8.7H130.5z"/>
			</g>
		</g>
		<g>
			<g>
				<path d="M186.6,502.3h-54.2c-0.9,0-1.6-0.6-1.8-1.5l-6.5-28.1c-0.1-0.6,0-1.1,0.4-1.6c0.4-0.5,0.9-0.7,1.5-0.7h67.2
					c0.6,0,1.1,0.3,1.5,0.7c0.4,0.5,0.5,1,0.4,1.6l-6.5,28.1C188.2,501.7,187.5,502.3,186.6,502.3z M133.9,498.5h51.2l5.6-24.3
					h-62.5L133.9,498.5z"/>
			</g>
		</g>
		<g>
			<g>
				<path d="M159.5,547.9h-27.1c-1,0-1.9-0.8-1.9-1.9c0-1,0.8-1.9,1.9-1.9h27.1c1,0,1.9,0.8,1.9,1.9
					C161.4,547.1,160.5,547.9,159.5,547.9z"/>
			</g>
		</g>
		<g>
			<g>
				<path d="M159.5,585.8h-27.1c-1,0-1.9-0.8-1.9-1.9s0.8-1.9,1.9-1.9h27.1c1,0,1.9,0.8,1.9,1.9S160.5,585.8,159.5,585.8z"/>
			</g>
		</g>
		<g>
			<g>
				<path d="M159.5,623.7h-27.1c-1,0-1.9-0.8-1.9-1.9c0-1,0.8-1.9,1.9-1.9h27.1c1,0,1.9,0.8,1.9,1.9
					C161.4,622.8,160.5,623.7,159.5,623.7z"/>
			</g>
		</g>
		<g>
			<g>
				<path d="M159.5,661.6h-27.1c-1,0-1.9-0.8-1.9-1.9c0-1,0.8-1.9,1.9-1.9h27.1c1,0,1.9,0.8,1.9,1.9
					C161.4,660.7,160.5,661.6,159.5,661.6z"/>
			</g>
		</g>
	</g>
	<g>
		<g>
			<g>
				<path d="M311,523.3H253c-6.8,0-12.4-5.6-12.4-12.4c0-6.8,5.6-12.4,12.4-12.4H311c6.8,0,12.4,5.6,12.4,12.4
					C323.4,517.8,317.8,523.3,311,523.3z M253,502.3c-4.8,0-8.7,3.9-8.7,8.7c0,4.8,3.9,8.7,8.7,8.7H311c4.8,0,8.7-3.9,8.7-8.7
					c0-4.8-3.9-8.7-8.7-8.7H253z"/>
			</g>
		</g>
		<g>
			<g>
				<path d="M309.1,502.3h-54.2c-0.9,0-1.6-0.6-1.8-1.5l-6.5-28.1c-0.1-0.6,0-1.1,0.4-1.6c0.4-0.5,0.9-0.7,1.5-0.7h67.2
					c0.6,0,1.1,0.3,1.5,0.7c0.4,0.5,0.5,1,0.4,1.6l-6.5,28.1C310.7,501.7,310,502.3,309.1,502.3z M256.4,498.5h51.2l5.6-24.3h-62.5
					L256.4,498.5z"/>
			</g>
		</g>
		<g>
			<g>
				<path d="M282,547.9h-27.1c-1,0-1.9-0.8-1.9-1.9c0-1,0.8-1.9,1.9-1.9H282c1,0,1.9,0.8,1.9,1.9C283.9,547.1,283,547.9,282,547.9z"
					/>
			</g>
		</g>
		<g>
			<g>
				<path d="M282,585.8h-27.1c-1,0-1.9-0.8-1.9-1.9s0.8-1.9,1.9-1.9H282c1,0,1.9,0.8,1.9,1.9S283,585.8,282,585.8z"/>
			</g>
		</g>
		<g>
			<g>
				<path d="M282,623.7h-27.1c-1,0-1.9-0.8-1.9-1.9c0-1,0.8-1.9,1.9-1.9H282c1,0,1.9,0.8,1.9,1.9C283.9,622.8,283,623.7,282,623.7z"
					/>
			</g>
		</g>
		<g>
			<g>
				<path d="M282,661.6h-27.1c-1,0-1.9-0.8-1.9-1.9c0-1,0.8-1.9,1.9-1.9H282c1,0,1.9,0.8,1.9,1.9C283.9,660.7,283,661.6,282,661.6z"
					/>
			</g>
		</g>
	</g>
	<g>
		<g>
			<path d="M451.9,628.1c-1.3,0-2.6-0.6-3.9-1.7l-39.3-34.9c-1.7-1.5-2.6-3.5-2.6-5.6c0-2.1,0.9-4.1,2.6-5.6l39.3-34.9
				c1.3-1.2,2.6-1.7,3.9-1.7c1.9,0,4,1.4,4,5.3V559h56c4.6,0,8.3,3.7,8.3,8.3v37.2c0,4.6-3.7,8.3-8.3,8.3h-56v10.1
				C455.9,626.7,453.7,628.1,451.9,628.1z M451.8,547.4c-0.1,0-0.6,0.2-1.3,0.8l-39.3,34.9c-0.9,0.8-1.3,1.8-1.3,2.8
				s0.5,2.1,1.3,2.8l39.3,34.9c0.7,0.6,1.2,0.8,1.4,0.8v1.9l0-1.9c0,0,0.3-0.5,0.3-1.5v-12c0-1,0.8-1.9,1.9-1.9h57.9
				c2.5,0,4.5-2,4.5-4.5v-37.2c0-2.5-2-4.5-4.5-4.5H454c-1,0-1.9-0.8-1.9-1.9v-12C452.1,547.9,451.9,547.5,451.8,547.4z"/>
		</g>
	</g>
	<g>
		<g>
			<path d="M948.1,628.1c-1.9,0-4-1.4-4-5.3v-10.1h-56c-4.6,0-8.3-3.7-8.3-8.3v-37.2c0-4.6,3.7-8.3,8.3-8.3h56v-10.1
				c0-3.9,2.2-5.3,4-5.3c1.3,0,2.6,0.6,3.9,1.7l39.3,34.9c1.7,1.5,2.6,3.5,2.6,5.6c0,2.1-0.9,4.1-2.6,5.6L952,626.4
				C950.7,627.5,949.4,628.1,948.1,628.1z M888.1,562.8c-2.5,0-4.5,2-4.5,4.5v37.2c0,2.5,2,4.5,4.5,4.5H946c1,0,1.9,0.8,1.9,1.9v12
				c0,0.9,0.2,1.4,0.3,1.5c0.2,0,0.7-0.2,1.3-0.8l39.3-34.9c0.9-0.8,1.3-1.8,1.3-2.8s-0.5-2.1-1.3-2.8l-39.3-34.9
				c-0.7-0.6-1.2-0.8-1.4-0.8c0,0-0.3,0.5-0.3,1.5v12c0,1-0.8,1.9-1.9,1.9H888.1z"/>
		</g>
	</g>
	<g>
		<g>
			<rect x="134.4" y="779.6" fill="#FF8F81" width="174.4" height="113.9"/>
		</g>
		<g>
			<path d="M308.8,895.4H134.4c-1,0-1.9-0.8-1.9-1.9V779.6c0-1,0.8-1.9,1.9-1.9h174.4c1,0,1.9,0.8,1.9,1.9v113.9
				C310.7,894.6,309.8,895.4,308.8,895.4z M136.3,891.7h170.6V781.5H136.3V891.7z"/>
		</g>
	</g>
	<g>
		<g>
			<path d="M427.2,895.4H308.8c-1,0-1.9-0.8-1.9-1.9c0-1,0.8-1.9,1.9-1.9h118.4c1,0,1.9,0.8,1.9,1.9
				C429,894.6,428.2,895.4,427.2,895.4z"/>
		</g>
	</g>
	<g>
		<g>
			<path d="M1074.2,895.4h-73c-1,0-1.9-0.8-1.9-1.9c0-1,0.8-1.9,1.9-1.9h73c1,0,1.9,0.8,1.9,1.9
				C1076.1,894.6,1075.2,895.4,1074.2,895.4z"/>
		</g>
	</g>
	<g>
		<g>
			<path d="M1037.7,857.1h-36.5c-1,0-1.9-0.8-1.9-1.9c0-1,0.8-1.9,1.9-1.9h36.5c1,0,1.9,0.8,1.9,1.9
				C1039.6,856.3,1038.7,857.1,1037.7,857.1z"/>
		</g>
	</g>
	<g>
		<g>
			<path d="M384.2,859.6h-75.4c-1,0-1.9-0.8-1.9-1.9c0-1,0.8-1.9,1.9-1.9h75.4c1,0,1.9,0.8,1.9,1.9
				C386.1,858.8,385.2,859.6,384.2,859.6z"/>
		</g>
	</g>
	<g>
		<g>
			<path d="M165.3,859.6H59.6c-1,0-1.9-0.8-1.9-1.9c0-1,0.8-1.9,1.9-1.9h105.7c1,0,1.9,0.8,1.9,1.9
				C167.2,858.8,166.4,859.6,165.3,859.6z"/>
		</g>
	</g>
	<g>
		<g>
			<path d="M165.3,816.2h-49.4c-1,0-1.9-0.8-1.9-1.9c0-1,0.8-1.9,1.9-1.9h49.4c1,0,1.9,0.8,1.9,1.9
				C167.2,815.4,166.4,816.2,165.3,816.2z"/>
		</g>
	</g>
	<g>
		<g>
			<g>
				<path fill="#FFFFFF" d="M272.1,812.7c0,8.6-7,15.6-15.6,15.6c-8.6,0-15.6-7-15.6-15.6c0-8.6,7-15.6,15.6-15.6
					C265.1,797,272.1,804,272.1,812.7z"/>
			</g>
			<g>
				<path d="M256.4,830.2c-9.7,0-17.5-7.9-17.5-17.5s7.9-17.5,17.5-17.5c9.7,0,17.5,7.9,17.5,17.5S266.1,830.2,256.4,830.2z
					 M256.4,798.9c-7.6,0-13.8,6.2-13.8,13.8s6.2,13.8,13.8,13.8c7.6,0,13.8-6.2,13.8-13.8S264,798.9,256.4,798.9z"/>
			</g>
		</g>
		<g>
			<g>
				<path fill="#FFFFFF" d="M265.3,834.1l-8.8,28.1l-8.8-28.1c-11.7,2.7-20.4,13.1-20.4,25.6v16.4h58.5v-16.4
					C285.7,847.2,277,836.8,265.3,834.1z"/>
			</g>
			<g>
				<path d="M285.7,878h-58.5c-1,0-1.9-0.8-1.9-1.9v-16.4c0-13.2,9-24.5,21.9-27.5c1-0.2,1.9,0.3,2.2,1.3l7,22.4l7-22.4
					c0.3-0.9,1.3-1.5,2.2-1.3c12.9,3,21.9,14.3,21.9,27.5v16.4C287.6,877.1,286.7,878,285.7,878z M229.1,874.2h54.7v-14.5
					c0-10.9-7-20.2-17.3-23.4l-8.3,26.3c-0.5,1.6-3.1,1.6-3.6,0l-8.3-26.3c-10.2,3.1-17.3,12.5-17.3,23.4V874.2z"/>
			</g>
		</g>
	</g>
	<g>
		<g>
			<g>
				<path d="M447.1,864.2c0.5,8.4,3.3,15.1,8.3,20.1c5,5,11.7,7.4,20.3,7.4c7.5,0,13.8-1.9,18.8-5.6c5.7-4.1,8.6-9.7,8.6-16.9
					c0-7.4-3-13-9-16.8c-3-2-9.4-4.3-19.3-7c-0.1-0.1-0.7-0.3-1.7-0.5c-11.1-3.1-18.1-6-21.1-8.7c-4.6-4.1-6.8-9.4-6.8-16
					c0-8.2,2.9-14.5,8.6-18.9c5.3-4.2,12.1-6.3,20.4-6.3c9,0,16.3,2.5,21.7,7.4c5.6,4.9,8.7,11.9,9.1,20.9h-4.3
					c-0.2-7.8-2.8-13.9-7.9-18.2c-4.9-4.2-11.2-6.3-18.9-6.3c-7.2,0-12.9,1.8-17.3,5.4c-4.7,3.8-7.1,9.1-7.1,16.1c0,5,2,9.3,5.9,13
					c3,2.7,9.3,5.3,19,7.8c0.2,0.1,0.4,0.2,0.7,0.2c0.3,0,0.7,0.2,1.1,0.3c10.3,2.8,17.3,5.4,21.2,7.8c6.8,4.4,10.2,10.6,10.2,18.6
					c0,8.9-3.2,15.9-9.5,20.9c-5.8,4.5-13.3,6.7-22.5,6.7c-9.7,0-17.5-2.8-23.2-8.5c-5.8-5.5-9-13.1-9.7-22.9H447.1z"/>
			</g>
		</g>
		<g>
			<g>
				<path d="M586.5,886.7c-6.6,5.8-15.3,8.7-26,8.7c-13.8,0-24.1-5.1-31.1-15.2c-6-8.7-9-20.3-9-34.7s3.1-26.2,9.3-35.3
					c7.1-10.2,17.6-15.3,31.7-15.3c9.6,0,17.7,2.6,24.3,7.9c4.7,3.8,8.1,8.4,10.1,13.8l-4.2,2.1c-4.4-13.2-14.7-19.9-31-19.9
					c-12.1,0-21.2,5-27.5,14.9c-5.3,8.4-7.9,19-7.9,31.7c0,12.8,2.5,23.3,7.6,31.4c6.1,9.8,15.1,14.8,27.1,14.8
					c9.7,0,17.5-2.6,23.5-7.8c4.6-4,7.7-9.2,9.3-15.6l3.9,2C594.7,876.9,591.4,882.3,586.5,886.7z"/>
			</g>
		</g>
		<g>
			<g>
				<path d="M616.5,797.1h4.4v96.4h-4.4V797.1z"/>
			</g>
		</g>
		<g>
			<g>
				<path d="M643.6,797.1h58.9v4.3h-54.3v39.8h43.1v4.2h-43.1v43.9h55.7v4.3h-60.2V797.1z"/>
			</g>
		</g>
		<g>
			<g>
				<path d="M719.7,797.1h4.6l60.5,88.8v-88.8h4.4v96.4h-4.4l-60.6-88.7v88.7h-4.4V797.1z"/>
			</g>
		</g>
		<g>
			<g>
				<path d="M873.1,886.7c-6.6,5.8-15.3,8.7-26,8.7c-13.8,0-24.1-5.1-31.1-15.2c-6-8.7-9-20.3-9-34.7s3.1-26.2,9.3-35.3
					c7.1-10.2,17.6-15.3,31.7-15.3c9.6,0,17.7,2.6,24.3,7.9c4.7,3.8,8.1,8.4,10.1,13.8l-4.2,2.1c-4.4-13.2-14.7-19.9-31-19.9
					c-12.1,0-21.2,5-27.5,14.9c-5.3,8.4-7.9,19-7.9,31.7c0,12.8,2.5,23.3,7.6,31.4c6.1,9.8,15.1,14.8,27.1,14.8
					c9.7,0,17.5-2.6,23.5-7.8c4.7-4,7.7-9.2,9.3-15.6l3.9,2C881.4,876.9,878,882.3,873.1,886.7z"/>
			</g>
		</g>
		<g>
			<g>
				<path d="M902.5,797.1h58.9v4.3h-54.3v39.8h43.1v4.2h-43.1v43.9h55.7v4.3h-60.2V797.1z"/>
			</g>
		</g>
	</g>
</g>
</svg>
